ISO-10303-21;
HEADER;
FILE_DESCRIPTION (( 'STEP AP214' ),
    '1' );
FILE_NAME ('TO-204_197A-05.STEP',
    '2025-07-28T06:14:17',
    ( 'LENOVO' ),
    ( '' ),
    'SwSTEP 2.0',
    'SolidWorks 2021',
    '' );
FILE_SCHEMA (( 'AUTOMOTIVE_DESIGN' ));
ENDSEC;

DATA;
#1 = FACE_OUTER_BOUND ( 'NONE', #283, .T. ) ;
#2 = LINE ( 'NONE', #405, #822 ) ;
#3 = FACE_BOUND ( 'NONE', #172, .T. ) ;
#4 = AXIS2_PLACEMENT_3D ( 'NONE', #62, #1119, #923 ) ;
#5 = CARTESIAN_POINT ( 'NONE',  ( -0.5934999999999999165, 0.06500000000000000222, -0.07899999999999998690 ) ) ;
#6 = EDGE_CURVE ( 'NONE', #280, #692, #316, .T. ) ;
#7 = LINE ( 'NONE', #693, #853 ) ;
#8 = ADVANCED_FACE ( 'NONE', ( #1126 ), #735, .T. ) ;
#9 = DIRECTION ( 'NONE',  ( 0.000000000000000000, -1.000000000000000000, 0.000000000000000000 ) ) ;
#10 = LINE ( 'NONE', #327, #418 ) ;
#11 = CYLINDRICAL_SURFACE ( 'NONE', #391, 0.07499999999999998335 ) ;
#12 = CARTESIAN_POINT ( 'NONE',  ( 0.7353228748631875922, 0.06500000000000000222, 0.06207068311961422974 ) ) ;
#13 = AXIS2_PLACEMENT_3D ( 'NONE', #417, #403, #492 ) ;
#14 = DIRECTION ( 'NONE',  ( 0.000000000000000000, -1.000000000000000000, 0.000000000000000000 ) ) ;
#15 = LINE ( 'NONE', #127, #32 ) ;
#16 = CARTESIAN_POINT ( 'NONE',  ( 0.3202152499087922433, 0.000000000000000000, -0.3969410456552081023 ) ) ;
#17 = SURFACE_STYLE_USAGE ( .BOTH. , #1084 ) ;
#18 = APPLICATION_PROTOCOL_DEFINITION ( 'draft international standard', 'automotive_design', 1998, #1179 ) ;
#19 = AXIS2_PLACEMENT_3D ( 'NONE', #475, #950, #564 ) ;
#20 = DIRECTION ( 'NONE',  ( 0.000000000000000000, 0.000000000000000000, -1.000000000000000000 ) ) ;
#21 = EDGE_CURVE ( 'NONE', #617, #918, #719, .T. ) ;
#22 = CARTESIAN_POINT ( 'NONE',  ( -0.07150000000000059086, 0.2321320343559641897, -0.2149999999999992195 ) ) ;
#23 = CYLINDRICAL_SURFACE ( 'NONE', #816, 0.07975000000000033451 ) ;
#24 =( NAMED_UNIT ( * ) SI_UNIT ( $, .STERADIAN. ) SOLID_ANGLE_UNIT ( ) );
#25 = CYLINDRICAL_SURFACE ( 'NONE', #509, 0.3975000000000000200 ) ;
#26 = DIMENSIONAL_EXPONENTS ( 1.000000000000000000, 0.000000000000000000, 0.000000000000000000, 0.000000000000000000, 0.000000000000000000, 0.000000000000000000, 0.000000000000000000 ) ;
#27 = AXIS2_PLACEMENT_3D ( 'NONE', #799, #811, #20 ) ;
#28 = ADVANCED_FACE ( 'NONE', ( #294 ), #1144, .F. ) ;
#29 = FACE_BOUND ( 'NONE', #250, .T. ) ;
#30 = DIRECTION ( 'NONE',  ( 0.000000000000000000, 0.000000000000000000, 1.000000000000000000 ) ) ;
#31 = MANIFOLD_SOLID_BREP ( 'Boss-Extrude3[1]', #220 ) ;
#32 = VECTOR ( 'NONE', #9, 39.37007874015748143 ) ;
#33 = CARTESIAN_POINT ( 'NONE',  ( -0.07150000000000004963, -0.4799999999999999822, 0.2449999999999992184 ) ) ;
#34 = CARTESIAN_POINT ( 'NONE',  ( -0.5934999999999999165, 0.06500000000000000222, 0.000000000000000000 ) ) ;
#35 = FACE_OUTER_BOUND ( 'NONE', #244, .T. ) ;
#36 = EDGE_CURVE ( 'NONE', #227, #235, #296, .T. ) ;
#37 = FACE_BOUND ( 'NONE', #528, .T. ) ;
#38 = CARTESIAN_POINT ( 'NONE',  ( 0.5934999999999999165, 0.06500000000000000222, 0.07899999999999926525 ) ) ;
#39 = EDGE_CURVE ( 'NONE', #1012, #274, #725, .T. ) ;
#40 = DIRECTION ( 'NONE',  ( 0.000000000000000000, 0.000000000000000000, -1.000000000000000000 ) ) ;
#41 = CIRCLE ( 'NONE', #525, 0.07499999999999998335 ) ;
#42 = DIRECTION ( 'NONE',  ( 0.000000000000000000, 0.000000000000000000, 1.000000000000000000 ) ) ;
#43 = DIRECTION ( 'NONE',  ( 0.7783157757945244892, 0.000000000000000000, -0.6278730390368481018 ) ) ;
#44 = CIRCLE ( 'NONE', #1164, 0.07899999999999998690 ) ;
#45 = CARTESIAN_POINT ( 'NONE',  ( -0.07150000000000004963, 0.000000000000000000, 0.2449999999999992184 ) ) ;
#46 = MECHANICAL_DESIGN_GEOMETRIC_PRESENTATION_REPRESENTATION (  '', ( #104 ), #798 ) ;
#47 = EDGE_CURVE ( 'NONE', #666, #234, #1131, .T. ) ;
#48 = VECTOR ( 'NONE', #432, 39.37007874015748143 ) ;
#49 = DIRECTION ( 'NONE',  ( 0.000000000000000000, 0.000000000000000000, 1.000000000000000000 ) ) ;
#50 = LENGTH_MEASURE_WITH_UNIT ( LENGTH_MEASURE( 0.02539999999999999897 ), #94 );
#51 = EDGE_CURVE ( 'NONE', #1051, #185, #713, .T. ) ;
#52 = PLANE ( 'NONE',  #780 ) ;
#53 = CIRCLE ( 'NONE', #674, 0.02500000000000000486 ) ;
#54 = DIRECTION ( 'NONE',  ( 0.000000000000000000, -0.000000000000000000, 1.000000000000000000 ) ) ;
#55 = DIRECTION ( 'NONE',  ( 0.000000000000000000, 1.000000000000000000, 0.000000000000000000 ) ) ;
#56 = PRESENTATION_STYLE_ASSIGNMENT (( #140 ) ) ;
#57 = MECHANICAL_DESIGN_GEOMETRIC_PRESENTATION_REPRESENTATION (  '', ( #439 ), #746 ) ;
#58 = CARTESIAN_POINT ( 'NONE',  ( -0.07150000000000059086, -0.4799999999999999822, -0.1849999999999991929 ) ) ;
#59 = CIRCLE ( 'NONE', #635, 0.07499999999999998335 ) ;
#60 = EDGE_CURVE ( 'NONE', #1034, #111, #311, .T. ) ;
#61 = COLOUR_RGB ( '',0.7921568627450980005, 0.8196078431372548767, 0.9333333333333333481 ) ;
#62 = CARTESIAN_POINT ( 'NONE',  ( -0.07150000000000004963, 0.000000000000000000, 0.2149999999999992195 ) ) ;
#63 = VERTEX_POINT ( 'NONE', #1103 ) ;
#64 = CARTESIAN_POINT ( 'NONE',  ( -0.07150000000000059086, 0.01999999999999999001, -0.2149999999999992195 ) ) ;
#65 = ORIENTED_EDGE ( 'NONE', *, *, #820, .F. ) ;
#66 = AXIS2_PLACEMENT_3D ( 'NONE', #86, #866, #775 ) ;
#67 = ORIENTED_EDGE ( 'NONE', *, *, #92, .T. ) ;
#68 = LENGTH_MEASURE_WITH_UNIT ( LENGTH_MEASURE( 0.02539999999999999897 ), #994 );
#69 = DIRECTION ( 'NONE',  ( 0.000000000000000000, 0.000000000000000000, 1.000000000000000000 ) ) ;
#70 = ORIENTED_EDGE ( 'NONE', *, *, #801, .F. ) ;
#71 = VERTEX_POINT ( 'NONE', #838 ) ;
#72 = PLANE ( 'NONE',  #724 ) ;
#73 = DIRECTION ( 'NONE',  ( 0.000000000000000000, 1.000000000000000000, 0.000000000000000000 ) ) ;
#74 = AXIS2_PLACEMENT_3D ( 'NONE', #314, #408, #247 ) ;
#75 = ORIENTED_EDGE ( 'NONE', *, *, #820, .T. ) ;
#76 = CARTESIAN_POINT ( 'NONE',  ( -0.07150000000000004963, 0.000000000000000000, 0.1849999999999991929 ) ) ;
#77 = UNCERTAINTY_MEASURE_WITH_UNIT (LENGTH_MEASURE( 1.000000000000000082E-05 ), #1108, 'distance_accuracy_value', 'NONE');
#78 = ORIENTED_EDGE ( 'NONE', *, *, #298, .F. ) ;
#79 = DIRECTION ( 'NONE',  ( -0.000000000000000000, -1.000000000000000000, -0.000000000000000000 ) ) ;
#80 = AXIS2_PLACEMENT_3D ( 'NONE', #568, #772, #1083 ) ;
#81 = ORIENTED_EDGE ( 'NONE', *, *, #51, .T. ) ;
#82 = DIRECTION ( 'NONE',  ( 0.000000000000000000, 1.000000000000000000, 0.000000000000000000 ) ) ;
#83 = ADVANCED_FACE ( 'NONE', ( #707 ), #303, .T. ) ;
#84 = AXIS2_PLACEMENT_3D ( 'NONE', #844, #929, #1222 ) ;
#85 = ORIENTED_EDGE ( 'NONE', *, *, #124, .T. ) ;
#86 = CARTESIAN_POINT ( 'NONE',  ( 0.000000000000000000, 0.06500000000000000222, 0.000000000000000000 ) ) ;
#87 = DIRECTION ( 'NONE',  ( -0.7783157757945243782, -0.000000000000000000, 0.6278730390368481018 ) ) ;
#88 = ORIENTED_EDGE ( 'NONE', *, *, #850, .F. ) ;
#89 = PLANE ( 'NONE',  #739 ) ;
#90 = ORIENTED_EDGE ( 'NONE', *, *, #60, .T. ) ;
#91 = AXIS2_PLACEMENT_3D ( 'NONE', #100, #173, #704 ) ;
#92 = EDGE_CURVE ( 'NONE', #993, #1073, #717, .T. ) ;
#93 = ORIENTED_EDGE ( 'NONE', *, *, #425, .T. ) ;
#94 =( LENGTH_UNIT ( ) NAMED_UNIT ( * ) SI_UNIT ( $, .METRE. ) );
#95 = ADVANCED_FACE ( 'NONE', ( #1125 ), #308, .T. ) ;
#96 = ORIENTED_EDGE ( 'NONE', *, *, #686, .T. ) ;
#97 = FILL_AREA_STYLE ('',( #393 ) ) ;
#98 = EDGE_CURVE ( 'NONE', #274, #305, #1139, .T. ) ;
#99 = VERTEX_POINT ( 'NONE', #800 ) ;
#100 = CARTESIAN_POINT ( 'NONE',  ( -0.07150000000000059086, 0.02000000000000000042, -0.2149999999999992195 ) ) ;
#101 = DIRECTION ( 'NONE',  ( 0.000000000000000000, 1.000000000000000000, 0.000000000000000000 ) ) ;
#102 = DIRECTION ( 'NONE',  ( 0.000000000000000000, 0.000000000000000000, 1.000000000000000000 ) ) ;
#103 = FILL_AREA_STYLE ('',( #501 ) ) ;
#104 = STYLED_ITEM ( 'NONE', ( #481 ), #485 ) ;
#105 = CARTESIAN_POINT ( 'NONE',  ( -0.07150000000000003575, 0.02000000000000000042, 0.2899999999999992029 ) ) ;
#106 = ORIENTED_EDGE ( 'NONE', *, *, #1075, .F. ) ;
#107 = DIRECTION ( 'NONE',  ( 0.000000000000000000, 0.000000000000000000, -1.000000000000000000 ) ) ;
#108 = EDGE_CURVE ( 'NONE', #519, #617, #374, .T. ) ;
#109 = DIRECTION ( 'NONE',  ( 0.000000000000000000, -1.000000000000000000, 0.000000000000000000 ) ) ;
#110 = DIRECTION ( 'NONE',  ( 0.000000000000000000, 1.000000000000000000, 0.000000000000000000 ) ) ;
#111 = VERTEX_POINT ( 'NONE', #38 ) ;
#112 = EDGE_CURVE ( 'NONE', #278, #1006, #1208, .T. ) ;
#113 = PRODUCT_CONTEXT ( 'NONE', #1179, 'mechanical' ) ;
#114 = DIRECTION ( 'NONE',  ( 0.000000000000000000, 0.000000000000000000, -1.000000000000000000 ) ) ;
#115 = CARTESIAN_POINT ( 'NONE',  ( -0.07150000000000059086, -0.4799999999999999822, -0.2449999999999992184 ) ) ;
#116 = ORIENTED_EDGE ( 'NONE', *, *, #345, .F. ) ;
#117 = DIRECTION ( 'NONE',  ( 0.000000000000000000, 0.000000000000000000, -1.000000000000000000 ) ) ;
#118 = ORIENTED_EDGE ( 'NONE', *, *, #281, .F. ) ;
#119 = DIRECTION ( 'NONE',  ( -0.000000000000000000, 1.000000000000000000, -0.000000000000000000 ) ) ;
#120 = DIRECTION ( 'NONE',  ( -0.000000000000000000, -1.000000000000000000, -0.000000000000000000 ) ) ;
#121 = ORIENTED_EDGE ( 'NONE', *, *, #1189, .T. ) ;
#122 =( NAMED_UNIT ( * ) PLANE_ANGLE_UNIT ( ) SI_UNIT ( $, .RADIAN. ) );
#123 = AXIS2_PLACEMENT_3D ( 'NONE', #625, #199, #225 ) ;
#124 = EDGE_CURVE ( 'NONE', #245, #643, #378, .T. ) ;
#125 = DIMENSIONAL_EXPONENTS ( 1.000000000000000000, 0.000000000000000000, 0.000000000000000000, 0.000000000000000000, 0.000000000000000000, 0.000000000000000000, 0.000000000000000000 ) ;
#126 = CARTESIAN_POINT ( 'NONE',  ( 0.5934999999999999165, 0.06500000000000000222, -0.07900000000000062528 ) ) ;
#127 = CARTESIAN_POINT ( 'NONE',  ( -0.07150000000000059086, 0.2321320343559641897, -0.2899999999999992029 ) ) ;
#128 = AXIS2_PLACEMENT_3D ( 'NONE', #414, #130, #1097 ) ;
#129 = CARTESIAN_POINT ( 'NONE',  ( -0.7353228748631885914, 0.06500000000000000222, -0.06207068311961341095 ) ) ;
#130 = DIRECTION ( 'NONE',  ( 0.6278730390368484349, 0.000000000000000000, -0.7783157757945243782 ) ) ;
#131 = AXIS2_PLACEMENT_3D ( 'NONE', #730, #880, #102 ) ;
#132 = DIRECTION ( 'NONE',  ( 0.000000000000000000, -1.000000000000000000, 0.000000000000000000 ) ) ;
#133 = AXIS2_PLACEMENT_3D ( 'NONE', #1175, #109, #610 ) ;
#134 = DIRECTION ( 'NONE',  ( 0.000000000000000000, 0.000000000000000000, -1.000000000000000000 ) ) ;
#135 = CARTESIAN_POINT ( 'NONE',  ( 0.5934999999999999165, 0.06500000000000000222, -6.829619984160658046E-16 ) ) ;
#136 = CARTESIAN_POINT ( 'NONE',  ( -0.07150000000000004963, 0.02000000000000000042, 0.2149999999999992195 ) ) ;
#137 = DIRECTION ( 'NONE',  ( 0.000000000000000000, 0.000000000000000000, 1.000000000000000000 ) ) ;
#138 = AXIS2_PLACEMENT_3D ( 'NONE', #1031, #82, #1150 ) ;
#139 = EDGE_CURVE ( 'NONE', #1069, #1015, #796, .T. ) ;
#140 = SURFACE_STYLE_USAGE ( .BOTH. , #377 ) ;
#141 = ORIENTED_EDGE ( 'NONE', *, *, #493, .T. ) ;
#142 = ORIENTED_EDGE ( 'NONE', *, *, #60, .F. ) ;
#143 = EDGE_CURVE ( 'NONE', #681, #210, #802, .T. ) ;
#144 = CARTESIAN_POINT ( 'NONE',  ( -0.5934999999999999165, 0.000000000000000000, 0.000000000000000000 ) ) ;
#145 = CARTESIAN_POINT ( 'NONE',  ( -0.07150000000000059086, 0.02000000000000000042, -0.2149999999999992195 ) ) ;
#146 = ORIENTED_EDGE ( 'NONE', *, *, #1158, .F. ) ;
#147 = CARTESIAN_POINT ( 'NONE',  ( -0.7353228748631885914, 0.000000000000000000, 0.06207068311961341095 ) ) ;
#148 = ORIENTED_EDGE ( 'NONE', *, *, #1110, .T. ) ;
#149 = CARTESIAN_POINT ( 'NONE',  ( -0.7353228748631885914, 0.000000000000000000, 0.06207068311961341095 ) ) ;
#150 = ORIENTED_EDGE ( 'NONE', *, *, #318, .F. ) ;
#151 = EDGE_LOOP ( 'NONE', ( #1028, #1059 ) ) ;
#152 = DIRECTION ( 'NONE',  ( 0.000000000000000000, -0.000000000000000000, -1.000000000000000000 ) ) ;
#153 = CARTESIAN_POINT ( 'NONE',  ( -2.731847993664263218E-16, 0.06500000000000000222, 0.000000000000000000 ) ) ;
#154 = ORIENTED_EDGE ( 'NONE', *, *, #511, .T. ) ;
#155 =( GEOMETRIC_REPRESENTATION_CONTEXT ( 3 ) GLOBAL_UNCERTAINTY_ASSIGNED_CONTEXT ( ( #750 ) ) GLOBAL_UNIT_ASSIGNED_CONTEXT ( ( #916, #1226, #1202 ) ) REPRESENTATION_CONTEXT ( 'NONE', 'WORKASPACE' ) );
#156 = DIRECTION ( 'NONE',  ( 0.000000000000000000, 0.000000000000000000, -1.000000000000000000 ) ) ;
#157 = EDGE_CURVE ( 'NONE', #648, #169, #1212, .T. ) ;
#158 = EDGE_LOOP ( 'NONE', ( #983, #639, #942, #628 ) ) ;
#159 = CARTESIAN_POINT ( 'NONE',  ( 0.7353228748631885914, 0.06500000000000000222, -0.06207068311961422974 ) ) ;
#160 = VERTEX_POINT ( 'NONE', #706 ) ;
#161 = EDGE_CURVE ( 'NONE', #643, #245, #718, .T. ) ;
#162 = ORIENTED_EDGE ( 'NONE', *, *, #161, .T. ) ;
#163 = DIRECTION ( 'NONE',  ( 0.000000000000000000, -0.000000000000000000, -1.000000000000000000 ) ) ;
#164 = PLANE ( 'NONE',  #951 ) ;
#165 = VERTEX_POINT ( 'NONE', #715 ) ;
#166 = DIRECTION ( 'NONE',  ( -0.000000000000000000, 1.000000000000000000, -0.000000000000000000 ) ) ;
#167 = ADVANCED_FACE ( 'NONE', ( #1133 ), #524, .F. ) ;
#168 = ORIENTED_EDGE ( 'NONE', *, *, #1029, .F. ) ;
#169 = VERTEX_POINT ( 'NONE', #1114 ) ;
#170 = ORIENTED_EDGE ( 'NONE', *, *, #318, .T. ) ;
#171 = PRODUCT_RELATED_PRODUCT_CATEGORY ( 'part', '', ( #703 ) ) ;
#172 = EDGE_LOOP ( 'NONE', ( #146, #608 ) ) ;
#173 = DIRECTION ( 'NONE',  ( -0.000000000000000000, -1.000000000000000000, -0.000000000000000000 ) ) ;
#174 = EDGE_LOOP ( 'NONE', ( #90, #1032, #588, #1076 ) ) ;
#175 = ORIENTED_EDGE ( 'NONE', *, *, #556, .F. ) ;
#176 = ORIENTED_EDGE ( 'NONE', *, *, #47, .F. ) ;
#177 = DIRECTION ( 'NONE',  ( -0.000000000000000000, -1.000000000000000000, -0.000000000000000000 ) ) ;
#178 = CARTESIAN_POINT ( 'NONE',  ( -0.3202152499087925763, 0.06500000000000000222, 0.3969410456552076583 ) ) ;
#179 = STYLED_ITEM ( 'NONE', ( #56 ), #436 ) ;
#180 = VERTEX_POINT ( 'NONE', #530 ) ;
#181 = EDGE_LOOP ( 'NONE', ( #65, #615, #1065, #1000 ) ) ;
#182 = ORIENTED_EDGE ( 'NONE', *, *, #973, .T. ) ;
#183 = DIRECTION ( 'NONE',  ( -0.000000000000000000, 1.000000000000000000, -0.000000000000000000 ) ) ;
#184 = EDGE_CURVE ( 'NONE', #692, #1100, #300, .T. ) ;
#185 = VERTEX_POINT ( 'NONE', #1214 ) ;
#186 = ADVANCED_FACE ( 'NONE', ( #304 ), #164, .F. ) ;
#187 = DIRECTION ( 'NONE',  ( -0.000000000000000000, -1.000000000000000000, -0.000000000000000000 ) ) ;
#188 = ORIENTED_EDGE ( 'NONE', *, *, #124, .F. ) ;
#189 = ADVANCED_FACE ( 'NONE', ( #1138 ), #943, .F. ) ;
#190 = ADVANCED_FACE ( 'NONE', ( #195 ), #459, .T. ) ;
#191 = ORIENTED_EDGE ( 'NONE', *, *, #953, .F. ) ;
#192 = CARTESIAN_POINT ( 'NONE',  ( -0.6852500000000000258, 0.000000000000000000, 0.000000000000000000 ) ) ;
#193 = ORIENTED_EDGE ( 'NONE', *, *, #453, .T. ) ;
#194 = ORIENTED_EDGE ( 'NONE', *, *, #644, .F. ) ;
#195 = FACE_OUTER_BOUND ( 'NONE', #630, .T. ) ;
#196 = AXIS2_PLACEMENT_3D ( 'NONE', #398, #1057, #558 ) ;
#197 = ORIENTED_EDGE ( 'NONE', *, *, #963, .T. ) ;
#198 = EDGE_LOOP ( 'NONE', ( #218, #947 ) ) ;
#199 = DIRECTION ( 'NONE',  ( 0.000000000000000000, 1.000000000000000000, 0.000000000000000000 ) ) ;
#200 = ORIENTED_EDGE ( 'NONE', *, *, #265, .F. ) ;
#201 = AXIS2_PLACEMENT_3D ( 'NONE', #680, #1007, #277 ) ;
#202 = ORIENTED_EDGE ( 'NONE', *, *, #1154, .F. ) ;
#203 = ORIENTED_EDGE ( 'NONE', *, *, #353, .T. ) ;
#204 = ORIENTED_EDGE ( 'NONE', *, *, #1200, .F. ) ;
#205 = VERTEX_POINT ( 'NONE', #547 ) ;
#206 = ADVANCED_FACE ( 'NONE', ( #878 ), #842, .F. ) ;
#207 = CARTESIAN_POINT ( 'NONE',  ( -0.07150000000000004963, 0.2321320343559641897, 0.1399999999999992362 ) ) ;
#208 = ORIENTED_EDGE ( 'NONE', *, *, #776, .F. ) ;
#209 = EDGE_CURVE ( 'NONE', #663, #1063, #869, .T. ) ;
#210 = VERTEX_POINT ( 'NONE', #756 ) ;
#211 = DIRECTION ( 'NONE',  ( 0.000000000000000000, 0.000000000000000000, 1.000000000000000000 ) ) ;
#212 = FILL_AREA_STYLE ('',( #499 ) ) ;
#213 = ORIENTED_EDGE ( 'NONE', *, *, #686, .F. ) ;
#214 = ORIENTED_EDGE ( 'NONE', *, *, #787, .T. ) ;
#215 =( NAMED_UNIT ( * ) SI_UNIT ( $, .STERADIAN. ) SOLID_ANGLE_UNIT ( ) );
#216 = EDGE_LOOP ( 'NONE', ( #1037, #1005, #1014, #1044 ) ) ;
#217 = ORIENTED_EDGE ( 'NONE', *, *, #112, .F. ) ;
#218 = ORIENTED_EDGE ( 'NONE', *, *, #1110, .F. ) ;
#219 = CARTESIAN_POINT ( 'NONE',  ( -0.07150000000000004963, -0.4799999999999999822, 0.2149999999999992195 ) ) ;
#220 = CLOSED_SHELL ( 'NONE', ( #785, #817, #873, #189 ) ) ;
#221 = DIRECTION ( 'NONE',  ( -0.000000000000000000, -1.000000000000000000, -0.000000000000000000 ) ) ;
#222 = ORIENTED_EDGE ( 'NONE', *, *, #1095, .T. ) ;
#223 = EDGE_LOOP ( 'NONE', ( #662, #1018, #208, #652 ) ) ;
#224 = CARTESIAN_POINT ( 'NONE',  ( -0.7353228748631885914, 0.06500000000000000222, -0.06207068311961341095 ) ) ;
#225 = DIRECTION ( 'NONE',  ( 0.000000000000000000, 0.000000000000000000, 1.000000000000000000 ) ) ;
#226 = ORIENTED_EDGE ( 'NONE', *, *, #356, .T. ) ;
#227 = VERTEX_POINT ( 'NONE', #1230 ) ;
#228 = APPLICATION_CONTEXT ( 'automotive_design' ) ;
#229 = EDGE_LOOP ( 'NONE', ( #992, #78 ) ) ;
#230 = AXIS2_PLACEMENT_3D ( 'NONE', #153, #73, #858 ) ;
#231 = ORIENTED_EDGE ( 'NONE', *, *, #21, .F. ) ;
#232 = CARTESIAN_POINT ( 'NONE',  ( -0.07150000000000003575, 0.01999999999999999001, 0.2899999999999992029 ) ) ;
#233 = EDGE_CURVE ( 'NONE', #1101, #258, #868, .T. ) ;
#234 = VERTEX_POINT ( 'NONE', #764 ) ;
#235 = VERTEX_POINT ( 'NONE', #1016 ) ;
#236 = DIRECTION ( 'NONE',  ( 0.000000000000000000, 0.000000000000000000, -1.000000000000000000 ) ) ;
#237 = ADVANCED_FACE ( 'NONE', ( #37, #451, #461, #29 ), #1162, .T. ) ;
#238 = EDGE_LOOP ( 'NONE', ( #989, #182 ) ) ;
#239 = EDGE_CURVE ( 'NONE', #654, #276, #479, .T. ) ;
#240 = ORIENTED_EDGE ( 'NONE', *, *, #364, .F. ) ;
#241 = EDGE_LOOP ( 'NONE', ( #572, #919, #506, #533 ) ) ;
#242 = EDGE_LOOP ( 'NONE', ( #987, #998, #1010, #995 ) ) ;
#243 = DIRECTION ( 'NONE',  ( 0.000000000000000000, 1.000000000000000000, -0.000000000000000000 ) ) ;
#244 = EDGE_LOOP ( 'NONE', ( #535, #576 ) ) ;
#245 = VERTEX_POINT ( 'NONE', #1045 ) ;
#246 = CARTESIAN_POINT ( 'NONE',  ( -0.07150000000000057698, 0.02000000000000000042, -0.1399999999999992084 ) ) ;
#247 = DIRECTION ( 'NONE',  ( 0.000000000000000000, 0.000000000000000000, -1.000000000000000000 ) ) ;
#248 = ORIENTED_EDGE ( 'NONE', *, *, #759, .T. ) ;
#249 = ORIENTED_EDGE ( 'NONE', *, *, #364, .T. ) ;
#250 = EDGE_LOOP ( 'NONE', ( #142, #1079 ) ) ;
#251 = AXIS2_PLACEMENT_3D ( 'NONE', #1124, #444, #30 ) ;
#252 = ORIENTED_EDGE ( 'NONE', *, *, #1075, .T. ) ;
#253 = EDGE_CURVE ( 'NONE', #205, #632, #865, .T. ) ;
#254 = DIRECTION ( 'NONE',  ( 0.000000000000000000, 0.000000000000000000, 1.000000000000000000 ) ) ;
#255 =( CONVERSION_BASED_UNIT ( 'INCH', #494 ) LENGTH_UNIT ( ) NAMED_UNIT ( #520 ) );
#256 = CARTESIAN_POINT ( 'NONE',  ( 0.7353228748631875922, 0.06500000000000000222, 0.06207068311961422974 ) ) ;
#257 = MECHANICAL_DESIGN_GEOMETRIC_PRESENTATION_REPRESENTATION (  '', ( #1171 ), #967 ) ;
#258 = VERTEX_POINT ( 'NONE', #381 ) ;
#259 = CARTESIAN_POINT ( 'NONE',  ( -0.07150000000000004963, -0.4799999999999999822, 0.1849999999999991929 ) ) ;
#260 = CARTESIAN_POINT ( 'NONE',  ( -0.07150000000000059086, -0.4799999999999999822, -0.1849999999999991929 ) ) ;
#261 = DIRECTION ( 'NONE',  ( -0.000000000000000000, 1.000000000000000000, -0.000000000000000000 ) ) ;
#262 = MECHANICAL_DESIGN_GEOMETRIC_PRESENTATION_REPRESENTATION (  '', ( #836 ), #1027 ) ;
#263 = DIRECTION ( 'NONE',  ( 0.000000000000000000, 1.000000000000000000, -0.000000000000000000 ) ) ;
#264 = EDGE_LOOP ( 'NONE', ( #193, #217, #1149, #322 ) ) ;
#265 = EDGE_CURVE ( 'NONE', #169, #504, #455, .T. ) ;
#266 = ORIENTED_EDGE ( 'NONE', *, *, #850, .T. ) ;
#267 = DIRECTION ( 'NONE',  ( 0.000000000000000000, -1.000000000000000000, 0.000000000000000000 ) ) ;
#268 = EDGE_LOOP ( 'NONE', ( #688, #96 ) ) ;
#269 = CARTESIAN_POINT ( 'NONE',  ( -0.07150000000000057698, 0.2321320343559641897, -0.1399999999999992362 ) ) ;
#270 = AXIS2_PLACEMENT_3D ( 'NONE', #469, #282, #687 ) ;
#271 = EDGE_LOOP ( 'NONE', ( #537, #578, #500, #497 ) ) ;
#272 = CLOSED_SHELL ( 'NONE', ( #95, #83, #339, #297 ) ) ;
#273 = DIRECTION ( 'NONE',  ( 0.000000000000000000, 1.000000000000000000, 0.000000000000000000 ) ) ;
#274 = VERTEX_POINT ( 'NONE', #871 ) ;
#275 = CARTESIAN_POINT ( 'NONE',  ( -0.6852500000000000258, 0.06500000000000000222, 0.000000000000000000 ) ) ;
#276 = VERTEX_POINT ( 'NONE', #679 ) ;
#277 = DIRECTION ( 'NONE',  ( 0.000000000000000000, 0.000000000000000000, -1.000000000000000000 ) ) ;
#278 = VERTEX_POINT ( 'NONE', #178 ) ;
#279 = CARTESIAN_POINT ( 'NONE',  ( -2.731847993664263218E-16, 0.3350000000000000200, 0.000000000000000000 ) ) ;
#280 = VERTEX_POINT ( 'NONE', #390 ) ;
#281 = EDGE_CURVE ( 'NONE', #1050, #180, #41, .T. ) ;
#282 = DIRECTION ( 'NONE',  ( 0.000000000000000000, -1.000000000000000000, 0.000000000000000000 ) ) ;
#283 = EDGE_LOOP ( 'NONE', ( #213, #67, #624, #694 ) ) ;
#284 = DIRECTION ( 'NONE',  ( -0.000000000000000000, -1.000000000000000000, -0.000000000000000000 ) ) ;
#285 = PLANE ( 'NONE',  #583 ) ;
#286 = UNCERTAINTY_MEASURE_WITH_UNIT (LENGTH_MEASURE( 1.000000000000000082E-05 ), #1169, 'distance_accuracy_value', 'NONE');
#287 = DIRECTION ( 'NONE',  ( 0.000000000000000000, -1.000000000000000000, 0.000000000000000000 ) ) ;
#288 = PLANE ( 'NONE',  #931 ) ;
#289 = DIRECTION ( 'NONE',  ( -0.000000000000000000, 1.000000000000000000, -0.000000000000000000 ) ) ;
#290 = AXIS2_PLACEMENT_3D ( 'NONE', #34, #508, #824 ) ;
#291 = COLOUR_RGB ( '',0.2509803921568627416, 0.2509803921568627416, 0.2509803921568627416 ) ;
#292 = DIRECTION ( 'NONE',  ( -0.000000000000000000, 1.000000000000000000, 0.000000000000000000 ) ) ;
#293 = EDGE_CURVE ( 'NONE', #617, #519, #860, .T. ) ;
#294 = FACE_OUTER_BOUND ( 'NONE', #531, .T. ) ;
#295 = DIRECTION ( 'NONE',  ( -0.7783157757945247113, 0.000000000000000000, 0.6278730390368476577 ) ) ;
#296 = CIRCLE ( 'NONE', #251, 0.07499999999999998335 ) ;
#297 = ADVANCED_FACE ( 'NONE', ( #448 ), #323, .F. ) ;
#298 = EDGE_CURVE ( 'NONE', #63, #646, #887, .T. ) ;
#299 = FILL_AREA_STYLE ('',( #474 ) ) ;
#300 = CIRCLE ( 'NONE', #589, 0.07975000000000005695 ) ;
#301 = VECTOR ( 'NONE', #87, 39.37007874015748854 ) ;
#302 = DIRECTION ( 'NONE',  ( 0.000000000000000000, 0.000000000000000000, 1.000000000000000000 ) ) ;
#303 = CYLINDRICAL_SURFACE ( 'NONE', #573, 0.07499999999999998335 ) ;
#304 = FACE_OUTER_BOUND ( 'NONE', #685, .T. ) ;
#305 = VERTEX_POINT ( 'NONE', #907 ) ;
#306 = DIRECTION ( 'NONE',  ( 0.000000000000000000, 1.000000000000000000, -0.000000000000000000 ) ) ;
#307 = CIRCLE ( 'NONE', #370, 0.5100000000000001199 ) ;
#308 = CYLINDRICAL_SURFACE ( 'NONE', #376, 0.07499999999999998335 ) ;
#309 = ORIENTED_EDGE ( 'NONE', *, *, #1217, .F. ) ;
#310 = DIRECTION ( 'NONE',  ( 0.000000000000000000, 1.000000000000000000, 0.000000000000000000 ) ) ;
#311 = CIRCLE ( 'NONE', #1107, 0.07899999999999994527 ) ;
#312 = ADVANCED_FACE ( 'NONE', ( #882 ), #23, .T. ) ;
#313 = CARTESIAN_POINT ( 'NONE',  ( -2.245050891003190472E-16, 1.794299782086610673, 0.3975000000000000200 ) ) ;
#314 = CARTESIAN_POINT ( 'NONE',  ( -0.07150000000000004963, 0.02000000000000000042, 0.2149999999999992195 ) ) ;
#315 = AXIS2_PLACEMENT_3D ( 'NONE', #977, #337, #1176 ) ;
#316 = LINE ( 'NONE', #503, #301 ) ;
#317 =( LENGTH_UNIT ( ) NAMED_UNIT ( * ) SI_UNIT ( $, .METRE. ) );
#318 = EDGE_CURVE ( 'NONE', #276, #654, #470, .T. ) ;
#319 = DIRECTION ( 'NONE',  ( 0.000000000000000000, 0.000000000000000000, -1.000000000000000000 ) ) ;
#320 = FACE_OUTER_BOUND ( 'NONE', #1058, .T. ) ;
#321 = CARTESIAN_POINT ( 'NONE',  ( -0.3202152499087925763, 0.06500000000000000222, -0.3969410456552078248 ) ) ;
#322 = ORIENTED_EDGE ( 'NONE', *, *, #847, .T. ) ;
#323 = PLANE ( 'NONE',  #712 ) ;
#324 = AXIS2_PLACEMENT_3D ( 'NONE', #477, #1245, #54 ) ;
#325 = LENGTH_MEASURE_WITH_UNIT ( LENGTH_MEASURE( 0.02539999999999999897 ), #790 );
#326 = CARTESIAN_POINT ( 'NONE',  ( 0.000000000000000000, 0.000000000000000000, 0.000000000000000000 ) ) ;
#327 = CARTESIAN_POINT ( 'NONE',  ( 0.5934999999999999165, 0.06500000000000000222, -0.07900000000000062528 ) ) ;
#328 = CARTESIAN_POINT ( 'NONE',  ( 0.3202152499087922433, 0.06500000000000000222, -0.3969410456552081023 ) ) ;
#329 = SURFACE_STYLE_USAGE ( .BOTH. , #956 ) ;
#330 = PLANE ( 'NONE',  #315 ) ;
#331 = DIRECTION ( 'NONE',  ( 0.000000000000000000, 0.000000000000000000, 1.000000000000000000 ) ) ;
#332 = DIRECTION ( 'NONE',  ( 0.000000000000000000, 0.000000000000000000, -1.000000000000000000 ) ) ;
#333 = DIRECTION ( 'NONE',  ( 0.000000000000000000, 0.000000000000000000, -1.000000000000000000 ) ) ;
#334 = AXIS2_PLACEMENT_3D ( 'NONE', #496, #883, #1088 ) ;
#335 = COLOUR_RGB ( '',0.7921568627450980005, 0.8196078431372548767, 0.9333333333333333481 ) ;
#336 = CARTESIAN_POINT ( 'NONE',  ( -0.07150000000000059086, 0.01999999999999999001, -0.2149999999999992195 ) ) ;
#337 = DIRECTION ( 'NONE',  ( -0.000000000000000000, 1.000000000000000000, 0.000000000000000000 ) ) ;
#338 = DIMENSIONAL_EXPONENTS ( 1.000000000000000000, 0.000000000000000000, 0.000000000000000000, 0.000000000000000000, 0.000000000000000000, 0.000000000000000000, 0.000000000000000000 ) ;
#339 = ADVANCED_FACE ( 'NONE', ( #35 ), #330, .F. ) ;
#340 = AXIS2_PLACEMENT_3D ( 'NONE', #591, #969, #955 ) ;
#341 = DIRECTION ( 'NONE',  ( -0.000000000000000000, -1.000000000000000000, -0.000000000000000000 ) ) ;
#342 = EDGE_CURVE ( 'NONE', #245, #681, #53, .T. ) ;
#343 = CARTESIAN_POINT ( 'NONE',  ( -0.07150000000000059086, -0.4799999999999999822, -0.2149999999999992195 ) ) ;
#344 = MANIFOLD_SOLID_BREP ( 'Cut-Extrude1', #1109 ) ;
#345 = EDGE_CURVE ( 'NONE', #160, #629, #44, .T. ) ;
#346 = VECTOR ( 'NONE', #1228, 39.37007874015748143 ) ;
#347 = PLANE ( 'NONE',  #446 ) ;
#348 = CYLINDRICAL_SURFACE ( 'NONE', #80, 0.5100000000000003419 ) ;
#349 = CARTESIAN_POINT ( 'NONE',  ( -0.07150000000000004963, 0.02000000000000000042, 0.2149999999999992195 ) ) ;
#350 = VECTOR ( 'NONE', #793, 39.37007874015748143 ) ;
#351 = AXIS2_PLACEMENT_3D ( 'NONE', #136, #267, #372 ) ;
#352 = FACE_OUTER_BOUND ( 'NONE', #181, .T. ) ;
#353 = EDGE_CURVE ( 'NONE', #63, #629, #874, .T. ) ;
#354 = FACE_OUTER_BOUND ( 'NONE', #264, .T. ) ;
#355 = DIRECTION ( 'NONE',  ( 0.000000000000000000, 0.000000000000000000, -1.000000000000000000 ) ) ;
#356 = EDGE_CURVE ( 'NONE', #1101, #234, #15, .T. ) ;
#357 = CYLINDRICAL_SURFACE ( 'NONE', #1128, 0.07899999999999998690 ) ;
#358 = CARTESIAN_POINT ( 'NONE',  ( -0.5934999999999999165, 0.06500000000000000222, 0.000000000000000000 ) ) ;
#359 = DIRECTION ( 'NONE',  ( -0.6278730390368473246, 0.000000000000000000, 0.7783157757945252664 ) ) ;
#360 = VECTOR ( 'NONE', #1089, 39.37007874015748143 ) ;
#361 = LINE ( 'NONE', #313, #765 ) ;
#362 = DIRECTION ( 'NONE',  ( -0.000000000000000000, -1.000000000000000000, -0.000000000000000000 ) ) ;
#363 = CIRCLE ( 'NONE', #1170, 0.5100000000000003419 ) ;
#364 = EDGE_CURVE ( 'NONE', #626, #185, #890, .T. ) ;
#365 = FACE_OUTER_BOUND ( 'NONE', #1038, .T. ) ;
#366 = DIRECTION ( 'NONE',  ( -0.000000000000000000, 1.000000000000000000, -0.000000000000000000 ) ) ;
#367 = AXIS2_PLACEMENT_3D ( 'NONE', #623, #737, #885 ) ;
#368 = VECTOR ( 'NONE', #542, 39.37007874015748143 ) ;
#369 = FILL_AREA_STYLE_COLOUR ( '', #897 ) ;
#370 = AXIS2_PLACEMENT_3D ( 'NONE', #752, #1132, #156 ) ;
#371 = VECTOR ( 'NONE', #678, 39.37007874015748143 ) ;
#372 = DIRECTION ( 'NONE',  ( 0.000000000000000000, -0.000000000000000000, -1.000000000000000000 ) ) ;
#373 = DIRECTION ( 'NONE',  ( -0.000000000000000000, -1.000000000000000000, -0.000000000000000000 ) ) ;
#374 = CIRCLE ( 'NONE', #898, 0.07499999999999998335 ) ;
#375 = SURFACE_STYLE_FILL_AREA ( #299 ) ;
#376 = AXIS2_PLACEMENT_3D ( 'NONE', #1120, #14, #333 ) ;
#377 = SURFACE_SIDE_STYLE ('',( #487 ) ) ;
#378 = CIRCLE ( 'NONE', #1186, 0.3975000000000000200 ) ;
#379 = CIRCLE ( 'NONE', #677, 0.07899999999999994527 ) ;
#380 = CIRCLE ( 'NONE', #133, 0.07499999999999998335 ) ;
#381 = CARTESIAN_POINT ( 'NONE',  ( -0.07150000000000057698, 0.01999999999999999001, -0.1399999999999992084 ) ) ;
#382 = ADVANCED_FACE ( 'NONE', ( #445 ), #463, .T. ) ;
#383 = VECTOR ( 'NONE', #341, 39.37007874015748143 ) ;
#384 = CYLINDRICAL_SURFACE ( 'NONE', #668, 0.03000000000000002318 ) ;
#385 = CARTESIAN_POINT ( 'NONE',  ( 0.000000000000000000, 0.000000000000000000, -0.5100000000000003419 ) ) ;
#386 = PRESENTATION_LAYER_ASSIGNMENT (  '', '', ( #974 ) ) ;
#387 = CIRCLE ( 'NONE', #66, 0.5100000000000001199 ) ;
#388 = CARTESIAN_POINT ( 'NONE',  ( -0.07150000000000057698, 0.000000000000000000, -0.1399999999999992084 ) ) ;
#389 = CYLINDRICAL_SURFACE ( 'NONE', #1221, 0.07499999999999998335 ) ;
#390 = CARTESIAN_POINT ( 'NONE',  ( -0.3202152499087925763, 0.000000000000000000, -0.3969410456552078248 ) ) ;
#391 = AXIS2_PLACEMENT_3D ( 'NONE', #349, #362, #443 ) ;
#392 = DIRECTION ( 'NONE',  ( 0.000000000000000000, 0.000000000000000000, 1.000000000000000000 ) ) ;
#393 = FILL_AREA_STYLE_COLOUR ( '', #291 ) ;
#394 = EDGE_CURVE ( 'NONE', #643, #210, #884, .T. ) ;
#395 = VECTOR ( 'NONE', #373, 39.37007874015748143 ) ;
#396 = DIRECTION ( 'NONE',  ( 0.000000000000000000, -0.000000000000000000, 1.000000000000000000 ) ) ;
#397 = CIRCLE ( 'NONE', #978, 0.07499999999999998335 ) ;
#398 = CARTESIAN_POINT ( 'NONE',  ( -0.07150000000000059086, 0.000000000000000000, -0.2149999999999992195 ) ) ;
#399 = VECTOR ( 'NONE', #675, 39.37007874015748854 ) ;
#400 = DIRECTION ( 'NONE',  ( 0.000000000000000000, -0.000000000000000000, -1.000000000000000000 ) ) ;
#401 = FACE_OUTER_BOUND ( 'NONE', #627, .T. ) ;
#402 = FACE_OUTER_BOUND ( 'NONE', #683, .T. ) ;
#403 = DIRECTION ( 'NONE',  ( -0.000000000000000000, -1.000000000000000000, -0.000000000000000000 ) ) ;
#404 = ADVANCED_FACE ( 'NONE', ( #862 ), #447, .T. ) ;
#405 = CARTESIAN_POINT ( 'NONE',  ( -2.731847993664263218E-16, 1.794299782086610673, -0.3975000000000000200 ) ) ;
#406 = FACE_OUTER_BOUND ( 'NONE', #997, .T. ) ;
#407 = FACE_BOUND ( 'NONE', #986, .T. ) ;
#408 = DIRECTION ( 'NONE',  ( 0.000000000000000000, -1.000000000000000000, 0.000000000000000000 ) ) ;
#409 = LINE ( 'NONE', #523, #1236 ) ;
#410 = EDGE_CURVE ( 'NONE', #646, #63, #472, .T. ) ;
#411 = CIRCLE ( 'NONE', #828, 0.5100000000000003419 ) ;
#412 = FACE_OUTER_BOUND ( 'NONE', #1111, .T. ) ;
#413 = EDGE_CURVE ( 'NONE', #165, #913, #476, .T. ) ;
#414 = CARTESIAN_POINT ( 'NONE',  ( -0.7353228748631885914, 0.06500000000000000222, 0.06207068311961341095 ) ) ;
#415 =( NAMED_UNIT ( * ) SI_UNIT ( $, .STERADIAN. ) SOLID_ANGLE_UNIT ( ) );
#416 = CIRCLE ( 'NONE', #892, 0.03000000000000002318 ) ;
#417 = CARTESIAN_POINT ( 'NONE',  ( -2.731847993664263218E-16, 1.794299782086610673, 0.000000000000000000 ) ) ;
#418 = VECTOR ( 'NONE', #877, 39.37007874015748143 ) ;
#419 = DIRECTION ( 'NONE',  ( 0.000000000000000000, 0.000000000000000000, -1.000000000000000000 ) ) ;
#420 = CARTESIAN_POINT ( 'NONE',  ( -2.731847993664263218E-16, 0.3099999999999999978, 0.000000000000000000 ) ) ;
#421 = ADVANCED_FACE ( 'NONE', ( #889 ), #25, .T. ) ;
#422 = CARTESIAN_POINT ( 'NONE',  ( 0.5934999999999999165, 0.06500000000000000222, -6.829619984160658046E-16 ) ) ;
#423 = AXIS2_PLACEMENT_3D ( 'NONE', #864, #1243, #462 ) ;
#424 = DIRECTION ( 'NONE',  ( 1.000000000000000000, -0.000000000000000000, 1.224646799147353207E-16 ) ) ;
#425 = EDGE_CURVE ( 'NONE', #908, #544, #454, .T. ) ;
#426 = CIRCLE ( 'NONE', #1070, 0.07975000000000033451 ) ;
#427 = CYLINDRICAL_SURFACE ( 'NONE', #27, 0.5100000000000001199 ) ;
#428 = CYLINDRICAL_SURFACE ( 'NONE', #91, 0.07499999999999998335 ) ;
#429 = DIRECTION ( 'NONE',  ( 0.000000000000000000, 1.000000000000000000, 0.000000000000000000 ) ) ;
#430 = MECHANICAL_DESIGN_GEOMETRIC_PRESENTATION_REPRESENTATION (  '', ( #974 ), #664 ) ;
#431 = CIRCLE ( 'NONE', #600, 0.03000000000000002318 ) ;
#432 = DIRECTION ( 'NONE',  ( -0.000000000000000000, 1.000000000000000000, -0.000000000000000000 ) ) ;
#433 = AXIS2_PLACEMENT_3D ( 'NONE', #1152, #1163, #392 ) ;
#434 = FACE_BOUND ( 'NONE', #671, .T. ) ;
#435 = LINE ( 'NONE', #856, #846 ) ;
#436 = MANIFOLD_SOLID_BREP ( 'Boss-Extrude4[1]', #938 ) ;
#437 = DIRECTION ( 'NONE',  ( 0.000000000000000000, 1.000000000000000000, 0.000000000000000000 ) ) ;
#438 = DIRECTION ( 'NONE',  ( 0.000000000000000000, -1.000000000000000000, 0.000000000000000000 ) ) ;
#439 = STYLED_ITEM ( 'NONE', ( #1134 ), #31 ) ;
#440 = FACE_OUTER_BOUND ( 'NONE', #1052, .T. ) ;
#441 = CARTESIAN_POINT ( 'NONE',  ( -0.7353228748631885914, 0.06500000000000000222, 0.06207068311961341095 ) ) ;
#442 = VECTOR ( 'NONE', #927, 39.37007874015748854 ) ;
#443 = DIRECTION ( 'NONE',  ( 0.000000000000000000, 0.000000000000000000, -1.000000000000000000 ) ) ;
#444 = DIRECTION ( 'NONE',  ( 0.000000000000000000, -1.000000000000000000, 0.000000000000000000 ) ) ;
#445 = FACE_OUTER_BOUND ( 'NONE', #271, .T. ) ;
#446 = AXIS2_PLACEMENT_3D ( 'NONE', #975, #507, #804 ) ;
#447 = TOROIDAL_SURFACE ( 'NONE', #773, 0.3724999999999999978, 0.02500000000000000139 ) ;
#448 = FACE_OUTER_BOUND ( 'NONE', #930, .T. ) ;
#449 = CARTESIAN_POINT ( 'NONE',  ( -0.07150000000000004963, 0.000000000000000000, 0.2149999999999992195 ) ) ;
#450 = FILL_AREA_STYLE_COLOUR ( '', #61 ) ;
#451 = FACE_BOUND ( 'NONE', #229, .T. ) ;
#452 = AXIS2_PLACEMENT_3D ( 'NONE', #64, #665, #673 ) ;
#453 = EDGE_CURVE ( 'NONE', #1100, #1006, #909, .T. ) ;
#454 = CIRCLE ( 'NONE', #4, 0.07499999999999998335 ) ;
#455 = CIRCLE ( 'NONE', #19, 0.07975000000000005695 ) ;
#456 = DIRECTION ( 'NONE',  ( 0.000000000000000000, 0.000000000000000000, -1.000000000000000000 ) ) ;
#457 = COLOUR_RGB ( '',0.7529411764705882248, 0.7529411764705882248, 0.7529411764705882248 ) ;
#458 = CARTESIAN_POINT ( 'NONE',  ( -0.7353228748631885914, 0.06500000000000000222, 0.06207068311961341095 ) ) ;
#459 = CYLINDRICAL_SURFACE ( 'NONE', #872, 0.07975000000000005695 ) ;
#460 = DIRECTION ( 'NONE',  ( 0.000000000000000000, 0.000000000000000000, 1.000000000000000000 ) ) ;
#461 = FACE_OUTER_BOUND ( 'NONE', #495, .T. ) ;
#462 = DIRECTION ( 'NONE',  ( 0.000000000000000000, -0.000000000000000000, -1.000000000000000000 ) ) ;
#463 = TOROIDAL_SURFACE ( 'NONE', #123, 0.3724999999999999978, 0.02500000000000000139 ) ;
#464 = CARTESIAN_POINT ( 'NONE',  ( 0.000000000000000000, 0.000000000000000000, 0.000000000000000000 ) ) ;
#465 = SURFACE_SIDE_STYLE ('',( #483 ) ) ;
#466 = AXIS2_PLACEMENT_3D ( 'NONE', #788, #895, #1098 ) ;
#467 = SURFACE_STYLE_FILL_AREA ( #212 ) ;
#468 = EDGE_CURVE ( 'NONE', #180, #1050, #59, .T. ) ;
#469 = CARTESIAN_POINT ( 'NONE',  ( -0.07150000000000004963, 0.2321320343559641897, 0.2149999999999992195 ) ) ;
#470 = CIRCLE ( 'NONE', #466, 0.3975000000000000200 ) ;
#471 = CARTESIAN_POINT ( 'NONE',  ( 0.5934999999999999165, 0.000000000000000000, -6.829619984160658046E-16 ) ) ;
#472 = CIRCLE ( 'NONE', #910, 0.07899999999999998690 ) ;
#473 = PRESENTATION_STYLE_ASSIGNMENT (( #17 ) ) ;
#474 = FILL_AREA_STYLE_COLOUR ( '', #771 ) ;
#475 = CARTESIAN_POINT ( 'NONE',  ( -0.6852500000000000258, 0.06500000000000000222, 0.000000000000000000 ) ) ;
#476 = CIRCLE ( 'NONE', #478, 0.07899999999999994527 ) ;
#477 = CARTESIAN_POINT ( 'NONE',  ( 0.000000000000000000, 0.3350000000000000200, 0.000000000000000000 ) ) ;
#478 = AXIS2_PLACEMENT_3D ( 'NONE', #1218, #770, #834 ) ;
#479 = CIRCLE ( 'NONE', #230, 0.3975000000000000200 ) ;
#480 = CARTESIAN_POINT ( 'NONE',  ( -0.07150000000000057698, 0.02000000000000000042, -0.1399999999999992362 ) ) ;
#481 = PRESENTATION_STYLE_ASSIGNMENT (( #932 ) ) ;
#482 = CARTESIAN_POINT ( 'NONE',  ( -0.07150000000000059086, 0.02000000000000000042, -0.2149999999999992195 ) ) ;
#483 = SURFACE_STYLE_FILL_AREA ( #848 ) ;
#484 = DIRECTION ( 'NONE',  ( 0.000000000000000000, 0.000000000000000000, -1.000000000000000000 ) ) ;
#485 = MANIFOLD_SOLID_BREP ( 'Boss-Extrude4[2]', #649 ) ;
#486 = AXIS2_PLACEMENT_3D ( 'NONE', #631, #1127, #460 ) ;
#487 = SURFACE_STYLE_FILL_AREA ( #1235 ) ;
#488 = ADVANCED_FACE ( 'NONE', ( #857 ), #11, .F. ) ;
#489 = CARTESIAN_POINT ( 'NONE',  ( -0.7353228748631885914, 0.000000000000000000, -0.06207068311961341095 ) ) ;
#490 =( GEOMETRIC_REPRESENTATION_CONTEXT ( 3 ) GLOBAL_UNCERTAINTY_ASSIGNED_CONTEXT ( ( #827 ) ) GLOBAL_UNIT_ASSIGNED_CONTEXT ( ( #1167, #962, #689 ) ) REPRESENTATION_CONTEXT ( 'NONE', 'WORKASPACE' ) );
#491 =( NAMED_UNIT ( * ) PLANE_ANGLE_UNIT ( ) SI_UNIT ( $, .RADIAN. ) );
#492 = DIRECTION ( 'NONE',  ( 0.000000000000000000, 0.000000000000000000, -1.000000000000000000 ) ) ;
#493 = EDGE_CURVE ( 'NONE', #305, #513, #825, .T. ) ;
#494 = LENGTH_MEASURE_WITH_UNIT ( LENGTH_MEASURE( 0.02539999999999999897 ), #1123 );
#495 = EDGE_LOOP ( 'NONE', ( #948, #197, #545, #609, #622, #637, #248, #990, #522 ) ) ;
#496 = CARTESIAN_POINT ( 'NONE',  ( -0.5934999999999999165, 0.06500000000000000222, 0.000000000000000000 ) ) ;
#497 = ORIENTED_EDGE ( 'NONE', *, *, #143, .F. ) ;
#498 = CARTESIAN_POINT ( 'NONE',  ( -0.07150000000000004963, 0.000000000000000000, 0.1399999999999992362 ) ) ;
#499 = FILL_AREA_STYLE_COLOUR ( '', #457 ) ;
#500 = ORIENTED_EDGE ( 'NONE', *, *, #394, .T. ) ;
#501 = FILL_AREA_STYLE_COLOUR ( '', #335 ) ;
#502 = ORIENTED_EDGE ( 'NONE', *, *, #468, .T. ) ;
#503 = CARTESIAN_POINT ( 'NONE',  ( -0.7353228748631885914, 0.000000000000000000, -0.06207068311961341095 ) ) ;
#504 = VERTEX_POINT ( 'NONE', #458 ) ;
#505 = DIRECTION ( 'NONE',  ( 0.000000000000000000, -1.000000000000000000, 0.000000000000000000 ) ) ;
#506 = ORIENTED_EDGE ( 'NONE', *, *, #556, .T. ) ;
#507 = DIRECTION ( 'NONE',  ( 0.000000000000000000, -1.000000000000000000, 0.000000000000000000 ) ) ;
#508 = DIRECTION ( 'NONE',  ( 0.000000000000000000, 1.000000000000000000, 0.000000000000000000 ) ) ;
#509 = AXIS2_PLACEMENT_3D ( 'NONE', #988, #1147, #134 ) ;
#510 = CARTESIAN_POINT ( 'NONE',  ( -0.07150000000000059086, -0.4799999999999999822, -0.2149999999999992195 ) ) ;
#511 = EDGE_CURVE ( 'NONE', #180, #227, #435, .T. ) ;
#512 = CARTESIAN_POINT ( 'NONE',  ( -0.07150000000000003575, 0.02000000000000000042, 0.2899999999999992029 ) ) ;
#513 = VERTEX_POINT ( 'NONE', #661 ) ;
#514 = CARTESIAN_POINT ( 'NONE',  ( -2.245050891003190472E-16, 0.3099999999999999978, 0.3975000000000000200 ) ) ;
#515 = CARTESIAN_POINT ( 'NONE',  ( -2.731847993664263218E-16, 0.3099999999999999978, 0.000000000000000000 ) ) ;
#516 = ORIENTED_EDGE ( 'NONE', *, *, #233, .T. ) ;
#517 =( NAMED_UNIT ( * ) PLANE_ANGLE_UNIT ( ) SI_UNIT ( $, .RADIAN. ) );
#518 = DIRECTION ( 'NONE',  ( 0.000000000000000000, -1.000000000000000000, 0.000000000000000000 ) ) ;
#519 = VERTEX_POINT ( 'NONE', #534 ) ;
#520 = DIMENSIONAL_EXPONENTS ( 1.000000000000000000, 0.000000000000000000, 0.000000000000000000, 0.000000000000000000, 0.000000000000000000, 0.000000000000000000, 0.000000000000000000 ) ;
#521 = ADVANCED_FACE ( 'NONE', ( #1 ), #818, .T. ) ;
#522 = ORIENTED_EDGE ( 'NONE', *, *, #157, .T. ) ;
#523 = CARTESIAN_POINT ( 'NONE',  ( 0.5934999999999999165, 0.06500000000000000222, 0.07899999999999926525 ) ) ;
#524 = PLANE ( 'NONE',  #1153 ) ;
#525 = AXIS2_PLACEMENT_3D ( 'NONE', #482, #518, #805 ) ;
#526 = ORIENTED_EDGE ( 'NONE', *, *, #143, .T. ) ;
#527 = EDGE_CURVE ( 'NONE', #210, #681, #843, .T. ) ;
#528 = EDGE_LOOP ( 'NONE', ( #150, #1033 ) ) ;
#529 = DIRECTION ( 'NONE',  ( 0.000000000000000000, 0.000000000000000000, 1.000000000000000000 ) ) ;
#530 = CARTESIAN_POINT ( 'NONE',  ( -0.07150000000000059086, 0.02000000000000000042, -0.2899999999999992029 ) ) ;
#531 = EDGE_LOOP ( 'NONE', ( #231, #915, #1019, #650 ) ) ;
#532 = AXIS2_PLACEMENT_3D ( 'NONE', #510, #1072, #331 ) ;
#533 = ORIENTED_EDGE ( 'NONE', *, *, #734, .F. ) ;
#534 = CARTESIAN_POINT ( 'NONE',  ( -0.07150000000000004963, 0.02000000000000000042, 0.1399999999999992362 ) ) ;
#535 = ORIENTED_EDGE ( 'NONE', *, *, #776, .T. ) ;
#536 = DIRECTION ( 'NONE',  ( 0.7783157757945247113, -0.000000000000000000, -0.6278730390368476577 ) ) ;
#537 = ORIENTED_EDGE ( 'NONE', *, *, #342, .F. ) ;
#538 = CARTESIAN_POINT ( 'NONE',  ( -0.07150000000000003575, 0.2321320343559641897, 0.2899999999999992029 ) ) ;
#539 = DIRECTION ( 'NONE',  ( 0.000000000000000000, 1.000000000000000000, 0.000000000000000000 ) ) ;
#540 = ORIENTED_EDGE ( 'NONE', *, *, #1140, .F. ) ;
#541 = AXIS2_PLACEMENT_3D ( 'NONE', #1129, #243, #107 ) ;
#542 = DIRECTION ( 'NONE',  ( -0.000000000000000000, -1.000000000000000000, -0.000000000000000000 ) ) ;
#543 = ORIENTED_EDGE ( 'NONE', *, *, #21, .T. ) ;
#544 = VERTEX_POINT ( 'NONE', #941 ) ;
#545 = ORIENTED_EDGE ( 'NONE', *, *, #1081, .T. ) ;
#546 = AXIS2_PLACEMENT_3D ( 'NONE', #144, #437, #529 ) ;
#547 = CARTESIAN_POINT ( 'NONE',  ( -0.07150000000000004963, 0.01999999999999999001, 0.1399999999999992362 ) ) ;
#548 = ORIENTED_EDGE ( 'NONE', *, *, #184, .F. ) ;
#549 = AXIS2_PLACEMENT_3D ( 'NONE', #937, #758, #560 ) ;
#550 = DIRECTION ( 'NONE',  ( 0.000000000000000000, 0.000000000000000000, 1.000000000000000000 ) ) ;
#551 = DIRECTION ( 'NONE',  ( -0.000000000000000000, -1.000000000000000000, -0.000000000000000000 ) ) ;
#552 = AXIS2_PLACEMENT_3D ( 'NONE', #1210, #261, #651 ) ;
#553 = EDGE_CURVE ( 'NONE', #1073, #1024, #1249, .T. ) ;
#554 = CARTESIAN_POINT ( 'NONE',  ( 0.7353228748631875922, 0.000000000000000000, 0.06207068311961422974 ) ) ;
#555 = DIRECTION ( 'NONE',  ( 0.000000000000000000, 0.000000000000000000, -1.000000000000000000 ) ) ;
#556 = EDGE_CURVE ( 'NONE', #646, #160, #1224, .T. ) ;
#557 = DIRECTION ( 'NONE',  ( 0.000000000000000000, 1.000000000000000000, 0.000000000000000000 ) ) ;
#558 = DIRECTION ( 'NONE',  ( 0.000000000000000000, 0.000000000000000000, 1.000000000000000000 ) ) ;
#559 = DIRECTION ( 'NONE',  ( -0.000000000000000000, 1.000000000000000000, 0.000000000000000000 ) ) ;
#560 = DIRECTION ( 'NONE',  ( 0.000000000000000000, 0.000000000000000000, -1.000000000000000000 ) ) ;
#561 = CARTESIAN_POINT ( 'NONE',  ( -0.07150000000000059086, 0.02000000000000000042, -0.2149999999999992195 ) ) ;
#562 = PRESENTATION_LAYER_ASSIGNMENT (  '', '', ( #104 ) ) ;
#563 = ADVANCED_FACE ( 'NONE', ( #831 ), #567, .F. ) ;
#564 = DIRECTION ( 'NONE',  ( 0.000000000000000000, 0.000000000000000000, 1.000000000000000000 ) ) ;
#565 = DIRECTION ( 'NONE',  ( 0.000000000000000000, 0.000000000000000000, 1.000000000000000000 ) ) ;
#566 = EDGE_CURVE ( 'NONE', #1034, #165, #10, .T. ) ;
#567 = PLANE ( 'NONE',  #340 ) ;
#568 = CARTESIAN_POINT ( 'NONE',  ( 0.000000000000000000, 0.06500000000000000222, 0.000000000000000000 ) ) ;
#569 = ADVANCED_FACE ( 'NONE', ( #1244 ), #428, .F. ) ;
#570 = CARTESIAN_POINT ( 'NONE',  ( -0.07150000000000004963, 0.000000000000000000, 0.1399999999999992362 ) ) ;
#571 = SURFACE_SIDE_STYLE ('',( #732 ) ) ;
#572 = ORIENTED_EDGE ( 'NONE', *, *, #353, .F. ) ;
#573 = AXIS2_PLACEMENT_3D ( 'NONE', #22, #505, #592 ) ;
#574 = CARTESIAN_POINT ( 'NONE',  ( 0.6852500000000000258, 0.000000000000000000, -6.829619984160658046E-16 ) ) ;
#575 = EDGE_CURVE ( 'NONE', #1063, #513, #426, .T. ) ;
#576 = ORIENTED_EDGE ( 'NONE', *, *, #47, .T. ) ;
#577 = CARTESIAN_POINT ( 'NONE',  ( 0.7353228748631873701, 0.06500000000000000222, 0.06207068311961407708 ) ) ;
#578 = ORIENTED_EDGE ( 'NONE', *, *, #161, .F. ) ;
#579 = ADVANCED_FACE ( 'NONE', ( #835 ), #958, .F. ) ;
#580 = AXIS2_PLACEMENT_3D ( 'NONE', #336, #119, #1122 ) ;
#581 = ORIENTED_EDGE ( 'NONE', *, *, #6, .T. ) ;
#582 = CARTESIAN_POINT ( 'NONE',  ( -0.5934999999999999165, 0.06500000000000000222, -0.07899999999999998690 ) ) ;
#583 = AXIS2_PLACEMENT_3D ( 'NONE', #854, #292, #565 ) ;
#584 = EDGE_LOOP ( 'NONE', ( #93, #252 ) ) ;
#585 = CARTESIAN_POINT ( 'NONE',  ( -0.07150000000000003575, 0.000000000000000000, 0.2899999999999992029 ) ) ;
#586 = CARTESIAN_POINT ( 'NONE',  ( -2.731847993664263218E-16, 0.3099999999999999978, 0.000000000000000000 ) ) ;
#587 = DIRECTION ( 'NONE',  ( 0.000000000000000000, 1.000000000000000000, 0.000000000000000000 ) ) ;
#588 = ORIENTED_EDGE ( 'NONE', *, *, #413, .F. ) ;
#589 = AXIS2_PLACEMENT_3D ( 'NONE', #912, #539, #743 ) ;
#590 = ORIENTED_EDGE ( 'NONE', *, *, #701, .F. ) ;
#591 = CARTESIAN_POINT ( 'NONE',  ( -0.07150000000000059086, -0.4799999999999999822, -0.2149999999999992195 ) ) ;
#592 = DIRECTION ( 'NONE',  ( 0.000000000000000000, 0.000000000000000000, -1.000000000000000000 ) ) ;
#593 = ORIENTED_EDGE ( 'NONE', *, *, #973, .F. ) ;
#594 = EDGE_LOOP ( 'NONE', ( #1013, #88 ) ) ;
#595 = ORIENTED_EDGE ( 'NONE', *, *, #527, .T. ) ;
#596 = ORIENTED_EDGE ( 'NONE', *, *, #1140, .T. ) ;
#597 = ORIENTED_EDGE ( 'NONE', *, *, #1246, .F. ) ;
#598 = ORIENTED_EDGE ( 'NONE', *, *, #1029, .T. ) ;
#599 = ORIENTED_EDGE ( 'NONE', *, *, #575, .F. ) ;
#600 = AXIS2_PLACEMENT_3D ( 'NONE', #219, #682, #867 ) ;
#601 = SURFACE_STYLE_USAGE ( .BOTH. , #875 ) ;
#602 = ORIENTED_EDGE ( 'NONE', *, *, #342, .T. ) ;
#603 = ORIENTED_EDGE ( 'NONE', *, *, #139, .F. ) ;
#604 = ADVANCED_FACE ( 'NONE', ( #401 ), #427, .T. ) ;
#605 = ORIENTED_EDGE ( 'NONE', *, *, #953, .T. ) ;
#606 = CARTESIAN_POINT ( 'NONE',  ( -2.245050891003190472E-16, 0.06500000000000000222, 0.3975000000000000200 ) ) ;
#607 = DIRECTION ( 'NONE',  ( -0.000000000000000000, -1.000000000000000000, -0.000000000000000000 ) ) ;
#608 = ORIENTED_EDGE ( 'NONE', *, *, #984, .F. ) ;
#609 = ORIENTED_EDGE ( 'NONE', *, *, #39, .T. ) ;
#610 = DIRECTION ( 'NONE',  ( 0.000000000000000000, 0.000000000000000000, 1.000000000000000000 ) ) ;
#611 = ORIENTED_EDGE ( 'NONE', *, *, #209, .F. ) ;
#612 = CARTESIAN_POINT ( 'NONE',  ( -0.5934999999999999165, 0.000000000000000000, 0.000000000000000000 ) ) ;
#613 = ORIENTED_EDGE ( 'NONE', *, *, #293, .F. ) ;
#614 = AXIS2_PLACEMENT_3D ( 'NONE', #1040, #287, #332 ) ;
#615 = ORIENTED_EDGE ( 'NONE', *, *, #759, .F. ) ;
#616 = ORIENTED_EDGE ( 'NONE', *, *, #1002, .T. ) ;
#617 = VERTEX_POINT ( 'NONE', #105 ) ;
#618 = ORIENTED_EDGE ( 'NONE', *, *, #638, .F. ) ;
#619 = DIRECTION ( 'NONE',  ( -0.000000000000000000, -1.000000000000000000, -0.000000000000000000 ) ) ;
#620 = ORIENTED_EDGE ( 'NONE', *, *, #253, .F. ) ;
#621 = ORIENTED_EDGE ( 'NONE', *, *, #1081, .F. ) ;
#622 = ORIENTED_EDGE ( 'NONE', *, *, #98, .T. ) ;
#623 = CARTESIAN_POINT ( 'NONE',  ( 0.5934999999999999165, 0.06500000000000000222, -6.829619984160658046E-16 ) ) ;
#624 = ORIENTED_EDGE ( 'NONE', *, *, #553, .T. ) ;
#625 = CARTESIAN_POINT ( 'NONE',  ( -2.731847993664263218E-16, 0.3099999999999999978, 0.000000000000000000 ) ) ;
#626 = VERTEX_POINT ( 'NONE', #115 ) ;
#627 = EDGE_LOOP ( 'NONE', ( #121, #590, #621, #636 ) ) ;
#628 = ORIENTED_EDGE ( 'NONE', *, *, #791, .T. ) ;
#629 = VERTEX_POINT ( 'NONE', #700 ) ;
#630 = EDGE_LOOP ( 'NONE', ( #705, #723, #200, #605 ) ) ;
#631 = CARTESIAN_POINT ( 'NONE',  ( -0.07150000000000059086, 0.000000000000000000, -0.2149999999999992195 ) ) ;
#632 = VERTEX_POINT ( 'NONE', #232 ) ;
#633 = ORIENTED_EDGE ( 'NONE', *, *, #6, .F. ) ;
#634 =( LENGTH_UNIT ( ) NAMED_UNIT ( * ) SI_UNIT ( $, .METRE. ) );
#635 = AXIS2_PLACEMENT_3D ( 'NONE', #561, #748, #42 ) ;
#636 = ORIENTED_EDGE ( 'NONE', *, *, #112, .T. ) ;
#637 = ORIENTED_EDGE ( 'NONE', *, *, #801, .T. ) ;
#638 = EDGE_CURVE ( 'NONE', #71, #993, #416, .T. ) ;
#639 = ORIENTED_EDGE ( 'NONE', *, *, #493, .F. ) ;
#640 = EDGE_LOOP ( 'NONE', ( #204, #642, #226, #176 ) ) ;
#641 = CARTESIAN_POINT ( 'NONE',  ( -0.07150000000000059086, 0.000000000000000000, -0.2149999999999992195 ) ) ;
#642 = ORIENTED_EDGE ( 'NONE', *, *, #233, .F. ) ;
#643 = VERTEX_POINT ( 'NONE', #514 ) ;
#644 = EDGE_CURVE ( 'NONE', #205, #908, #849, .T. ) ;
#645 = ORIENTED_EDGE ( 'NONE', *, *, #1174, .F. ) ;
#646 = VERTEX_POINT ( 'NONE', #5 ) ;
#647 = PLANE ( 'NONE',  #128 ) ;
#648 = VERTEX_POINT ( 'NONE', #321 ) ;
#649 = CLOSED_SHELL ( 'NONE', ( #1247, #1102, #563, #1068 ) ) ;
#650 = ORIENTED_EDGE ( 'NONE', *, *, #1158, .T. ) ;
#651 = DIRECTION ( 'NONE',  ( 0.000000000000000000, 0.000000000000000000, 1.000000000000000000 ) ) ;
#652 = ORIENTED_EDGE ( 'NONE', *, *, #356, .F. ) ;
#653 = ORIENTED_EDGE ( 'NONE', *, *, #747, .F. ) ;
#654 = VERTEX_POINT ( 'NONE', #606 ) ;
#655 = DIRECTION ( 'NONE',  ( 0.000000000000000000, -1.000000000000000000, 0.000000000000000000 ) ) ;
#656 = ORIENTED_EDGE ( 'NONE', *, *, #1246, .T. ) ;
#657 = ORIENTED_EDGE ( 'NONE', *, *, #394, .F. ) ;
#658 = EDGE_CURVE ( 'NONE', #245, #276, #2, .T. ) ;
#659 = UNCERTAINTY_MEASURE_WITH_UNIT (LENGTH_MEASURE( 1.000000000000000082E-05 ), #1087, 'distance_accuracy_value', 'NONE');
#660 = EDGE_LOOP ( 'NONE', ( #1022, #603, #70, #141 ) ) ;
#661 = CARTESIAN_POINT ( 'NONE',  ( 0.7353228748631885914, 0.000000000000000000, -0.06207068311961422974 ) ) ;
#662 = ORIENTED_EDGE ( 'NONE', *, *, #1002, .F. ) ;
#663 = VERTEX_POINT ( 'NONE', #1239 ) ;
#664 =( GEOMETRIC_REPRESENTATION_CONTEXT ( 3 ) GLOBAL_UNCERTAINTY_ASSIGNED_CONTEXT ( ( #893 ) ) GLOBAL_UNIT_ASSIGNED_CONTEXT ( ( #1197, #517, #24 ) ) REPRESENTATION_CONTEXT ( 'NONE', 'WORKASPACE' ) );
#665 = DIRECTION ( 'NONE',  ( -0.000000000000000000, 1.000000000000000000, -0.000000000000000000 ) ) ;
#666 = VERTEX_POINT ( 'NONE', #388 ) ;
#667 = ORIENTED_EDGE ( 'NONE', *, *, #1241, .T. ) ;
#668 = AXIS2_PLACEMENT_3D ( 'NONE', #1060, #1232, #550 ) ;
#669 = DIRECTION ( 'NONE',  ( 0.000000000000000000, 0.000000000000000000, -1.000000000000000000 ) ) ;
#670 = EDGE_LOOP ( 'NONE', ( #240, #645, #667, #81 ) ) ;
#671 = EDGE_LOOP ( 'NONE', ( #1021, #222 ) ) ;
#672 = CARTESIAN_POINT ( 'NONE',  ( -0.07150000000000004963, 0.02000000000000000042, 0.2149999999999992195 ) ) ;
#673 = DIRECTION ( 'NONE',  ( 0.000000000000000000, 0.000000000000000000, -1.000000000000000000 ) ) ;
#674 = AXIS2_PLACEMENT_3D ( 'NONE', #971, #424, #960 ) ;
#675 = DIRECTION ( 'NONE',  ( -0.7783157757945251554, 0.000000000000000000, -0.6278730390368472136 ) ) ;
#676 = DIRECTION ( 'NONE',  ( -0.000000000000000000, -1.000000000000000000, -0.000000000000000000 ) ) ;
#677 = AXIS2_PLACEMENT_3D ( 'NONE', #422, #894, #1206 ) ;
#678 = DIRECTION ( 'NONE',  ( -0.000000000000000000, -1.000000000000000000, -0.000000000000000000 ) ) ;
#679 = CARTESIAN_POINT ( 'NONE',  ( -2.731847993664263218E-16, 0.06500000000000000222, -0.3975000000000000200 ) ) ;
#680 = CARTESIAN_POINT ( 'NONE',  ( -0.07150000000000004963, 0.000000000000000000, 0.2149999999999992195 ) ) ;
#681 = VERTEX_POINT ( 'NONE', #1064 ) ;
#682 = DIRECTION ( 'NONE',  ( 0.000000000000000000, -1.000000000000000000, 0.000000000000000000 ) ) ;
#683 = EDGE_LOOP ( 'NONE', ( #1080, #618, #1041, #148 ) ) ;
#684 = AXIS2_PLACEMENT_3D ( 'NONE', #1211, #996, #49 ) ;
#685 = EDGE_LOOP ( 'NONE', ( #502, #1025 ) ) ;
#686 = EDGE_CURVE ( 'NONE', #993, #71, #431, .T. ) ;
#687 = DIRECTION ( 'NONE',  ( 0.000000000000000000, 0.000000000000000000, -1.000000000000000000 ) ) ;
#688 = ORIENTED_EDGE ( 'NONE', *, *, #638, .T. ) ;
#689 =( NAMED_UNIT ( * ) SI_UNIT ( $, .STERADIAN. ) SOLID_ANGLE_UNIT ( ) );
#690 = ADVANCED_FACE ( 'NONE', ( #3, #407, #440, #1227, #434 ), #89, .F. ) ;
#691 = SURFACE_STYLE_USAGE ( .BOTH. , #571 ) ;
#692 = VERTEX_POINT ( 'NONE', #489 ) ;
#693 = CARTESIAN_POINT ( 'NONE',  ( 0.3202152499087916326, 0.06500000000000000222, 0.3969410456552081579 ) ) ;
#694 = ORIENTED_EDGE ( 'NONE', *, *, #926, .F. ) ;
#695 = ORIENTED_EDGE ( 'NONE', *, *, #253, .T. ) ;
#696 = CARTESIAN_POINT ( 'NONE',  ( -0.07150000000000004963, 0.2321320343559641897, 0.2149999999999992195 ) ) ;
#697 = EDGE_LOOP ( 'NONE', ( #188, #602, #1008, #657 ) ) ;
#698 = ORIENTED_EDGE ( 'NONE', *, *, #1093, .T. ) ;
#699 = PRESENTATION_LAYER_ASSIGNMENT (  '', '', ( #439 ) ) ;
#700 = CARTESIAN_POINT ( 'NONE',  ( -0.5934999999999999165, 0.000000000000000000, 0.07899999999999998690 ) ) ;
#701 = EDGE_CURVE ( 'NONE', #1012, #663, #7, .T. ) ;
#702 = CARTESIAN_POINT ( 'NONE',  ( 0.6852500000000000258, 0.06500000000000000222, -6.829619984160658046E-16 ) ) ;
#703 = PRODUCT ( 'TO-204_197A-05', 'TO-204_197A-05', '', ( #113 ) ) ;
#704 = DIRECTION ( 'NONE',  ( 0.000000000000000000, 0.000000000000000000, -1.000000000000000000 ) ) ;
#705 = ORIENTED_EDGE ( 'NONE', *, *, #184, .T. ) ;
#706 = CARTESIAN_POINT ( 'NONE',  ( -0.5934999999999999165, 0.000000000000000000, -0.07899999999999998690 ) ) ;
#707 = FACE_OUTER_BOUND ( 'NONE', #640, .T. ) ;
#708 = CARTESIAN_POINT ( 'NONE',  ( -0.5934999999999999165, 0.06500000000000000222, 0.000000000000000000 ) ) ;
#709 = VECTOR ( 'NONE', #736, 39.37007874015748143 ) ;
#710 = VECTOR ( 'NONE', #536, 39.37007874015748854 ) ;
#711 = CARTESIAN_POINT ( 'NONE',  ( -0.07150000000000004963, 0.02000000000000000042, 0.2149999999999992195 ) ) ;
#712 = AXIS2_PLACEMENT_3D ( 'NONE', #1185, #1090, #400 ) ;
#713 = CIRCLE ( 'NONE', #684, 0.03000000000000002318 ) ;
#714 = CARTESIAN_POINT ( 'NONE',  ( -0.07150000000000004963, -0.4799999999999999822, 0.2149999999999992195 ) ) ;
#715 = CARTESIAN_POINT ( 'NONE',  ( 0.5934999999999999165, 0.000000000000000000, -0.07900000000000062528 ) ) ;
#716 = PRESENTATION_STYLE_ASSIGNMENT (( #601 ) ) ;
#717 = LINE ( 'NONE', #259, #709 ) ;
#718 = CIRCLE ( 'NONE', #1121, 0.3975000000000000200 ) ;
#719 = LINE ( 'NONE', #512, #726 ) ;
#720 = DIMENSIONAL_EXPONENTS ( 1.000000000000000000, 0.000000000000000000, 0.000000000000000000, 0.000000000000000000, 0.000000000000000000, 0.000000000000000000, 0.000000000000000000 ) ;
#721 = CARTESIAN_POINT ( 'NONE',  ( -0.5934999999999999165, 0.06500000000000000222, 0.07899999999999998690 ) ) ;
#722 = ADVANCED_FACE ( 'NONE', ( #406 ), #855, .F. ) ;
#723 = ORIENTED_EDGE ( 'NONE', *, *, #847, .F. ) ;
#724 = AXIS2_PLACEMENT_3D ( 'NONE', #870, #1155, #152 ) ;
#725 = LINE ( 'NONE', #256, #710 ) ;
#726 = VECTOR ( 'NONE', #187, 39.37007874015748143 ) ;
#727 = PRODUCT_DEFINITION ( 'UNKNOWN', '', #933, #946 ) ;
#728 = CARTESIAN_POINT ( 'NONE',  ( -0.07150000000000004963, 0.02000000000000000042, 0.2149999999999992195 ) ) ;
#729 = CARTESIAN_POINT ( 'NONE',  ( -0.07150000000000059086, 0.000000000000000000, -0.1849999999999991929 ) ) ;
#730 = CARTESIAN_POINT ( 'NONE',  ( -2.731847993664263218E-16, 0.3099999999999999978, 0.3724999999999999978 ) ) ;
#731 = FACE_OUTER_BOUND ( 'NONE', #1062, .T. ) ;
#732 = SURFACE_STYLE_FILL_AREA ( #97 ) ;
#733 = VECTOR ( 'NONE', #366, 39.37007874015748143 ) ;
#734 = EDGE_CURVE ( 'NONE', #629, #160, #1233, .T. ) ;
#735 = CYLINDRICAL_SURFACE ( 'NONE', #1229, 0.5100000000000003419 ) ;
#736 = DIRECTION ( 'NONE',  ( -0.000000000000000000, 1.000000000000000000, -0.000000000000000000 ) ) ;
#737 = DIRECTION ( 'NONE',  ( -0.000000000000000000, -1.000000000000000000, -0.000000000000000000 ) ) ;
#738 = FACE_OUTER_BOUND ( 'NONE', #1085, .T. ) ;
#739 = AXIS2_PLACEMENT_3D ( 'NONE', #192, #310, #396 ) ;
#740 = LINE ( 'NONE', #269, #1136 ) ;
#741 =( NAMED_UNIT ( * ) PLANE_ANGLE_UNIT ( ) SI_UNIT ( $, .RADIAN. ) );
#742 = DIRECTION ( 'NONE',  ( 0.000000000000000000, -1.000000000000000000, 0.000000000000000000 ) ) ;
#743 = DIRECTION ( 'NONE',  ( 0.000000000000000000, 0.000000000000000000, 1.000000000000000000 ) ) ;
#744 = CIRCLE ( 'NONE', #433, 0.03000000000000002318 ) ;
#745 = DIRECTION ( 'NONE',  ( -0.000000000000000000, -1.000000000000000000, -0.000000000000000000 ) ) ;
#746 =( GEOMETRIC_REPRESENTATION_CONTEXT ( 3 ) GLOBAL_UNCERTAINTY_ASSIGNED_CONTEXT ( ( #286 ) ) GLOBAL_UNIT_ASSIGNED_CONTEXT ( ( #1169, #122, #837 ) ) REPRESENTATION_CONTEXT ( 'NONE', 'WORKASPACE' ) );
#747 = EDGE_CURVE ( 'NONE', #632, #544, #830, .T. ) ;
#748 = DIRECTION ( 'NONE',  ( 0.000000000000000000, -1.000000000000000000, 0.000000000000000000 ) ) ;
#749 = CYLINDRICAL_SURFACE ( 'NONE', #13, 0.3975000000000000200 ) ;
#750 = UNCERTAINTY_MEASURE_WITH_UNIT (LENGTH_MEASURE( 1.000000000000000082E-05 ), #916, 'distance_accuracy_value', 'NONE');
#751 = EDGE_CURVE ( 'NONE', #111, #913, #409, .T. ) ;
#752 = CARTESIAN_POINT ( 'NONE',  ( 0.000000000000000000, 0.000000000000000000, 0.000000000000000000 ) ) ;
#753 = CYLINDRICAL_SURFACE ( 'NONE', #532, 0.03000000000000002318 ) ;
#754 = DIRECTION ( 'NONE',  ( 0.000000000000000000, 0.000000000000000000, 1.000000000000000000 ) ) ;
#755 = SHAPE_DEFINITION_REPRESENTATION ( #1047, #852 ) ;
#756 = CARTESIAN_POINT ( 'NONE',  ( -2.731847993664263218E-16, 0.3350000000000000200, 0.3724999999999999978 ) ) ;
#757 = LENGTH_MEASURE_WITH_UNIT ( LENGTH_MEASURE( 0.02539999999999999897 ), #317 );
#758 = DIRECTION ( 'NONE',  ( 0.000000000000000000, -1.000000000000000000, 0.000000000000000000 ) ) ;
#759 = EDGE_CURVE ( 'NONE', #1069, #99, #411, .T. ) ;
#760 = CYLINDRICAL_SURFACE ( 'NONE', #270, 0.07499999999999998335 ) ;
#761 = DIRECTION ( 'NONE',  ( 0.7783157757945243782, 0.000000000000000000, 0.6278730390368484349 ) ) ;
#762 = LENGTH_MEASURE_WITH_UNIT ( LENGTH_MEASURE( 0.02539999999999999897 ), #634 );
#763 = DIRECTION ( 'NONE',  ( 0.000000000000000000, -1.000000000000000000, 0.000000000000000000 ) ) ;
#764 = CARTESIAN_POINT ( 'NONE',  ( -0.07150000000000059086, 0.000000000000000000, -0.2899999999999992029 ) ) ;
#765 = VECTOR ( 'NONE', #1172, 39.37007874015748143 ) ;
#766 = PRESENTATION_LAYER_ASSIGNMENT (  '', '', ( #1171 ) ) ;
#767 = CARTESIAN_POINT ( 'NONE',  ( -0.3202152499087925763, 0.06500000000000000222, -0.3969410456552078248 ) ) ;
#768 = LINE ( 'NONE', #577, #792 ) ;
#769 = FACE_OUTER_BOUND ( 'NONE', #268, .T. ) ;
#770 = DIRECTION ( 'NONE',  ( 0.000000000000000000, 1.000000000000000000, -0.000000000000000000 ) ) ;
#771 = COLOUR_RGB ( '',0.2509803921568627416, 0.2509803921568627416, 0.2509803921568627416 ) ;
#772 = DIRECTION ( 'NONE',  ( -0.000000000000000000, -1.000000000000000000, -0.000000000000000000 ) ) ;
#773 = AXIS2_PLACEMENT_3D ( 'NONE', #586, #886, #966 ) ;
#774 = LINE ( 'NONE', #934, #1196 ) ;
#775 = DIRECTION ( 'NONE',  ( 0.000000000000000000, 0.000000000000000000, -1.000000000000000000 ) ) ;
#776 = EDGE_CURVE ( 'NONE', #234, #666, #833, .T. ) ;
#777 = FACE_OUTER_BOUND ( 'NONE', #1099, .T. ) ;
#778 = DIRECTION ( 'NONE',  ( 0.000000000000000000, -1.000000000000000000, 0.000000000000000000 ) ) ;
#779 = ADVANCED_FACE ( 'NONE', ( #1237 ), #52, .F. ) ;
#780 = AXIS2_PLACEMENT_3D ( 'NONE', #1113, #359, #911 ) ;
#781 = CIRCLE ( 'NONE', #1115, 0.07499999999999998335 ) ;
#782 = DIRECTION ( 'NONE',  ( 0.000000000000000000, 0.000000000000000000, -1.000000000000000000 ) ) ;
#783 = FACE_OUTER_BOUND ( 'NONE', #584, .T. ) ;
#784 = DIRECTION ( 'NONE',  ( -0.000000000000000000, -1.000000000000000000, -0.000000000000000000 ) ) ;
#785 = ADVANCED_FACE ( 'NONE', ( #412 ), #1199, .T. ) ;
#786 = LINE ( 'NONE', #33, #350 ) ;
#787 = EDGE_CURVE ( 'NONE', #1050, #235, #1190, .T. ) ;
#788 = CARTESIAN_POINT ( 'NONE',  ( -2.731847993664263218E-16, 0.06500000000000000222, 0.000000000000000000 ) ) ;
#789 = PRESENTATION_STYLE_ASSIGNMENT (( #329 ) ) ;
#790 =( LENGTH_UNIT ( ) NAMED_UNIT ( * ) SI_UNIT ( $, .METRE. ) );
#791 = EDGE_CURVE ( 'NONE', #274, #1063, #768, .T. ) ;
#792 = VECTOR ( 'NONE', #177, 39.37007874015748143 ) ;
#793 = DIRECTION ( 'NONE',  ( -0.000000000000000000, 1.000000000000000000, -0.000000000000000000 ) ) ;
#794 = DIRECTION ( 'NONE',  ( -0.000000000000000000, -1.000000000000000000, -0.000000000000000000 ) ) ;
#795 = FACE_OUTER_BOUND ( 'NONE', #216, .T. ) ;
#796 = LINE ( 'NONE', #328, #383 ) ;
#797 = CARTESIAN_POINT ( 'NONE',  ( 0.000000000000000000, 0.06500000000000000222, 0.000000000000000000 ) ) ;
#798 =( GEOMETRIC_REPRESENTATION_CONTEXT ( 3 ) GLOBAL_UNCERTAINTY_ASSIGNED_CONTEXT ( ( #1104 ) ) GLOBAL_UNIT_ASSIGNED_CONTEXT ( ( #255, #741, #1026 ) ) REPRESENTATION_CONTEXT ( 'NONE', 'WORKASPACE' ) );
#799 = CARTESIAN_POINT ( 'NONE',  ( 0.000000000000000000, 0.06500000000000000222, 0.000000000000000000 ) ) ;
#800 = CARTESIAN_POINT ( 'NONE',  ( 0.000000000000000000, 0.06500000000000000222, -0.5100000000000003419 ) ) ;
#801 = EDGE_CURVE ( 'NONE', #305, #1069, #1201, .T. ) ;
#802 = CIRCLE ( 'NONE', #1091, 0.3724999999999999978 ) ;
#803 = FACE_OUTER_BOUND ( 'NONE', #670, .T. ) ;
#804 = DIRECTION ( 'NONE',  ( 0.000000000000000000, -0.000000000000000000, -1.000000000000000000 ) ) ;
#805 = DIRECTION ( 'NONE',  ( 0.000000000000000000, 0.000000000000000000, 1.000000000000000000 ) ) ;
#806 = CIRCLE ( 'NONE', #201, 0.07499999999999998335 ) ;
#807 = APPLICATION_PROTOCOL_DEFINITION ( 'draft international standard', 'automotive_design', 1998, #228 ) ;
#808 = ADVANCED_FACE ( 'NONE', ( #352 ), #348, .T. ) ;
#809 = FACE_OUTER_BOUND ( 'NONE', #594, .T. ) ;
#810 = CYLINDRICAL_SURFACE ( 'NONE', #1130, 0.03000000000000002318 ) ;
#811 = DIRECTION ( 'NONE',  ( -0.000000000000000000, -1.000000000000000000, -0.000000000000000000 ) ) ;
#812 = CIRCLE ( 'NONE', #549, 0.03000000000000002318 ) ;
#813 = CARTESIAN_POINT ( 'NONE',  ( -0.07150000000000059086, -0.4799999999999999822, -0.2449999999999992184 ) ) ;
#814 = LINE ( 'NONE', #1143, #815 ) ;
#815 = VECTOR ( 'NONE', #745, 39.37007874015748143 ) ;
#816 = AXIS2_PLACEMENT_3D ( 'NONE', #702, #794, #236 ) ;
#817 = ADVANCED_FACE ( 'NONE', ( #365 ), #760, .T. ) ;
#818 = CYLINDRICAL_SURFACE ( 'NONE', #552, 0.03000000000000002318 ) ;
#819 = CIRCLE ( 'NONE', #881, 0.07499999999999998335 ) ;
#820 = EDGE_CURVE ( 'NONE', #99, #1096, #774, .T. ) ;
#821 = DIRECTION ( 'NONE',  ( 0.6278730390368481018, -0.000000000000000000, 0.7783157757945244892 ) ) ;
#822 = VECTOR ( 'NONE', #964, 39.37007874015748143 ) ;
#823 = CARTESIAN_POINT ( 'NONE',  ( 0.7353228748631873701, 0.000000000000000000, 0.06207068311961407708 ) ) ;
#824 = DIRECTION ( 'NONE',  ( 0.000000000000000000, 0.000000000000000000, 1.000000000000000000 ) ) ;
#825 = LINE ( 'NONE', #159, #840 ) ;
#826 = CYLINDRICAL_SURFACE ( 'NONE', #841, 0.07899999999999994527 ) ;
#827 = UNCERTAINTY_MEASURE_WITH_UNIT (LENGTH_MEASURE( 1.000000000000000082E-05 ), #1167, 'distance_accuracy_value', 'NONE');
#828 = AXIS2_PLACEMENT_3D ( 'NONE', #1001, #273, #905 ) ;
#829 = AXIS2_PLACEMENT_3D ( 'NONE', #471, #306, #484 ) ;
#830 = LINE ( 'NONE', #538, #1234 ) ;
#831 = FACE_OUTER_BOUND ( 'NONE', #238, .T. ) ;
#832 = DIRECTION ( 'NONE',  ( 0.000000000000000000, -1.000000000000000000, 0.000000000000000000 ) ) ;
#833 = CIRCLE ( 'NONE', #486, 0.07499999999999998335 ) ;
#834 = DIRECTION ( 'NONE',  ( 0.000000000000000000, 0.000000000000000000, -1.000000000000000000 ) ) ;
#835 = FACE_OUTER_BOUND ( 'NONE', #242, .T. ) ;
#836 = STYLED_ITEM ( 'NONE', ( #473 ), #344 ) ;
#837 =( NAMED_UNIT ( * ) SI_UNIT ( $, .STERADIAN. ) SOLID_ANGLE_UNIT ( ) );
#838 = CARTESIAN_POINT ( 'NONE',  ( -0.07150000000000004963, -0.4799999999999999822, 0.2449999999999992184 ) ) ;
#839 = DIRECTION ( 'NONE',  ( -0.000000000000000000, -1.000000000000000000, -0.000000000000000000 ) ) ;
#840 = VECTOR ( 'NONE', #676, 39.37007874015748143 ) ;
#841 = AXIS2_PLACEMENT_3D ( 'NONE', #906, #1117, #40 ) ;
#842 = PLANE ( 'NONE',  #423 ) ;
#843 = CIRCLE ( 'NONE', #1137, 0.3724999999999999978 ) ;
#844 = CARTESIAN_POINT ( 'NONE',  ( 0.000000000000000000, 0.000000000000000000, 0.000000000000000000 ) ) ;
#845 = AXIS2_PLACEMENT_3D ( 'NONE', #12, #1078, #295 ) ;
#846 = VECTOR ( 'NONE', #551, 39.37007874015748143 ) ;
#847 = EDGE_CURVE ( 'NONE', #504, #1100, #1209, .T. ) ;
#848 = FILL_AREA_STYLE ('',( #369 ) ) ;
#849 = LINE ( 'NONE', #207, #1231 ) ;
#850 = EDGE_CURVE ( 'NONE', #185, #1051, #1193, .T. ) ;
#851 = DIRECTION ( 'NONE',  ( 0.000000000000000000, -1.000000000000000000, 0.000000000000000000 ) ) ;
#852 = ADVANCED_BREP_SHAPE_REPRESENTATION ( 'TO-204_197A-05', ( #344, #31, #920, #436, #485, #1207 ), #490 ) ;
#853 = VECTOR ( 'NONE', #784, 39.37007874015748143 ) ;
#854 = CARTESIAN_POINT ( 'NONE',  ( -0.07150000000000059086, 0.000000000000000000, -0.2149999999999992195 ) ) ;
#855 = CYLINDRICAL_SURFACE ( 'NONE', #334, 0.07899999999999998690 ) ;
#856 = CARTESIAN_POINT ( 'NONE',  ( -0.07150000000000059086, 0.02000000000000000042, -0.2899999999999992029 ) ) ;
#857 = FACE_OUTER_BOUND ( 'NONE', #1004, .T. ) ;
#858 = DIRECTION ( 'NONE',  ( 0.000000000000000000, 0.000000000000000000, 1.000000000000000000 ) ) ;
#859 = EDGE_CURVE ( 'NONE', #643, #654, #361, .T. ) ;
#860 = CIRCLE ( 'NONE', #74, 0.07499999999999998335 ) ;
#861 = VECTOR ( 'NONE', #120, 39.37007874015748143 ) ;
#862 = FACE_OUTER_BOUND ( 'NONE', #697, .T. ) ;
#863 = DIRECTION ( 'NONE',  ( -0.000000000000000000, -1.000000000000000000, -0.000000000000000000 ) ) ;
#864 = CARTESIAN_POINT ( 'NONE',  ( -0.07150000000000004963, 0.000000000000000000, 0.2149999999999992195 ) ) ;
#865 = CIRCLE ( 'NONE', #999, 0.07499999999999998335 ) ;
#866 = DIRECTION ( 'NONE',  ( 0.000000000000000000, 1.000000000000000000, -0.000000000000000000 ) ) ;
#867 = DIRECTION ( 'NONE',  ( 0.000000000000000000, 0.000000000000000000, -1.000000000000000000 ) ) ;
#868 = CIRCLE ( 'NONE', #452, 0.07499999999999998335 ) ;
#869 = LINE ( 'NONE', #554, #442 ) ;
#870 = CARTESIAN_POINT ( 'NONE',  ( -0.07150000000000004963, 0.000000000000000000, 0.2149999999999992195 ) ) ;
#871 = CARTESIAN_POINT ( 'NONE',  ( 0.7353228748631873701, 0.06500000000000000222, 0.06207068311961407708 ) ) ;
#872 = AXIS2_PLACEMENT_3D ( 'NONE', #275, #284, #1141 ) ;
#873 = ADVANCED_FACE ( 'NONE', ( #783 ), #72, .T. ) ;
#874 = LINE ( 'NONE', #721, #861 ) ;
#875 = SURFACE_SIDE_STYLE ('',( #1160 ) ) ;
#876 = EDGE_CURVE ( 'NONE', #99, #648, #363, .T. ) ;
#877 = DIRECTION ( 'NONE',  ( -0.000000000000000000, -1.000000000000000000, -0.000000000000000000 ) ) ;
#878 = FACE_OUTER_BOUND ( 'NONE', #198, .T. ) ;
#879 = DIRECTION ( 'NONE',  ( 0.000000000000000000, 0.000000000000000000, -1.000000000000000000 ) ) ;
#880 = DIRECTION ( 'NONE',  ( -1.000000000000000000, 0.000000000000000000, 0.000000000000000000 ) ) ;
#881 = AXIS2_PLACEMENT_3D ( 'NONE', #1157, #1215, #456 ) ;
#882 = FACE_OUTER_BOUND ( 'NONE', #158, .T. ) ;
#883 = DIRECTION ( 'NONE',  ( -0.000000000000000000, -1.000000000000000000, -0.000000000000000000 ) ) ;
#884 = CIRCLE ( 'NONE', #131, 0.02500000000000000486 ) ;
#885 = DIRECTION ( 'NONE',  ( 0.000000000000000000, 0.000000000000000000, -1.000000000000000000 ) ) ;
#886 = DIRECTION ( 'NONE',  ( 0.000000000000000000, 1.000000000000000000, 0.000000000000000000 ) ) ;
#887 = CIRCLE ( 'NONE', #290, 0.07899999999999998690 ) ;
#888 = DIRECTION ( 'NONE',  ( 0.000000000000000000, 0.000000000000000000, 1.000000000000000000 ) ) ;
#889 = FACE_OUTER_BOUND ( 'NONE', #979, .T. ) ;
#890 = LINE ( 'NONE', #813, #48 ) ;
#891 = CARTESIAN_POINT ( 'NONE',  ( -2.731847993664263218E-16, 0.3350000000000000200, 0.000000000000000000 ) ) ;
#892 = AXIS2_PLACEMENT_3D ( 'NONE', #714, #778, #419 ) ;
#893 = UNCERTAINTY_MEASURE_WITH_UNIT (LENGTH_MEASURE( 1.000000000000000082E-05 ), #1197, 'distance_accuracy_value', 'NONE');
#894 = DIRECTION ( 'NONE',  ( 0.000000000000000000, 1.000000000000000000, -0.000000000000000000 ) ) ;
#895 = DIRECTION ( 'NONE',  ( 0.000000000000000000, 1.000000000000000000, 0.000000000000000000 ) ) ;
#896 = DIRECTION ( 'NONE',  ( -0.000000000000000000, -1.000000000000000000, -0.000000000000000000 ) ) ;
#897 = COLOUR_RGB ( '',0.7921568627450980005, 0.8196078431372548767, 0.9333333333333333481 ) ;
#898 = AXIS2_PLACEMENT_3D ( 'NONE', #728, #438, #1181 ) ;
#899 = DIRECTION ( 'NONE',  ( 0.000000000000000000, -1.000000000000000000, 0.000000000000000000 ) ) ;
#900 = DIMENSIONAL_EXPONENTS ( 1.000000000000000000, 0.000000000000000000, 0.000000000000000000, 0.000000000000000000, 0.000000000000000000, 0.000000000000000000, 0.000000000000000000 ) ;
#901 = CARTESIAN_POINT ( 'NONE',  ( -0.7353228748631885914, 0.06500000000000000222, -0.06207068311961341095 ) ) ;
#902 = ADVANCED_FACE ( 'NONE', ( #777 ), #288, .T. ) ;
#903 = VECTOR ( 'NONE', #761, 39.37007874015748143 ) ;
#904 = DIRECTION ( 'NONE',  ( 0.000000000000000000, 0.000000000000000000, 1.000000000000000000 ) ) ;
#905 = DIRECTION ( 'NONE',  ( 0.000000000000000000, 0.000000000000000000, 1.000000000000000000 ) ) ;
#906 = CARTESIAN_POINT ( 'NONE',  ( 0.5934999999999999165, 0.06500000000000000222, -6.829619984160658046E-16 ) ) ;
#907 = CARTESIAN_POINT ( 'NONE',  ( 0.7353228748631885914, 0.06500000000000000222, -0.06207068311961422974 ) ) ;
#908 = VERTEX_POINT ( 'NONE', #498 ) ;
#909 = LINE ( 'NONE', #149, #903 ) ;
#910 = AXIS2_PLACEMENT_3D ( 'NONE', #358, #55, #754 ) ;
#911 = DIRECTION ( 'NONE',  ( 0.7783157757945251554, 0.000000000000000000, 0.6278730390368472136 ) ) ;
#912 = CARTESIAN_POINT ( 'NONE',  ( -0.6852500000000000258, 0.000000000000000000, 0.000000000000000000 ) ) ;
#913 = VERTEX_POINT ( 'NONE', #1161 ) ;
#914 = DIRECTION ( 'NONE',  ( 0.000000000000000000, 0.000000000000000000, -1.000000000000000000 ) ) ;
#915 = ORIENTED_EDGE ( 'NONE', *, *, #108, .F. ) ;
#916 =( CONVERSION_BASED_UNIT ( 'INCH', #68 ) LENGTH_UNIT ( ) NAMED_UNIT ( #720 ) );
#917 = DIRECTION ( 'NONE',  ( 0.000000000000000000, 0.000000000000000000, 1.000000000000000000 ) ) ;
#918 = VERTEX_POINT ( 'NONE', #585 ) ;
#919 = ORIENTED_EDGE ( 'NONE', *, *, #298, .T. ) ;
#920 = MANIFOLD_SOLID_BREP ( 'Boss-Extrude3[2]', #272 ) ;
#921 = CARTESIAN_POINT ( 'NONE',  ( -0.07150000000000059086, 0.01999999999999999001, -0.2899999999999992029 ) ) ;
#922 = ORIENTED_EDGE ( 'NONE', *, *, #157, .F. ) ;
#923 = DIRECTION ( 'NONE',  ( 0.000000000000000000, 0.000000000000000000, -1.000000000000000000 ) ) ;
#924 = PRESENTATION_LAYER_ASSIGNMENT (  '', '', ( #179 ) ) ;
#925 = EDGE_LOOP ( 'NONE', ( #118, #214, #598, #1036 ) ) ;
#926 = EDGE_CURVE ( 'NONE', #71, #1024, #786, .T. ) ;
#927 = DIRECTION ( 'NONE',  ( 0.7783157757945247113, -0.000000000000000000, -0.6278730390368476577 ) ) ;
#928 = EDGE_LOOP ( 'NONE', ( #1017, #75, #656, #540 ) ) ;
#929 = DIRECTION ( 'NONE',  ( 0.000000000000000000, 1.000000000000000000, 0.000000000000000000 ) ) ;
#930 = EDGE_LOOP ( 'NONE', ( #516, #616 ) ) ;
#931 = AXIS2_PLACEMENT_3D ( 'NONE', #672, #763, #163 ) ;
#932 = SURFACE_STYLE_USAGE ( .BOTH. , #465 ) ;
#933 = PRODUCT_DEFINITION_FORMATION_WITH_SPECIFIED_SOURCE ( 'ANY', '', #703, .NOT_KNOWN. ) ;
#934 = CARTESIAN_POINT ( 'NONE',  ( 0.000000000000000000, 0.06500000000000000222, -0.5100000000000003419 ) ) ;
#935 = ORIENTED_EDGE ( 'NONE', *, *, #787, .F. ) ;
#936 = ADVANCED_FACE ( 'NONE', ( #769 ), #347, .T. ) ;
#937 = CARTESIAN_POINT ( 'NONE',  ( -0.07150000000000004963, 0.000000000000000000, 0.2149999999999992195 ) ) ;
#938 = CLOSED_SHELL ( 'NONE', ( #521, #1168, #936, #206 ) ) ;
#939 = AXIS2_PLACEMENT_3D ( 'NONE', #711, #896, #114 ) ;
#940 = ORIENTED_EDGE ( 'NONE', *, *, #644, .T. ) ;
#941 = CARTESIAN_POINT ( 'NONE',  ( -0.07150000000000003575, 0.000000000000000000, 0.2899999999999992029 ) ) ;
#942 = ORIENTED_EDGE ( 'NONE', *, *, #98, .F. ) ;
#943 = PLANE ( 'NONE',  #351 ) ;
#944 = CARTESIAN_POINT ( 'NONE',  ( 0.7353228748631885914, 0.000000000000000000, -0.06207068311961422974 ) ) ;
#945 = ORIENTED_EDGE ( 'NONE', *, *, #859, .F. ) ;
#946 = PRODUCT_DEFINITION_CONTEXT ( 'detailed design', #228, 'design' ) ;
#947 = ORIENTED_EDGE ( 'NONE', *, *, #553, .F. ) ;
#948 = ORIENTED_EDGE ( 'NONE', *, *, #265, .T. ) ;
#949 = CARTESIAN_POINT ( 'NONE',  ( 0.000000000000000000, 0.06500000000000000222, 0.000000000000000000 ) ) ;
#950 = DIRECTION ( 'NONE',  ( 0.000000000000000000, 1.000000000000000000, 0.000000000000000000 ) ) ;
#951 = AXIS2_PLACEMENT_3D ( 'NONE', #145, #559, #302 ) ;
#952 = CARTESIAN_POINT ( 'NONE',  ( -0.07150000000000004963, 0.01999999999999999001, 0.2149999999999992195 ) ) ;
#953 = EDGE_CURVE ( 'NONE', #169, #692, #1194, .T. ) ;
#954 = ORIENTED_EDGE ( 'NONE', *, *, #410, .T. ) ;
#955 = DIRECTION ( 'NONE',  ( 0.000000000000000000, 0.000000000000000000, 1.000000000000000000 ) ) ;
#956 = SURFACE_SIDE_STYLE ('',( #375 ) ) ;
#957 = ADVANCED_FACE ( 'NONE', ( #354 ), #647, .F. ) ;
#958 = PLANE ( 'NONE',  #845 ) ;
#959 = DIRECTION ( 'NONE',  ( -0.7783157757945251554, 0.000000000000000000, -0.6278730390368472136 ) ) ;
#960 = DIRECTION ( 'NONE',  ( 1.224646799147351728E-16, 0.000000000000000000, -1.000000000000000000 ) ) ;
#961 = MECHANICAL_DESIGN_GEOMETRIC_PRESENTATION_REPRESENTATION (  '', ( #179 ), #155 ) ;
#962 =( NAMED_UNIT ( * ) PLANE_ANGLE_UNIT ( ) SI_UNIT ( $, .RADIAN. ) );
#963 = EDGE_CURVE ( 'NONE', #504, #278, #1203, .T. ) ;
#964 = DIRECTION ( 'NONE',  ( -0.000000000000000000, -1.000000000000000000, -0.000000000000000000 ) ) ;
#965 = CARTESIAN_POINT ( 'NONE',  ( 0.3202152499087916326, 0.06500000000000000222, 0.3969410456552081579 ) ) ;
#966 = DIRECTION ( 'NONE',  ( 0.000000000000000000, 0.000000000000000000, 1.000000000000000000 ) ) ;
#967 =( GEOMETRIC_REPRESENTATION_CONTEXT ( 3 ) GLOBAL_UNCERTAINTY_ASSIGNED_CONTEXT ( ( #659 ) ) GLOBAL_UNIT_ASSIGNED_CONTEXT ( ( #1087, #1173, #215 ) ) REPRESENTATION_CONTEXT ( 'NONE', 'WORKASPACE' ) );
#968 = DIRECTION ( 'NONE',  ( 1.000000000000000000, 0.000000000000000000, 0.000000000000000000 ) ) ;
#969 = DIRECTION ( 'NONE',  ( -0.000000000000000000, 1.000000000000000000, 0.000000000000000000 ) ) ;
#970 = DIRECTION ( 'NONE',  ( 0.000000000000000000, 0.000000000000000000, 1.000000000000000000 ) ) ;
#971 = CARTESIAN_POINT ( 'NONE',  ( -2.275667060981873865E-16, 0.3099999999999999978, -0.3724999999999999978 ) ) ;
#972 = ADVANCED_FACE ( 'NONE', ( #1184 ), #357, .F. ) ;
#973 = EDGE_CURVE ( 'NONE', #626, #1023, #1182, .T. ) ;
#974 = STYLED_ITEM ( 'NONE', ( #789 ), #920 ) ;
#975 = CARTESIAN_POINT ( 'NONE',  ( -0.07150000000000004963, -0.4799999999999999822, 0.2149999999999992195 ) ) ;
#976 = ORIENTED_EDGE ( 'NONE', *, *, #1145, .F. ) ;
#977 = CARTESIAN_POINT ( 'NONE',  ( -0.07150000000000059086, 0.000000000000000000, -0.2149999999999992195 ) ) ;
#978 = AXIS2_PLACEMENT_3D ( 'NONE', #952, #183, #555 ) ;
#979 = EDGE_LOOP ( 'NONE', ( #85, #1082, #1061, #1066 ) ) ;
#980 = ADVANCED_FACE ( 'NONE', ( #795 ), #1187, .F. ) ;
#981 = ORIENTED_EDGE ( 'NONE', *, *, #1093, .F. ) ;
#982 = DIRECTION ( 'NONE',  ( -0.000000000000000000, -1.000000000000000000, -0.000000000000000000 ) ) ;
#983 = ORIENTED_EDGE ( 'NONE', *, *, #575, .T. ) ;
#984 = EDGE_CURVE ( 'NONE', #918, #1112, #781, .T. ) ;
#985 = DIRECTION ( 'NONE',  ( -0.000000000000000000, -1.000000000000000000, -0.000000000000000000 ) ) ;
#986 = EDGE_LOOP ( 'NONE', ( #1146, #168 ) ) ;
#987 = ORIENTED_EDGE ( 'NONE', *, *, #209, .T. ) ;
#988 = CARTESIAN_POINT ( 'NONE',  ( -2.731847993664263218E-16, 1.794299782086610673, 0.000000000000000000 ) ) ;
#989 = ORIENTED_EDGE ( 'NONE', *, *, #1174, .T. ) ;
#990 = ORIENTED_EDGE ( 'NONE', *, *, #876, .T. ) ;
#991 = CARTESIAN_POINT ( 'NONE',  ( -0.07150000000000004963, -0.4799999999999999822, 0.1849999999999991929 ) ) ;
#992 = ORIENTED_EDGE ( 'NONE', *, *, #410, .F. ) ;
#993 = VERTEX_POINT ( 'NONE', #991 ) ;
#994 =( LENGTH_UNIT ( ) NAMED_UNIT ( * ) SI_UNIT ( $, .METRE. ) );
#995 = ORIENTED_EDGE ( 'NONE', *, *, #701, .T. ) ;
#996 = DIRECTION ( 'NONE',  ( 0.000000000000000000, -1.000000000000000000, 0.000000000000000000 ) ) ;
#997 = EDGE_LOOP ( 'NONE', ( #954, #203, #116, #175 ) ) ;
#998 = ORIENTED_EDGE ( 'NONE', *, *, #791, .F. ) ;
#999 = AXIS2_PLACEMENT_3D ( 'NONE', #1156, #289, #782 ) ;
#1000 = ORIENTED_EDGE ( 'NONE', *, *, #1217, .T. ) ;
#1001 = CARTESIAN_POINT ( 'NONE',  ( 0.000000000000000000, 0.06500000000000000222, 0.000000000000000000 ) ) ;
#1002 = EDGE_CURVE ( 'NONE', #258, #1101, #1188, .T. ) ;
#1003 = DIRECTION ( 'NONE',  ( 0.000000000000000000, 0.000000000000000000, 1.000000000000000000 ) ) ;
#1004 = EDGE_LOOP ( 'NONE', ( #613, #543, #1043, #976 ) ) ;
#1005 = ORIENTED_EDGE ( 'NONE', *, *, #1011, .T. ) ;
#1006 = VERTEX_POINT ( 'NONE', #1106 ) ;
#1007 = DIRECTION ( 'NONE',  ( 0.000000000000000000, -1.000000000000000000, 0.000000000000000000 ) ) ;
#1008 = ORIENTED_EDGE ( 'NONE', *, *, #527, .F. ) ;
#1009 = ORIENTED_EDGE ( 'NONE', *, *, #468, .F. ) ;
#1010 = ORIENTED_EDGE ( 'NONE', *, *, #39, .F. ) ;
#1011 = EDGE_CURVE ( 'NONE', #111, #1034, #379, .T. ) ;
#1012 = VERTEX_POINT ( 'NONE', #965 ) ;
#1013 = ORIENTED_EDGE ( 'NONE', *, *, #51, .F. ) ;
#1014 = ORIENTED_EDGE ( 'NONE', *, *, #566, .T. ) ;
#1015 = VERTEX_POINT ( 'NONE', #16 ) ;
#1016 = CARTESIAN_POINT ( 'NONE',  ( -0.07150000000000057698, 0.000000000000000000, -0.1399999999999992084 ) ) ;
#1017 = ORIENTED_EDGE ( 'NONE', *, *, #876, .F. ) ;
#1018 = ORIENTED_EDGE ( 'NONE', *, *, #1200, .T. ) ;
#1019 = ORIENTED_EDGE ( 'NONE', *, *, #1145, .T. ) ;
#1020 = CARTESIAN_POINT ( 'NONE',  ( -0.07150000000000059086, -0.4799999999999999822, -0.2149999999999992195 ) ) ;
#1021 = ORIENTED_EDGE ( 'NONE', *, *, #413, .T. ) ;
#1022 = ORIENTED_EDGE ( 'NONE', *, *, #1154, .T. ) ;
#1023 = VERTEX_POINT ( 'NONE', #260 ) ;
#1024 = VERTEX_POINT ( 'NONE', #45 ) ;
#1025 = ORIENTED_EDGE ( 'NONE', *, *, #281, .T. ) ;
#1026 =( NAMED_UNIT ( * ) SI_UNIT ( $, .STERADIAN. ) SOLID_ANGLE_UNIT ( ) );
#1027 =( GEOMETRIC_REPRESENTATION_CONTEXT ( 3 ) GLOBAL_UNCERTAINTY_ASSIGNED_CONTEXT ( ( #77 ) ) GLOBAL_UNIT_ASSIGNED_CONTEXT ( ( #1108, #491, #415 ) ) REPRESENTATION_CONTEXT ( 'NONE', 'WORKASPACE' ) );
#1028 = ORIENTED_EDGE ( 'NONE', *, *, #345, .T. ) ;
#1029 = EDGE_CURVE ( 'NONE', #235, #227, #380, .T. ) ;
#1030 = ORIENTED_EDGE ( 'NONE', *, *, #425, .F. ) ;
#1031 = CARTESIAN_POINT ( 'NONE',  ( -0.6852500000000000258, 0.06500000000000000222, 0.000000000000000000 ) ) ;
#1032 = ORIENTED_EDGE ( 'NONE', *, *, #751, .T. ) ;
#1033 = ORIENTED_EDGE ( 'NONE', *, *, #239, .F. ) ;
#1034 = VERTEX_POINT ( 'NONE', #126 ) ;
#1035 = CARTESIAN_POINT ( 'NONE',  ( 0.3202152499087922433, 0.06500000000000000222, -0.3969410456552081023 ) ) ;
#1036 = ORIENTED_EDGE ( 'NONE', *, *, #511, .F. ) ;
#1037 = ORIENTED_EDGE ( 'NONE', *, *, #751, .F. ) ;
#1038 = EDGE_LOOP ( 'NONE', ( #653, #620, #940, #106 ) ) ;
#1039 = ORIENTED_EDGE ( 'NONE', *, *, #453, .F. ) ;
#1040 = CARTESIAN_POINT ( 'NONE',  ( -0.07150000000000004963, 0.000000000000000000, 0.2149999999999992195 ) ) ;
#1041 = ORIENTED_EDGE ( 'NONE', *, *, #926, .T. ) ;
#1042 = AXIS2_PLACEMENT_3D ( 'NONE', #464, #587, #1092 ) ;
#1043 = ORIENTED_EDGE ( 'NONE', *, *, #984, .T. ) ;
#1044 = ORIENTED_EDGE ( 'NONE', *, *, #1095, .F. ) ;
#1045 = CARTESIAN_POINT ( 'NONE',  ( -2.731847993664263218E-16, 0.3099999999999999978, -0.3975000000000000200 ) ) ;
#1046 = EDGE_LOOP ( 'NONE', ( #695, #698 ) ) ;
#1047 = PRODUCT_DEFINITION_SHAPE ( 'NONE', 'NONE',  #727 ) ;
#1048 = ORIENTED_EDGE ( 'NONE', *, *, #36, .T. ) ;
#1049 = CARTESIAN_POINT ( 'NONE',  ( -0.07150000000000059086, 0.02000000000000000042, -0.2149999999999992195 ) ) ;
#1050 = VERTEX_POINT ( 'NONE', #246 ) ;
#1051 = VERTEX_POINT ( 'NONE', #729 ) ;
#1052 = EDGE_LOOP ( 'NONE', ( #548, #633, #597, #309, #202, #599, #611, #1142, #1039 ) ) ;
#1053 = PRESENTATION_LAYER_ASSIGNMENT (  '', '', ( #836 ) ) ;
#1054 = DIRECTION ( 'NONE',  ( 0.000000000000000000, -1.000000000000000000, 0.000000000000000000 ) ) ;
#1055 = EDGE_LOOP ( 'NONE', ( #581, #191, #922, #596 ) ) ;
#1056 = ORIENTED_EDGE ( 'NONE', *, *, #658, .T. ) ;
#1057 = DIRECTION ( 'NONE',  ( 0.000000000000000000, -1.000000000000000000, 0.000000000000000000 ) ) ;
#1058 = EDGE_LOOP ( 'NONE', ( #593, #249, #266, #1118 ) ) ;
#1059 = ORIENTED_EDGE ( 'NONE', *, *, #734, .T. ) ;
#1060 = CARTESIAN_POINT ( 'NONE',  ( -0.07150000000000004963, -0.4799999999999999822, 0.2149999999999992195 ) ) ;
#1061 = ORIENTED_EDGE ( 'NONE', *, *, #239, .T. ) ;
#1062 = EDGE_LOOP ( 'NONE', ( #595, #526 ) ) ;
#1063 = VERTEX_POINT ( 'NONE', #823 ) ;
#1064 = CARTESIAN_POINT ( 'NONE',  ( -2.260358975992532168E-16, 0.3350000000000000200, -0.3724999999999999978 ) ) ;
#1065 = ORIENTED_EDGE ( 'NONE', *, *, #139, .T. ) ;
#1066 = ORIENTED_EDGE ( 'NONE', *, *, #658, .F. ) ;
#1067 = ADVANCED_FACE ( 'NONE', ( #1213 ), #826, .F. ) ;
#1068 = ADVANCED_FACE ( 'NONE', ( #809 ), #285, .T. ) ;
#1069 = VERTEX_POINT ( 'NONE', #1035 ) ;
#1070 = AXIS2_PLACEMENT_3D ( 'NONE', #574, #1094, #1159 ) ;
#1071 = EDGE_LOOP ( 'NONE', ( #935, #1009, #154, #1048 ) ) ;
#1072 = DIRECTION ( 'NONE',  ( -0.000000000000000000, 1.000000000000000000, -0.000000000000000000 ) ) ;
#1073 = VERTEX_POINT ( 'NONE', #76 ) ;
#1074 =( LENGTH_UNIT ( ) NAMED_UNIT ( * ) SI_UNIT ( $, .METRE. ) );
#1075 = EDGE_CURVE ( 'NONE', #544, #908, #806, .T. ) ;
#1076 = ORIENTED_EDGE ( 'NONE', *, *, #566, .F. ) ;
#1077 = ORIENTED_EDGE ( 'NONE', *, *, #108, .T. ) ;
#1078 = DIRECTION ( 'NONE',  ( -0.6278730390368477687, 0.000000000000000000, -0.7783157757945248223 ) ) ;
#1079 = ORIENTED_EDGE ( 'NONE', *, *, #1011, .F. ) ;
#1080 = ORIENTED_EDGE ( 'NONE', *, *, #92, .F. ) ;
#1081 = EDGE_CURVE ( 'NONE', #278, #1012, #387, .T. ) ;
#1082 = ORIENTED_EDGE ( 'NONE', *, *, #859, .T. ) ;
#1083 = DIRECTION ( 'NONE',  ( 0.000000000000000000, 0.000000000000000000, -1.000000000000000000 ) ) ;
#1084 = SURFACE_SIDE_STYLE ('',( #467 ) ) ;
#1085 = EDGE_LOOP ( 'NONE', ( #945, #162, #1056, #170 ) ) ;
#1086 = ADVANCED_FACE ( 'NONE', ( #1225 ), #389, .F. ) ;
#1087 =( CONVERSION_BASED_UNIT ( 'INCH', #325 ) LENGTH_UNIT ( ) NAMED_UNIT ( #900 ) );
#1088 = DIRECTION ( 'NONE',  ( 0.000000000000000000, 0.000000000000000000, -1.000000000000000000 ) ) ;
#1089 = DIRECTION ( 'NONE',  ( 0.7783157757945243782, 0.000000000000000000, 0.6278730390368484349 ) ) ;
#1090 = DIRECTION ( 'NONE',  ( 0.000000000000000000, -1.000000000000000000, 0.000000000000000000 ) ) ;
#1091 = AXIS2_PLACEMENT_3D ( 'NONE', #891, #429, #970 ) ;
#1092 = DIRECTION ( 'NONE',  ( 0.000000000000000000, 0.000000000000000000, 1.000000000000000000 ) ) ;
#1093 = EDGE_CURVE ( 'NONE', #632, #205, #397, .T. ) ;
#1094 = DIRECTION ( 'NONE',  ( 0.000000000000000000, 1.000000000000000000, -0.000000000000000000 ) ) ;
#1095 = EDGE_CURVE ( 'NONE', #913, #165, #1216, .T. ) ;
#1096 = VERTEX_POINT ( 'NONE', #385 ) ;
#1097 = DIRECTION ( 'NONE',  ( -0.7783157757945243782, 0.000000000000000000, -0.6278730390368484349 ) ) ;
#1098 = DIRECTION ( 'NONE',  ( 0.000000000000000000, 0.000000000000000000, 1.000000000000000000 ) ) ;
#1099 = EDGE_LOOP ( 'NONE', ( #1077, #1116 ) ) ;
#1100 = VERTEX_POINT ( 'NONE', #147 ) ;
#1101 = VERTEX_POINT ( 'NONE', #921 ) ;
#1102 = ADVANCED_FACE ( 'NONE', ( #803 ), #810, .T. ) ;
#1103 = CARTESIAN_POINT ( 'NONE',  ( -0.5934999999999999165, 0.06500000000000000222, 0.07899999999999998690 ) ) ;
#1104 = UNCERTAINTY_MEASURE_WITH_UNIT (LENGTH_MEASURE( 1.000000000000000082E-05 ), #255, 'distance_accuracy_value', 'NONE');
#1105 = ORIENTED_EDGE ( 'NONE', *, *, #747, .T. ) ;
#1106 = CARTESIAN_POINT ( 'NONE',  ( -0.3202152499087925763, 0.000000000000000000, 0.3969410456552076583 ) ) ;
#1107 = AXIS2_PLACEMENT_3D ( 'NONE', #135, #263, #117 ) ;
#1108 =( CONVERSION_BASED_UNIT ( 'INCH', #50 ) LENGTH_UNIT ( ) NAMED_UNIT ( #125 ) );
#1109 = CLOSED_SHELL ( 'NONE', ( #488, #569, #404, #421, #1067, #722, #8, #237, #690, #190, #957, #604, #579, #312, #779, #808, #167, #972, #980, #1248, #1192, #382, #1086, #186, #28, #902 ) ) ;
#1110 = EDGE_CURVE ( 'NONE', #1024, #1073, #812, .T. ) ;
#1111 = EDGE_LOOP ( 'NONE', ( #981, #1105, #1030, #194 ) ) ;
#1112 = VERTEX_POINT ( 'NONE', #570 ) ;
#1113 = CARTESIAN_POINT ( 'NONE',  ( 0.7353228748631885914, 0.06500000000000000222, -0.06207068311961422974 ) ) ;
#1114 = CARTESIAN_POINT ( 'NONE',  ( -0.7353228748631885914, 0.06500000000000000222, -0.06207068311961341095 ) ) ;
#1115 = AXIS2_PLACEMENT_3D ( 'NONE', #449, #832, #914 ) ;
#1116 = ORIENTED_EDGE ( 'NONE', *, *, #293, .T. ) ;
#1117 = DIRECTION ( 'NONE',  ( -0.000000000000000000, -1.000000000000000000, -0.000000000000000000 ) ) ;
#1118 = ORIENTED_EDGE ( 'NONE', *, *, #1241, .F. ) ;
#1119 = DIRECTION ( 'NONE',  ( 0.000000000000000000, -1.000000000000000000, 0.000000000000000000 ) ) ;
#1120 = CARTESIAN_POINT ( 'NONE',  ( -0.07150000000000059086, 0.2321320343559641897, -0.2149999999999992195 ) ) ;
#1121 = AXIS2_PLACEMENT_3D ( 'NONE', #515, #607, #254 ) ;
#1122 = DIRECTION ( 'NONE',  ( 0.000000000000000000, 0.000000000000000000, -1.000000000000000000 ) ) ;
#1123 =( LENGTH_UNIT ( ) NAMED_UNIT ( * ) SI_UNIT ( $, .METRE. ) );
#1124 = CARTESIAN_POINT ( 'NONE',  ( -0.07150000000000059086, 0.000000000000000000, -0.2149999999999992195 ) ) ;
#1125 = FACE_OUTER_BOUND ( 'NONE', #223, .T. ) ;
#1126 = FACE_OUTER_BOUND ( 'NONE', #928, .T. ) ;
#1127 = DIRECTION ( 'NONE',  ( 0.000000000000000000, -1.000000000000000000, 0.000000000000000000 ) ) ;
#1128 = AXIS2_PLACEMENT_3D ( 'NONE', #708, #985, #355 ) ;
#1129 = CARTESIAN_POINT ( 'NONE',  ( 0.6852500000000000258, 0.06500000000000000222, -6.829619984160658046E-16 ) ) ;
#1130 = AXIS2_PLACEMENT_3D ( 'NONE', #1020, #166, #137 ) ;
#1131 = CIRCLE ( 'NONE', #1198, 0.07499999999999998335 ) ;
#1132 = DIRECTION ( 'NONE',  ( 0.000000000000000000, 1.000000000000000000, -0.000000000000000000 ) ) ;
#1133 = FACE_OUTER_BOUND ( 'NONE', #1055, .T. ) ;
#1134 = PRESENTATION_STYLE_ASSIGNMENT (( #691 ) ) ;
#1135 = VECTOR ( 'NONE', #1205, 39.37007874015748854 ) ;
#1136 = VECTOR ( 'NONE', #655, 39.37007874015748143 ) ;
#1137 = AXIS2_PLACEMENT_3D ( 'NONE', #279, #557, #69 ) ;
#1138 = FACE_OUTER_BOUND ( 'NONE', #1046, .T. ) ;
#1139 = CIRCLE ( 'NONE', #541, 0.07975000000000033451 ) ;
#1140 = EDGE_CURVE ( 'NONE', #648, #280, #1219, .T. ) ;
#1141 = DIRECTION ( 'NONE',  ( 0.000000000000000000, 0.000000000000000000, -1.000000000000000000 ) ) ;
#1142 = ORIENTED_EDGE ( 'NONE', *, *, #1189, .F. ) ;
#1143 = CARTESIAN_POINT ( 'NONE',  ( -0.07150000000000004963, 0.02000000000000000042, 0.1399999999999992362 ) ) ;
#1144 = CYLINDRICAL_SURFACE ( 'NONE', #939, 0.07499999999999998335 ) ;
#1145 = EDGE_CURVE ( 'NONE', #519, #1112, #814, .T. ) ;
#1146 = ORIENTED_EDGE ( 'NONE', *, *, #36, .F. ) ;
#1147 = DIRECTION ( 'NONE',  ( -0.000000000000000000, -1.000000000000000000, -0.000000000000000000 ) ) ;
#1148 = CIRCLE ( 'NONE', #84, 0.5100000000000003419 ) ;
#1149 = ORIENTED_EDGE ( 'NONE', *, *, #963, .F. ) ;
#1150 = DIRECTION ( 'NONE',  ( 0.000000000000000000, -0.000000000000000000, 1.000000000000000000 ) ) ;
#1151 = LENGTH_MEASURE_WITH_UNIT ( LENGTH_MEASURE( 0.02539999999999999897 ), #1074 );
#1152 = CARTESIAN_POINT ( 'NONE',  ( -0.07150000000000059086, -0.4799999999999999822, -0.2149999999999992195 ) ) ;
#1153 = AXIS2_PLACEMENT_3D ( 'NONE', #901, #821, #43 ) ;
#1154 = EDGE_CURVE ( 'NONE', #513, #1015, #1223, .T. ) ;
#1155 = DIRECTION ( 'NONE',  ( 0.000000000000000000, -1.000000000000000000, 0.000000000000000000 ) ) ;
#1156 = CARTESIAN_POINT ( 'NONE',  ( -0.07150000000000004963, 0.01999999999999999001, 0.2149999999999992195 ) ) ;
#1157 = CARTESIAN_POINT ( 'NONE',  ( -0.07150000000000004963, 0.000000000000000000, 0.2149999999999992195 ) ) ;
#1158 = EDGE_CURVE ( 'NONE', #1112, #918, #819, .T. ) ;
#1159 = DIRECTION ( 'NONE',  ( 0.000000000000000000, 0.000000000000000000, -1.000000000000000000 ) ) ;
#1160 = SURFACE_STYLE_FILL_AREA ( #103 ) ;
#1161 = CARTESIAN_POINT ( 'NONE',  ( 0.5934999999999999165, 0.000000000000000000, 0.07899999999999926525 ) ) ;
#1162 = PLANE ( 'NONE',  #138 ) ;
#1163 = DIRECTION ( 'NONE',  ( 0.000000000000000000, -1.000000000000000000, 0.000000000000000000 ) ) ;
#1164 = AXIS2_PLACEMENT_3D ( 'NONE', #612, #110, #1191 ) ;
#1165 = CIRCLE ( 'NONE', #1042, 0.5100000000000003419 ) ;
#1166 = LINE ( 'NONE', #58, #733 ) ;
#1167 =( CONVERSION_BASED_UNIT ( 'INCH', #757 ) LENGTH_UNIT ( ) NAMED_UNIT ( #26 ) );
#1168 = ADVANCED_FACE ( 'NONE', ( #402 ), #384, .T. ) ;
#1169 =( CONVERSION_BASED_UNIT ( 'INCH', #1151 ) LENGTH_UNIT ( ) NAMED_UNIT ( #1183 ) );
#1170 = AXIS2_PLACEMENT_3D ( 'NONE', #949, #101, #211 ) ;
#1171 = STYLED_ITEM ( 'NONE', ( #716 ), #852 ) ;
#1172 = DIRECTION ( 'NONE',  ( -0.000000000000000000, -1.000000000000000000, -0.000000000000000000 ) ) ;
#1173 =( NAMED_UNIT ( * ) PLANE_ANGLE_UNIT ( ) SI_UNIT ( $, .RADIAN. ) );
#1174 = EDGE_CURVE ( 'NONE', #1023, #626, #744, .T. ) ;
#1175 = CARTESIAN_POINT ( 'NONE',  ( -0.07150000000000059086, 0.000000000000000000, -0.2149999999999992195 ) ) ;
#1176 = DIRECTION ( 'NONE',  ( 0.000000000000000000, 0.000000000000000000, 1.000000000000000000 ) ) ;
#1177 = AXIS2_PLACEMENT_3D ( 'NONE', #696, #851, #879 ) ;
#1178 = VECTOR ( 'NONE', #959, 39.37007874015748854 ) ;
#1179 = APPLICATION_CONTEXT ( 'automotive_design' ) ;
#1180 = DIRECTION ( 'NONE',  ( -0.000000000000000000, -1.000000000000000000, -0.000000000000000000 ) ) ;
#1181 = DIRECTION ( 'NONE',  ( 0.000000000000000000, 0.000000000000000000, -1.000000000000000000 ) ) ;
#1182 = CIRCLE ( 'NONE', #1220, 0.03000000000000002318 ) ;
#1183 = DIMENSIONAL_EXPONENTS ( 1.000000000000000000, 0.000000000000000000, 0.000000000000000000, 0.000000000000000000, 0.000000000000000000, 0.000000000000000000, 0.000000000000000000 ) ;
#1184 = FACE_OUTER_BOUND ( 'NONE', #241, .T. ) ;
#1185 = CARTESIAN_POINT ( 'NONE',  ( -0.07150000000000004963, 0.02000000000000000042, 0.2149999999999992195 ) ) ;
#1186 = AXIS2_PLACEMENT_3D ( 'NONE', #420, #982, #1003 ) ;
#1187 = CYLINDRICAL_SURFACE ( 'NONE', #367, 0.07899999999999994527 ) ;
#1188 = CIRCLE ( 'NONE', #580, 0.07499999999999998335 ) ;
#1189 = EDGE_CURVE ( 'NONE', #1006, #663, #307, .T. ) ;
#1190 = LINE ( 'NONE', #480, #371 ) ;
#1191 = DIRECTION ( 'NONE',  ( 0.000000000000000000, 0.000000000000000000, 1.000000000000000000 ) ) ;
#1192 = ADVANCED_FACE ( 'NONE', ( #731 ), #1238, .T. ) ;
#1193 = CIRCLE ( 'NONE', #196, 0.03000000000000002318 ) ;
#1194 = LINE ( 'NONE', #224, #368 ) ;
#1195 = CARTESIAN_POINT ( 'NONE',  ( -0.3202152499087925763, 0.06500000000000000222, 0.3969410456552076583 ) ) ;
#1196 = VECTOR ( 'NONE', #863, 39.37007874015748143 ) ;
#1197 =( CONVERSION_BASED_UNIT ( 'INCH', #762 ) LENGTH_UNIT ( ) NAMED_UNIT ( #338 ) );
#1198 = AXIS2_PLACEMENT_3D ( 'NONE', #641, #742, #917 ) ;
#1199 = CYLINDRICAL_SURFACE ( 'NONE', #1177, 0.07499999999999998335 ) ;
#1200 = EDGE_CURVE ( 'NONE', #258, #666, #740, .T. ) ;
#1201 = LINE ( 'NONE', #1250, #1178 ) ;
#1202 =( NAMED_UNIT ( * ) SI_UNIT ( $, .STERADIAN. ) SOLID_ANGLE_UNIT ( ) );
#1203 = LINE ( 'NONE', #441, #360 ) ;
#1204 = VECTOR ( 'NONE', #221, 39.37007874015748143 ) ;
#1205 = DIRECTION ( 'NONE',  ( -0.7783157757945243782, -0.000000000000000000, 0.6278730390368481018 ) ) ;
#1206 = DIRECTION ( 'NONE',  ( 0.000000000000000000, 0.000000000000000000, -1.000000000000000000 ) ) ;
#1207 = AXIS2_PLACEMENT_3D ( 'NONE', #326, #888, #968 ) ;
#1208 = LINE ( 'NONE', #1195, #1204 ) ;
#1209 = LINE ( 'NONE', #1242, #346 ) ;
#1210 = CARTESIAN_POINT ( 'NONE',  ( -0.07150000000000004963, -0.4799999999999999822, 0.2149999999999992195 ) ) ;
#1211 = CARTESIAN_POINT ( 'NONE',  ( -0.07150000000000059086, 0.000000000000000000, -0.2149999999999992195 ) ) ;
#1212 = LINE ( 'NONE', #129, #1135 ) ;
#1213 = FACE_OUTER_BOUND ( 'NONE', #174, .T. ) ;
#1214 = CARTESIAN_POINT ( 'NONE',  ( -0.07150000000000059086, 0.000000000000000000, -0.2449999999999992184 ) ) ;
#1215 = DIRECTION ( 'NONE',  ( 0.000000000000000000, -1.000000000000000000, 0.000000000000000000 ) ) ;
#1216 = CIRCLE ( 'NONE', #829, 0.07899999999999994527 ) ;
#1217 = EDGE_CURVE ( 'NONE', #1015, #1096, #1148, .T. ) ;
#1218 = CARTESIAN_POINT ( 'NONE',  ( 0.5934999999999999165, 0.000000000000000000, -6.829619984160658046E-16 ) ) ;
#1219 = LINE ( 'NONE', #767, #395 ) ;
#1220 = AXIS2_PLACEMENT_3D ( 'NONE', #343, #132, #904 ) ;
#1221 = AXIS2_PLACEMENT_3D ( 'NONE', #1049, #839, #669 ) ;
#1222 = DIRECTION ( 'NONE',  ( 0.000000000000000000, 0.000000000000000000, 1.000000000000000000 ) ) ;
#1223 = LINE ( 'NONE', #944, #399 ) ;
#1224 = LINE ( 'NONE', #582, #1240 ) ;
#1225 = FACE_OUTER_BOUND ( 'NONE', #1071, .T. ) ;
#1226 =( NAMED_UNIT ( * ) PLANE_ANGLE_UNIT ( ) SI_UNIT ( $, .RADIAN. ) );
#1227 = FACE_BOUND ( 'NONE', #151, .T. ) ;
#1228 = DIRECTION ( 'NONE',  ( -0.000000000000000000, -1.000000000000000000, -0.000000000000000000 ) ) ;
#1229 = AXIS2_PLACEMENT_3D ( 'NONE', #797, #1180, #319 ) ;
#1230 = CARTESIAN_POINT ( 'NONE',  ( -0.07150000000000059086, 0.000000000000000000, -0.2899999999999992029 ) ) ;
#1231 = VECTOR ( 'NONE', #1054, 39.37007874015748143 ) ;
#1232 = DIRECTION ( 'NONE',  ( -0.000000000000000000, 1.000000000000000000, -0.000000000000000000 ) ) ;
#1233 = CIRCLE ( 'NONE', #546, 0.07899999999999998690 ) ;
#1234 = VECTOR ( 'NONE', #899, 39.37007874015748143 ) ;
#1235 = FILL_AREA_STYLE ('',( #450 ) ) ;
#1236 = VECTOR ( 'NONE', #619, 39.37007874015748143 ) ;
#1237 = FACE_OUTER_BOUND ( 'NONE', #660, .T. ) ;
#1238 = PLANE ( 'NONE',  #324 ) ;
#1239 = CARTESIAN_POINT ( 'NONE',  ( 0.3202152499087916326, 0.000000000000000000, 0.3969410456552081579 ) ) ;
#1240 = VECTOR ( 'NONE', #79, 39.37007874015748143 ) ;
#1241 = EDGE_CURVE ( 'NONE', #1023, #1051, #1166, .T. ) ;
#1242 = CARTESIAN_POINT ( 'NONE',  ( -0.7353228748631885914, 0.06500000000000000222, 0.06207068311961341095 ) ) ;
#1243 = DIRECTION ( 'NONE',  ( 0.000000000000000000, -1.000000000000000000, 0.000000000000000000 ) ) ;
#1244 = FACE_OUTER_BOUND ( 'NONE', #925, .T. ) ;
#1245 = DIRECTION ( 'NONE',  ( 0.000000000000000000, 1.000000000000000000, 0.000000000000000000 ) ) ;
#1246 = EDGE_CURVE ( 'NONE', #1096, #280, #1165, .T. ) ;
#1247 = ADVANCED_FACE ( 'NONE', ( #320 ), #753, .T. ) ;
#1248 = ADVANCED_FACE ( 'NONE', ( #738 ), #749, .T. ) ;
#1249 = CIRCLE ( 'NONE', #614, 0.03000000000000002318 ) ;
#1250 = CARTESIAN_POINT ( 'NONE',  ( 0.7353228748631885914, 0.06500000000000000222, -0.06207068311961422974 ) ) ;
ENDSEC;
END-ISO-10303-21;
