ISO-10303-21;
HEADER;
FILE_DESCRIPTION (( 'STEP AP214' ),
    '1' );
FILE_NAME ('3006P-1-103LF.STEP',
    '2021-10-24T05:21:30',
    ( '' ),
    ( '' ),
    'SwSTEP 2.0',
    'SolidWorks 2018',
    '' );
FILE_SCHEMA (( 'AUTOMOTIVE_DESIGN' ));
ENDSEC;

DATA;
#1 = ADVANCED_FACE ( 'NONE', ( #768 ), #686, .T. ) ;
#2 = DIRECTION ( 'NONE',  ( 0.000000000000000000, 0.000000000000000000, 1.000000000000000000 ) ) ;
#3 = VECTOR ( 'NONE', #877, 1000.000000000000000 ) ;
#4 = DIRECTION ( 'NONE',  ( -0.000000000000000000, 1.000000000000000000, -0.000000000000000000 ) ) ;
#5 = LINE ( 'NONE', #422, #749 ) ;
#6 = VERTEX_POINT ( 'NONE', #839 ) ;
#7 = LINE ( 'NONE', #381, #904 ) ;
#8 = PLANE ( 'NONE',  #1005 ) ;
#9 =( GEOMETRIC_REPRESENTATION_CONTEXT ( 3 ) GLOBAL_UNCERTAINTY_ASSIGNED_CONTEXT ( ( #558 ) ) GLOBAL_UNIT_ASSIGNED_CONTEXT ( ( #578, #218, #499 ) ) REPRESENTATION_CONTEXT ( 'NONE', 'WORKASPACE' ) );
#10 =( NAMED_UNIT ( * ) PLANE_ANGLE_UNIT ( ) SI_UNIT ( $, .RADIAN. ) );
#11 = ORIENTED_EDGE ( 'NONE', *, *, #280, .F. ) ;
#12 = ORIENTED_EDGE ( 'NONE', *, *, #83, .F. ) ;
#13 =( GEOMETRIC_REPRESENTATION_CONTEXT ( 3 ) GLOBAL_UNCERTAINTY_ASSIGNED_CONTEXT ( ( #385 ) ) GLOBAL_UNIT_ASSIGNED_CONTEXT ( ( #40, #309, #187 ) ) REPRESENTATION_CONTEXT ( 'NONE', 'WORKASPACE' ) );
#14 = DIRECTION ( 'NONE',  ( -1.000000000000000000, -0.000000000000000000, -0.000000000000000000 ) ) ;
#15 = VECTOR ( 'NONE', #956, 1000.000000000000000 ) ;
#16 = SURFACE_STYLE_FILL_AREA ( #237 ) ;
#17 = ORIENTED_EDGE ( 'NONE', *, *, #226, .T. ) ;
#18 = COLOUR_RGB ( '',0.7921568627450980005, 0.8196078431372548767, 0.9333333333333333481 ) ;
#19 = ORIENTED_EDGE ( 'NONE', *, *, #828, .T. ) ;
#20 = AXIS2_PLACEMENT_3D ( 'NONE', #103, #742, #194 ) ;
#21 = SURFACE_SIDE_STYLE ('',( #415 ) ) ;
#22 = PRESENTATION_STYLE_ASSIGNMENT (( #939 ) ) ;
#23 = CARTESIAN_POINT ( 'NONE',  ( -2.414999999999999147, -2.794999999999999929, -8.765000000000000568 ) ) ;
#24 = DIRECTION ( 'NONE',  ( 0.000000000000000000, -0.000000000000000000, -1.000000000000000000 ) ) ;
#25 = VERTEX_POINT ( 'NONE', #190 ) ;
#26 = SURFACE_STYLE_USAGE ( .BOTH. , #878 ) ;
#27 = ORIENTED_EDGE ( 'NONE', *, *, #1079, .T. ) ;
#28 = FILL_AREA_STYLE ('',( #201 ) ) ;
#29 = CARTESIAN_POINT ( 'NONE',  ( 0.000000000000000000, -8.504999999999999005, 0.000000000000000000 ) ) ;
#30 = CARTESIAN_POINT ( 'NONE',  ( -0.2873100202673144477, 0.3805119256829298524, 11.04499999999999815 ) ) ;
#31 = STYLED_ITEM ( 'NONE', ( #443 ), #922 ) ;
#32 = FACE_OUTER_BOUND ( 'NONE', #857, .T. ) ;
#33 = DIRECTION ( 'NONE',  ( 0.000000000000000000, -1.000000000000000000, 0.000000000000000000 ) ) ;
#34 = VERTEX_POINT ( 'NONE', #283 ) ;
#35 =( NAMED_UNIT ( * ) SI_UNIT ( $, .STERADIAN. ) SOLID_ANGLE_UNIT ( ) );
#36 = DIRECTION ( 'NONE',  ( -0.000000000000000000, -1.000000000000000000, -0.000000000000000000 ) ) ;
#37 = CARTESIAN_POINT ( 'NONE',  ( 0.000000000000000000, 1.525000000000000355, 9.524999999999996803 ) ) ;
#38 = EDGE_CURVE ( 'NONE', #892, #248, #7, .T. ) ;
#39 = DIRECTION ( 'NONE',  ( -0.000000000000000000, -1.000000000000000000, -0.000000000000000000 ) ) ;
#40 =( LENGTH_UNIT ( ) NAMED_UNIT ( * ) SI_UNIT ( .MILLI., .METRE. ) );
#41 = DIRECTION ( 'NONE',  ( 0.000000000000000000, 0.000000000000000000, -1.000000000000000000 ) ) ;
#42 = AXIS2_PLACEMENT_3D ( 'NONE', #430, #235, #807 ) ;
#43 = SURFACE_STYLE_USAGE ( .BOTH. , #771 ) ;
#44 = VERTEX_POINT ( 'NONE', #130 ) ;
#45 = CARTESIAN_POINT ( 'NONE',  ( 1.015000000000000790, -2.794999999999999041, 6.224999999999996980 ) ) ;
#46 = DIRECTION ( 'NONE',  ( -0.000000000000000000, -1.000000000000000000, -0.000000000000000000 ) ) ;
#47 =( LENGTH_UNIT ( ) NAMED_UNIT ( * ) SI_UNIT ( .MILLI., .METRE. ) );
#48 = DIRECTION ( 'NONE',  ( 0.000000000000000000, -1.000000000000000000, 0.000000000000000000 ) ) ;
#49 =( NAMED_UNIT ( * ) SI_UNIT ( $, .STERADIAN. ) SOLID_ANGLE_UNIT ( ) );
#50 = DIRECTION ( 'NONE',  ( -0.000000000000000000, 1.000000000000000000, -0.000000000000000000 ) ) ;
#51 =( GEOMETRIC_REPRESENTATION_CONTEXT ( 3 ) GLOBAL_UNCERTAINTY_ASSIGNED_CONTEXT ( ( #315 ) ) GLOBAL_UNIT_ASSIGNED_CONTEXT ( ( #151, #979, #789 ) ) REPRESENTATION_CONTEXT ( 'NONE', 'WORKASPACE' ) );
#52 = UNCERTAINTY_MEASURE_WITH_UNIT (LENGTH_MEASURE( 1.000000000000000082E-05 ), #1022, 'distance_accuracy_value', 'NONE');
#53 = EDGE_LOOP ( 'NONE', ( #1147, #924, #380 ) ) ;
#54 = DIRECTION ( 'NONE',  ( -1.000000000000000000, 0.000000000000000000, -0.000000000000000000 ) ) ;
#55 = DIRECTION ( 'NONE',  ( -0.000000000000000000, 0.000000000000000000, 1.000000000000000000 ) ) ;
#56 = DIRECTION ( 'NONE',  ( -0.000000000000000000, -0.000000000000000000, -1.000000000000000000 ) ) ;
#57 = VERTEX_POINT ( 'NONE', #649 ) ;
#58 = EDGE_LOOP ( 'NONE', ( #938, #875, #725, #1126 ) ) ;
#59 = EDGE_CURVE ( 'NONE', #597, #612, #355, .T. ) ;
#60 = LINE ( 'NONE', #1017, #851 ) ;
#61 = EDGE_CURVE ( 'NONE', #118, #656, #168, .T. ) ;
#62 = PRESENTATION_STYLE_ASSIGNMENT (( #80 ) ) ;
#63 = STYLED_ITEM ( 'NONE', ( #449 ), #93 ) ;
#64 = CARTESIAN_POINT ( 'NONE',  ( -2.414999999999999147, -3.174999999999999822, -8.765000000000000568 ) ) ;
#65 = ORIENTED_EDGE ( 'NONE', *, *, #487, .F. ) ;
#66 = LINE ( 'NONE', #362, #635 ) ;
#67 = CARTESIAN_POINT ( 'NONE',  ( 0.8425294946234549442, 2.351162242352884846, 10.25499999999999723 ) ) ;
#68 = DIRECTION ( 'NONE',  ( -1.000000000000000000, 0.000000000000000000, -0.000000000000000000 ) ) ;
#69 = COLOUR_RGB ( '',0.7803921568627451011, 0.7607843137254901578, 0.7411764705882353255 ) ;
#70 = COLOUR_RGB ( '',0.7803921568627451011, 0.7607843137254901578, 0.7411764705882353255 ) ;
#71 =( LENGTH_UNIT ( ) NAMED_UNIT ( * ) SI_UNIT ( .MILLI., .METRE. ) );
#72 = AXIS2_PLACEMENT_3D ( 'NONE', #259, #131, #870 ) ;
#73 = EDGE_LOOP ( 'NONE', ( #294, #85, #488, #988 ) ) ;
#74 = CARTESIAN_POINT ( 'NONE',  ( 1.015000000000000790, -8.504999999999999005, 5.969999999999997087 ) ) ;
#75 = LINE ( 'NONE', #794, #811 ) ;
#76 = CARTESIAN_POINT ( 'NONE',  ( 0.2873100202673146142, 2.669488074317070581, 11.04499999999999815 ) ) ;
#77 = PRESENTATION_LAYER_ASSIGNMENT (  '', '', ( #513 ) ) ;
#78 = ORIENTED_EDGE ( 'NONE', *, *, #672, .F. ) ;
#79 = LINE ( 'NONE', #936, #562 ) ;
#80 = SURFACE_STYLE_USAGE ( .BOTH. , #1182 ) ;
#81 = ADVANCED_FACE ( 'NONE', ( #1066 ), #577, .T. ) ;
#82 = SURFACE_STYLE_FILL_AREA ( #571 ) ;
#83 = EDGE_CURVE ( 'NONE', #44, #792, #95, .T. ) ;
#84 = UNCERTAINTY_MEASURE_WITH_UNIT (LENGTH_MEASURE( 1.000000000000000082E-05 ), #1013, 'distance_accuracy_value', 'NONE');
#85 = ORIENTED_EDGE ( 'NONE', *, *, #347, .F. ) ;
#86 = VERTEX_POINT ( 'NONE', #1089 ) ;
#87 = CARTESIAN_POINT ( 'NONE',  ( 1.015000000000000790, -8.504999999999999005, 6.224999999999996980 ) ) ;
#88 = COLOUR_RGB ( '',0.8392156862745098200, 0.4705882352941176405, 0.3686274509803921795 ) ;
#89 = CIRCLE ( 'NONE', #769, 0.2550000000000000044 ) ;
#90 = ORIENTED_EDGE ( 'NONE', *, *, #615, .T. ) ;
#91 = CARTESIAN_POINT ( 'NONE',  ( 1.015000000000000790, -8.504999999999999005, 6.224999999999996980 ) ) ;
#92 = UNCERTAINTY_MEASURE_WITH_UNIT (LENGTH_MEASURE( 1.000000000000000082E-05 ), #541, 'distance_accuracy_value', 'NONE');
#93 = ADVANCED_FACE ( 'NONE', ( #141 ), #560, .T. ) ;
#94 = AXIS2_PLACEMENT_3D ( 'NONE', #37, #1063, #116 ) ;
#95 = CIRCLE ( 'NONE', #336, 1.180000000000000382 ) ;
#96 = PRESENTATION_STYLE_ASSIGNMENT (( #43 ) ) ;
#97 = VECTOR ( 'NONE', #951, 1000.000000000000000 ) ;
#98 = DIRECTION ( 'NONE',  ( 0.000000000000000000, 0.000000000000000000, 1.000000000000000000 ) ) ;
#99 = EDGE_CURVE ( 'NONE', #279, #597, #79, .T. ) ;
#100 = ORIENTED_EDGE ( 'NONE', *, *, #569, .T. ) ;
#101 = SURFACE_SIDE_STYLE ('',( #658 ) ) ;
#102 = MECHANICAL_DESIGN_GEOMETRIC_PRESENTATION_REPRESENTATION (  '', ( #371 ), #352 ) ;
#103 = CARTESIAN_POINT ( 'NONE',  ( 1.015000000000000346, -14.55624891681027755, -6.475000000000002309 ) ) ;
#104 =( NAMED_UNIT ( * ) SI_UNIT ( $, .STERADIAN. ) SOLID_ANGLE_UNIT ( ) );
#105 = ORIENTED_EDGE ( 'NONE', *, *, #845, .T. ) ;
#106 = CARTESIAN_POINT ( 'NONE',  ( -0.8425294946234550553, 0.6988377576471159758, 11.04499999999999815 ) ) ;
#107 = MECHANICAL_DESIGN_GEOMETRIC_PRESENTATION_REPRESENTATION (  '', ( #1065 ), #1088 ) ;
#108 = FILL_AREA_STYLE ('',( #307 ) ) ;
#109 = SURFACE_SIDE_STYLE ('',( #1083 ) ) ;
#110 = ORIENTED_EDGE ( 'NONE', *, *, #252, .F. ) ;
#111 = DIRECTION ( 'NONE',  ( 0.000000000000000000, 0.000000000000000000, 1.000000000000000000 ) ) ;
#112 = PRODUCT ( '3006P-1-103LF', '3006P-1-103LF', '', ( #348 ) ) ;
#113 =( LENGTH_UNIT ( ) NAMED_UNIT ( * ) SI_UNIT ( .MILLI., .METRE. ) );
#114 = LINE ( 'NONE', #76, #591 ) ;
#115 = DIRECTION ( 'NONE',  ( -0.000000000000000000, 1.000000000000000000, -0.000000000000000000 ) ) ;
#116 = DIRECTION ( 'NONE',  ( 1.000000000000000000, 0.000000000000000000, 0.000000000000000000 ) ) ;
#117 = EDGE_CURVE ( 'NONE', #1103, #627, #813, .T. ) ;
#118 = VERTEX_POINT ( 'NONE', #746 ) ;
#119 = EDGE_CURVE ( 'NONE', #516, #835, #289, .T. ) ;
#120 = CARTESIAN_POINT ( 'NONE',  ( 0.2873100202673146142, 2.669488074317071025, 10.25499999999999723 ) ) ;
#121 = CARTESIAN_POINT ( 'NONE',  ( 2.415000000000000924, 3.174999999999999822, -9.525000000000002132 ) ) ;
#122 =( GEOMETRIC_REPRESENTATION_CONTEXT ( 3 ) GLOBAL_UNCERTAINTY_ASSIGNED_CONTEXT ( ( #600 ) ) GLOBAL_UNIT_ASSIGNED_CONTEXT ( ( #556, #10, #104 ) ) REPRESENTATION_CONTEXT ( 'NONE', 'WORKASPACE' ) );
#123 = CARTESIAN_POINT ( 'NONE',  ( 2.415000000000000924, -3.174999999999999822, 8.764999999999997016 ) ) ;
#124 = MECHANICAL_DESIGN_GEOMETRIC_PRESENTATION_REPRESENTATION (  '', ( #468 ), #412 ) ;
#125 = LINE ( 'NONE', #673, #1106 ) ;
#126 = CARTESIAN_POINT ( 'NONE',  ( -0.8645229898620385711, 0.6604770101379584535, 10.25499999999999723 ) ) ;
#127 = FILL_AREA_STYLE_COLOUR ( '', #271 ) ;
#128 =( LENGTH_UNIT ( ) NAMED_UNIT ( * ) SI_UNIT ( .MILLI., .METRE. ) );
#129 = DIRECTION ( 'NONE',  ( 0.4973841124440404604, 0.8675304286814694565, 0.000000000000000000 ) ) ;
#130 = CARTESIAN_POINT ( 'NONE',  ( -0.2873100202673144477, 0.3805119256829298524, 11.04499999999999815 ) ) ;
#131 = DIRECTION ( 'NONE',  ( -0.000000000000000000, -0.000000000000000000, -1.000000000000000000 ) ) ;
#132 = UNCERTAINTY_MEASURE_WITH_UNIT (LENGTH_MEASURE( 1.000000000000000082E-05 ), #507, 'distance_accuracy_value', 'NONE');
#133 = DIRECTION ( 'NONE',  ( 1.000000000000000000, 0.000000000000000000, -0.000000000000000000 ) ) ;
#134 = CARTESIAN_POINT ( 'NONE',  ( -0.2776097371780702483, 1.684162915982093223, 11.04499999999999815 ) ) ;
#135 = PLANE ( 'NONE',  #219 ) ;
#136 =( GEOMETRIC_REPRESENTATION_CONTEXT ( 3 ) GLOBAL_UNCERTAINTY_ASSIGNED_CONTEXT ( ( #853 ) ) GLOBAL_UNIT_ASSIGNED_CONTEXT ( ( #573, #766, #583 ) ) REPRESENTATION_CONTEXT ( 'NONE', 'WORKASPACE' ) );
#137 = ORIENTED_EDGE ( 'NONE', *, *, #916, .F. ) ;
#138 = SURFACE_STYLE_FILL_AREA ( #506 ) ;
#139 = CARTESIAN_POINT ( 'NONE',  ( 1.015000000000000790, -2.794999999999999041, 5.969999999999997087 ) ) ;
#140 = ORIENTED_EDGE ( 'NONE', *, *, #828, .F. ) ;
#141 = FACE_OUTER_BOUND ( 'NONE', #173, .T. ) ;
#142 =( NAMED_UNIT ( * ) SI_UNIT ( $, .STERADIAN. ) SOLID_ANGLE_UNIT ( ) );
#143 =( GEOMETRIC_REPRESENTATION_CONTEXT ( 3 ) GLOBAL_UNCERTAINTY_ASSIGNED_CONTEXT ( ( #472 ) ) GLOBAL_UNIT_ASSIGNED_CONTEXT ( ( #842, #398, #35 ) ) REPRESENTATION_CONTEXT ( 'NONE', 'WORKASPACE' ) );
#144 =( GEOMETRIC_REPRESENTATION_CONTEXT ( 3 ) GLOBAL_UNCERTAINTY_ASSIGNED_CONTEXT ( ( #132 ) ) GLOBAL_UNIT_ASSIGNED_CONTEXT ( ( #507, #224, #962 ) ) REPRESENTATION_CONTEXT ( 'NONE', 'WORKASPACE' ) );
#145 = CARTESIAN_POINT ( 'NONE',  ( 0.000000000000000000, 3.174999999999999822, 0.000000000000000000 ) ) ;
#146 = DIRECTION ( 'NONE',  ( 0.000000000000000000, -0.000000000000000000, -1.000000000000000000 ) ) ;
#147 = VECTOR ( 'NONE', #400, 1000.000000000000000 ) ;
#148 = ORIENTED_EDGE ( 'NONE', *, *, #117, .F. ) ;
#149 = FILL_AREA_STYLE_COLOUR ( '', #246 ) ;
#150 = FILL_AREA_STYLE ('',( #782 ) ) ;
#151 =( LENGTH_UNIT ( ) NAMED_UNIT ( * ) SI_UNIT ( .MILLI., .METRE. ) );
#152 = STYLED_ITEM ( 'NONE', ( #736 ), #1 ) ;
#153 = LINE ( 'NONE', #456, #339 ) ;
#154 = CARTESIAN_POINT ( 'NONE',  ( -1.180000000000000382, 1.525000000000000355, 11.04499999999999815 ) ) ;
#155 = FACE_OUTER_BOUND ( 'NONE', #1112, .T. ) ;
#156 = EDGE_LOOP ( 'NONE', ( #216, #178, #17, #350 ) ) ;
#157 = DIRECTION ( 'NONE',  ( 0.000000000000000000, -1.000000000000000000, 0.000000000000000000 ) ) ;
#158 = APPLICATION_CONTEXT ( 'automotive_design' ) ;
#159 = FACE_BOUND ( 'NONE', #534, .T. ) ;
#160 = DIRECTION ( 'NONE',  ( 0.000000000000000000, 0.000000000000000000, -1.000000000000000000 ) ) ;
#161 = CIRCLE ( 'NONE', #167, 0.2550000000000000044 ) ;
#162 = MECHANICAL_DESIGN_GEOMETRIC_PRESENTATION_REPRESENTATION (  '', ( #849 ), #9 ) ;
#163 = DIRECTION ( 'NONE',  ( 1.000000000000000000, 0.000000000000000000, 0.000000000000000000 ) ) ;
#164 = CARTESIAN_POINT ( 'NONE',  ( -2.414999999999999147, -3.174999999999999822, 9.524999999999996803 ) ) ;
#165 = EDGE_CURVE ( 'NONE', #970, #750, #1031, .T. ) ;
#166 =( NAMED_UNIT ( * ) SI_UNIT ( $, .STERADIAN. ) SOLID_ANGLE_UNIT ( ) );
#167 = AXIS2_PLACEMENT_3D ( 'NONE', #687, #39, #968 ) ;
#168 = CIRCLE ( 'NONE', #1097, 1.180000000000000382 ) ;
#169 = SURFACE_SIDE_STYLE ('',( #648 ) ) ;
#170 = COLOUR_RGB ( '',0.7803921568627451011, 0.7607843137254901578, 0.7411764705882353255 ) ;
#171 = CARTESIAN_POINT ( 'NONE',  ( 1.015000000000000790, -14.55624891681027755, 6.224999999999996980 ) ) ;
#172 = MECHANICAL_DESIGN_GEOMETRIC_PRESENTATION_REPRESENTATION (  '', ( #278 ), #261 ) ;
#173 = EDGE_LOOP ( 'NONE', ( #1121, #105, #596, #447 ) ) ;
#174 = ORIENTED_EDGE ( 'NONE', *, *, #1048, .F. ) ;
#175 = UNCERTAINTY_MEASURE_WITH_UNIT (LENGTH_MEASURE( 1.000000000000000082E-05 ), #661, 'distance_accuracy_value', 'NONE');
#176 = DIRECTION ( 'NONE',  ( -0.000000000000000000, 0.000000000000000000, 1.000000000000000000 ) ) ;
#177 = PRESENTATION_STYLE_ASSIGNMENT (( #26 ) ) ;
#178 = ORIENTED_EDGE ( 'NONE', *, *, #615, .F. ) ;
#179 = EDGE_CURVE ( 'NONE', #6, #612, #66, .T. ) ;
#180 = EDGE_CURVE ( 'NONE', #1103, #554, #153, .T. ) ;
#181 = FILL_AREA_STYLE ('',( #959 ) ) ;
#182 = AXIS2_PLACEMENT_3D ( 'NONE', #729, #451, #824 ) ;
#183 = CARTESIAN_POINT ( 'NONE',  ( 2.415000000000000924, -2.794999999999999929, 8.764999999999997016 ) ) ;
#184 = ORIENTED_EDGE ( 'NONE', *, *, #703, .F. ) ;
#185 = MECHANICAL_DESIGN_GEOMETRIC_PRESENTATION_REPRESENTATION (  '', ( #927 ), #998 ) ;
#186 = PRESENTATION_STYLE_ASSIGNMENT (( #738 ) ) ;
#187 =( NAMED_UNIT ( * ) SI_UNIT ( $, .STERADIAN. ) SOLID_ANGLE_UNIT ( ) );
#188 = SURFACE_STYLE_FILL_AREA ( #909 ) ;
#189 = ORIENTED_EDGE ( 'NONE', *, *, #845, .F. ) ;
#190 = CARTESIAN_POINT ( 'NONE',  ( -1.180000000000000382, 1.525000000000000355, 9.524999999999996803 ) ) ;
#191 = CARTESIAN_POINT ( 'NONE',  ( 1.015000000000000346, -8.504999999999999005, -6.220000000000002416 ) ) ;
#192 = PRESENTATION_LAYER_ASSIGNMENT (  '', '', ( #1065 ) ) ;
#193 = CYLINDRICAL_SURFACE ( 'NONE', #493, 0.2550000000000000044 ) ;
#194 = DIRECTION ( 'NONE',  ( 0.000000000000000000, 0.000000000000000000, 1.000000000000000000 ) ) ;
#195 = DIRECTION ( 'NONE',  ( -0.000000000000000000, 0.000000000000000000, 1.000000000000000000 ) ) ;
#196 = CARTESIAN_POINT ( 'NONE',  ( 0.000000000000000000, -3.174999999999999822, 0.000000000000000000 ) ) ;
#197 = PRESENTATION_LAYER_ASSIGNMENT (  '', '', ( #838 ) ) ;
#198 = ORIENTED_EDGE ( 'NONE', *, *, #1111, .F. ) ;
#199 = PRODUCT_DEFINITION_FORMATION_WITH_SPECIFIED_SOURCE ( 'ANY', '', #112, .NOT_KNOWN. ) ;
#200 = COLOUR_RGB ( '',0.8392156862745098200, 0.4705882352941176405, 0.3686274509803921795 ) ;
#201 = FILL_AREA_STYLE_COLOUR ( '', #721 ) ;
#202 = VECTOR ( 'NONE', #50, 1000.000000000000000 ) ;
#203 = ORIENTED_EDGE ( 'NONE', *, *, #462, .F. ) ;
#204 = PRESENTATION_STYLE_ASSIGNMENT (( #243 ) ) ;
#205 = EDGE_CURVE ( 'NONE', #707, #452, #546, .T. ) ;
#206 =( LENGTH_UNIT ( ) NAMED_UNIT ( * ) SI_UNIT ( .MILLI., .METRE. ) );
#207 = ORIENTED_EDGE ( 'NONE', *, *, #428, .T. ) ;
#208 = DIRECTION ( 'NONE',  ( 1.000000000000000000, 0.000000000000000000, 0.000000000000000000 ) ) ;
#209 = COLOUR_RGB ( '',0.7803921568627451011, 0.7607843137254901578, 0.7411764705882353255 ) ;
#210 = MANIFOLD_SOLID_BREP ( 'Cut-Extrude2', #527 ) ;
#211 = DIRECTION ( 'NONE',  ( 0.000000000000000000, -0.000000000000000000, -1.000000000000000000 ) ) ;
#212 = DIRECTION ( 'NONE',  ( 0.000000000000000000, -1.000000000000000000, 0.000000000000000000 ) ) ;
#213 = SURFACE_SIDE_STYLE ('',( #473 ) ) ;
#214 = FILL_AREA_STYLE ('',( #1055 ) ) ;
#215 = ORIENTED_EDGE ( 'NONE', *, *, #119, .F. ) ;
#216 = ORIENTED_EDGE ( 'NONE', *, *, #38, .F. ) ;
#217 = DIRECTION ( 'NONE',  ( 1.000000000000000000, 0.000000000000000000, -0.000000000000000000 ) ) ;
#218 =( NAMED_UNIT ( * ) PLANE_ANGLE_UNIT ( ) SI_UNIT ( $, .RADIAN. ) );
#219 = AXIS2_PLACEMENT_3D ( 'NONE', #783, #603, #146 ) ;
#220 = VERTEX_POINT ( 'NONE', #450 ) ;
#221 = CARTESIAN_POINT ( 'NONE',  ( -2.414999999999999147, 3.174999999999999822, 9.524999999999996803 ) ) ;
#222 = SURFACE_SIDE_STYLE ('',( #501 ) ) ;
#223 = SURFACE_STYLE_FILL_AREA ( #150 ) ;
#224 =( NAMED_UNIT ( * ) PLANE_ANGLE_UNIT ( ) SI_UNIT ( $, .RADIAN. ) );
#225 = DIRECTION ( 'NONE',  ( 1.000000000000000000, 0.000000000000000000, -0.000000000000000000 ) ) ;
#226 = EDGE_CURVE ( 'NONE', #257, #1016, #263, .T. ) ;
#227 = EDGE_LOOP ( 'NONE', ( #65, #884 ) ) ;
#228 = CARTESIAN_POINT ( 'NONE',  ( -1.524999999999999467, -14.55624891681027755, 1.399999999999996803 ) ) ;
#229 = DIRECTION ( 'NONE',  ( 0.000000000000000000, 0.000000000000000000, 1.000000000000000000 ) ) ;
#230 = SURFACE_SIDE_STYLE ('',( #394 ) ) ;
#231 =( NAMED_UNIT ( * ) SI_UNIT ( $, .STERADIAN. ) SOLID_ANGLE_UNIT ( ) );
#232 = AXIS2_PLACEMENT_3D ( 'NONE', #864, #655, #211 ) ;
#233 = CARTESIAN_POINT ( 'NONE',  ( 0.000000000000000000, -8.504999999999999005, 0.000000000000000000 ) ) ;
#234 = PRESENTATION_STYLE_ASSIGNMENT (( #1034 ) ) ;
#235 = DIRECTION ( 'NONE',  ( 0.000000000000000000, 1.000000000000000000, 0.000000000000000000 ) ) ;
#236 = SURFACE_STYLE_USAGE ( .BOTH. , #230 ) ;
#237 = FILL_AREA_STYLE ('',( #414 ) ) ;
#238 = ORIENTED_EDGE ( 'NONE', *, *, #205, .T. ) ;
#239 = CARTESIAN_POINT ( 'NONE',  ( 1.015000000000000790, -2.794999999999999041, 6.224999999999996980 ) ) ;
#240 = PLANE ( 'NONE',  #1145 ) ;
#241 =( LENGTH_UNIT ( ) NAMED_UNIT ( * ) SI_UNIT ( .MILLI., .METRE. ) );
#242 = PRESENTATION_STYLE_ASSIGNMENT (( #758 ) ) ;
#243 = SURFACE_STYLE_USAGE ( .BOTH. , #1155 ) ;
#244 = PRESENTATION_LAYER_ASSIGNMENT (  '', '', ( #1180 ) ) ;
#245 = LINE ( 'NONE', #695, #202 ) ;
#246 = COLOUR_RGB ( '',0.000000000000000000, 0.000000000000000000, 1.000000000000000000 ) ;
#247 =( NAMED_UNIT ( * ) SI_UNIT ( $, .STERADIAN. ) SOLID_ANGLE_UNIT ( ) );
#248 = VERTEX_POINT ( 'NONE', #366 ) ;
#249 = ORIENTED_EDGE ( 'NONE', *, *, #406, .T. ) ;
#250 =( NAMED_UNIT ( * ) SI_UNIT ( $, .STERADIAN. ) SOLID_ANGLE_UNIT ( ) );
#251 = EDGE_CURVE ( 'NONE', #892, #257, #761, .T. ) ;
#252 = EDGE_CURVE ( 'NONE', #947, #279, #60, .T. ) ;
#253 = FACE_OUTER_BOUND ( 'NONE', #784, .T. ) ;
#254 = PRESENTATION_LAYER_ASSIGNMENT (  '', '', ( #620 ) ) ;
#255 = FILL_AREA_STYLE_COLOUR ( '', #299 ) ;
#256 = AXIS2_PLACEMENT_3D ( 'NONE', #1150, #682, #1171 ) ;
#257 = VERTEX_POINT ( 'NONE', #191 ) ;
#258 = LINE ( 'NONE', #221, #1107 ) ;
#259 = CARTESIAN_POINT ( 'NONE',  ( 0.000000000000000000, 1.525000000000000355, 11.04499999999999815 ) ) ;
#260 = FACE_OUTER_BOUND ( 'NONE', #841, .T. ) ;
#261 =( GEOMETRIC_REPRESENTATION_CONTEXT ( 3 ) GLOBAL_UNCERTAINTY_ASSIGNED_CONTEXT ( ( #293 ) ) GLOBAL_UNIT_ASSIGNED_CONTEXT ( ( #963, #760, #231 ) ) REPRESENTATION_CONTEXT ( 'NONE', 'WORKASPACE' ) );
#262 = ORIENTED_EDGE ( 'NONE', *, *, #588, .F. ) ;
#263 = LINE ( 'NONE', #1008, #1158 ) ;
#264 = AXIS2_PLACEMENT_3D ( 'NONE', #498, #1054, #586 ) ;
#265 = LINE ( 'NONE', #154, #510 ) ;
#266 = ORIENTED_EDGE ( 'NONE', *, *, #799, .F. ) ;
#267 = VERTEX_POINT ( 'NONE', #183 ) ;
#268 = DIRECTION ( 'NONE',  ( -0.000000000000000000, -0.000000000000000000, -1.000000000000000000 ) ) ;
#269 = EDGE_CURVE ( 'NONE', #452, #707, #1073, .T. ) ;
#270 = ADVANCED_FACE ( 'NONE', ( #1123 ), #642, .T. ) ;
#271 = COLOUR_RGB ( '',0.8392156862745098200, 0.4705882352941176405, 0.3686274509803921795 ) ;
#272 = SURFACE_SIDE_STYLE ('',( #898 ) ) ;
#273 = ORIENTED_EDGE ( 'NONE', *, *, #981, .T. ) ;
#274 = FILL_AREA_STYLE ('',( #644 ) ) ;
#275 = ADVANCED_FACE ( 'NONE', ( #253 ), #8, .T. ) ;
#276 = FACE_OUTER_BOUND ( 'NONE', #478, .T. ) ;
#277 =( NAMED_UNIT ( * ) SI_UNIT ( $, .STERADIAN. ) SOLID_ANGLE_UNIT ( ) );
#278 = STYLED_ITEM ( 'NONE', ( #177 ), #823 ) ;
#279 = VERTEX_POINT ( 'NONE', #121 ) ;
#280 = EDGE_CURVE ( 'NONE', #248, #1016, #508, .T. ) ;
#281 = AXIS2_PLACEMENT_3D ( 'NONE', #239, #46, #999 ) ;
#282 = VERTEX_POINT ( 'NONE', #388 ) ;
#283 = CARTESIAN_POINT ( 'NONE',  ( -1.524999999999999467, -2.794999999999999041, 0.8899999999999966827 ) ) ;
#284 = DIRECTION ( 'NONE',  ( -0.000000000000000000, 1.000000000000000000, -0.000000000000000000 ) ) ;
#285 = CIRCLE ( 'NONE', #964, 1.180000000000000382 ) ;
#286 = FILL_AREA_STYLE_COLOUR ( '', #739 ) ;
#287 = ORIENTED_EDGE ( 'NONE', *, *, #251, .F. ) ;
#288 = MECHANICAL_DESIGN_GEOMETRIC_PRESENTATION_REPRESENTATION (  '', ( #1180 ), #894 ) ;
#289 = LINE ( 'NONE', #106, #827 ) ;
#290 = PLANE ( 'NONE',  #592 ) ;
#291 = UNCERTAINTY_MEASURE_WITH_UNIT (LENGTH_MEASURE( 1.000000000000000082E-05 ), #517, 'distance_accuracy_value', 'NONE');
#292 = SURFACE_SIDE_STYLE ('',( #1050 ) ) ;
#293 = UNCERTAINTY_MEASURE_WITH_UNIT (LENGTH_MEASURE( 1.000000000000000082E-05 ), #963, 'distance_accuracy_value', 'NONE');
#294 = ORIENTED_EDGE ( 'NONE', *, *, #165, .T. ) ;
#295 = ORIENTED_EDGE ( 'NONE', *, *, #822, .F. ) ;
#296 =( NAMED_UNIT ( * ) SI_UNIT ( $, .STERADIAN. ) SOLID_ANGLE_UNIT ( ) );
#297 = PLANE ( 'NONE',  #743 ) ;
#298 = EDGE_CURVE ( 'NONE', #637, #1178, #744, .T. ) ;
#299 = COLOUR_RGB ( '',0.000000000000000000, 0.000000000000000000, 1.000000000000000000 ) ;
#300 = DIRECTION ( 'NONE',  ( 0.000000000000000000, 0.000000000000000000, 1.000000000000000000 ) ) ;
#301 = VECTOR ( 'NONE', #502, 1000.000000000000000 ) ;
#302 = ORIENTED_EDGE ( 'NONE', *, *, #893, .F. ) ;
#303 = PLANE ( 'NONE',  #905 ) ;
#304 = AXIS2_PLACEMENT_3D ( 'NONE', #645, #98, #734 ) ;
#305 = DIRECTION ( 'NONE',  ( 0.4973841124440404604, 0.8675304286814694565, 0.000000000000000000 ) ) ;
#306 = SURFACE_SIDE_STYLE ('',( #800 ) ) ;
#307 = FILL_AREA_STYLE_COLOUR ( '', #70 ) ;
#308 = FACE_OUTER_BOUND ( 'NONE', #416, .T. ) ;
#309 =( NAMED_UNIT ( * ) PLANE_ANGLE_UNIT ( ) SI_UNIT ( $, .RADIAN. ) );
#310 = FILL_AREA_STYLE_COLOUR ( '', #458 ) ;
#311 = CIRCLE ( 'NONE', #652, 0.2550000000000000044 ) ;
#312 = FILL_AREA_STYLE ('',( #1091 ) ) ;
#313 = ORIENTED_EDGE ( 'NONE', *, *, #1079, .F. ) ;
#314 = FILL_AREA_STYLE ('',( #765 ) ) ;
#315 = UNCERTAINTY_MEASURE_WITH_UNIT (LENGTH_MEASURE( 1.000000000000000082E-05 ), #151, 'distance_accuracy_value', 'NONE');
#316 = DIRECTION ( 'NONE',  ( 0.000000000000000000, 0.000000000000000000, 1.000000000000000000 ) ) ;
#317 = CARTESIAN_POINT ( 'NONE',  ( -2.414999999999999147, -2.794999999999999929, 8.764999999999997016 ) ) ;
#318 = AXIS2_PLACEMENT_3D ( 'NONE', #171, #1096, #446 ) ;
#319 =( NAMED_UNIT ( * ) PLANE_ANGLE_UNIT ( ) SI_UNIT ( $, .RADIAN. ) );
#320 = PRESENTATION_STYLE_ASSIGNMENT (( #359 ) ) ;
#321 = CARTESIAN_POINT ( 'NONE',  ( -1.524999999999999467, -2.794999999999999041, 1.144999999999996687 ) ) ;
#322 = LINE ( 'NONE', #317, #873 ) ;
#323 = CARTESIAN_POINT ( 'NONE',  ( -2.414999999999999147, 3.174999999999999822, 9.524999999999996803 ) ) ;
#324 = FILL_AREA_STYLE ('',( #310 ) ) ;
#325 = ORIENTED_EDGE ( 'NONE', *, *, #367, .T. ) ;
#326 = VECTOR ( 'NONE', #654, 1000.000000000000000 ) ;
#327 = STYLED_ITEM ( 'NONE', ( #22 ), #360 ) ;
#328 = DIRECTION ( 'NONE',  ( 0.000000000000000000, 0.000000000000000000, -1.000000000000000000 ) ) ;
#329 =( NAMED_UNIT ( * ) PLANE_ANGLE_UNIT ( ) SI_UNIT ( $, .RADIAN. ) );
#330 = DIRECTION ( 'NONE',  ( 1.000000000000000000, 0.000000000000000000, 0.000000000000000000 ) ) ;
#331 = PLANE ( 'NONE',  #557 ) ;
#332 = SURFACE_STYLE_USAGE ( .BOTH. , #306 ) ;
#333 = EDGE_CURVE ( 'NONE', #656, #835, #419, .T. ) ;
#334 = EDGE_LOOP ( 'NONE', ( #819, #708, #1004, #266 ) ) ;
#335 = ORIENTED_EDGE ( 'NONE', *, *, #916, .T. ) ;
#336 = AXIS2_PLACEMENT_3D ( 'NONE', #1134, #856, #983 ) ;
#337 = CARTESIAN_POINT ( 'NONE',  ( -2.414999999999999147, -2.794999999999999929, 8.764999999999997016 ) ) ;
#338 = ADVANCED_FACE ( 'NONE', ( #890 ), #290, .T. ) ;
#339 = VECTOR ( 'NONE', #820, 1000.000000000000000 ) ;
#340 = ORIENTED_EDGE ( 'NONE', *, *, #1190, .T. ) ;
#341 = SURFACE_STYLE_FILL_AREA ( #376 ) ;
#342 = CARTESIAN_POINT ( 'NONE',  ( 2.415000000000000924, 3.174999999999999822, 9.524999999999996803 ) ) ;
#343 = PRESENTATION_LAYER_ASSIGNMENT (  '', '', ( #31 ) ) ;
#344 = FACE_OUTER_BOUND ( 'NONE', #156, .T. ) ;
#345 = CARTESIAN_POINT ( 'NONE',  ( 2.415000000000000924, 3.174999999999999822, -9.525000000000002132 ) ) ;
#346 = UNCERTAINTY_MEASURE_WITH_UNIT (LENGTH_MEASURE( 1.000000000000000082E-05 ), #512, 'distance_accuracy_value', 'NONE');
#347 = EDGE_CURVE ( 'NONE', #220, #750, #667, .T. ) ;
#348 = PRODUCT_CONTEXT ( 'NONE', #519, 'mechanical' ) ;
#349 = VERTEX_POINT ( 'NONE', #576 ) ;
#350 = ORIENTED_EDGE ( 'NONE', *, *, #532, .T. ) ;
#351 = AXIS2_PLACEMENT_3D ( 'NONE', #323, #694, #41 ) ;
#352 =( GEOMETRIC_REPRESENTATION_CONTEXT ( 3 ) GLOBAL_UNCERTAINTY_ASSIGNED_CONTEXT ( ( #945 ) ) GLOBAL_UNIT_ASSIGNED_CONTEXT ( ( #71, #319, #166 ) ) REPRESENTATION_CONTEXT ( 'NONE', 'WORKASPACE' ) );
#353 =( NAMED_UNIT ( * ) PLANE_ANGLE_UNIT ( ) SI_UNIT ( $, .RADIAN. ) );
#354 = ORIENTED_EDGE ( 'NONE', *, *, #179, .F. ) ;
#355 = LINE ( 'NONE', #1041, #1093 ) ;
#356 = DIRECTION ( 'NONE',  ( 0.4973841124440404604, 0.8675304286814694565, -0.000000000000000000 ) ) ;
#357 = AXIS2_PLACEMENT_3D ( 'NONE', #1179, #176, #1176 ) ;
#358 = ORIENTED_EDGE ( 'NONE', *, *, #179, .T. ) ;
#359 = SURFACE_STYLE_USAGE ( .BOTH. , #169 ) ;
#360 = ADVANCED_FACE ( 'NONE', ( #933 ), #303, .F. ) ;
#361 = PRESENTATION_STYLE_ASSIGNMENT (( #918 ) ) ;
#362 = CARTESIAN_POINT ( 'NONE',  ( -2.414999999999999147, -3.174999999999999822, -9.525000000000002132 ) ) ;
#363 = LINE ( 'NONE', #630, #1075 ) ;
#364 = ADVANCED_FACE ( 'NONE', ( #469 ), #1167, .T. ) ;
#365 = EDGE_LOOP ( 'NONE', ( #100, #692, #148, #1064 ) ) ;
#366 = CARTESIAN_POINT ( 'NONE',  ( 1.015000000000000346, -2.794999999999999041, -6.730000000000002203 ) ) ;
#367 = EDGE_CURVE ( 'NONE', #970, #995, #844, .T. ) ;
#368 = FACE_OUTER_BOUND ( 'NONE', #728, .T. ) ;
#369 = LINE ( 'NONE', #23, #831 ) ;
#370 = AXIS2_PLACEMENT_3D ( 'NONE', #87, #374, #467 ) ;
#371 = STYLED_ITEM ( 'NONE', ( #958 ), #643 ) ;
#372 = FACE_BOUND ( 'NONE', #634, .T. ) ;
#373 = ADVANCED_FACE ( 'NONE', ( #260 ), #403, .T. ) ;
#374 = DIRECTION ( 'NONE',  ( 0.000000000000000000, -1.000000000000000000, 0.000000000000000000 ) ) ;
#375 = ADVANCED_FACE ( 'NONE', ( #481 ), #485, .F. ) ;
#376 = FILL_AREA_STYLE ('',( #930 ) ) ;
#377 = FACE_OUTER_BOUND ( 'NONE', #1156, .T. ) ;
#378 = CARTESIAN_POINT ( 'NONE',  ( -2.414999999999999147, -3.174999999999999822, 8.764999999999997016 ) ) ;
#379 = VERTEX_POINT ( 'NONE', #120 ) ;
#380 = ORIENTED_EDGE ( 'NONE', *, *, #863, .T. ) ;
#381 = CARTESIAN_POINT ( 'NONE',  ( 1.015000000000000346, -14.55624891681027755, -6.730000000000002203 ) ) ;
#382 = SURFACE_STYLE_USAGE ( .BOTH. , #392 ) ;
#383 = PRESENTATION_LAYER_ASSIGNMENT (  '', '', ( #327 ) ) ;
#384 = PRODUCT_RELATED_PRODUCT_CATEGORY ( 'part', '', ( #679 ) ) ;
#385 = UNCERTAINTY_MEASURE_WITH_UNIT (LENGTH_MEASURE( 1.000000000000000082E-05 ), #40, 'distance_accuracy_value', 'NONE');
#386 = CARTESIAN_POINT ( 'NONE',  ( 1.180000000000000382, 1.525000000000000577, 9.524999999999996803 ) ) ;
#387 = ORIENTED_EDGE ( 'NONE', *, *, #822, .T. ) ;
#388 = CARTESIAN_POINT ( 'NONE',  ( -1.524999999999999467, -8.504999999999999005, 0.8899999999999966827 ) ) ;
#389 = EDGE_CURVE ( 'NONE', #612, #1103, #125, .T. ) ;
#390 = VECTOR ( 'NONE', #996, 1000.000000000000000 ) ;
#391 = ORIENTED_EDGE ( 'NONE', *, *, #251, .T. ) ;
#392 = SURFACE_SIDE_STYLE ('',( #82 ) ) ;
#393 = PRESENTATION_LAYER_ASSIGNMENT (  '', '', ( #63 ) ) ;
#394 = SURFACE_STYLE_FILL_AREA ( #602 ) ;
#395 = ORIENTED_EDGE ( 'NONE', *, *, #893, .T. ) ;
#396 = UNCERTAINTY_MEASURE_WITH_UNIT (LENGTH_MEASURE( 1.000000000000000082E-05 ), #524, 'distance_accuracy_value', 'NONE');
#397 = EDGE_CURVE ( 'NONE', #947, #220, #617, .T. ) ;
#398 =( NAMED_UNIT ( * ) PLANE_ANGLE_UNIT ( ) SI_UNIT ( $, .RADIAN. ) );
#399 = FILL_AREA_STYLE_COLOUR ( '', #69 ) ;
#400 = DIRECTION ( 'NONE',  ( 0.000000000000000000, 0.000000000000000000, -1.000000000000000000 ) ) ;
#401 =( GEOMETRIC_REPRESENTATION_CONTEXT ( 3 ) GLOBAL_UNCERTAINTY_ASSIGNED_CONTEXT ( ( #396 ) ) GLOBAL_UNIT_ASSIGNED_CONTEXT ( ( #524, #798, #993 ) ) REPRESENTATION_CONTEXT ( 'NONE', 'WORKASPACE' ) );
#402 = SURFACE_STYLE_USAGE ( .BOTH. , #1038 ) ;
#403 = PLANE ( 'NONE',  #944 ) ;
#404 = DIRECTION ( 'NONE',  ( -0.000000000000000000, -0.000000000000000000, -1.000000000000000000 ) ) ;
#405 = CIRCLE ( 'NONE', #357, 1.180000000000000382 ) ;
#406 = EDGE_CURVE ( 'NONE', #349, #267, #802, .T. ) ;
#407 = SURFACE_STYLE_USAGE ( .BOTH. , #711 ) ;
#408 = ORIENTED_EDGE ( 'NONE', *, *, #252, .T. ) ;
#409 = PRESENTATION_LAYER_ASSIGNMENT (  '', '', ( #840 ) ) ;
#410 = SURFACE_STYLE_USAGE ( .BOTH. , #967 ) ;
#411 = CARTESIAN_POINT ( 'NONE',  ( -0.3093035155058979635, 0.3421511781737725522, 10.25499999999999723 ) ) ;
#412 =( GEOMETRIC_REPRESENTATION_CONTEXT ( 3 ) GLOBAL_UNCERTAINTY_ASSIGNED_CONTEXT ( ( #1161 ) ) GLOBAL_UNIT_ASSIGNED_CONTEXT ( ( #206, #747, #1131 ) ) REPRESENTATION_CONTEXT ( 'NONE', 'WORKASPACE' ) );
#413 = DIRECTION ( 'NONE',  ( 0.000000000000000000, 0.000000000000000000, 1.000000000000000000 ) ) ;
#414 = FILL_AREA_STYLE_COLOUR ( '', #421 ) ;
#415 = SURFACE_STYLE_FILL_AREA ( #852 ) ;
#416 = EDGE_LOOP ( 'NONE', ( #249, #140, #896, #207 ) ) ;
#417 = FILL_AREA_STYLE_COLOUR ( '', #476 ) ;
#418 = PRESENTATION_LAYER_ASSIGNMENT (  '', '', ( #278 ) ) ;
#419 = CIRCLE ( 'NONE', #1125, 1.180000000000000382 ) ;
#420 = CYLINDRICAL_SURFACE ( 'NONE', #318, 0.2550000000000000044 ) ;
#421 = COLOUR_RGB ( '',0.000000000000000000, 0.000000000000000000, 1.000000000000000000 ) ;
#422 = CARTESIAN_POINT ( 'NONE',  ( -0.8645229898620385711, 0.6604770101379584535, 10.25499999999999723 ) ) ;
#423 = VECTOR ( 'NONE', #56, 1000.000000000000000 ) ;
#424 = ORIENTED_EDGE ( 'NONE', *, *, #923, .F. ) ;
#425 = UNCERTAINTY_MEASURE_WITH_UNIT (LENGTH_MEASURE( 1.000000000000000082E-05 ), #434, 'distance_accuracy_value', 'NONE');
#426 = CARTESIAN_POINT ( 'NONE',  ( 2.415000000000000924, 3.174999999999999822, 9.524999999999996803 ) ) ;
#427 = SURFACE_SIDE_STYLE ('',( #942 ) ) ;
#428 = EDGE_CURVE ( 'NONE', #627, #349, #369, .T. ) ;
#429 = ORIENTED_EDGE ( 'NONE', *, *, #165, .F. ) ;
#430 = CARTESIAN_POINT ( 'NONE',  ( -2.414999999999999147, -2.794999999999999929, 8.764999999999997016 ) ) ;
#431 =( GEOMETRIC_REPRESENTATION_CONTEXT ( 3 ) GLOBAL_UNCERTAINTY_ASSIGNED_CONTEXT ( ( #815 ) ) GLOBAL_UNIT_ASSIGNED_CONTEXT ( ( #636, #1116, #461 ) ) REPRESENTATION_CONTEXT ( 'NONE', 'WORKASPACE' ) );
#432 = PRESENTATION_LAYER_ASSIGNMENT (  '', '', ( #595 ) ) ;
#433 = LINE ( 'NONE', #531, #1101 ) ;
#434 =( LENGTH_UNIT ( ) NAMED_UNIT ( * ) SI_UNIT ( .MILLI., .METRE. ) );
#435 = COLOUR_RGB ( '',0.7803921568627451011, 0.7607843137254901578, 0.7411764705882353255 ) ;
#436 = DIRECTION ( 'NONE',  ( -0.000000000000000000, 1.000000000000000000, -0.000000000000000000 ) ) ;
#437 =( NAMED_UNIT ( * ) SI_UNIT ( $, .STERADIAN. ) SOLID_ANGLE_UNIT ( ) );
#438 = ORIENTED_EDGE ( 'NONE', *, *, #280, .T. ) ;
#439 =( GEOMETRIC_REPRESENTATION_CONTEXT ( 3 ) GLOBAL_UNCERTAINTY_ASSIGNED_CONTEXT ( ( #691 ) ) GLOBAL_UNIT_ASSIGNED_CONTEXT ( ( #1120, #745, #665 ) ) REPRESENTATION_CONTEXT ( 'NONE', 'WORKASPACE' ) );
#440 = CARTESIAN_POINT ( 'NONE',  ( -2.414999999999999147, 3.174999999999999822, 9.524999999999996803 ) ) ;
#441 = AXIS2_PLACEMENT_3D ( 'NONE', #882, #36, #316 ) ;
#442 = VECTOR ( 'NONE', #1135, 1000.000000000000000 ) ;
#443 = PRESENTATION_STYLE_ASSIGNMENT (( #1081 ) ) ;
#444 = ADVANCED_FACE ( 'NONE', ( #344 ), #193, .T. ) ;
#445 = FACE_BOUND ( 'NONE', #1044, .T. ) ;
#446 = DIRECTION ( 'NONE',  ( 0.000000000000000000, 0.000000000000000000, 1.000000000000000000 ) ) ;
#447 = ORIENTED_EDGE ( 'NONE', *, *, #672, .T. ) ;
#448 = EDGE_CURVE ( 'NONE', #713, #947, #258, .T. ) ;
#449 = PRESENTATION_STYLE_ASSIGNMENT (( #332 ) ) ;
#450 = CARTESIAN_POINT ( 'NONE',  ( 2.415000000000000924, -3.174999999999999822, 9.524999999999996803 ) ) ;
#451 = DIRECTION ( 'NONE',  ( 0.000000000000000000, -1.000000000000000000, 0.000000000000000000 ) ) ;
#452 = VERTEX_POINT ( 'NONE', #941 ) ;
#453 = ADVANCED_FACE ( 'NONE', ( #1020 ), #1136, .T. ) ;
#454 = ORIENTED_EDGE ( 'NONE', *, *, #347, .T. ) ;
#455 = SURFACE_SIDE_STYLE ('',( #929 ) ) ;
#456 = CARTESIAN_POINT ( 'NONE',  ( -2.414999999999999147, -3.174999999999999822, -8.765000000000000568 ) ) ;
#457 = MECHANICAL_DESIGN_GEOMETRIC_PRESENTATION_REPRESENTATION (  '', ( #31 ), #401 ) ;
#458 = COLOUR_RGB ( '',0.000000000000000000, 0.000000000000000000, 1.000000000000000000 ) ;
#459 = LINE ( 'NONE', #889, #3 ) ;
#460 = ORIENTED_EDGE ( 'NONE', *, *, #950, .F. ) ;
#461 =( NAMED_UNIT ( * ) SI_UNIT ( $, .STERADIAN. ) SOLID_ANGLE_UNIT ( ) );
#462 = EDGE_CURVE ( 'NONE', #86, #282, #311, .T. ) ;
#463 = VERTEX_POINT ( 'NONE', #386 ) ;
#464 = STYLED_ITEM ( 'NONE', ( #790 ), #375 ) ;
#465 = SURFACE_SIDE_STYLE ('',( #341 ) ) ;
#466 = PRODUCT_DEFINITION ( 'UNKNOWN', '', #593, #704 ) ;
#467 = DIRECTION ( 'NONE',  ( 0.000000000000000000, 0.000000000000000000, -1.000000000000000000 ) ) ;
#468 = STYLED_ITEM ( 'NONE', ( #234 ), #453 ) ;
#469 = FACE_OUTER_BOUND ( 'NONE', #908, .T. ) ;
#470 = ADVANCED_FACE ( 'NONE', ( #368 ), #737, .T. ) ;
#471 = ORIENTED_EDGE ( 'NONE', *, *, #205, .F. ) ;
#472 = UNCERTAINTY_MEASURE_WITH_UNIT (LENGTH_MEASURE( 1.000000000000000082E-05 ), #842, 'distance_accuracy_value', 'NONE');
#473 = SURFACE_STYLE_FILL_AREA ( #28 ) ;
#474 = VECTOR ( 'NONE', #305, 1000.000000000000114 ) ;
#475 = CARTESIAN_POINT ( 'NONE',  ( 0.000000000000000000, 1.525000000000000355, 11.04499999999999815 ) ) ;
#476 = COLOUR_RGB ( '',0.000000000000000000, 0.000000000000000000, 1.000000000000000000 ) ;
#477 = DIRECTION ( 'NONE',  ( 0.000000000000000000, 0.000000000000000000, 1.000000000000000000 ) ) ;
#478 = EDGE_LOOP ( 'NONE', ( #505, #1164, #671, #335 ) ) ;
#479 = DIRECTION ( 'NONE',  ( 1.000000000000000000, 0.000000000000000000, 0.000000000000000000 ) ) ;
#480 =( NAMED_UNIT ( * ) PLANE_ANGLE_UNIT ( ) SI_UNIT ( $, .RADIAN. ) );
#481 = FACE_OUTER_BOUND ( 'NONE', #869, .T. ) ;
#482 = CARTESIAN_POINT ( 'NONE',  ( 2.415000000000000924, -3.174999999999999822, 9.524999999999996803 ) ) ;
#483 = FILL_AREA_STYLE_COLOUR ( '', #717 ) ;
#484 = ORIENTED_EDGE ( 'NONE', *, *, #588, .T. ) ;
#485 = PLANE ( 'NONE',  #1056 ) ;
#486 = SURFACE_STYLE_USAGE ( .BOTH. , #1042 ) ;
#487 = EDGE_CURVE ( 'NONE', #1191, #1169, #653, .T. ) ;
#488 = ORIENTED_EDGE ( 'NONE', *, *, #549, .F. ) ;
#489 = CARTESIAN_POINT ( 'NONE',  ( 2.415000000000000924, -2.794999999999999929, 8.764999999999997016 ) ) ;
#490 = DIRECTION ( 'NONE',  ( -0.000000000000000000, -1.000000000000000000, -0.000000000000000000 ) ) ;
#491 = SURFACE_STYLE_FILL_AREA ( #214 ) ;
#492 = FILL_AREA_STYLE_COLOUR ( '', #200 ) ;
#493 = AXIS2_PLACEMENT_3D ( 'NONE', #846, #955, #477 ) ;
#494 = EDGE_LOOP ( 'NONE', ( #629, #238 ) ) ;
#495 = CARTESIAN_POINT ( 'NONE',  ( 2.415000000000000924, 3.174999999999999822, 9.524999999999996803 ) ) ;
#496 = ORIENTED_EDGE ( 'NONE', *, *, #99, .F. ) ;
#497 = SURFACE_STYLE_USAGE ( .BOTH. , #585 ) ;
#498 = CARTESIAN_POINT ( 'NONE',  ( 0.000000000000000000, 0.000000000000000000, 0.000000000000000000 ) ) ;
#499 =( NAMED_UNIT ( * ) SI_UNIT ( $, .STERADIAN. ) SOLID_ANGLE_UNIT ( ) );
#500 = CARTESIAN_POINT ( 'NONE',  ( -1.524999999999999467, -14.55624891681027755, 1.144999999999996687 ) ) ;
#501 = SURFACE_STYLE_FILL_AREA ( #314 ) ;
#502 = DIRECTION ( 'NONE',  ( -0.000000000000000000, 1.000000000000000000, -0.000000000000000000 ) ) ;
#503 = DIRECTION ( 'NONE',  ( -0.000000000000000000, -0.000000000000000000, -1.000000000000000000 ) ) ;
#504 = AXIS2_PLACEMENT_3D ( 'NONE', #45, #706, #876 ) ;
#505 = ORIENTED_EDGE ( 'NONE', *, *, #549, .T. ) ;
#506 = FILL_AREA_STYLE ('',( #255 ) ) ;
#507 =( LENGTH_UNIT ( ) NAMED_UNIT ( * ) SI_UNIT ( .MILLI., .METRE. ) );
#508 = CIRCLE ( 'NONE', #718, 0.2550000000000000044 ) ;
#509 = LINE ( 'NONE', #1085, #1183 ) ;
#510 = VECTOR ( 'NONE', #1162, 1000.000000000000000 ) ;
#511 = STYLED_ITEM ( 'NONE', ( #1095 ), #373 ) ;
#512 =( LENGTH_UNIT ( ) NAMED_UNIT ( * ) SI_UNIT ( .MILLI., .METRE. ) );
#513 = STYLED_ITEM ( 'NONE', ( #1174 ), #1165 ) ;
#514 = CARTESIAN_POINT ( 'NONE',  ( 0.000000000000000000, 0.000000000000000000, 0.000000000000000000 ) ) ;
#515 = CARTESIAN_POINT ( 'NONE',  ( 1.015000000000000346, -8.504999999999999005, -6.730000000000002203 ) ) ;
#516 = VERTEX_POINT ( 'NONE', #1061 ) ;
#517 =( LENGTH_UNIT ( ) NAMED_UNIT ( * ) SI_UNIT ( .MILLI., .METRE. ) );
#518 =( NAMED_UNIT ( * ) PLANE_ANGLE_UNIT ( ) SI_UNIT ( $, .RADIAN. ) );
#519 = APPLICATION_CONTEXT ( 'automotive_design' ) ;
#520 = EDGE_CURVE ( 'NONE', #86, #57, #1019, .T. ) ;
#521 = MECHANICAL_DESIGN_GEOMETRIC_PRESENTATION_REPRESENTATION (  '', ( #63 ), #122 ) ;
#522 = ORIENTED_EDGE ( 'NONE', *, *, #298, .T. ) ;
#523 = CARTESIAN_POINT ( 'NONE',  ( -1.524999999999999467, -8.504999999999999005, 1.144999999999996687 ) ) ;
#524 =( LENGTH_UNIT ( ) NAMED_UNIT ( * ) SI_UNIT ( .MILLI., .METRE. ) );
#525 = UNCERTAINTY_MEASURE_WITH_UNIT (LENGTH_MEASURE( 1.000000000000000082E-05 ), #128, 'distance_accuracy_value', 'NONE');
#526 = LINE ( 'NONE', #881, #980 ) ;
#527 = CLOSED_SHELL ( 'NONE', ( #643, #651, #1, #740, #373, #834, #934, #823, #1165, #1006, #1099, #338, #360, #548, #922, #364, #81, #444, #453, #470, #275, #830, #270, #93, #375, #818 ) ) ;
#528 = CARTESIAN_POINT ( 'NONE',  ( -2.414999999999999147, 3.174999999999999822, -9.525000000000002132 ) ) ;
#529 = FILL_AREA_STYLE ('',( #149 ) ) ;
#530 = MECHANICAL_DESIGN_GEOMETRIC_PRESENTATION_REPRESENTATION (  '', ( #879 ), #646 ) ;
#531 = CARTESIAN_POINT ( 'NONE',  ( 2.415000000000000924, -3.174999999999999822, -8.765000000000000568 ) ) ;
#532 = EDGE_CURVE ( 'NONE', #1016, #248, #161, .T. ) ;
#533 = MECHANICAL_DESIGN_GEOMETRIC_PRESENTATION_REPRESENTATION (  '', ( #776 ), #143 ) ;
#534 = EDGE_LOOP ( 'NONE', ( #1137, #11 ) ) ;
#535 = FILL_AREA_STYLE_COLOUR ( '', #763 ) ;
#536 = MECHANICAL_DESIGN_GEOMETRIC_PRESENTATION_REPRESENTATION (  '', ( #840 ), #144 ) ;
#537 = PRESENTATION_LAYER_ASSIGNMENT (  '', '', ( #622 ) ) ;
#538 = CYLINDRICAL_SURFACE ( 'NONE', #72, 1.180000000000000382 ) ;
#539 = COLOUR_RGB ( '',0.000000000000000000, 0.000000000000000000, 1.000000000000000000 ) ;
#540 = ORIENTED_EDGE ( 'NONE', *, *, #397, .T. ) ;
#541 =( LENGTH_UNIT ( ) NAMED_UNIT ( * ) SI_UNIT ( .MILLI., .METRE. ) );
#542 = PRESENTATION_LAYER_ASSIGNMENT (  '', '', ( #849 ) ) ;
#543 =( LENGTH_UNIT ( ) NAMED_UNIT ( * ) SI_UNIT ( .MILLI., .METRE. ) );
#544 = ORIENTED_EDGE ( 'NONE', *, *, #1010, .T. ) ;
#545 = FILL_AREA_STYLE ('',( #650 ) ) ;
#546 = CIRCLE ( 'NONE', #370, 0.2550000000000000044 ) ;
#547 = DIRECTION ( 'NONE',  ( 1.000000000000000000, -0.000000000000000000, -0.000000000000000000 ) ) ;
#548 = ADVANCED_FACE ( 'NONE', ( #372, #159, #770, #308 ), #1087, .F. ) ;
#549 = EDGE_CURVE ( 'NONE', #995, #220, #1060, .T. ) ;
#550 = ORIENTED_EDGE ( 'NONE', *, *, #99, .T. ) ;
#551 = MECHANICAL_DESIGN_GEOMETRIC_PRESENTATION_REPRESENTATION (  '', ( #1160 ), #952 ) ;
#552 = PRESENTATION_LAYER_ASSIGNMENT (  '', '', ( #371 ) ) ;
#553 = ORIENTED_EDGE ( 'NONE', *, *, #638, .T. ) ;
#554 = VERTEX_POINT ( 'NONE', #780 ) ;
#555 =( NAMED_UNIT ( * ) SI_UNIT ( $, .STERADIAN. ) SOLID_ANGLE_UNIT ( ) );
#556 =( LENGTH_UNIT ( ) NAMED_UNIT ( * ) SI_UNIT ( .MILLI., .METRE. ) );
#557 = AXIS2_PLACEMENT_3D ( 'NONE', #793, #688, #54 ) ;
#558 = UNCERTAINTY_MEASURE_WITH_UNIT (LENGTH_MEASURE( 1.000000000000000082E-05 ), #578, 'distance_accuracy_value', 'NONE');
#559 = PRESENTATION_STYLE_ASSIGNMENT (( #1067 ) ) ;
#560 = PLANE ( 'NONE',  #866 ) ;
#561 = ORIENTED_EDGE ( 'NONE', *, *, #569, .F. ) ;
#562 = VECTOR ( 'NONE', #14, 1000.000000000000000 ) ;
#563 = DIRECTION ( 'NONE',  ( 0.000000000000000000, 0.000000000000000000, 1.000000000000000000 ) ) ;
#564 =( GEOMETRIC_REPRESENTATION_CONTEXT ( 3 ) GLOBAL_UNCERTAINTY_ASSIGNED_CONTEXT ( ( #639 ) ) GLOBAL_UNIT_ASSIGNED_CONTEXT ( ( #949, #847, #1046 ) ) REPRESENTATION_CONTEXT ( 'NONE', 'WORKASPACE' ) );
#565 =( GEOMETRIC_REPRESENTATION_CONTEXT ( 3 ) GLOBAL_UNCERTAINTY_ASSIGNED_CONTEXT ( ( #611 ) ) GLOBAL_UNIT_ASSIGNED_CONTEXT ( ( #241, #594, #977 ) ) REPRESENTATION_CONTEXT ( 'NONE', 'WORKASPACE' ) );
#566 = DIRECTION ( 'NONE',  ( -0.4973841124440405159, -0.8675304286814694565, 0.000000000000000000 ) ) ;
#567 = DIRECTION ( 'NONE',  ( 0.000000000000000000, -1.000000000000000000, 0.000000000000000000 ) ) ;
#568 = ORIENTED_EDGE ( 'NONE', *, *, #406, .F. ) ;
#569 = EDGE_CURVE ( 'NONE', #554, #349, #433, .T. ) ;
#570 = DIRECTION ( 'NONE',  ( 1.000000000000000000, 0.000000000000000000, 0.000000000000000000 ) ) ;
#571 = FILL_AREA_STYLE ('',( #581 ) ) ;
#572 = AXIS2_PLACEMENT_3D ( 'NONE', #91, #1188, #919 ) ;
#573 =( LENGTH_UNIT ( ) NAMED_UNIT ( * ) SI_UNIT ( .MILLI., .METRE. ) );
#574 = DIRECTION ( 'NONE',  ( 0.000000000000000000, 0.000000000000000000, -1.000000000000000000 ) ) ;
#575 = ORIENTED_EDGE ( 'NONE', *, *, #59, .F. ) ;
#576 = CARTESIAN_POINT ( 'NONE',  ( 2.415000000000000924, -2.794999999999999929, -8.765000000000000568 ) ) ;
#577 = PLANE ( 'NONE',  #1012 ) ;
#578 =( LENGTH_UNIT ( ) NAMED_UNIT ( * ) SI_UNIT ( .MILLI., .METRE. ) );
#579 = ORIENTED_EDGE ( 'NONE', *, *, #1129, .T. ) ;
#580 = PRESENTATION_STYLE_ASSIGNMENT (( #402 ) ) ;
#581 = FILL_AREA_STYLE_COLOUR ( '', #170 ) ;
#582 = CARTESIAN_POINT ( 'NONE',  ( 1.015000000000000790, -14.55624891681027755, 5.969999999999997087 ) ) ;
#583 =( NAMED_UNIT ( * ) SI_UNIT ( $, .STERADIAN. ) SOLID_ANGLE_UNIT ( ) );
#584 = DIRECTION ( 'NONE',  ( -0.000000000000000000, -1.000000000000000000, -0.000000000000000000 ) ) ;
#585 = SURFACE_SIDE_STYLE ('',( #1177 ) ) ;
#586 = DIRECTION ( 'NONE',  ( 1.000000000000000000, 0.000000000000000000, 0.000000000000000000 ) ) ;
#587 = CARTESIAN_POINT ( 'NONE',  ( -0.8425294946234550553, 0.6988377576471156427, 11.04499999999999815 ) ) ;
#588 = EDGE_CURVE ( 'NONE', #267, #750, #1024, .T. ) ;
#589 = ORIENTED_EDGE ( 'NONE', *, *, #389, .T. ) ;
#590 = DIRECTION ( 'NONE',  ( -0.000000000000000000, 1.000000000000000000, -0.000000000000000000 ) ) ;
#591 = VECTOR ( 'NONE', #268, 1000.000000000000000 ) ;
#592 = AXIS2_PLACEMENT_3D ( 'NONE', #196, #567, #24 ) ;
#593 = PRODUCT_DEFINITION_FORMATION_WITH_SPECIFIED_SOURCE ( 'ANY', '', #679, .NOT_KNOWN. ) ;
#594 =( NAMED_UNIT ( * ) PLANE_ANGLE_UNIT ( ) SI_UNIT ( $, .RADIAN. ) );
#595 = STYLED_ITEM ( 'NONE', ( #580 ), #444 ) ;
#596 = ORIENTED_EDGE ( 'NONE', *, *, #1173, .T. ) ;
#597 = VERTEX_POINT ( 'NONE', #528 ) ;
#598 = SURFACE_SIDE_STYLE ('',( #138 ) ) ;
#599 = PLANE ( 'NONE',  #351 ) ;
#600 = UNCERTAINTY_MEASURE_WITH_UNIT (LENGTH_MEASURE( 1.000000000000000082E-05 ), #556, 'distance_accuracy_value', 'NONE');
#601 = DIRECTION ( 'NONE',  ( 0.000000000000000000, 0.000000000000000000, -1.000000000000000000 ) ) ;
#602 = FILL_AREA_STYLE ('',( #675 ) ) ;
#603 = DIRECTION ( 'NONE',  ( 0.000000000000000000, -1.000000000000000000, 0.000000000000000000 ) ) ;
#604 = AXIS2_PLACEMENT_3D ( 'NONE', #862, #404, #1144 ) ;
#605 = ORIENTED_EDGE ( 'NONE', *, *, #764, .F. ) ;
#606 =( NAMED_UNIT ( * ) SI_UNIT ( $, .STERADIAN. ) SOLID_ANGLE_UNIT ( ) );
#607 = SURFACE_SIDE_STYLE ('',( #992 ) ) ;
#608 = SURFACE_STYLE_FILL_AREA ( #274 ) ;
#609 = CIRCLE ( 'NONE', #726, 1.180000000000000382 ) ;
#610 = DIRECTION ( 'NONE',  ( 0.000000000000000000, 0.000000000000000000, 1.000000000000000000 ) ) ;
#611 = UNCERTAINTY_MEASURE_WITH_UNIT (LENGTH_MEASURE( 1.000000000000000082E-05 ), #241, 'distance_accuracy_value', 'NONE');
#612 = VERTEX_POINT ( 'NONE', #619 ) ;
#613 = PRESENTATION_STYLE_ASSIGNMENT (( #1108 ) ) ;
#614 = DIRECTION ( 'NONE',  ( -0.000000000000000000, -1.000000000000000000, -0.000000000000000000 ) ) ;
#615 = EDGE_CURVE ( 'NONE', #257, #892, #625, .T. ) ;
#616 = APPLICATION_PROTOCOL_DEFINITION ( 'draft international standard', 'automotive_design', 1998, #519 ) ;
#617 = LINE ( 'NONE', #495, #97 ) ;
#618 = VECTOR ( 'NONE', #436, 1000.000000000000000 ) ;
#619 = CARTESIAN_POINT ( 'NONE',  ( -2.414999999999999147, -3.174999999999999822, -9.525000000000002132 ) ) ;
#620 = STYLED_ITEM ( 'NONE', ( #1011 ), #270 ) ;
#621 = FILL_AREA_STYLE_COLOUR ( '', #539 ) ;
#622 = STYLED_ITEM ( 'NONE', ( #801 ), #470 ) ;
#623 = APPLICATION_PROTOCOL_DEFINITION ( 'draft international standard', 'automotive_design', 1998, #158 ) ;
#624 = FILL_AREA_STYLE_COLOUR ( '', #1090 ) ;
#625 = CIRCLE ( 'NONE', #256, 0.2550000000000000044 ) ;
#626 = CARTESIAN_POINT ( 'NONE',  ( 0.000000000000000000, 1.525000000000000355, 9.524999999999996803 ) ) ;
#627 = VERTEX_POINT ( 'NONE', #803 ) ;
#628 = PRESENTATION_LAYER_ASSIGNMENT (  '', '', ( #1170 ) ) ;
#629 = ORIENTED_EDGE ( 'NONE', *, *, #269, .T. ) ;
#630 = CARTESIAN_POINT ( 'NONE',  ( 0.2776097371780702483, 1.365837084017907488, 11.04499999999999815 ) ) ;
#631 = MECHANICAL_DESIGN_GEOMETRIC_PRESENTATION_REPRESENTATION (  '', ( #327 ), #564 ) ;
#632 = ORIENTED_EDGE ( 'NONE', *, *, #389, .F. ) ;
#633 =( LENGTH_UNIT ( ) NAMED_UNIT ( * ) SI_UNIT ( .MILLI., .METRE. ) );
#634 = EDGE_LOOP ( 'NONE', ( #174, #198 ) ) ;
#635 = VECTOR ( 'NONE', #1193, 1000.000000000000000 ) ;
#636 =( LENGTH_UNIT ( ) NAMED_UNIT ( * ) SI_UNIT ( .MILLI., .METRE. ) );
#637 = VERTEX_POINT ( 'NONE', #67 ) ;
#638 = EDGE_CURVE ( 'NONE', #279, #6, #871, .T. ) ;
#639 = UNCERTAINTY_MEASURE_WITH_UNIT (LENGTH_MEASURE( 1.000000000000000082E-05 ), #949, 'distance_accuracy_value', 'NONE');
#640 = ORIENTED_EDGE ( 'NONE', *, *, #1129, .F. ) ;
#641 = MECHANICAL_DESIGN_GEOMETRIC_PRESENTATION_REPRESENTATION (  '', ( #804 ), #431 ) ;
#642 = PLANE ( 'NONE',  #304 ) ;
#643 = ADVANCED_FACE ( 'NONE', ( #155 ), #538, .T. ) ;
#644 = FILL_AREA_STYLE_COLOUR ( '', #1113 ) ;
#645 = CARTESIAN_POINT ( 'NONE',  ( 0.000000000000000000, 1.525000000000000355, 11.04499999999999815 ) ) ;
#646 =( GEOMETRIC_REPRESENTATION_CONTEXT ( 3 ) GLOBAL_UNCERTAINTY_ASSIGNED_CONTEXT ( ( #1082 ) ) GLOBAL_UNIT_ASSIGNED_CONTEXT ( ( #47, #1148, #247 ) ) REPRESENTATION_CONTEXT ( 'NONE', 'WORKASPACE' ) );
#647 = COLOUR_RGB ( '',0.7803921568627451011, 0.7607843137254901578, 0.7411764705882353255 ) ;
#648 = SURFACE_STYLE_FILL_AREA ( #816 ) ;
#649 = CARTESIAN_POINT ( 'NONE',  ( -1.524999999999999467, -2.794999999999999041, 1.399999999999996803 ) ) ;
#650 = FILL_AREA_STYLE_COLOUR ( '', #647 ) ;
#651 = ADVANCED_FACE ( 'NONE', ( #778 ), #1014, .T. ) ;
#652 = AXIS2_PLACEMENT_3D ( 'NONE', #1040, #33, #574 ) ;
#653 = CIRCLE ( 'NONE', #281, 0.2550000000000000044 ) ;
#654 = DIRECTION ( 'NONE',  ( 0.000000000000000000, 1.000000000000000000, 0.000000000000000000 ) ) ;
#655 = DIRECTION ( 'NONE',  ( 0.000000000000000000, -1.000000000000000000, 0.000000000000000000 ) ) ;
#656 = VERTEX_POINT ( 'NONE', #814 ) ;
#657 = DIRECTION ( 'NONE',  ( 0.000000000000000000, -0.000000000000000000, -1.000000000000000000 ) ) ;
#658 = SURFACE_STYLE_FILL_AREA ( #545 ) ;
#659 = PRESENTATION_STYLE_ASSIGNMENT (( #874 ) ) ;
#660 = PRESENTATION_LAYER_ASSIGNMENT (  '', '', ( #1100 ) ) ;
#661 =( LENGTH_UNIT ( ) NAMED_UNIT ( * ) SI_UNIT ( .MILLI., .METRE. ) );
#662 = DIRECTION ( 'NONE',  ( 0.000000000000000000, -0.000000000000000000, -1.000000000000000000 ) ) ;
#663 = ORIENTED_EDGE ( 'NONE', *, *, #269, .F. ) ;
#664 = DIRECTION ( 'NONE',  ( -0.8675304286814694565, 0.4973841124440405159, 0.000000000000000000 ) ) ;
#665 =( NAMED_UNIT ( * ) SI_UNIT ( $, .STERADIAN. ) SOLID_ANGLE_UNIT ( ) );
#666 = CARTESIAN_POINT ( 'NONE',  ( 1.180000000000000382, 1.525000000000000577, 11.04499999999999815 ) ) ;
#667 = LINE ( 'NONE', #482, #147 ) ;
#668 = DIRECTION ( 'NONE',  ( -0.000000000000000000, -0.000000000000000000, 1.000000000000000000 ) ) ;
#669 = DIRECTION ( 'NONE',  ( 0.000000000000000000, 0.000000000000000000, 1.000000000000000000 ) ) ;
#670 = DIRECTION ( 'NONE',  ( -0.000000000000000000, -1.000000000000000000, -0.000000000000000000 ) ) ;
#671 = ORIENTED_EDGE ( 'NONE', *, *, #448, .F. ) ;
#672 = EDGE_CURVE ( 'NONE', #516, #1000, #405, .T. ) ;
#673 = CARTESIAN_POINT ( 'NONE',  ( -2.414999999999999147, -3.174999999999999822, 9.524999999999996803 ) ) ;
#674 = STYLED_ITEM ( 'NONE', ( #186 ), #275 ) ;
#675 = FILL_AREA_STYLE_COLOUR ( '', #18 ) ;
#676 = DIRECTION ( 'NONE',  ( 0.000000000000000000, 0.000000000000000000, 1.000000000000000000 ) ) ;
#677 = MECHANICAL_DESIGN_GEOMETRIC_PRESENTATION_REPRESENTATION (  '', ( #595 ), #1175 ) ;
#678 = VECTOR ( 'NONE', #1140, 1000.000000000000000 ) ;
#679 = PRODUCT ( '3006P-1-103LF', '3006P-1-103LF', '', ( #1163 ) ) ;
#680 = FACE_OUTER_BOUND ( 'NONE', #73, .T. ) ;
#681 = CIRCLE ( 'NONE', #441, 0.2550000000000000044 ) ;
#682 = DIRECTION ( 'NONE',  ( 0.000000000000000000, -1.000000000000000000, 0.000000000000000000 ) ) ;
#683 =( NAMED_UNIT ( * ) PLANE_ANGLE_UNIT ( ) SI_UNIT ( $, .RADIAN. ) );
#684 = CARTESIAN_POINT ( 'NONE',  ( 0.8425294946234548332, 2.351162242352884846, 11.04499999999999815 ) ) ;
#685 = CARTESIAN_POINT ( 'NONE',  ( 0.000000000000000000, 1.525000000000000355, 11.04499999999999815 ) ) ;
#686 = CYLINDRICAL_SURFACE ( 'NONE', #20, 0.2550000000000000044 ) ;
#687 = CARTESIAN_POINT ( 'NONE',  ( 1.015000000000000346, -2.794999999999999041, -6.475000000000002309 ) ) ;
#688 = DIRECTION ( 'NONE',  ( 0.000000000000000000, 0.000000000000000000, -1.000000000000000000 ) ) ;
#689 = PLANE ( 'NONE',  #1105 ) ;
#690 = MECHANICAL_DESIGN_GEOMETRIC_PRESENTATION_REPRESENTATION (  '', ( #990 ), #833 ) ;
#691 = UNCERTAINTY_MEASURE_WITH_UNIT (LENGTH_MEASURE( 1.000000000000000082E-05 ), #1120, 'distance_accuracy_value', 'NONE');
#692 = ORIENTED_EDGE ( 'NONE', *, *, #428, .F. ) ;
#693 = CARTESIAN_POINT ( 'NONE',  ( -2.414999999999999147, -3.174999999999999822, 8.764999999999997016 ) ) ;
#694 = DIRECTION ( 'NONE',  ( 1.000000000000000000, -0.000000000000000000, 0.000000000000000000 ) ) ;
#695 = CARTESIAN_POINT ( 'NONE',  ( 1.015000000000000790, -14.55624891681027755, 6.479999999999996874 ) ) ;
#696 = LINE ( 'NONE', #1128, #442 ) ;
#697 =( NAMED_UNIT ( * ) PLANE_ANGLE_UNIT ( ) SI_UNIT ( $, .RADIAN. ) );
#698 = MECHANICAL_DESIGN_GEOMETRIC_PRESENTATION_REPRESENTATION (  '', ( #838 ), #439 ) ;
#699 =( GEOMETRIC_REPRESENTATION_CONTEXT ( 3 ) GLOBAL_UNCERTAINTY_ASSIGNED_CONTEXT ( ( #525 ) ) GLOBAL_UNIT_ASSIGNED_CONTEXT ( ( #128, #972, #49 ) ) REPRESENTATION_CONTEXT ( 'NONE', 'WORKASPACE' ) );
#700 = SURFACE_STYLE_FILL_AREA ( #529 ) ;
#701 = ORIENTED_EDGE ( 'NONE', *, *, #59, .T. ) ;
#702 = COLOUR_RGB ( '',0.8392156862745098200, 0.4705882352941176405, 0.3686274509803921795 ) ;
#703 = EDGE_CURVE ( 'NONE', #463, #25, #609, .T. ) ;
#704 = PRODUCT_DEFINITION_CONTEXT ( 'detailed design', #897, 'design' ) ;
#705 = MECHANICAL_DESIGN_GEOMETRIC_PRESENTATION_REPRESENTATION (  '', ( #620 ), #925 ) ;
#706 = DIRECTION ( 'NONE',  ( -0.000000000000000000, -1.000000000000000000, -0.000000000000000000 ) ) ;
#707 = VERTEX_POINT ( 'NONE', #74 ) ;
#708 = ORIENTED_EDGE ( 'NONE', *, *, #298, .F. ) ;
#709 = EDGE_CURVE ( 'NONE', #44, #1178, #363, .T. ) ;
#710 = ORIENTED_EDGE ( 'NONE', *, *, #1189, .F. ) ;
#711 = SURFACE_SIDE_STYLE ('',( #991 ) ) ;
#712 = LINE ( 'NONE', #134, #928 ) ;
#713 = VERTEX_POINT ( 'NONE', #440 ) ;
#714 = ORIENTED_EDGE ( 'NONE', *, *, #981, .F. ) ;
#715 =( NAMED_UNIT ( * ) PLANE_ANGLE_UNIT ( ) SI_UNIT ( $, .RADIAN. ) );
#716 = APPLICATION_PROTOCOL_DEFINITION ( 'draft international standard', 'automotive_design', 1998, #903 ) ;
#717 = COLOUR_RGB ( '',0.7803921568627451011, 0.7607843137254901578, 0.7411764705882353255 ) ;
#718 = AXIS2_PLACEMENT_3D ( 'NONE', #1127, #490, #669 ) ;
#719 = AXIS2_PLACEMENT_3D ( 'NONE', #514, #1068, #163 ) ;
#720 = ORIENTED_EDGE ( 'NONE', *, *, #119, .T. ) ;
#721 = COLOUR_RGB ( '',0.000000000000000000, 0.000000000000000000, 1.000000000000000000 ) ;
#722 = SURFACE_STYLE_FILL_AREA ( #324 ) ;
#723 =( NAMED_UNIT ( * ) SI_UNIT ( $, .STERADIAN. ) SOLID_ANGLE_UNIT ( ) );
#724 = LINE ( 'NONE', #582, #301 ) ;
#725 = ORIENTED_EDGE ( 'NONE', *, *, #1111, .T. ) ;
#726 = AXIS2_PLACEMENT_3D ( 'NONE', #626, #913, #1002 ) ;
#727 = UNCERTAINTY_MEASURE_WITH_UNIT (LENGTH_MEASURE( 1.000000000000000082E-05 ), #633, 'distance_accuracy_value', 'NONE');
#728 = EDGE_LOOP ( 'NONE', ( #605, #203, #953, #982 ) ) ;
#729 = CARTESIAN_POINT ( 'NONE',  ( 1.015000000000000346, -8.504999999999999005, -6.475000000000002309 ) ) ;
#730 = EDGE_CURVE ( 'NONE', #118, #379, #114, .T. ) ;
#731 = COLOUR_RGB ( '',0.8392156862745098200, 0.4705882352941176405, 0.3686274509803921795 ) ;
#732 = ORIENTED_EDGE ( 'NONE', *, *, #730, .F. ) ;
#733 =( GEOMETRIC_REPRESENTATION_CONTEXT ( 3 ) GLOBAL_UNCERTAINTY_ASSIGNED_CONTEXT ( ( #1072 ) ) GLOBAL_UNIT_ASSIGNED_CONTEXT ( ( #931, #1023, #1049 ) ) REPRESENTATION_CONTEXT ( 'NONE', 'WORKASPACE' ) );
#734 = DIRECTION ( 'NONE',  ( 1.000000000000000000, 0.000000000000000000, -0.000000000000000000 ) ) ;
#735 = PRESENTATION_LAYER_ASSIGNMENT (  '', '', ( #468 ) ) ;
#736 = PRESENTATION_STYLE_ASSIGNMENT (( #935 ) ) ;
#737 = CYLINDRICAL_SURFACE ( 'NONE', #1114, 0.2550000000000000044 ) ;
#738 = SURFACE_STYLE_USAGE ( .BOTH. , #101 ) ;
#739 = COLOUR_RGB ( '',0.000000000000000000, 0.000000000000000000, 1.000000000000000000 ) ;
#740 = ADVANCED_FACE ( 'NONE', ( #899 ), #420, .T. ) ;
#741 = ORIENTED_EDGE ( 'NONE', *, *, #799, .T. ) ;
#742 = DIRECTION ( 'NONE',  ( -0.000000000000000000, 1.000000000000000000, -0.000000000000000000 ) ) ;
#743 = AXIS2_PLACEMENT_3D ( 'NONE', #858, #676, #225 ) ;
#744 = LINE ( 'NONE', #1036, #15 ) ;
#745 =( NAMED_UNIT ( * ) PLANE_ANGLE_UNIT ( ) SI_UNIT ( $, .RADIAN. ) );
#746 = CARTESIAN_POINT ( 'NONE',  ( 0.2873100202673148917, 2.669488074317071025, 11.04499999999999815 ) ) ;
#747 =( NAMED_UNIT ( * ) PLANE_ANGLE_UNIT ( ) SI_UNIT ( $, .RADIAN. ) );
#748 = ORIENTED_EDGE ( 'NONE', *, *, #61, .T. ) ;
#749 = VECTOR ( 'NONE', #1058, 1000.000000000000000 ) ;
#750 = VERTEX_POINT ( 'NONE', #123 ) ;
#751 = PRESENTATION_LAYER_ASSIGNMENT (  '', '', ( #511 ) ) ;
#752 = PRODUCT_DEFINITION ( 'UNKNOWN', '', #199, #754 ) ;
#753 = CARTESIAN_POINT ( 'NONE',  ( -1.524999999999999467, -14.55624891681027755, 1.144999999999996687 ) ) ;
#754 = PRODUCT_DEFINITION_CONTEXT ( 'detailed design', #903, 'design' ) ;
#755 = EDGE_CURVE ( 'NONE', #1000, #637, #940, .T. ) ;
#756 = FILL_AREA_STYLE ('',( #483 ) ) ;
#757 = ORIENTED_EDGE ( 'NONE', *, *, #117, .T. ) ;
#758 = SURFACE_STYLE_USAGE ( .BOTH. , #213 ) ;
#759 = MECHANICAL_DESIGN_GEOMETRIC_PRESENTATION_REPRESENTATION (  '', ( #674 ), #733 ) ;
#760 =( NAMED_UNIT ( * ) PLANE_ANGLE_UNIT ( ) SI_UNIT ( $, .RADIAN. ) );
#761 = CIRCLE ( 'NONE', #182, 0.2550000000000000044 ) ;
#762 = DIRECTION ( 'NONE',  ( 1.000000000000000000, -0.000000000000000000, -0.000000000000000000 ) ) ;
#763 = COLOUR_RGB ( '',0.7803921568627451011, 0.7607843137254901578, 0.7411764705882353255 ) ;
#764 = EDGE_CURVE ( 'NONE', #282, #34, #696, .T. ) ;
#765 = FILL_AREA_STYLE_COLOUR ( '', #906 ) ;
#766 =( NAMED_UNIT ( * ) PLANE_ANGLE_UNIT ( ) SI_UNIT ( $, .RADIAN. ) );
#767 = ORIENTED_EDGE ( 'NONE', *, *, #638, .F. ) ;
#768 = FACE_OUTER_BOUND ( 'NONE', #775, .T. ) ;
#769 = AXIS2_PLACEMENT_3D ( 'NONE', #523, #157, #601 ) ;
#770 = FACE_BOUND ( 'NONE', #227, .T. ) ;
#771 = SURFACE_SIDE_STYLE ('',( #932 ) ) ;
#772 = DIRECTION ( 'NONE',  ( -0.000000000000000000, -0.000000000000000000, 1.000000000000000000 ) ) ;
#773 = DIRECTION ( 'NONE',  ( -0.4973841124440405159, -0.8675304286814694565, 0.000000000000000000 ) ) ;
#774 = SURFACE_SIDE_STYLE ('',( #722 ) ) ;
#775 = EDGE_LOOP ( 'NONE', ( #287, #797, #438, #1168 ) ) ;
#776 = STYLED_ITEM ( 'NONE', ( #242 ), #338 ) ;
#777 = FILL_AREA_STYLE ('',( #492 ) ) ;
#778 = FACE_OUTER_BOUND ( 'NONE', #58, .T. ) ;
#779 = CIRCLE ( 'NONE', #937, 1.180000000000000382 ) ;
#780 = CARTESIAN_POINT ( 'NONE',  ( 2.415000000000000924, -3.174999999999999822, -8.765000000000000568 ) ) ;
#781 = FACE_OUTER_BOUND ( 'NONE', #1071, .T. ) ;
#782 = FILL_AREA_STYLE_COLOUR ( '', #1142 ) ;
#783 = CARTESIAN_POINT ( 'NONE',  ( 0.000000000000000000, -3.174999999999999822, 0.000000000000000000 ) ) ;
#784 = EDGE_LOOP ( 'NONE', ( #1195, #1092 ) ) ;
#785 = VECTOR ( 'NONE', #547, 1000.000000000000000 ) ;
#786 = MECHANICAL_DESIGN_GEOMETRIC_PRESENTATION_REPRESENTATION (  '', ( #152 ), #911 ) ;
#787 = DIRECTION ( 'NONE',  ( -0.000000000000000000, -0.000000000000000000, 1.000000000000000000 ) ) ;
#788 = DIRECTION ( 'NONE',  ( 0.000000000000000000, -1.000000000000000000, 0.000000000000000000 ) ) ;
#789 =( NAMED_UNIT ( * ) SI_UNIT ( $, .STERADIAN. ) SOLID_ANGLE_UNIT ( ) );
#790 = PRESENTATION_STYLE_ASSIGNMENT (( #497 ) ) ;
#791 = PRESENTATION_LAYER_ASSIGNMENT (  '', '', ( #900 ) ) ;
#792 = VERTEX_POINT ( 'NONE', #666 ) ;
#793 = CARTESIAN_POINT ( 'NONE',  ( -2.414999999999999147, 3.174999999999999822, 9.524999999999996803 ) ) ;
#794 = CARTESIAN_POINT ( 'NONE',  ( -2.414999999999999147, 3.174999999999999822, 9.524999999999996803 ) ) ;
#795 = LINE ( 'NONE', #987, #423 ) ;
#796 = PRODUCT_DEFINITION_SHAPE ( 'NONE', 'NONE',  #466 ) ;
#797 = ORIENTED_EDGE ( 'NONE', *, *, #38, .T. ) ;
#798 =( NAMED_UNIT ( * ) PLANE_ANGLE_UNIT ( ) SI_UNIT ( $, .RADIAN. ) );
#799 = EDGE_CURVE ( 'NONE', #44, #1000, #974, .T. ) ;
#800 = SURFACE_STYLE_FILL_AREA ( #867 ) ;
#801 = PRESENTATION_STYLE_ASSIGNMENT (( #948 ) ) ;
#802 = LINE ( 'NONE', #489, #1084 ) ;
#803 = CARTESIAN_POINT ( 'NONE',  ( -2.414999999999999147, -2.794999999999999929, -8.765000000000000568 ) ) ;
#804 = STYLED_ITEM ( 'NONE', ( #361 ), #210 ) ;
#805 =( GEOMETRIC_REPRESENTATION_CONTEXT ( 3 ) GLOBAL_UNCERTAINTY_ASSIGNED_CONTEXT ( ( #907 ) ) GLOBAL_UNIT_ASSIGNED_CONTEXT ( ( #113, #855, #296 ) ) REPRESENTATION_CONTEXT ( 'NONE', 'WORKASPACE' ) );
#806 = ORIENTED_EDGE ( 'NONE', *, *, #923, .T. ) ;
#807 = DIRECTION ( 'NONE',  ( 0.000000000000000000, -0.000000000000000000, 1.000000000000000000 ) ) ;
#808 =( NAMED_UNIT ( * ) PLANE_ANGLE_UNIT ( ) SI_UNIT ( $, .RADIAN. ) );
#809 = PRESENTATION_STYLE_ASSIGNMENT (( #1069 ) ) ;
#810 = AXIS2_PLACEMENT_3D ( 'NONE', #64, #160, #68 ) ;
#811 = VECTOR ( 'NONE', #787, 1000.000000000000000 ) ;
#812 = EDGE_LOOP ( 'NONE', ( #471, #340, #544, #302 ) ) ;
#813 = LINE ( 'NONE', #1118, #326 ) ;
#814 = CARTESIAN_POINT ( 'NONE',  ( -1.180000000000000382, 1.525000000000000355, 11.04499999999999815 ) ) ;
#815 = UNCERTAINTY_MEASURE_WITH_UNIT (LENGTH_MEASURE( 1.000000000000000082E-05 ), #636, 'distance_accuracy_value', 'NONE');
#816 = FILL_AREA_STYLE ('',( #535 ) ) ;
#817 = MECHANICAL_DESIGN_GEOMETRIC_PRESENTATION_REPRESENTATION (  '', ( #513 ), #565 ) ;
#818 = ADVANCED_FACE ( 'NONE', ( #912 ), #689, .F. ) ;
#819 = ORIENTED_EDGE ( 'NONE', *, *, #709, .T. ) ;
#820 = DIRECTION ( 'NONE',  ( 1.000000000000000000, -0.000000000000000000, -0.000000000000000000 ) ) ;
#821 = COLOUR_RGB ( '',0.7921568627450980005, 0.8196078431372548767, 0.9333333333333333481 ) ;
#822 = EDGE_CURVE ( 'NONE', #25, #463, #914, .T. ) ;
#823 = ADVANCED_FACE ( 'NONE', ( #837 ), #297, .F. ) ;
#824 = DIRECTION ( 'NONE',  ( 0.000000000000000000, 0.000000000000000000, -1.000000000000000000 ) ) ;
#825 = SHAPE_DEFINITION_REPRESENTATION ( #796, #954 ) ;
#826 = EDGE_LOOP ( 'NONE', ( #90, #391 ) ) ;
#827 = VECTOR ( 'NONE', #1186, 1000.000000000000000 ) ;
#828 = EDGE_CURVE ( 'NONE', #1018, #267, #322, .T. ) ;
#829 =( NAMED_UNIT ( * ) PLANE_ANGLE_UNIT ( ) SI_UNIT ( $, .RADIAN. ) );
#830 = ADVANCED_FACE ( 'NONE', ( #377 ), #976, .T. ) ;
#831 = VECTOR ( 'NONE', #762, 1000.000000000000000 ) ;
#832 = SURFACE_STYLE_USAGE ( .BOTH. , #1102 ) ;
#833 =( GEOMETRIC_REPRESENTATION_CONTEXT ( 3 ) GLOBAL_UNCERTAINTY_ASSIGNED_CONTEXT ( ( #727 ) ) GLOBAL_UNIT_ASSIGNED_CONTEXT ( ( #633, #808, #723 ) ) REPRESENTATION_CONTEXT ( 'NONE', 'WORKASPACE' ) );
#834 = ADVANCED_FACE ( 'NONE', ( #680 ), #135, .T. ) ;
#835 = VERTEX_POINT ( 'NONE', #587 ) ;
#836 = DIRECTION ( 'NONE',  ( 0.000000000000000000, 0.000000000000000000, -1.000000000000000000 ) ) ;
#837 = FACE_OUTER_BOUND ( 'NONE', #1185, .T. ) ;
#838 = STYLED_ITEM ( 'NONE', ( #1151 ), #364 ) ;
#839 = CARTESIAN_POINT ( 'NONE',  ( 2.415000000000000924, -3.174999999999999822, -9.525000000000002132 ) ) ;
#840 = STYLED_ITEM ( 'NONE', ( #1146 ), #954 ) ;
#841 = EDGE_LOOP ( 'NONE', ( #710, #748, #860 ) ) ;
#842 =( LENGTH_UNIT ( ) NAMED_UNIT ( * ) SI_UNIT ( .MILLI., .METRE. ) );
#843 = CARTESIAN_POINT ( 'NONE',  ( 0.000000000000000000, 0.000000000000000000, 10.25499999999999723 ) ) ;
#844 = LINE ( 'NONE', #1132, #1035 ) ;
#845 = EDGE_CURVE ( 'NONE', #637, #379, #779, .T. ) ;
#846 = CARTESIAN_POINT ( 'NONE',  ( 1.015000000000000346, -14.55624891681027755, -6.475000000000002309 ) ) ;
#847 =( NAMED_UNIT ( * ) PLANE_ANGLE_UNIT ( ) SI_UNIT ( $, .RADIAN. ) );
#848 = ORIENTED_EDGE ( 'NONE', *, *, #950, .T. ) ;
#849 = STYLED_ITEM ( 'NONE', ( #926 ), #830 ) ;
#850 = FILL_AREA_STYLE ('',( #399 ) ) ;
#851 = VECTOR ( 'NONE', #836, 1000.000000000000000 ) ;
#852 = FILL_AREA_STYLE ('',( #286 ) ) ;
#853 = UNCERTAINTY_MEASURE_WITH_UNIT (LENGTH_MEASURE( 1.000000000000000082E-05 ), #573, 'distance_accuracy_value', 'NONE');
#854 = VECTOR ( 'NONE', #584, 1000.000000000000000 ) ;
#855 =( NAMED_UNIT ( * ) PLANE_ANGLE_UNIT ( ) SI_UNIT ( $, .RADIAN. ) );
#856 = DIRECTION ( 'NONE',  ( 0.000000000000000000, 0.000000000000000000, 1.000000000000000000 ) ) ;
#857 = EDGE_LOOP ( 'NONE', ( #454, #262, #568, #561, #273, #767, #110, #540 ) ) ;
#858 = CARTESIAN_POINT ( 'NONE',  ( -2.414999999999999147, 3.174999999999999822, -9.525000000000002132 ) ) ;
#859 = PRESENTATION_LAYER_ASSIGNMENT (  '', '', ( #990 ) ) ;
#860 = ORIENTED_EDGE ( 'NONE', *, *, #333, .T. ) ;
#861 = DIRECTION ( 'NONE',  ( -0.000000000000000000, 1.000000000000000000, -0.000000000000000000 ) ) ;
#862 = CARTESIAN_POINT ( 'NONE',  ( 0.000000000000000000, 1.525000000000000355, 11.04499999999999815 ) ) ;
#863 = EDGE_CURVE ( 'NONE', #792, #1178, #285, .T. ) ;
#864 = CARTESIAN_POINT ( 'NONE',  ( 0.000000000000000000, -8.504999999999999005, 0.000000000000000000 ) ) ;
#865 = FILL_AREA_STYLE ('',( #127 ) ) ;
#866 = AXIS2_PLACEMENT_3D ( 'NONE', #843, #195, #1028 ) ;
#867 = FILL_AREA_STYLE ('',( #1078 ) ) ;
#868 = MECHANICAL_DESIGN_GEOMETRIC_PRESENTATION_REPRESENTATION (  '', ( #622 ), #805 ) ;
#869 = EDGE_LOOP ( 'NONE', ( #1057, #215, #921, #732 ) ) ;
#870 = DIRECTION ( 'NONE',  ( -1.000000000000000000, 0.000000000000000000, 0.000000000000000000 ) ) ;
#871 = LINE ( 'NONE', #345, #390 ) ;
#872 = SURFACE_STYLE_USAGE ( .BOTH. , #222 ) ;
#873 = VECTOR ( 'NONE', #957, 1000.000000000000000 ) ;
#874 = SURFACE_STYLE_USAGE ( .BOTH. , #1139 ) ;
#875 = ORIENTED_EDGE ( 'NONE', *, *, #764, .T. ) ;
#876 = DIRECTION ( 'NONE',  ( 0.000000000000000000, 0.000000000000000000, 1.000000000000000000 ) ) ;
#877 = DIRECTION ( 'NONE',  ( -0.000000000000000000, -1.000000000000000000, -0.000000000000000000 ) ) ;
#878 = SURFACE_SIDE_STYLE ('',( #16 ) ) ;
#879 = STYLED_ITEM ( 'NONE', ( #1015 ), #934 ) ;
#880 = FILL_AREA_STYLE_COLOUR ( '', #1086 ) ;
#881 = CARTESIAN_POINT ( 'NONE',  ( 2.415000000000000924, -3.174999999999999822, 9.524999999999996803 ) ) ;
#882 = CARTESIAN_POINT ( 'NONE',  ( -1.524999999999999467, -2.794999999999999041, 1.144999999999996687 ) ) ;
#883 = CARTESIAN_POINT ( 'NONE',  ( 0.000000000000000000, 1.525000000000000355, 10.25499999999999723 ) ) ;
#884 = ORIENTED_EDGE ( 'NONE', *, *, #1010, .F. ) ;
#885 = ORIENTED_EDGE ( 'NONE', *, *, #61, .F. ) ;
#886 = MECHANICAL_DESIGN_GEOMETRIC_PRESENTATION_REPRESENTATION (  '', ( #511 ), #1094 ) ;
#887 = CARTESIAN_POINT ( 'NONE',  ( -2.414999999999999147, -3.174999999999999822, 9.524999999999996803 ) ) ;
#888 = PRODUCT_RELATED_PRODUCT_CATEGORY ( 'part', '', ( #112 ) ) ;
#889 = CARTESIAN_POINT ( 'NONE',  ( -2.414999999999999147, -3.174999999999999822, 8.764999999999997016 ) ) ;
#890 = FACE_OUTER_BOUND ( 'NONE', #1030, .T. ) ;
#891 = CARTESIAN_POINT ( 'NONE',  ( 1.015000000000000346, -2.794999999999999041, -6.220000000000002416 ) ) ;
#892 = VERTEX_POINT ( 'NONE', #515 ) ;
#893 = EDGE_CURVE ( 'NONE', #452, #1191, #245, .T. ) ;
#894 =( GEOMETRIC_REPRESENTATION_CONTEXT ( 3 ) GLOBAL_UNCERTAINTY_ASSIGNED_CONTEXT ( ( #92 ) ) GLOBAL_UNIT_ASSIGNED_CONTEXT ( ( #541, #329, #1143 ) ) REPRESENTATION_CONTEXT ( 'NONE', 'WORKASPACE' ) );
#895 = CARTESIAN_POINT ( 'NONE',  ( -2.414999999999999147, -2.794999999999999929, 8.764999999999997016 ) ) ;
#896 = ORIENTED_EDGE ( 'NONE', *, *, #1033, .F. ) ;
#897 = APPLICATION_CONTEXT ( 'automotive_design' ) ;
#898 = SURFACE_STYLE_FILL_AREA ( #1110 ) ;
#899 = FACE_OUTER_BOUND ( 'NONE', #812, .T. ) ;
#900 = STYLED_ITEM ( 'NONE', ( #659 ), #818 ) ;
#901 = FACE_OUTER_BOUND ( 'NONE', #1009, .T. ) ;
#902 = CARTESIAN_POINT ( 'NONE',  ( 2.415000000000000924, -3.174999999999999822, 8.764999999999997016 ) ) ;
#903 = APPLICATION_CONTEXT ( 'automotive_design' ) ;
#904 = VECTOR ( 'NONE', #284, 1000.000000000000000 ) ;
#905 = AXIS2_PLACEMENT_3D ( 'NONE', #1124, #943, #217 ) ;
#906 = COLOUR_RGB ( '',0.8392156862745098200, 0.4705882352941176405, 0.3686274509803921795 ) ;
#907 = UNCERTAINTY_MEASURE_WITH_UNIT (LENGTH_MEASURE( 1.000000000000000082E-05 ), #113, 'distance_accuracy_value', 'NONE');
#908 = EDGE_LOOP ( 'NONE', ( #978, #663, #395, #910 ) ) ;
#909 = FILL_AREA_STYLE ('',( #624 ) ) ;
#910 = ORIENTED_EDGE ( 'NONE', *, *, #487, .T. ) ;
#911 =( GEOMETRIC_REPRESENTATION_CONTEXT ( 3 ) GLOBAL_UNCERTAINTY_ASSIGNED_CONTEXT ( ( #52 ) ) GLOBAL_UNIT_ASSIGNED_CONTEXT ( ( #1022, #1115, #555 ) ) REPRESENTATION_CONTEXT ( 'NONE', 'WORKASPACE' ) );
#912 = FACE_OUTER_BOUND ( 'NONE', #334, .T. ) ;
#913 = DIRECTION ( 'NONE',  ( 0.000000000000000000, 0.000000000000000000, 1.000000000000000000 ) ) ;
#914 = CIRCLE ( 'NONE', #94, 1.180000000000000382 ) ;
#915 = MECHANICAL_DESIGN_GEOMETRIC_PRESENTATION_REPRESENTATION (  '', ( #1170 ), #51 ) ;
#916 = EDGE_CURVE ( 'NONE', #713, #995, #509, .T. ) ;
#917 = ORIENTED_EDGE ( 'NONE', *, *, #333, .F. ) ;
#918 = SURFACE_STYLE_USAGE ( .BOTH. , #272 ) ;
#919 = DIRECTION ( 'NONE',  ( 0.000000000000000000, 0.000000000000000000, -1.000000000000000000 ) ) ;
#920 = MECHANICAL_DESIGN_GEOMETRIC_PRESENTATION_REPRESENTATION (  '', ( #900 ), #136 ) ;
#921 = ORIENTED_EDGE ( 'NONE', *, *, #1173, .F. ) ;
#922 = ADVANCED_FACE ( 'NONE', ( #1027 ), #1172, .F. ) ;
#923 = EDGE_CURVE ( 'NONE', #656, #25, #265, .T. ) ;
#924 = ORIENTED_EDGE ( 'NONE', *, *, #83, .T. ) ;
#925 =( GEOMETRIC_REPRESENTATION_CONTEXT ( 3 ) GLOBAL_UNCERTAINTY_ASSIGNED_CONTEXT ( ( #84 ) ) GLOBAL_UNIT_ASSIGNED_CONTEXT ( ( #1013, #829, #277 ) ) REPRESENTATION_CONTEXT ( 'NONE', 'WORKASPACE' ) );
#926 = PRESENTATION_STYLE_ASSIGNMENT (( #486 ) ) ;
#927 = STYLED_ITEM ( 'NONE', ( #96 ), #548 ) ;
#928 = VECTOR ( 'NONE', #773, 999.9999999999998863 ) ;
#929 = SURFACE_STYLE_FILL_AREA ( #181 ) ;
#930 = FILL_AREA_STYLE_COLOUR ( '', #435 ) ;
#931 =( LENGTH_UNIT ( ) NAMED_UNIT ( * ) SI_UNIT ( .MILLI., .METRE. ) );
#932 = SURFACE_STYLE_FILL_AREA ( #973 ) ;
#933 = FACE_OUTER_BOUND ( 'NONE', #1007, .T. ) ;
#934 = ADVANCED_FACE ( 'NONE', ( #32 ), #240, .F. ) ;
#935 = SURFACE_STYLE_USAGE ( .BOTH. , #465 ) ;
#936 = CARTESIAN_POINT ( 'NONE',  ( -2.414999999999999147, 3.174999999999999822, -9.525000000000002132 ) ) ;
#937 = AXIS2_PLACEMENT_3D ( 'NONE', #883, #55, #330 ) ;
#938 = ORIENTED_EDGE ( 'NONE', *, *, #994, .F. ) ;
#939 = SURFACE_STYLE_USAGE ( .BOTH. , #21 ) ;
#940 = LINE ( 'NONE', #411, #474 ) ;
#941 = CARTESIAN_POINT ( 'NONE',  ( 1.015000000000000790, -8.504999999999999005, 6.479999999999996874 ) ) ;
#942 = SURFACE_STYLE_FILL_AREA ( #989 ) ;
#943 = DIRECTION ( 'NONE',  ( 0.000000000000000000, -0.000000000000000000, 1.000000000000000000 ) ) ;
#944 = AXIS2_PLACEMENT_3D ( 'NONE', #1053, #229, #133 ) ;
#945 = UNCERTAINTY_MEASURE_WITH_UNIT (LENGTH_MEASURE( 1.000000000000000082E-05 ), #71, 'distance_accuracy_value', 'NONE');
#946 = AXIS2_PLACEMENT_3D ( 'NONE', #145, #788, #1154 ) ;
#947 = VERTEX_POINT ( 'NONE', #342 ) ;
#948 = SURFACE_STYLE_USAGE ( .BOTH. , #292 ) ;
#949 =( LENGTH_UNIT ( ) NAMED_UNIT ( * ) SI_UNIT ( .MILLI., .METRE. ) );
#950 = EDGE_CURVE ( 'NONE', #597, #713, #75, .T. ) ;
#951 = DIRECTION ( 'NONE',  ( -0.000000000000000000, -1.000000000000000000, -0.000000000000000000 ) ) ;
#952 =( GEOMETRIC_REPRESENTATION_CONTEXT ( 3 ) GLOBAL_UNCERTAINTY_ASSIGNED_CONTEXT ( ( #291 ) ) GLOBAL_UNIT_ASSIGNED_CONTEXT ( ( #517, #697, #606 ) ) REPRESENTATION_CONTEXT ( 'NONE', 'WORKASPACE' ) );
#953 = ORIENTED_EDGE ( 'NONE', *, *, #520, .T. ) ;
#954 = ADVANCED_BREP_SHAPE_REPRESENTATION ( '3006P-1-103LF', ( #210, #264 ), #699 ) ;
#955 = DIRECTION ( 'NONE',  ( -0.000000000000000000, 1.000000000000000000, -0.000000000000000000 ) ) ;
#956 = DIRECTION ( 'NONE',  ( 0.000000000000000000, 0.000000000000000000, 1.000000000000000000 ) ) ;
#957 = DIRECTION ( 'NONE',  ( 1.000000000000000000, -0.000000000000000000, -0.000000000000000000 ) ) ;
#958 = PRESENTATION_STYLE_ASSIGNMENT (( #407 ) ) ;
#959 = FILL_AREA_STYLE_COLOUR ( '', #209 ) ;
#960 = ORIENTED_EDGE ( 'NONE', *, *, #863, .F. ) ;
#961 =( NAMED_UNIT ( * ) SI_UNIT ( $, .STERADIAN. ) SOLID_ANGLE_UNIT ( ) );
#962 =( NAMED_UNIT ( * ) SI_UNIT ( $, .STERADIAN. ) SOLID_ANGLE_UNIT ( ) );
#963 =( LENGTH_UNIT ( ) NAMED_UNIT ( * ) SI_UNIT ( .MILLI., .METRE. ) );
#964 = AXIS2_PLACEMENT_3D ( 'NONE', #685, #966, #479 ) ;
#965 = DIRECTION ( 'NONE',  ( 0.000000000000000000, 1.000000000000000000, 0.000000000000000000 ) ) ;
#966 = DIRECTION ( 'NONE',  ( 0.000000000000000000, 0.000000000000000000, 1.000000000000000000 ) ) ;
#967 = SURFACE_SIDE_STYLE ('',( #223 ) ) ;
#968 = DIRECTION ( 'NONE',  ( 0.000000000000000000, 0.000000000000000000, 1.000000000000000000 ) ) ;
#969 = PRESENTATION_LAYER_ASSIGNMENT (  '', '', ( #464 ) ) ;
#970 = VERTEX_POINT ( 'NONE', #693 ) ;
#971 = DIRECTION ( 'NONE',  ( -0.000000000000000000, -1.000000000000000000, -0.000000000000000000 ) ) ;
#972 =( NAMED_UNIT ( * ) PLANE_ANGLE_UNIT ( ) SI_UNIT ( $, .RADIAN. ) );
#973 = FILL_AREA_STYLE ('',( #880 ) ) ;
#974 = LINE ( 'NONE', #30, #1159 ) ;
#975 = SURFACE_STYLE_USAGE ( .BOTH. , #598 ) ;
#976 = CYLINDRICAL_SURFACE ( 'NONE', #604, 1.180000000000000382 ) ;
#977 =( NAMED_UNIT ( * ) SI_UNIT ( $, .STERADIAN. ) SOLID_ANGLE_UNIT ( ) );
#978 = ORIENTED_EDGE ( 'NONE', *, *, #1190, .F. ) ;
#979 =( NAMED_UNIT ( * ) PLANE_ANGLE_UNIT ( ) SI_UNIT ( $, .RADIAN. ) );
#980 = VECTOR ( 'NONE', #328, 1000.000000000000000 ) ;
#981 = EDGE_CURVE ( 'NONE', #554, #6, #526, .T. ) ;
#982 = ORIENTED_EDGE ( 'NONE', *, *, #1048, .T. ) ;
#983 = DIRECTION ( 'NONE',  ( 1.000000000000000000, 0.000000000000000000, 0.000000000000000000 ) ) ;
#984 = DIRECTION ( 'NONE',  ( -0.000000000000000000, -0.000000000000000000, 1.000000000000000000 ) ) ;
#985 = CARTESIAN_POINT ( 'NONE',  ( -2.414999999999999147, -3.174999999999999822, -8.765000000000000568 ) ) ;
#986 = AXIS2_PLACEMENT_3D ( 'NONE', #500, #590, #1187 ) ;
#987 = CARTESIAN_POINT ( 'NONE',  ( 1.180000000000000382, 1.525000000000000577, 11.04499999999999815 ) ) ;
#988 = ORIENTED_EDGE ( 'NONE', *, *, #367, .F. ) ;
#989 = FILL_AREA_STYLE ('',( #621 ) ) ;
#990 = STYLED_ITEM ( 'NONE', ( #62 ), #651 ) ;
#991 = SURFACE_STYLE_FILL_AREA ( #312 ) ;
#992 = SURFACE_STYLE_FILL_AREA ( #1074 ) ;
#993 =( NAMED_UNIT ( * ) SI_UNIT ( $, .STERADIAN. ) SOLID_ANGLE_UNIT ( ) );
#994 = EDGE_CURVE ( 'NONE', #282, #86, #89, .T. ) ;
#995 = VERTEX_POINT ( 'NONE', #887 ) ;
#996 = DIRECTION ( 'NONE',  ( -0.000000000000000000, -1.000000000000000000, -0.000000000000000000 ) ) ;
#997 = PRESENTATION_LAYER_ASSIGNMENT (  '', '', ( #674 ) ) ;
#998 =( GEOMETRIC_REPRESENTATION_CONTEXT ( 3 ) GLOBAL_UNCERTAINTY_ASSIGNED_CONTEXT ( ( #425 ) ) GLOBAL_UNIT_ASSIGNED_CONTEXT ( ( #434, #715, #142 ) ) REPRESENTATION_CONTEXT ( 'NONE', 'WORKASPACE' ) );
#999 = DIRECTION ( 'NONE',  ( 0.000000000000000000, 0.000000000000000000, 1.000000000000000000 ) ) ;
#1000 = VERTEX_POINT ( 'NONE', #1166 ) ;
#1001 = PRESENTATION_LAYER_ASSIGNMENT (  '', '', ( #879 ) ) ;
#1002 = DIRECTION ( 'NONE',  ( 1.000000000000000000, 0.000000000000000000, 0.000000000000000000 ) ) ;
#1003 = ORIENTED_EDGE ( 'NONE', *, *, #448, .T. ) ;
#1004 = ORIENTED_EDGE ( 'NONE', *, *, #755, .F. ) ;
#1005 = AXIS2_PLACEMENT_3D ( 'NONE', #233, #48, #657 ) ;
#1006 = ADVANCED_FACE ( 'NONE', ( #445, #276 ), #331, .F. ) ;
#1007 = EDGE_LOOP ( 'NONE', ( #484, #429, #640, #19 ) ) ;
#1008 = CARTESIAN_POINT ( 'NONE',  ( 1.015000000000000346, -14.55624891681027755, -6.220000000000002416 ) ) ;
#1009 = EDGE_LOOP ( 'NONE', ( #1080, #579, #325, #137, #460, #701, #589, #757 ) ) ;
#1010 = EDGE_CURVE ( 'NONE', #1169, #1191, #1029, .T. ) ;
#1011 = PRESENTATION_STYLE_ASSIGNMENT (( #832 ) ) ;
#1012 = AXIS2_PLACEMENT_3D ( 'NONE', #29, #212, #662 ) ;
#1013 =( LENGTH_UNIT ( ) NAMED_UNIT ( * ) SI_UNIT ( .MILLI., .METRE. ) );
#1014 = CYLINDRICAL_SURFACE ( 'NONE', #986, 0.2550000000000000044 ) ;
#1015 = PRESENTATION_STYLE_ASSIGNMENT (( #975 ) ) ;
#1016 = VERTEX_POINT ( 'NONE', #891 ) ;
#1017 = CARTESIAN_POINT ( 'NONE',  ( 2.415000000000000924, 3.174999999999999822, 9.524999999999996803 ) ) ;
#1018 = VERTEX_POINT ( 'NONE', #337 ) ;
#1019 = LINE ( 'NONE', #228, #618 ) ;
#1020 = FACE_OUTER_BOUND ( 'NONE', #826, .T. ) ;
#1021 = ORIENTED_EDGE ( 'NONE', *, *, #180, .F. ) ;
#1022 =( LENGTH_UNIT ( ) NAMED_UNIT ( * ) SI_UNIT ( .MILLI., .METRE. ) );
#1023 =( NAMED_UNIT ( * ) PLANE_ANGLE_UNIT ( ) SI_UNIT ( $, .RADIAN. ) );
#1024 = LINE ( 'NONE', #902, #854 ) ;
#1025 = PRESENTATION_LAYER_ASSIGNMENT (  '', '', ( #776 ) ) ;
#1026 = DIRECTION ( 'NONE',  ( 1.000000000000000000, 0.000000000000000000, 0.000000000000000000 ) ) ;
#1027 = FACE_OUTER_BOUND ( 'NONE', #365, .T. ) ;
#1028 = DIRECTION ( 'NONE',  ( 1.000000000000000000, 0.000000000000000000, 0.000000000000000000 ) ) ;
#1029 = CIRCLE ( 'NONE', #504, 0.2550000000000000044 ) ;
#1030 = EDGE_LOOP ( 'NONE', ( #1021, #632, #354, #714 ) ) ;
#1031 = LINE ( 'NONE', #378, #785 ) ;
#1032 = UNCERTAINTY_MEASURE_WITH_UNIT (LENGTH_MEASURE( 1.000000000000000082E-05 ), #1141, 'distance_accuracy_value', 'NONE');
#1033 = EDGE_CURVE ( 'NONE', #627, #1018, #1077, .T. ) ;
#1034 = SURFACE_STYLE_USAGE ( .BOTH. , #109 ) ;
#1035 = VECTOR ( 'NONE', #772, 1000.000000000000000 ) ;
#1036 = CARTESIAN_POINT ( 'NONE',  ( 0.8425294946234549442, 2.351162242352884846, 11.04499999999999815 ) ) ;
#1037 = MECHANICAL_DESIGN_GEOMETRIC_PRESENTATION_REPRESENTATION (  '', ( #1100 ), #1043 ) ;
#1038 = SURFACE_SIDE_STYLE ('',( #1051 ) ) ;
#1039 = ORIENTED_EDGE ( 'NONE', *, *, #730, .T. ) ;
#1040 = CARTESIAN_POINT ( 'NONE',  ( -1.524999999999999467, -8.504999999999999005, 1.144999999999996687 ) ) ;
#1041 = CARTESIAN_POINT ( 'NONE',  ( -2.414999999999999147, 3.174999999999999822, -9.525000000000002132 ) ) ;
#1042 = SURFACE_SIDE_STYLE ('',( #491 ) ) ;
#1043 =( GEOMETRIC_REPRESENTATION_CONTEXT ( 3 ) GLOBAL_UNCERTAINTY_ASSIGNED_CONTEXT ( ( #1117 ) ) GLOBAL_UNIT_ASSIGNED_CONTEXT ( ( #543, #353, #437 ) ) REPRESENTATION_CONTEXT ( 'NONE', 'WORKASPACE' ) );
#1044 = EDGE_LOOP ( 'NONE', ( #295, #184 ) ) ;
#1045 = DIRECTION ( 'NONE',  ( -0.000000000000000000, -0.000000000000000000, 1.000000000000000000 ) ) ;
#1046 =( NAMED_UNIT ( * ) SI_UNIT ( $, .STERADIAN. ) SOLID_ANGLE_UNIT ( ) );
#1047 = CARTESIAN_POINT ( 'NONE',  ( -0.3093035155058979635, 0.3421511781737725522, 10.25499999999999723 ) ) ;
#1048 = EDGE_CURVE ( 'NONE', #57, #34, #1062, .T. ) ;
#1049 =( NAMED_UNIT ( * ) SI_UNIT ( $, .STERADIAN. ) SOLID_ANGLE_UNIT ( ) );
#1050 = SURFACE_STYLE_FILL_AREA ( #850 ) ;
#1051 = SURFACE_STYLE_FILL_AREA ( #108 ) ;
#1052 =( NAMED_UNIT ( * ) SI_UNIT ( $, .STERADIAN. ) SOLID_ANGLE_UNIT ( ) );
#1053 = CARTESIAN_POINT ( 'NONE',  ( 0.000000000000000000, 1.525000000000000355, 11.04499999999999815 ) ) ;
#1054 = DIRECTION ( 'NONE',  ( 0.000000000000000000, 0.000000000000000000, 1.000000000000000000 ) ) ;
#1055 = FILL_AREA_STYLE_COLOUR ( '', #731 ) ;
#1056 = AXIS2_PLACEMENT_3D ( 'NONE', #126, #664, #566 ) ;
#1057 = ORIENTED_EDGE ( 'NONE', *, *, #1189, .T. ) ;
#1058 = DIRECTION ( 'NONE',  ( -0.4973841124440405159, -0.8675304286814694565, -0.000000000000000000 ) ) ;
#1059 = DIRECTION ( 'NONE',  ( 0.8675304286814694565, -0.4973841124440404604, 0.000000000000000000 ) ) ;
#1060 = LINE ( 'NONE', #164, #678 ) ;
#1061 = CARTESIAN_POINT ( 'NONE',  ( -0.8425294946234550553, 0.6988377576471157537, 10.25499999999999723 ) ) ;
#1062 = CIRCLE ( 'NONE', #1119, 0.2550000000000000044 ) ;
#1063 = DIRECTION ( 'NONE',  ( 0.000000000000000000, 0.000000000000000000, 1.000000000000000000 ) ) ;
#1064 = ORIENTED_EDGE ( 'NONE', *, *, #180, .T. ) ;
#1065 = STYLED_ITEM ( 'NONE', ( #559 ), #1006 ) ;
#1066 = FACE_OUTER_BOUND ( 'NONE', #494, .T. ) ;
#1067 = SURFACE_STYLE_USAGE ( .BOTH. , #607 ) ;
#1068 = DIRECTION ( 'NONE',  ( 0.000000000000000000, 0.000000000000000000, 1.000000000000000000 ) ) ;
#1069 = SURFACE_STYLE_USAGE ( .BOTH. , #774 ) ;
#1070 = AXIS2_PLACEMENT_3D ( 'NONE', #1138, #115, #563 ) ;
#1071 = EDGE_LOOP ( 'NONE', ( #408, #550, #848, #1003 ) ) ;
#1072 = UNCERTAINTY_MEASURE_WITH_UNIT (LENGTH_MEASURE( 1.000000000000000082E-05 ), #931, 'distance_accuracy_value', 'NONE');
#1073 = CIRCLE ( 'NONE', #572, 0.2550000000000000044 ) ;
#1074 = FILL_AREA_STYLE ('',( #417 ) ) ;
#1075 = VECTOR ( 'NONE', #356, 999.9999999999998863 ) ;
#1076 = APPLICATION_PROTOCOL_DEFINITION ( 'draft international standard', 'automotive_design', 1998, #897 ) ;
#1077 = LINE ( 'NONE', #895, #1184 ) ;
#1078 = FILL_AREA_STYLE_COLOUR ( '', #702 ) ;
#1079 = EDGE_CURVE ( 'NONE', #792, #463, #795, .T. ) ;
#1080 = ORIENTED_EDGE ( 'NONE', *, *, #1033, .T. ) ;
#1081 = SURFACE_STYLE_USAGE ( .BOTH. , #427 ) ;
#1082 = UNCERTAINTY_MEASURE_WITH_UNIT (LENGTH_MEASURE( 1.000000000000000082E-05 ), #47, 'distance_accuracy_value', 'NONE');
#1083 = SURFACE_STYLE_FILL_AREA ( #756 ) ;
#1084 = VECTOR ( 'NONE', #1045, 1000.000000000000000 ) ;
#1085 = CARTESIAN_POINT ( 'NONE',  ( -2.414999999999999147, 3.174999999999999822, 9.524999999999996803 ) ) ;
#1086 = COLOUR_RGB ( '',0.000000000000000000, 0.000000000000000000, 1.000000000000000000 ) ;
#1087 = PLANE ( 'NONE',  #42 ) ;
#1088 =( GEOMETRIC_REPRESENTATION_CONTEXT ( 3 ) GLOBAL_UNCERTAINTY_ASSIGNED_CONTEXT ( ( #346 ) ) GLOBAL_UNIT_ASSIGNED_CONTEXT ( ( #512, #518, #250 ) ) REPRESENTATION_CONTEXT ( 'NONE', 'WORKASPACE' ) );
#1089 = CARTESIAN_POINT ( 'NONE',  ( -1.524999999999999467, -8.504999999999999005, 1.399999999999996803 ) ) ;
#1090 = COLOUR_RGB ( '',0.7803921568627451011, 0.7607843137254901578, 0.7411764705882353255 ) ;
#1091 = FILL_AREA_STYLE_COLOUR ( '', #88 ) ;
#1092 = ORIENTED_EDGE ( 'NONE', *, *, #994, .T. ) ;
#1093 = VECTOR ( 'NONE', #670, 1000.000000000000000 ) ;
#1094 =( GEOMETRIC_REPRESENTATION_CONTEXT ( 3 ) GLOBAL_UNCERTAINTY_ASSIGNED_CONTEXT ( ( #1032 ) ) GLOBAL_UNIT_ASSIGNED_CONTEXT ( ( #1141, #683, #961 ) ) REPRESENTATION_CONTEXT ( 'NONE', 'WORKASPACE' ) );
#1095 = PRESENTATION_STYLE_ASSIGNMENT (( #872 ) ) ;
#1096 = DIRECTION ( 'NONE',  ( -0.000000000000000000, 1.000000000000000000, -0.000000000000000000 ) ) ;
#1097 = AXIS2_PLACEMENT_3D ( 'NONE', #1109, #2, #1026 ) ;
#1098 = ORIENTED_EDGE ( 'NONE', *, *, #703, .T. ) ;
#1099 = ADVANCED_FACE ( 'NONE', ( #781 ), #1157, .F. ) ;
#1100 = STYLED_ITEM ( 'NONE', ( #320 ), #740 ) ;
#1101 = VECTOR ( 'NONE', #965, 1000.000000000000000 ) ;
#1102 = SURFACE_SIDE_STYLE ('',( #608 ) ) ;
#1103 = VERTEX_POINT ( 'NONE', #985 ) ;
#1104 = FILL_AREA_STYLE_COLOUR ( '', #821 ) ;
#1105 = AXIS2_PLACEMENT_3D ( 'NONE', #1047, #1059, #129 ) ;
#1106 = VECTOR ( 'NONE', #668, 1000.000000000000000 ) ;
#1107 = VECTOR ( 'NONE', #570, 1000.000000000000000 ) ;
#1108 = SURFACE_STYLE_USAGE ( .BOTH. , #455 ) ;
#1109 = CARTESIAN_POINT ( 'NONE',  ( 0.000000000000000000, 1.525000000000000355, 11.04499999999999815 ) ) ;
#1110 = FILL_AREA_STYLE ('',( #1104 ) ) ;
#1111 = EDGE_CURVE ( 'NONE', #34, #57, #681, .T. ) ;
#1112 = EDGE_LOOP ( 'NONE', ( #960, #27, #1098, #424, #885, #1039, #189, #522 ) ) ;
#1113 = COLOUR_RGB ( '',0.8392156862745098200, 0.4705882352941176405, 0.3686274509803921795 ) ;
#1114 = AXIS2_PLACEMENT_3D ( 'NONE', #753, #861, #300 ) ;
#1115 =( NAMED_UNIT ( * ) PLANE_ANGLE_UNIT ( ) SI_UNIT ( $, .RADIAN. ) );
#1116 =( NAMED_UNIT ( * ) PLANE_ANGLE_UNIT ( ) SI_UNIT ( $, .RADIAN. ) );
#1117 = UNCERTAINTY_MEASURE_WITH_UNIT (LENGTH_MEASURE( 1.000000000000000082E-05 ), #543, 'distance_accuracy_value', 'NONE');
#1118 = CARTESIAN_POINT ( 'NONE',  ( -2.414999999999999147, -3.174999999999999822, -8.765000000000000568 ) ) ;
#1119 = AXIS2_PLACEMENT_3D ( 'NONE', #321, #971, #413 ) ;
#1120 =( LENGTH_UNIT ( ) NAMED_UNIT ( * ) SI_UNIT ( .MILLI., .METRE. ) );
#1121 = ORIENTED_EDGE ( 'NONE', *, *, #755, .T. ) ;
#1122 = PRODUCT_DEFINITION_SHAPE ( 'NONE', 'NONE',  #752 ) ;
#1123 = FACE_OUTER_BOUND ( 'NONE', #53, .T. ) ;
#1124 = CARTESIAN_POINT ( 'NONE',  ( -2.414999999999999147, -3.174999999999999822, 8.764999999999997016 ) ) ;
#1125 = AXIS2_PLACEMENT_3D ( 'NONE', #475, #111, #208 ) ;
#1126 = ORIENTED_EDGE ( 'NONE', *, *, #520, .F. ) ;
#1127 = CARTESIAN_POINT ( 'NONE',  ( 1.015000000000000346, -2.794999999999999041, -6.475000000000002309 ) ) ;
#1128 = CARTESIAN_POINT ( 'NONE',  ( -1.524999999999999467, -14.55624891681027755, 0.8899999999999966827 ) ) ;
#1129 = EDGE_CURVE ( 'NONE', #1018, #970, #459, .T. ) ;
#1130 = PRESENTATION_LAYER_ASSIGNMENT (  '', '', ( #152 ) ) ;
#1131 =( NAMED_UNIT ( * ) SI_UNIT ( $, .STERADIAN. ) SOLID_ANGLE_UNIT ( ) );
#1132 = CARTESIAN_POINT ( 'NONE',  ( -2.414999999999999147, -3.174999999999999822, 9.524999999999996803 ) ) ;
#1133 = PRESENTATION_LAYER_ASSIGNMENT (  '', '', ( #804 ) ) ;
#1134 = CARTESIAN_POINT ( 'NONE',  ( 0.000000000000000000, 1.525000000000000355, 11.04499999999999815 ) ) ;
#1135 = DIRECTION ( 'NONE',  ( -0.000000000000000000, 1.000000000000000000, -0.000000000000000000 ) ) ;
#1136 = PLANE ( 'NONE',  #232 ) ;
#1137 = ORIENTED_EDGE ( 'NONE', *, *, #532, .F. ) ;
#1138 = CARTESIAN_POINT ( 'NONE',  ( 1.015000000000000790, -14.55624891681027755, 6.224999999999996980 ) ) ;
#1139 = SURFACE_SIDE_STYLE ('',( #1181 ) ) ;
#1140 = DIRECTION ( 'NONE',  ( 1.000000000000000000, 0.000000000000000000, 0.000000000000000000 ) ) ;
#1141 =( LENGTH_UNIT ( ) NAMED_UNIT ( * ) SI_UNIT ( .MILLI., .METRE. ) );
#1142 = COLOUR_RGB ( '',0.000000000000000000, 0.000000000000000000, 1.000000000000000000 ) ;
#1143 =( NAMED_UNIT ( * ) SI_UNIT ( $, .STERADIAN. ) SOLID_ANGLE_UNIT ( ) );
#1144 = DIRECTION ( 'NONE',  ( -1.000000000000000000, 0.000000000000000000, 0.000000000000000000 ) ) ;
#1145 = AXIS2_PLACEMENT_3D ( 'NONE', #426, #1153, #610 ) ;
#1146 = PRESENTATION_STYLE_ASSIGNMENT (( #236 ) ) ;
#1147 = ORIENTED_EDGE ( 'NONE', *, *, #709, .F. ) ;
#1148 =( NAMED_UNIT ( * ) PLANE_ANGLE_UNIT ( ) SI_UNIT ( $, .RADIAN. ) );
#1149 = CARTESIAN_POINT ( 'NONE',  ( 1.015000000000000790, -2.794999999999999041, 6.479999999999996874 ) ) ;
#1150 = CARTESIAN_POINT ( 'NONE',  ( 1.015000000000000346, -8.504999999999999005, -6.475000000000002309 ) ) ;
#1151 = PRESENTATION_STYLE_ASSIGNMENT (( #382 ) ) ;
#1152 = MECHANICAL_DESIGN_GEOMETRIC_PRESENTATION_REPRESENTATION (  '', ( #464 ), #13 ) ;
#1153 = DIRECTION ( 'NONE',  ( -1.000000000000000000, 0.000000000000000000, 0.000000000000000000 ) ) ;
#1154 = DIRECTION ( 'NONE',  ( 0.000000000000000000, -0.000000000000000000, -1.000000000000000000 ) ) ;
#1155 = SURFACE_SIDE_STYLE ('',( #700 ) ) ;
#1156 = EDGE_LOOP ( 'NONE', ( #313, #12, #741, #78, #720, #917, #806, #387 ) ) ;
#1157 = PLANE ( 'NONE',  #946 ) ;
#1158 = VECTOR ( 'NONE', #4, 1000.000000000000000 ) ;
#1159 = VECTOR ( 'NONE', #503, 1000.000000000000000 ) ;
#1160 = STYLED_ITEM ( 'NONE', ( #613 ), #81 ) ;
#1161 = UNCERTAINTY_MEASURE_WITH_UNIT (LENGTH_MEASURE( 1.000000000000000082E-05 ), #206, 'distance_accuracy_value', 'NONE');
#1162 = DIRECTION ( 'NONE',  ( -0.000000000000000000, -0.000000000000000000, -1.000000000000000000 ) ) ;
#1163 = PRODUCT_CONTEXT ( 'NONE', #158, 'mechanical' ) ;
#1164 = ORIENTED_EDGE ( 'NONE', *, *, #397, .F. ) ;
#1165 = ADVANCED_FACE ( 'NONE', ( #901 ), #599, .F. ) ;
#1166 = CARTESIAN_POINT ( 'NONE',  ( -0.2873100202673145032, 0.3805119256829300745, 10.25499999999999723 ) ) ;
#1167 = CYLINDRICAL_SURFACE ( 'NONE', #1070, 0.2550000000000000044 ) ;
#1168 = ORIENTED_EDGE ( 'NONE', *, *, #226, .F. ) ;
#1169 = VERTEX_POINT ( 'NONE', #139 ) ;
#1170 = STYLED_ITEM ( 'NONE', ( #809 ), #834 ) ;
#1171 = DIRECTION ( 'NONE',  ( 0.000000000000000000, 0.000000000000000000, -1.000000000000000000 ) ) ;
#1172 = PLANE ( 'NONE',  #810 ) ;
#1173 = EDGE_CURVE ( 'NONE', #379, #516, #5, .T. ) ;
#1174 = PRESENTATION_STYLE_ASSIGNMENT (( #410 ) ) ;
#1175 =( GEOMETRIC_REPRESENTATION_CONTEXT ( 3 ) GLOBAL_UNCERTAINTY_ASSIGNED_CONTEXT ( ( #175 ) ) GLOBAL_UNIT_ASSIGNED_CONTEXT ( ( #661, #480, #1052 ) ) REPRESENTATION_CONTEXT ( 'NONE', 'WORKASPACE' ) );
#1176 = DIRECTION ( 'NONE',  ( 1.000000000000000000, 0.000000000000000000, 0.000000000000000000 ) ) ;
#1177 = SURFACE_STYLE_FILL_AREA ( #865 ) ;
#1178 = VERTEX_POINT ( 'NONE', #684 ) ;
#1179 = CARTESIAN_POINT ( 'NONE',  ( 0.000000000000000000, 1.525000000000000355, 10.25499999999999723 ) ) ;
#1180 = STYLED_ITEM ( 'NONE', ( #204 ), #1099 ) ;
#1181 = SURFACE_STYLE_FILL_AREA ( #777 ) ;
#1182 = SURFACE_SIDE_STYLE ('',( #188 ) ) ;
#1183 = VECTOR ( 'NONE', #614, 1000.000000000000000 ) ;
#1184 = VECTOR ( 'NONE', #984, 1000.000000000000000 ) ;
#1185 = EDGE_LOOP ( 'NONE', ( #358, #575, #496, #553 ) ) ;
#1186 = DIRECTION ( 'NONE',  ( 0.000000000000000000, 0.000000000000000000, 1.000000000000000000 ) ) ;
#1187 = DIRECTION ( 'NONE',  ( 0.000000000000000000, 0.000000000000000000, 1.000000000000000000 ) ) ;
#1188 = DIRECTION ( 'NONE',  ( 0.000000000000000000, -1.000000000000000000, 0.000000000000000000 ) ) ;
#1189 = EDGE_CURVE ( 'NONE', #118, #835, #712, .T. ) ;
#1190 = EDGE_CURVE ( 'NONE', #707, #1169, #724, .T. ) ;
#1191 = VERTEX_POINT ( 'NONE', #1149 ) ;
#1192 = PRESENTATION_LAYER_ASSIGNMENT (  '', '', ( #1160 ) ) ;
#1193 = DIRECTION ( 'NONE',  ( -1.000000000000000000, -0.000000000000000000, -0.000000000000000000 ) ) ;
#1194 = PRESENTATION_LAYER_ASSIGNMENT (  '', '', ( #927 ) ) ;
#1195 = ORIENTED_EDGE ( 'NONE', *, *, #462, .T. ) ;
ENDSEC;
END-ISO-10303-21;
