ISO-10303-21;
HEADER;
FILE_DESCRIPTION(('STEP AP214'),
    '1');
FILE_NAME('TO-18_5',
    '2024-02-22T08:56:54',
    (''),
    (''),
    'C3D Converter',
    'C3D Toolkit',
    '');
/**/
FILE_SCHEMA(('AUTOMOTIVE_DESIGN { 1 0 10303 214 3 1 1}'));
ENDSEC;

DATA;
#1=PRODUCT_DEFINITION('','UNSPECIFIED',#48,#51);
#2=SHAPE_DEFINITION_REPRESENTATION(#46,#3);
#3=SHAPE_REPRESENTATION('NONE',(#4),#8);
#4=AXIS2_PLACEMENT_3D('',#5,#6,#7);
#5=CARTESIAN_POINT('',(0.,0.,0.));
#6=DIRECTION('',(0.,0.,1.));
#7=DIRECTION('',(1.,0.,0.));
#8=(GEOMETRIC_REPRESENTATION_CONTEXT(3)GLOBAL_UNCERTAINTY_ASSIGNED_CONTEXT((#10))
GLOBAL_UNIT_ASSIGNED_CONTEXT((#9,#11,#12))REPRESENTATION_CONTEXT('NONE','NONE'));
#9=(LENGTH_UNIT()NAMED_UNIT(*)SI_UNIT(.MILLI.,.METRE.));
#10=UNCERTAINTY_MEASURE_WITH_UNIT(LENGTH_MEASURE(1.E-5),#9,'NONE','NONE');
#11=(NAMED_UNIT(*)PLANE_ANGLE_UNIT()SI_UNIT($,.RADIAN.));
#12=(NAMED_UNIT(*)SI_UNIT($,.STERADIAN.)SOLID_ANGLE_UNIT());
#13=MANIFOLD_SOLID_BREP('',#14);
#14=CLOSED_SHELL('',(#73,#82,#91,#100,#109,#118,#127,#136,#145,#154,#163));
#15=COLOUR_RGB('',0.564705882352941,0.564705882352941,0.564705882352941);
#16=FILL_AREA_STYLE_COLOUR('',#15);
#17=FILL_AREA_STYLE($,(#16));
#18=SURFACE_STYLE_FILL_AREA(#17);
#19=SURFACE_SIDE_STYLE('',(#18));
#20=SURFACE_STYLE_USAGE(.BOTH.,#19);
#21=PRESENTATION_STYLE_ASSIGNMENT((#20));
#22=MECHANICAL_DESIGN_GEOMETRIC_PRESENTATION_REPRESENTATION('NONE',(#23,#33,#43,
#81,#90,#99,#108,#117,#126,#135,#144,#153,#162,#171,#180,#189,#198,#207,#216,#225,
#234,#243,#252,#261,#270,#279,#288,#297,#306,#315,#324,#333,#342,#351,#360,#369,
#378,#387,#396,#405,#414,#423,#432,#441,#450),#8);
#23=STYLED_ITEM('',(#21),#13);
#24=MANIFOLD_SOLID_BREP('',#25);
#25=CLOSED_SHELL('',(#172,#181,#190,#199,#208,#217));
#26=COLOUR_RGB('',0.564705882352941,0.564705882352941,0.564705882352941);
#27=FILL_AREA_STYLE_COLOUR('',#26);
#28=FILL_AREA_STYLE($,(#27));
#29=SURFACE_STYLE_FILL_AREA(#28);
#30=SURFACE_SIDE_STYLE('',(#29));
#31=SURFACE_STYLE_USAGE(.BOTH.,#30);
#32=PRESENTATION_STYLE_ASSIGNMENT((#31));
#33=STYLED_ITEM('',(#32),#24);
#34=MANIFOLD_SOLID_BREP('',#35);
#35=CLOSED_SHELL('',(#226,#235,#244,#253,#262,#271,#280,#289,#298,#307,#316,#325,
#334,#343,#352,#361,#370,#379,#388,#397,#406,#415,#424,#433,#442));
#36=COLOUR_RGB('',0.564705882352941,0.564705882352941,0.564705882352941);
#37=FILL_AREA_STYLE_COLOUR('',#36);
#38=FILL_AREA_STYLE($,(#37));
#39=SURFACE_STYLE_FILL_AREA(#38);
#40=SURFACE_SIDE_STYLE('',(#39));
#41=SURFACE_STYLE_USAGE(.BOTH.,#40);
#42=PRESENTATION_STYLE_ASSIGNMENT((#41));
#43=STYLED_ITEM('',(#42),#34);
#44=ADVANCED_BREP_SHAPE_REPRESENTATION('NONE',(#13,#24,#34),#8);
#45=SHAPE_REPRESENTATION_RELATIONSHIP('','',#3,#44);
#46=PRODUCT_DEFINITION_SHAPE('NONE','NONE',#1);
#47=MECHANICAL_CONTEXT('NONE',#52,'mechanical');
#48=PRODUCT_DEFINITION_FORMATION_WITH_SPECIFIED_SOURCE('ANY','UNSPECIFIED',#49,.NOT_KNOWN.);
#49=PRODUCT('','TO-18_5','NONE',(#47));
#50=PRODUCT_RELATED_PRODUCT_CATEGORY('detail','',(#49));
#51=DESIGN_CONTEXT('detailed design',#52,'design');
#52=APPLICATION_CONTEXT('configuration controlled 3d designs of mechanical parts and assemblies');
#53=APPLICATION_PROTOCOL_DEFINITION('international standard','config_control_design',
1994,#52);
#54=CC_DESIGN_DATE_AND_TIME_ASSIGNMENT(#55,#59,(#1));
#55=DATE_AND_TIME(#56,#57);
#56=CALENDAR_DATE(0,1,1);
#57=LOCAL_TIME(0,0,0.,#58);
#58=COORDINATED_UNIVERSAL_TIME_OFFSET(0,0,.AHEAD.);
#59=DATE_TIME_ROLE('creation_date');
#60=CC_DESIGN_APPROVAL(#61,(#1));
#61=APPROVAL(#62,'UNSPECIFIED');
#62=APPROVAL_STATUS('not_yet_approved');
#63=APPROVAL_DATE_TIME(#64,#61);
#64=DATE_AND_TIME(#65,#66);
#65=CALENDAR_DATE(0,1,1);
#66=LOCAL_TIME(0,0,0.,#67);
#67=COORDINATED_UNIVERSAL_TIME_OFFSET(0,0,.AHEAD.);
#68=PERSON('UNSPECIFIED','UNSPECIFIED','UNSPECIFIED',('UNSPECIFIED'),('UNSPECIFIED'),
('UNSPECIFIED'));
#69=ORGANIZATION('UNSPECIFIED','UNSPECIFIED','UNSPECIFIED');
#70=PERSON_AND_ORGANIZATION(#68,#69);
#71=PERSON_AND_ORGANIZATION_ROLE('creator');
#72=CC_DESIGN_PERSON_AND_ORGANIZATION_ASSIGNMENT(#70,#71,(#48,#1));
#73=ADVANCED_FACE('',(#451),#453,.T.);
#74=COLOUR_RGB('',1.,1.,1.);
#75=FILL_AREA_STYLE_COLOUR('',#74);
#76=FILL_AREA_STYLE($,(#75));
#77=SURFACE_STYLE_FILL_AREA(#76);
#78=SURFACE_SIDE_STYLE('',(#77));
#79=SURFACE_STYLE_USAGE(.BOTH.,#78);
#80=PRESENTATION_STYLE_ASSIGNMENT((#79));
#81=STYLED_ITEM('',(#80),#73);
#82=ADVANCED_FACE('',(#458,#460),#462,.F.);
#83=COLOUR_RGB('',1.,1.,1.);
#84=FILL_AREA_STYLE_COLOUR('',#83);
#85=FILL_AREA_STYLE($,(#84));
#86=SURFACE_STYLE_FILL_AREA(#85);
#87=SURFACE_SIDE_STYLE('',(#86));
#88=SURFACE_STYLE_USAGE(.BOTH.,#87);
#89=PRESENTATION_STYLE_ASSIGNMENT((#88));
#90=STYLED_ITEM('',(#89),#82);
#91=ADVANCED_FACE('',(#467,#469),#471,.F.);
#92=COLOUR_RGB('',1.,1.,1.);
#93=FILL_AREA_STYLE_COLOUR('',#92);
#94=FILL_AREA_STYLE($,(#93));
#95=SURFACE_STYLE_FILL_AREA(#94);
#96=SURFACE_SIDE_STYLE('',(#95));
#97=SURFACE_STYLE_USAGE(.BOTH.,#96);
#98=PRESENTATION_STYLE_ASSIGNMENT((#97));
#99=STYLED_ITEM('',(#98),#91);
#100=ADVANCED_FACE('',(#476,#478),#480,.T.);
#101=COLOUR_RGB('',1.,1.,1.);
#102=FILL_AREA_STYLE_COLOUR('',#101);
#103=FILL_AREA_STYLE($,(#102));
#104=SURFACE_STYLE_FILL_AREA(#103);
#105=SURFACE_SIDE_STYLE('',(#104));
#106=SURFACE_STYLE_USAGE(.BOTH.,#105);
#107=PRESENTATION_STYLE_ASSIGNMENT((#106));
#108=STYLED_ITEM('',(#107),#100);
#109=ADVANCED_FACE('',(#485,#487),#489,.T.);
#110=COLOUR_RGB('',1.,1.,1.);
#111=FILL_AREA_STYLE_COLOUR('',#110);
#112=FILL_AREA_STYLE($,(#111));
#113=SURFACE_STYLE_FILL_AREA(#112);
#114=SURFACE_SIDE_STYLE('',(#113));
#115=SURFACE_STYLE_USAGE(.BOTH.,#114);
#116=PRESENTATION_STYLE_ASSIGNMENT((#115));
#117=STYLED_ITEM('',(#116),#109);
#118=ADVANCED_FACE('',(#494,#496),#498,.T.);
#119=COLOUR_RGB('',1.,1.,1.);
#120=FILL_AREA_STYLE_COLOUR('',#119);
#121=FILL_AREA_STYLE($,(#120));
#122=SURFACE_STYLE_FILL_AREA(#121);
#123=SURFACE_SIDE_STYLE('',(#122));
#124=SURFACE_STYLE_USAGE(.BOTH.,#123);
#125=PRESENTATION_STYLE_ASSIGNMENT((#124));
#126=STYLED_ITEM('',(#125),#118);
#127=ADVANCED_FACE('',(#503,#505),#507,.T.);
#128=COLOUR_RGB('',1.,1.,1.);
#129=FILL_AREA_STYLE_COLOUR('',#128);
#130=FILL_AREA_STYLE($,(#129));
#131=SURFACE_STYLE_FILL_AREA(#130);
#132=SURFACE_SIDE_STYLE('',(#131));
#133=SURFACE_STYLE_USAGE(.BOTH.,#132);
#134=PRESENTATION_STYLE_ASSIGNMENT((#133));
#135=STYLED_ITEM('',(#134),#127);
#136=ADVANCED_FACE('',(#512,#514),#516,.F.);
#137=COLOUR_RGB('',1.,1.,1.);
#138=FILL_AREA_STYLE_COLOUR('',#137);
#139=FILL_AREA_STYLE($,(#138));
#140=SURFACE_STYLE_FILL_AREA(#139);
#141=SURFACE_SIDE_STYLE('',(#140));
#142=SURFACE_STYLE_USAGE(.BOTH.,#141);
#143=PRESENTATION_STYLE_ASSIGNMENT((#142));
#144=STYLED_ITEM('',(#143),#136);
#145=ADVANCED_FACE('',(#521,#523),#525,.T.);
#146=COLOUR_RGB('',1.,1.,1.);
#147=FILL_AREA_STYLE_COLOUR('',#146);
#148=FILL_AREA_STYLE($,(#147));
#149=SURFACE_STYLE_FILL_AREA(#148);
#150=SURFACE_SIDE_STYLE('',(#149));
#151=SURFACE_STYLE_USAGE(.BOTH.,#150);
#152=PRESENTATION_STYLE_ASSIGNMENT((#151));
#153=STYLED_ITEM('',(#152),#145);
#154=ADVANCED_FACE('',(#530,#532),#534,.T.);
#155=COLOUR_RGB('',1.,1.,1.);
#156=FILL_AREA_STYLE_COLOUR('',#155);
#157=FILL_AREA_STYLE($,(#156));
#158=SURFACE_STYLE_FILL_AREA(#157);
#159=SURFACE_SIDE_STYLE('',(#158));
#160=SURFACE_STYLE_USAGE(.BOTH.,#159);
#161=PRESENTATION_STYLE_ASSIGNMENT((#160));
#162=STYLED_ITEM('',(#161),#154);
#163=ADVANCED_FACE('',(#539),#541,.T.);
#164=COLOUR_RGB('',1.,1.,1.);
#165=FILL_AREA_STYLE_COLOUR('',#164);
#166=FILL_AREA_STYLE($,(#165));
#167=SURFACE_STYLE_FILL_AREA(#166);
#168=SURFACE_SIDE_STYLE('',(#167));
#169=SURFACE_STYLE_USAGE(.BOTH.,#168);
#170=PRESENTATION_STYLE_ASSIGNMENT((#169));
#171=STYLED_ITEM('',(#170),#163);
#172=ADVANCED_FACE('',(#546),#548,.T.);
#173=COLOUR_RGB('',1.,0.854901960784314,0.258823529411765);
#174=FILL_AREA_STYLE_COLOUR('',#173);
#175=FILL_AREA_STYLE($,(#174));
#176=SURFACE_STYLE_FILL_AREA(#175);
#177=SURFACE_SIDE_STYLE('',(#176));
#178=SURFACE_STYLE_USAGE(.BOTH.,#177);
#179=PRESENTATION_STYLE_ASSIGNMENT((#178));
#180=STYLED_ITEM('',(#179),#172);
#181=ADVANCED_FACE('',(#553),#555,.T.);
#182=COLOUR_RGB('',1.,0.854901960784314,0.258823529411765);
#183=FILL_AREA_STYLE_COLOUR('',#182);
#184=FILL_AREA_STYLE($,(#183));
#185=SURFACE_STYLE_FILL_AREA(#184);
#186=SURFACE_SIDE_STYLE('',(#185));
#187=SURFACE_STYLE_USAGE(.BOTH.,#186);
#188=PRESENTATION_STYLE_ASSIGNMENT((#187));
#189=STYLED_ITEM('',(#188),#181);
#190=ADVANCED_FACE('',(#560),#562,.F.);
#191=COLOUR_RGB('',1.,0.854901960784314,0.258823529411765);
#192=FILL_AREA_STYLE_COLOUR('',#191);
#193=FILL_AREA_STYLE($,(#192));
#194=SURFACE_STYLE_FILL_AREA(#193);
#195=SURFACE_SIDE_STYLE('',(#194));
#196=SURFACE_STYLE_USAGE(.BOTH.,#195);
#197=PRESENTATION_STYLE_ASSIGNMENT((#196));
#198=STYLED_ITEM('',(#197),#190);
#199=ADVANCED_FACE('',(#567),#569,.T.);
#200=COLOUR_RGB('',1.,0.854901960784314,0.258823529411765);
#201=FILL_AREA_STYLE_COLOUR('',#200);
#202=FILL_AREA_STYLE($,(#201));
#203=SURFACE_STYLE_FILL_AREA(#202);
#204=SURFACE_SIDE_STYLE('',(#203));
#205=SURFACE_STYLE_USAGE(.BOTH.,#204);
#206=PRESENTATION_STYLE_ASSIGNMENT((#205));
#207=STYLED_ITEM('',(#206),#199);
#208=ADVANCED_FACE('',(#574),#576,.T.);
#209=COLOUR_RGB('',1.,0.854901960784314,0.258823529411765);
#210=FILL_AREA_STYLE_COLOUR('',#209);
#211=FILL_AREA_STYLE($,(#210));
#212=SURFACE_STYLE_FILL_AREA(#211);
#213=SURFACE_SIDE_STYLE('',(#212));
#214=SURFACE_STYLE_USAGE(.BOTH.,#213);
#215=PRESENTATION_STYLE_ASSIGNMENT((#214));
#216=STYLED_ITEM('',(#215),#208);
#217=ADVANCED_FACE('',(#581),#583,.F.);
#218=COLOUR_RGB('',1.,0.854901960784314,0.258823529411765);
#219=FILL_AREA_STYLE_COLOUR('',#218);
#220=FILL_AREA_STYLE($,(#219));
#221=SURFACE_STYLE_FILL_AREA(#220);
#222=SURFACE_SIDE_STYLE('',(#221));
#223=SURFACE_STYLE_USAGE(.BOTH.,#222);
#224=PRESENTATION_STYLE_ASSIGNMENT((#223));
#225=STYLED_ITEM('',(#224),#217);
#226=ADVANCED_FACE('',(#588,#590,#592,#594,#596),#598,.T.);
#227=COLOUR_RGB('',1.,0.854901960784314,0.258823529411765);
#228=FILL_AREA_STYLE_COLOUR('',#227);
#229=FILL_AREA_STYLE($,(#228));
#230=SURFACE_STYLE_FILL_AREA(#229);
#231=SURFACE_SIDE_STYLE('',(#230));
#232=SURFACE_STYLE_USAGE(.BOTH.,#231);
#233=PRESENTATION_STYLE_ASSIGNMENT((#232));
#234=STYLED_ITEM('',(#233),#226);
#235=ADVANCED_FACE('',(#603,#605,#607,#609,#611),#613,.T.);
#236=COLOUR_RGB('',0.4,0.2,0.);
#237=FILL_AREA_STYLE_COLOUR('',#236);
#238=FILL_AREA_STYLE($,(#237));
#239=SURFACE_STYLE_FILL_AREA(#238);
#240=SURFACE_SIDE_STYLE('',(#239));
#241=SURFACE_STYLE_USAGE(.BOTH.,#240);
#242=PRESENTATION_STYLE_ASSIGNMENT((#241));
#243=STYLED_ITEM('',(#242),#235);
#244=ADVANCED_FACE('',(#618,#620),#622,.T.);
#245=COLOUR_RGB('',1.,0.854901960784314,0.258823529411765);
#246=FILL_AREA_STYLE_COLOUR('',#245);
#247=FILL_AREA_STYLE($,(#246));
#248=SURFACE_STYLE_FILL_AREA(#247);
#249=SURFACE_SIDE_STYLE('',(#248));
#250=SURFACE_STYLE_USAGE(.BOTH.,#249);
#251=PRESENTATION_STYLE_ASSIGNMENT((#250));
#252=STYLED_ITEM('',(#251),#244);
#253=ADVANCED_FACE('',(#627,#629),#631,.T.);
#254=COLOUR_RGB('',1.,0.854901960784314,0.258823529411765);
#255=FILL_AREA_STYLE_COLOUR('',#254);
#256=FILL_AREA_STYLE($,(#255));
#257=SURFACE_STYLE_FILL_AREA(#256);
#258=SURFACE_SIDE_STYLE('',(#257));
#259=SURFACE_STYLE_USAGE(.BOTH.,#258);
#260=PRESENTATION_STYLE_ASSIGNMENT((#259));
#261=STYLED_ITEM('',(#260),#253);
#262=ADVANCED_FACE('',(#636,#638),#640,.T.);
#263=COLOUR_RGB('',1.,0.854901960784314,0.258823529411765);
#264=FILL_AREA_STYLE_COLOUR('',#263);
#265=FILL_AREA_STYLE($,(#264));
#266=SURFACE_STYLE_FILL_AREA(#265);
#267=SURFACE_SIDE_STYLE('',(#266));
#268=SURFACE_STYLE_USAGE(.BOTH.,#267);
#269=PRESENTATION_STYLE_ASSIGNMENT((#268));
#270=STYLED_ITEM('',(#269),#262);
#271=ADVANCED_FACE('',(#645,#647),#649,.T.);
#272=COLOUR_RGB('',1.,0.854901960784314,0.258823529411765);
#273=FILL_AREA_STYLE_COLOUR('',#272);
#274=FILL_AREA_STYLE($,(#273));
#275=SURFACE_STYLE_FILL_AREA(#274);
#276=SURFACE_SIDE_STYLE('',(#275));
#277=SURFACE_STYLE_USAGE(.BOTH.,#276);
#278=PRESENTATION_STYLE_ASSIGNMENT((#277));
#279=STYLED_ITEM('',(#278),#271);
#280=ADVANCED_FACE('',(#654,#656),#658,.T.);
#281=COLOUR_RGB('',1.,0.854901960784314,0.258823529411765);
#282=FILL_AREA_STYLE_COLOUR('',#281);
#283=FILL_AREA_STYLE($,(#282));
#284=SURFACE_STYLE_FILL_AREA(#283);
#285=SURFACE_SIDE_STYLE('',(#284));
#286=SURFACE_STYLE_USAGE(.BOTH.,#285);
#287=PRESENTATION_STYLE_ASSIGNMENT((#286));
#288=STYLED_ITEM('',(#287),#280);
#289=ADVANCED_FACE('',(#663,#665),#667,.T.);
#290=COLOUR_RGB('',1.,0.854901960784314,0.258823529411765);
#291=FILL_AREA_STYLE_COLOUR('',#290);
#292=FILL_AREA_STYLE($,(#291));
#293=SURFACE_STYLE_FILL_AREA(#292);
#294=SURFACE_SIDE_STYLE('',(#293));
#295=SURFACE_STYLE_USAGE(.BOTH.,#294);
#296=PRESENTATION_STYLE_ASSIGNMENT((#295));
#297=STYLED_ITEM('',(#296),#289);
#298=ADVANCED_FACE('',(#672,#674),#676,.T.);
#299=COLOUR_RGB('',1.,0.854901960784314,0.258823529411765);
#300=FILL_AREA_STYLE_COLOUR('',#299);
#301=FILL_AREA_STYLE($,(#300));
#302=SURFACE_STYLE_FILL_AREA(#301);
#303=SURFACE_SIDE_STYLE('',(#302));
#304=SURFACE_STYLE_USAGE(.BOTH.,#303);
#305=PRESENTATION_STYLE_ASSIGNMENT((#304));
#306=STYLED_ITEM('',(#305),#298);
#307=ADVANCED_FACE('',(#681,#683),#685,.T.);
#308=COLOUR_RGB('',1.,0.854901960784314,0.258823529411765);
#309=FILL_AREA_STYLE_COLOUR('',#308);
#310=FILL_AREA_STYLE($,(#309));
#311=SURFACE_STYLE_FILL_AREA(#310);
#312=SURFACE_SIDE_STYLE('',(#311));
#313=SURFACE_STYLE_USAGE(.BOTH.,#312);
#314=PRESENTATION_STYLE_ASSIGNMENT((#313));
#315=STYLED_ITEM('',(#314),#307);
#316=ADVANCED_FACE('',(#690,#692),#694,.T.);
#317=COLOUR_RGB('',1.,0.854901960784314,0.258823529411765);
#318=FILL_AREA_STYLE_COLOUR('',#317);
#319=FILL_AREA_STYLE($,(#318));
#320=SURFACE_STYLE_FILL_AREA(#319);
#321=SURFACE_SIDE_STYLE('',(#320));
#322=SURFACE_STYLE_USAGE(.BOTH.,#321);
#323=PRESENTATION_STYLE_ASSIGNMENT((#322));
#324=STYLED_ITEM('',(#323),#316);
#325=ADVANCED_FACE('',(#699,#701),#703,.T.);
#326=COLOUR_RGB('',1.,0.854901960784314,0.258823529411765);
#327=FILL_AREA_STYLE_COLOUR('',#326);
#328=FILL_AREA_STYLE($,(#327));
#329=SURFACE_STYLE_FILL_AREA(#328);
#330=SURFACE_SIDE_STYLE('',(#329));
#331=SURFACE_STYLE_USAGE(.BOTH.,#330);
#332=PRESENTATION_STYLE_ASSIGNMENT((#331));
#333=STYLED_ITEM('',(#332),#325);
#334=ADVANCED_FACE('',(#708),#710,.F.);
#335=COLOUR_RGB('',1.,0.854901960784314,0.258823529411765);
#336=FILL_AREA_STYLE_COLOUR('',#335);
#337=FILL_AREA_STYLE($,(#336));
#338=SURFACE_STYLE_FILL_AREA(#337);
#339=SURFACE_SIDE_STYLE('',(#338));
#340=SURFACE_STYLE_USAGE(.BOTH.,#339);
#341=PRESENTATION_STYLE_ASSIGNMENT((#340));
#342=STYLED_ITEM('',(#341),#334);
#343=ADVANCED_FACE('',(#715),#717,.T.);
#344=COLOUR_RGB('',1.,0.854901960784314,0.258823529411765);
#345=FILL_AREA_STYLE_COLOUR('',#344);
#346=FILL_AREA_STYLE($,(#345));
#347=SURFACE_STYLE_FILL_AREA(#346);
#348=SURFACE_SIDE_STYLE('',(#347));
#349=SURFACE_STYLE_USAGE(.BOTH.,#348);
#350=PRESENTATION_STYLE_ASSIGNMENT((#349));
#351=STYLED_ITEM('',(#350),#343);
#352=ADVANCED_FACE('',(#722),#724,.F.);
#353=COLOUR_RGB('',1.,0.854901960784314,0.258823529411765);
#354=FILL_AREA_STYLE_COLOUR('',#353);
#355=FILL_AREA_STYLE($,(#354));
#356=SURFACE_STYLE_FILL_AREA(#355);
#357=SURFACE_SIDE_STYLE('',(#356));
#358=SURFACE_STYLE_USAGE(.BOTH.,#357);
#359=PRESENTATION_STYLE_ASSIGNMENT((#358));
#360=STYLED_ITEM('',(#359),#352);
#361=ADVANCED_FACE('',(#729),#731,.T.);
#362=COLOUR_RGB('',1.,0.854901960784314,0.258823529411765);
#363=FILL_AREA_STYLE_COLOUR('',#362);
#364=FILL_AREA_STYLE($,(#363));
#365=SURFACE_STYLE_FILL_AREA(#364);
#366=SURFACE_SIDE_STYLE('',(#365));
#367=SURFACE_STYLE_USAGE(.BOTH.,#366);
#368=PRESENTATION_STYLE_ASSIGNMENT((#367));
#369=STYLED_ITEM('',(#368),#361);
#370=ADVANCED_FACE('',(#736),#738,.F.);
#371=COLOUR_RGB('',1.,0.854901960784314,0.258823529411765);
#372=FILL_AREA_STYLE_COLOUR('',#371);
#373=FILL_AREA_STYLE($,(#372));
#374=SURFACE_STYLE_FILL_AREA(#373);
#375=SURFACE_SIDE_STYLE('',(#374));
#376=SURFACE_STYLE_USAGE(.BOTH.,#375);
#377=PRESENTATION_STYLE_ASSIGNMENT((#376));
#378=STYLED_ITEM('',(#377),#370);
#379=ADVANCED_FACE('',(#743),#745,.T.);
#380=COLOUR_RGB('',1.,0.854901960784314,0.258823529411765);
#381=FILL_AREA_STYLE_COLOUR('',#380);
#382=FILL_AREA_STYLE($,(#381));
#383=SURFACE_STYLE_FILL_AREA(#382);
#384=SURFACE_SIDE_STYLE('',(#383));
#385=SURFACE_STYLE_USAGE(.BOTH.,#384);
#386=PRESENTATION_STYLE_ASSIGNMENT((#385));
#387=STYLED_ITEM('',(#386),#379);
#388=ADVANCED_FACE('',(#750),#752,.F.);
#389=COLOUR_RGB('',1.,0.854901960784314,0.258823529411765);
#390=FILL_AREA_STYLE_COLOUR('',#389);
#391=FILL_AREA_STYLE($,(#390));
#392=SURFACE_STYLE_FILL_AREA(#391);
#393=SURFACE_SIDE_STYLE('',(#392));
#394=SURFACE_STYLE_USAGE(.BOTH.,#393);
#395=PRESENTATION_STYLE_ASSIGNMENT((#394));
#396=STYLED_ITEM('',(#395),#388);
#397=ADVANCED_FACE('',(#757),#759,.T.);
#398=COLOUR_RGB('',1.,0.854901960784314,0.258823529411765);
#399=FILL_AREA_STYLE_COLOUR('',#398);
#400=FILL_AREA_STYLE($,(#399));
#401=SURFACE_STYLE_FILL_AREA(#400);
#402=SURFACE_SIDE_STYLE('',(#401));
#403=SURFACE_STYLE_USAGE(.BOTH.,#402);
#404=PRESENTATION_STYLE_ASSIGNMENT((#403));
#405=STYLED_ITEM('',(#404),#397);
#406=ADVANCED_FACE('',(#764,#766),#768,.T.);
#407=COLOUR_RGB('',1.,0.854901960784314,0.258823529411765);
#408=FILL_AREA_STYLE_COLOUR('',#407);
#409=FILL_AREA_STYLE($,(#408));
#410=SURFACE_STYLE_FILL_AREA(#409);
#411=SURFACE_SIDE_STYLE('',(#410));
#412=SURFACE_STYLE_USAGE(.BOTH.,#411);
#413=PRESENTATION_STYLE_ASSIGNMENT((#412));
#414=STYLED_ITEM('',(#413),#406);
#415=ADVANCED_FACE('',(#773,#775),#777,.F.);
#416=COLOUR_RGB('',1.,0.854901960784314,0.258823529411765);
#417=FILL_AREA_STYLE_COLOUR('',#416);
#418=FILL_AREA_STYLE($,(#417));
#419=SURFACE_STYLE_FILL_AREA(#418);
#420=SURFACE_SIDE_STYLE('',(#419));
#421=SURFACE_STYLE_USAGE(.BOTH.,#420);
#422=PRESENTATION_STYLE_ASSIGNMENT((#421));
#423=STYLED_ITEM('',(#422),#415);
#424=ADVANCED_FACE('',(#782,#784),#786,.F.);
#425=COLOUR_RGB('',1.,0.854901960784314,0.258823529411765);
#426=FILL_AREA_STYLE_COLOUR('',#425);
#427=FILL_AREA_STYLE($,(#426));
#428=SURFACE_STYLE_FILL_AREA(#427);
#429=SURFACE_SIDE_STYLE('',(#428));
#430=SURFACE_STYLE_USAGE(.BOTH.,#429);
#431=PRESENTATION_STYLE_ASSIGNMENT((#430));
#432=STYLED_ITEM('',(#431),#424);
#433=ADVANCED_FACE('',(#791,#793),#795,.T.);
#434=COLOUR_RGB('',1.,0.854901960784314,0.258823529411765);
#435=FILL_AREA_STYLE_COLOUR('',#434);
#436=FILL_AREA_STYLE($,(#435));
#437=SURFACE_STYLE_FILL_AREA(#436);
#438=SURFACE_SIDE_STYLE('',(#437));
#439=SURFACE_STYLE_USAGE(.BOTH.,#438);
#440=PRESENTATION_STYLE_ASSIGNMENT((#439));
#441=STYLED_ITEM('',(#440),#433);
#442=ADVANCED_FACE('',(#800,#802),#804,.T.);
#443=COLOUR_RGB('',1.,0.854901960784314,0.258823529411765);
#444=FILL_AREA_STYLE_COLOUR('',#443);
#445=FILL_AREA_STYLE($,(#444));
#446=SURFACE_STYLE_FILL_AREA(#445);
#447=SURFACE_SIDE_STYLE('',(#446));
#448=SURFACE_STYLE_USAGE(.BOTH.,#447);
#449=PRESENTATION_STYLE_ASSIGNMENT((#448));
#450=STYLED_ITEM('',(#449),#442);
#451=FACE_BOUND('',#452,.T.);
#452=EDGE_LOOP('',(#809));
#453=PLANE('',#454);
#454=AXIS2_PLACEMENT_3D('',#455,#456,#457);
#455=CARTESIAN_POINT('',(6.2,0.,0.));
#456=DIRECTION('',(-1.,0.,0.));
#457=DIRECTION('',(0.,-6.12323399573677E-17,1.));
#458=FACE_OUTER_BOUND('',#459,.T.);
#459=EDGE_LOOP('',(#810));
#460=FACE_OUTER_BOUND('',#461,.T.);
#461=EDGE_LOOP('',(#811));
#462=TOROIDAL_SURFACE('',#463,1.89902423754531,0.299512913492573);
#463=AXIS2_PLACEMENT_3D('',#464,#465,#466);
#464=CARTESIAN_POINT('',(5.90048867594726,0.,0.));
#465=DIRECTION('',(-1.,0.,0.));
#466=DIRECTION('',(0.,-6.12323399573677E-17,1.));
#467=FACE_OUTER_BOUND('',#468,.T.);
#468=EDGE_LOOP('',(#812));
#469=FACE_OUTER_BOUND('',#470,.T.);
#470=EDGE_LOOP('',(#813));
#471=CYLINDRICAL_SURFACE('',#472,2.19853675238344);
#472=AXIS2_PLACEMENT_3D('',#473,#474,#475);
#473=CARTESIAN_POINT('',(0.697631832510304,0.,0.));
#474=DIRECTION('',(-1.,0.,0.));
#475=DIRECTION('',(0.,-6.12323399573677E-17,1.));
#476=FACE_OUTER_BOUND('',#477,.T.);
#477=EDGE_LOOP('',(#814));
#478=FACE_OUTER_BOUND('',#479,.T.);
#479=EDGE_LOOP('',(#815));
#480=TOROIDAL_SURFACE('',#481,2.69420137106153,0.495664618678092);
#481=AXIS2_PLACEMENT_3D('',#482,#483,#484);
#482=CARTESIAN_POINT('',(0.697631832510304,0.,0.));
#483=DIRECTION('',(-1.,0.,0.));
#484=DIRECTION('',(0.,-6.12323399573677E-17,1.));
#485=FACE_BOUND('',#486,.T.);
#486=EDGE_LOOP('',(#816));
#487=FACE_BOUND('',#488,.T.);
#488=EDGE_LOOP('',(#817));
#489=PLANE('',#490);
#490=AXIS2_PLACEMENT_3D('',#491,#492,#493);
#491=CARTESIAN_POINT('',(0.201999999999999,0.,0.));
#492=DIRECTION('',(-1.,0.,0.));
#493=DIRECTION('',(0.,-6.12323399573677E-17,1.));
#494=FACE_OUTER_BOUND('',#495,.T.);
#495=EDGE_LOOP('',(#818));
#496=FACE_OUTER_BOUND('',#497,.T.);
#497=EDGE_LOOP('',(#819));
#498=CYLINDRICAL_SURFACE('',#499,2.88);
#499=AXIS2_PLACEMENT_3D('',#500,#501,#502);
#500=CARTESIAN_POINT('',(0.399999999999999,0.,0.));
#501=DIRECTION('',(-1.,0.,0.));
#502=DIRECTION('',(0.,-6.12323399573677E-17,1.));
#503=FACE_BOUND('',#504,.T.);
#504=EDGE_LOOP('',(#820));
#505=FACE_BOUND('',#506,.T.);
#506=EDGE_LOOP('',(#821));
#507=PLANE('',#508);
#508=AXIS2_PLACEMENT_3D('',#509,#510,#511);
#509=CARTESIAN_POINT('',(0.399999999999999,0.,0.));
#510=DIRECTION('',(1.,0.,0.));
#511=DIRECTION('',(0.,-6.12323399573677E-17,1.));
#512=FACE_OUTER_BOUND('',#513,.T.);
#513=EDGE_LOOP('',(#822));
#514=FACE_OUTER_BOUND('',#515,.T.);
#515=EDGE_LOOP('',(#823));
#516=TOROIDAL_SURFACE('',#517,2.80403288966602,0.304259749751121);
#517=AXIS2_PLACEMENT_3D('',#518,#519,#520);
#518=CARTESIAN_POINT('',(0.685884606448139,0.,0.));
#519=DIRECTION('',(-1.,0.,0.));
#520=DIRECTION('',(0.,-6.12323399573677E-17,1.));
#521=FACE_OUTER_BOUND('',#522,.T.);
#522=EDGE_LOOP('',(#824));
#523=FACE_OUTER_BOUND('',#524,.T.);
#524=EDGE_LOOP('',(#825));
#525=CYLINDRICAL_SURFACE('',#526,2.5);
#526=AXIS2_PLACEMENT_3D('',#527,#528,#529);
#527=CARTESIAN_POINT('',(5.9,0.,0.));
#528=DIRECTION('',(-1.,0.,0.));
#529=DIRECTION('',(0.,-6.12323399573677E-17,1.));
#530=FACE_OUTER_BOUND('',#531,.T.);
#531=EDGE_LOOP('',(#826));
#532=FACE_OUTER_BOUND('',#533,.T.);
#533=EDGE_LOOP('',(#827));
#534=TOROIDAL_SURFACE('',#535,1.9,0.6);
#535=AXIS2_PLACEMENT_3D('',#536,#537,#538);
#536=CARTESIAN_POINT('',(5.9,0.,0.));
#537=DIRECTION('',(-1.,0.,0.));
#538=DIRECTION('',(0.,-6.12323399573677E-17,1.));
#539=FACE_BOUND('',#540,.T.);
#540=EDGE_LOOP('',(#828));
#541=PLANE('',#542);
#542=AXIS2_PLACEMENT_3D('',#543,#544,#545);
#543=CARTESIAN_POINT('',(6.5,0.,0.));
#544=DIRECTION('',(1.,0.,0.));
#545=DIRECTION('',(0.,-6.12323399573676E-17,1.));
#546=FACE_BOUND('',#547,.T.);
#547=EDGE_LOOP('',(#829,#830,#831,#832));
#548=CYLINDRICAL_SURFACE('',#549,3.9);
#549=AXIS2_PLACEMENT_3D('',#550,#551,#552);
#550=CARTESIAN_POINT('',(2.32496913559418E-30,-1.28785870856518E-14,1.26565424807268E-14));
#551=DIRECTION('',(1.,0.,-1.83697019872103E-16));
#552=DIRECTION('',(-1.45474486517411E-16,0.610616788626203,-0.791926219699678));
#553=FACE_BOUND('',#554,.T.);
#554=EDGE_LOOP('',(#833,#834,#835,#836));
#555=PLANE('',#556);
#556=AXIS2_PLACEMENT_3D('',#557,#558,#559);
#557=CARTESIAN_POINT('',(-4.37457088982577E-16,3.08851225682873,-2.38140547564219));
#558=DIRECTION('',(1.23259516440783E-32,0.707106781186547,0.707106781186548));
#559=DIRECTION('',(1.29893408435324E-16,-0.707106781186548,0.707106781186547));
#560=FACE_BOUND('',#561,.T.);
#561=EDGE_LOOP('',(#837,#838,#839,#840));
#562=CYLINDRICAL_SURFACE('',#563,2.89999999999999);
#563=AXIS2_PLACEMENT_3D('',#564,#565,#566);
#564=CARTESIAN_POINT('',(0.,0.,0.));
#565=DIRECTION('',(-1.,0.,1.83697019872103E-16));
#566=DIRECTION('',(-1.05552788846372E-16,0.818432544229548,-0.574602619682463));
#567=FACE_BOUND('',#568,.T.);
#568=EDGE_LOOP('',(#841,#842,#843,#844));
#569=PLANE('',#570);
#570=AXIS2_PLACEMENT_3D('',#571,#572,#573);
#571=CARTESIAN_POINT('',(-4.359964960898E-16,1.66634759707913,-2.37345437826568));
#572=DIRECTION('',(-1.23259516440783E-32,-0.707106781186548,-0.707106781186547));
#573=DIRECTION('',(-1.29893408435324E-16,0.707106781186547,-0.707106781186548));
#574=FACE_BOUND('',#575,.T.);
#575=EDGE_LOOP('',(#845,#846,#847,#848));
#576=PLANE('',#577);
#577=AXIS2_PLACEMENT_3D('',#578,#579,#580);
#578=CARTESIAN_POINT('',(0.2,0.,-3.67394039744206E-17));
#579=DIRECTION('',(1.,0.,-1.83697019872103E-16));
#580=DIRECTION('',(1.12481983699639E-32,1.,6.12323399573677E-17));
#581=FACE_BOUND('',#582,.T.);
#582=EDGE_LOOP('',(#849,#850,#851,#852));
#583=PLANE('',#584);
#584=AXIS2_PLACEMENT_3D('',#585,#586,#587);
#585=CARTESIAN_POINT('',(0.,0.,0.));
#586=DIRECTION('',(1.,0.,-1.83697019872103E-16));
#587=DIRECTION('',(1.12481983699639E-32,1.,6.12323399573677E-17));
#588=FACE_BOUND('',#589,.T.);
#589=EDGE_LOOP('',(#853));
#590=FACE_BOUND('',#591,.T.);
#591=EDGE_LOOP('',(#854));
#592=FACE_BOUND('',#593,.T.);
#593=EDGE_LOOP('',(#855));
#594=FACE_BOUND('',#595,.T.);
#595=EDGE_LOOP('',(#856));
#596=FACE_BOUND('',#597,.T.);
#597=EDGE_LOOP('',(#857));
#598=PLANE('',#599);
#599=AXIS2_PLACEMENT_3D('',#600,#601,#602);
#600=CARTESIAN_POINT('',(2.9,0.,0.));
#601=DIRECTION('',(1.,0.,0.));
#602=DIRECTION('',(0.,-6.12323399573677E-17,1.));
#603=FACE_BOUND('',#604,.T.);
#604=EDGE_LOOP('',(#858,#859,#860));
#605=FACE_OUTER_BOUND('',#606,.T.);
#606=EDGE_LOOP('',(#861));
#607=FACE_BOUND('',#608,.T.);
#608=EDGE_LOOP('',(#862));
#609=FACE_BOUND('',#610,.T.);
#610=EDGE_LOOP('',(#863));
#611=FACE_BOUND('',#612,.T.);
#612=EDGE_LOOP('',(#864));
#613=DEGENERATE_TOROIDAL_SURFACE('',#614,0.207220573223106,11.9999999999996,.F.);
#614=AXIS2_PLACEMENT_3D('',#615,#616,#617);
#615=CARTESIAN_POINT('',(-11.3982106846823,0.,0.));
#616=DIRECTION('',(-1.,0.,0.));
#617=DIRECTION('',(0.,-6.12323399573677E-17,1.));
#618=FACE_OUTER_BOUND('',#619,.T.);
#619=EDGE_LOOP('',(#865));
#620=FACE_OUTER_BOUND('',#621,.T.);
#621=EDGE_LOOP('',(#866));
#622=CYLINDRICAL_SURFACE('',#623,0.25);
#623=AXIS2_PLACEMENT_3D('',#624,#625,#626);
#624=CARTESIAN_POINT('',(-5.,0.,-1.25));
#625=DIRECTION('',(1.,0.,-1.83697019872103E-16));
#626=DIRECTION('',(1.12481983699639E-32,1.,6.12323399573677E-17));
#627=FACE_OUTER_BOUND('',#628,.T.);
#628=EDGE_LOOP('',(#867));
#629=FACE_OUTER_BOUND('',#630,.T.);
#630=EDGE_LOOP('',(#868));
#631=CYLINDRICAL_SURFACE('',#632,0.25);
#632=AXIS2_PLACEMENT_3D('',#633,#634,#635);
#633=CARTESIAN_POINT('',(-5.,0.,-1.25));
#634=DIRECTION('',(1.,0.,-1.83697019872103E-16));
#635=DIRECTION('',(1.12481983699639E-32,1.,6.12323399573677E-17));
#636=FACE_OUTER_BOUND('',#637,.T.);
#637=EDGE_LOOP('',(#869));
#638=FACE_OUTER_BOUND('',#639,.T.);
#639=EDGE_LOOP('',(#870));
#640=CYLINDRICAL_SURFACE('',#641,0.25);
#641=AXIS2_PLACEMENT_3D('',#642,#643,#644);
#642=CARTESIAN_POINT('',(-5.,1.25,9.95025524307225E-16));
#643=DIRECTION('',(1.,0.,-1.83697019872103E-16));
#644=DIRECTION('',(1.12481983699639E-32,1.,6.12323399573677E-17));
#645=FACE_OUTER_BOUND('',#646,.T.);
#646=EDGE_LOOP('',(#871));
#647=FACE_OUTER_BOUND('',#648,.T.);
#648=EDGE_LOOP('',(#872));
#649=CYLINDRICAL_SURFACE('',#650,0.25);
#650=AXIS2_PLACEMENT_3D('',#651,#652,#653);
#651=CARTESIAN_POINT('',(-5.,1.25,9.95025524307225E-16));
#652=DIRECTION('',(1.,0.,-1.83697019872103E-16));
#653=DIRECTION('',(1.12481983699639E-32,1.,6.12323399573677E-17));
#654=FACE_BOUND('',#655,.T.);
#655=EDGE_LOOP('',(#873,#874,#875));
#656=FACE_OUTER_BOUND('',#657,.T.);
#657=EDGE_LOOP('',(#876));
#658=CYLINDRICAL_SURFACE('',#659,0.25);
#659=AXIS2_PLACEMENT_3D('',#660,#661,#662);
#660=CARTESIAN_POINT('',(-5.,0.,1.25));
#661=DIRECTION('',(1.,0.,-1.83697019872103E-16));
#662=DIRECTION('',(1.12481983699639E-32,1.,6.12323399573677E-17));
#663=FACE_OUTER_BOUND('',#664,.T.);
#664=EDGE_LOOP('',(#877));
#665=FACE_OUTER_BOUND('',#666,.T.);
#666=EDGE_LOOP('',(#878));
#667=CYLINDRICAL_SURFACE('',#668,0.25);
#668=AXIS2_PLACEMENT_3D('',#669,#670,#671);
#669=CARTESIAN_POINT('',(-5.,0.,1.25));
#670=DIRECTION('',(1.,0.,-1.83697019872103E-16));
#671=DIRECTION('',(1.12481983699639E-32,1.,6.12323399573677E-17));
#672=FACE_OUTER_BOUND('',#673,.T.);
#673=EDGE_LOOP('',(#879));
#674=FACE_OUTER_BOUND('',#675,.T.);
#675=EDGE_LOOP('',(#880));
#676=CYLINDRICAL_SURFACE('',#677,0.25);
#677=AXIS2_PLACEMENT_3D('',#678,#679,#680);
#678=CARTESIAN_POINT('',(-5.,-1.25,8.41944674413805E-16));
#679=DIRECTION('',(1.,0.,-1.83697019872103E-16));
#680=DIRECTION('',(1.12481983699639E-32,1.,6.12323399573677E-17));
#681=FACE_OUTER_BOUND('',#682,.T.);
#682=EDGE_LOOP('',(#881));
#683=FACE_OUTER_BOUND('',#684,.T.);
#684=EDGE_LOOP('',(#882));
#685=CYLINDRICAL_SURFACE('',#686,0.25);
#686=AXIS2_PLACEMENT_3D('',#687,#688,#689);
#687=CARTESIAN_POINT('',(-5.,-1.25,8.41944674413805E-16));
#688=DIRECTION('',(1.,0.,-1.83697019872103E-16));
#689=DIRECTION('',(1.12481983699639E-32,1.,6.12323399573677E-17));
#690=FACE_OUTER_BOUND('',#691,.T.);
#691=EDGE_LOOP('',(#883));
#692=FACE_OUTER_BOUND('',#693,.T.);
#693=EDGE_LOOP('',(#884));
#694=TOROIDAL_SURFACE('',#695,1.75,0.399999999999998);
#695=AXIS2_PLACEMENT_3D('',#696,#697,#698);
#696=CARTESIAN_POINT('',(2.5,0.,0.));
#697=DIRECTION('',(-1.,0.,0.));
#698=DIRECTION('',(0.,-6.12323399573677E-17,1.));
#699=FACE_OUTER_BOUND('',#700,.T.);
#700=EDGE_LOOP('',(#885));
#701=FACE_OUTER_BOUND('',#702,.T.);
#702=EDGE_LOOP('',(#886));
#703=TOROIDAL_SURFACE('',#704,2.552272750349,0.602272729275573);
#704=AXIS2_PLACEMENT_3D('',#705,#706,#707);
#705=CARTESIAN_POINT('',(0.599999999999999,0.,0.));
#706=DIRECTION('',(-1.,0.,0.));
#707=DIRECTION('',(0.,-6.12323399573677E-17,1.));
#708=FACE_BOUND('',#709,.T.);
#709=EDGE_LOOP('',(#887));
#710=PLANE('',#711);
#711=AXIS2_PLACEMENT_3D('',#712,#713,#714);
#712=CARTESIAN_POINT('',(-5.,0.,9.18485099360515E-16));
#713=DIRECTION('',(1.,0.,-1.83697019872103E-16));
#714=DIRECTION('',(1.12481983699639E-32,1.,6.12323399573677E-17));
#715=FACE_BOUND('',#716,.T.);
#716=EDGE_LOOP('',(#888));
#717=PLANE('',#718);
#718=AXIS2_PLACEMENT_3D('',#719,#720,#721);
#719=CARTESIAN_POINT('',(3.,0.,-5.51091059616309E-16));
#720=DIRECTION('',(1.,0.,-1.83697019872103E-16));
#721=DIRECTION('',(1.12481983699639E-32,1.,6.12323399573677E-17));
#722=FACE_BOUND('',#723,.T.);
#723=EDGE_LOOP('',(#889));
#724=PLANE('',#725);
#725=AXIS2_PLACEMENT_3D('',#726,#727,#728);
#726=CARTESIAN_POINT('',(-5.,0.,9.18485099360515E-16));
#727=DIRECTION('',(1.,0.,-1.83697019872103E-16));
#728=DIRECTION('',(1.12481983699639E-32,1.,6.12323399573677E-17));
#729=FACE_BOUND('',#730,.T.);
#730=EDGE_LOOP('',(#890));
#731=PLANE('',#732);
#732=AXIS2_PLACEMENT_3D('',#733,#734,#735);
#733=CARTESIAN_POINT('',(3.,0.,-5.51091059616309E-16));
#734=DIRECTION('',(1.,0.,-1.83697019872103E-16));
#735=DIRECTION('',(1.12481983699639E-32,1.,6.12323399573677E-17));
#736=FACE_BOUND('',#737,.T.);
#737=EDGE_LOOP('',(#891));
#738=PLANE('',#739);
#739=AXIS2_PLACEMENT_3D('',#740,#741,#742);
#740=CARTESIAN_POINT('',(-5.,0.,9.18485099360515E-16));
#741=DIRECTION('',(1.,0.,-1.83697019872103E-16));
#742=DIRECTION('',(1.12481983699639E-32,1.,6.12323399573677E-17));
#743=FACE_BOUND('',#744,.T.);
#744=EDGE_LOOP('',(#892));
#745=PLANE('',#746);
#746=AXIS2_PLACEMENT_3D('',#747,#748,#749);
#747=CARTESIAN_POINT('',(3.,0.,-5.51091059616309E-16));
#748=DIRECTION('',(1.,0.,-1.83697019872103E-16));
#749=DIRECTION('',(1.12481983699639E-32,1.,6.12323399573677E-17));
#750=FACE_BOUND('',#751,.T.);
#751=EDGE_LOOP('',(#893));
#752=PLANE('',#753);
#753=AXIS2_PLACEMENT_3D('',#754,#755,#756);
#754=CARTESIAN_POINT('',(-5.,0.,9.18485099360515E-16));
#755=DIRECTION('',(1.,0.,-1.83697019872103E-16));
#756=DIRECTION('',(1.12481983699639E-32,1.,6.12323399573677E-17));
#757=FACE_BOUND('',#758,.T.);
#758=EDGE_LOOP('',(#894));
#759=PLANE('',#760);
#760=AXIS2_PLACEMENT_3D('',#761,#762,#763);
#761=CARTESIAN_POINT('',(3.,0.,-5.51091059616309E-16));
#762=DIRECTION('',(1.,0.,-1.83697019872103E-16));
#763=DIRECTION('',(1.12481983699639E-32,1.,6.12323399573677E-17));
#764=FACE_OUTER_BOUND('',#765,.T.);
#765=EDGE_LOOP('',(#895));
#766=FACE_OUTER_BOUND('',#767,.T.);
#767=EDGE_LOOP('',(#896));
#768=CYLINDRICAL_SURFACE('',#769,2.15);
#769=AXIS2_PLACEMENT_3D('',#770,#771,#772);
#770=CARTESIAN_POINT('',(2.5,0.,0.));
#771=DIRECTION('',(-1.,0.,0.));
#772=DIRECTION('',(0.,-6.12323399573677E-17,1.));
#773=FACE_OUTER_BOUND('',#774,.T.);
#774=EDGE_LOOP('',(#897));
#775=FACE_OUTER_BOUND('',#776,.T.);
#776=EDGE_LOOP('',(#898));
#777=CONICAL_SURFACE('',#778,2.69999999999989,1.56932807323282);
#778=AXIS2_PLACEMENT_3D('',#779,#780,#781);
#779=CARTESIAN_POINT('',(-0.000293650923429034,0.,0.));
#780=DIRECTION('',(-1.,0.,0.));
#781=DIRECTION('',(0.,-6.12323399573677E-17,1.));
#782=FACE_OUTER_BOUND('',#783,.T.);
#783=EDGE_LOOP('',(#899));
#784=FACE_OUTER_BOUND('',#785,.T.);
#785=EDGE_LOOP('',(#900));
#786=TOROIDAL_SURFACE('',#787,2.55357147071828,0.403571470718279);
#787=AXIS2_PLACEMENT_3D('',#788,#789,#790);
#788=CARTESIAN_POINT('',(0.6,0.,0.));
#789=DIRECTION('',(-1.,0.,0.));
#790=DIRECTION('',(0.,-6.12323399573677E-17,1.));
#791=FACE_OUTER_BOUND('',#792,.T.);
#792=EDGE_LOOP('',(#901));
#793=FACE_OUTER_BOUND('',#794,.T.);
#794=EDGE_LOOP('',(#902));
#795=CYLINDRICAL_SURFACE('',#796,2.9);
#796=AXIS2_PLACEMENT_3D('',#797,#798,#799);
#797=CARTESIAN_POINT('',(0.199999963121508,0.,0.));
#798=DIRECTION('',(-1.,0.,0.));
#799=DIRECTION('',(0.,-6.12323399573677E-17,1.));
#800=FACE_BOUND('',#801,.T.);
#801=EDGE_LOOP('',(#903));
#802=FACE_BOUND('',#803,.T.);
#803=EDGE_LOOP('',(#904));
#804=PLANE('',#805);
#805=AXIS2_PLACEMENT_3D('',#806,#807,#808);
#806=CARTESIAN_POINT('',(0.199999963121508,0.,0.));
#807=DIRECTION('',(1.,0.,0.));
#808=DIRECTION('',(0.,-6.12323399573677E-17,1.));
#809=ORIENTED_EDGE('',*,*,#905,.T.);
#810=ORIENTED_EDGE('',*,*,#905,.F.);
#811=ORIENTED_EDGE('',*,*,#906,.T.);
#812=ORIENTED_EDGE('',*,*,#906,.F.);
#813=ORIENTED_EDGE('',*,*,#907,.T.);
#814=ORIENTED_EDGE('',*,*,#907,.F.);
#815=ORIENTED_EDGE('',*,*,#908,.T.);
#816=ORIENTED_EDGE('',*,*,#909,.T.);
#817=ORIENTED_EDGE('',*,*,#908,.F.);
#818=ORIENTED_EDGE('',*,*,#910,.T.);
#819=ORIENTED_EDGE('',*,*,#909,.F.);
#820=ORIENTED_EDGE('',*,*,#910,.F.);
#821=ORIENTED_EDGE('',*,*,#911,.T.);
#822=ORIENTED_EDGE('',*,*,#912,.T.);
#823=ORIENTED_EDGE('',*,*,#911,.F.);
#824=ORIENTED_EDGE('',*,*,#913,.T.);
#825=ORIENTED_EDGE('',*,*,#912,.F.);
#826=ORIENTED_EDGE('',*,*,#914,.T.);
#827=ORIENTED_EDGE('',*,*,#913,.F.);
#828=ORIENTED_EDGE('',*,*,#914,.F.);
#829=ORIENTED_EDGE('',*,*,#915,.T.);
#830=ORIENTED_EDGE('',*,*,#916,.T.);
#831=ORIENTED_EDGE('',*,*,#917,.F.);
#832=ORIENTED_EDGE('',*,*,#918,.F.);
#833=ORIENTED_EDGE('',*,*,#919,.T.);
#834=ORIENTED_EDGE('',*,*,#920,.T.);
#835=ORIENTED_EDGE('',*,*,#921,.F.);
#836=ORIENTED_EDGE('',*,*,#916,.F.);
#837=ORIENTED_EDGE('',*,*,#922,.T.);
#838=ORIENTED_EDGE('',*,*,#923,.T.);
#839=ORIENTED_EDGE('',*,*,#924,.F.);
#840=ORIENTED_EDGE('',*,*,#920,.F.);
#841=ORIENTED_EDGE('',*,*,#925,.T.);
#842=ORIENTED_EDGE('',*,*,#918,.T.);
#843=ORIENTED_EDGE('',*,*,#926,.F.);
#844=ORIENTED_EDGE('',*,*,#923,.F.);
#845=ORIENTED_EDGE('',*,*,#917,.T.);
#846=ORIENTED_EDGE('',*,*,#921,.T.);
#847=ORIENTED_EDGE('',*,*,#924,.T.);
#848=ORIENTED_EDGE('',*,*,#926,.T.);
#849=ORIENTED_EDGE('',*,*,#925,.F.);
#850=ORIENTED_EDGE('',*,*,#922,.F.);
#851=ORIENTED_EDGE('',*,*,#919,.F.);
#852=ORIENTED_EDGE('',*,*,#915,.F.);
#853=ORIENTED_EDGE('',*,*,#927,.F.);
#854=ORIENTED_EDGE('',*,*,#928,.F.);
#855=ORIENTED_EDGE('',*,*,#929,.F.);
#856=ORIENTED_EDGE('',*,*,#930,.F.);
#857=ORIENTED_EDGE('',*,*,#931,.F.);
#858=ORIENTED_EDGE('',*,*,#932,.F.);
#859=ORIENTED_EDGE('',*,*,#933,.F.);
#860=ORIENTED_EDGE('',*,*,#934,.F.);
#861=ORIENTED_EDGE('',*,*,#935,.T.);
#862=ORIENTED_EDGE('',*,*,#936,.F.);
#863=ORIENTED_EDGE('',*,*,#937,.F.);
#864=ORIENTED_EDGE('',*,*,#938,.F.);
#865=ORIENTED_EDGE('',*,*,#938,.T.);
#866=ORIENTED_EDGE('',*,*,#939,.T.);
#867=ORIENTED_EDGE('',*,*,#940,.F.);
#868=ORIENTED_EDGE('',*,*,#931,.T.);
#869=ORIENTED_EDGE('',*,*,#937,.T.);
#870=ORIENTED_EDGE('',*,*,#941,.T.);
#871=ORIENTED_EDGE('',*,*,#942,.F.);
#872=ORIENTED_EDGE('',*,*,#930,.T.);
#873=ORIENTED_EDGE('',*,*,#934,.T.);
#874=ORIENTED_EDGE('',*,*,#933,.T.);
#875=ORIENTED_EDGE('',*,*,#932,.T.);
#876=ORIENTED_EDGE('',*,*,#943,.T.);
#877=ORIENTED_EDGE('',*,*,#944,.F.);
#878=ORIENTED_EDGE('',*,*,#929,.T.);
#879=ORIENTED_EDGE('',*,*,#936,.T.);
#880=ORIENTED_EDGE('',*,*,#945,.T.);
#881=ORIENTED_EDGE('',*,*,#946,.F.);
#882=ORIENTED_EDGE('',*,*,#928,.T.);
#883=ORIENTED_EDGE('',*,*,#927,.T.);
#884=ORIENTED_EDGE('',*,*,#947,.F.);
#885=ORIENTED_EDGE('',*,*,#935,.F.);
#886=ORIENTED_EDGE('',*,*,#948,.T.);
#887=ORIENTED_EDGE('',*,*,#939,.F.);
#888=ORIENTED_EDGE('',*,*,#940,.T.);
#889=ORIENTED_EDGE('',*,*,#941,.F.);
#890=ORIENTED_EDGE('',*,*,#942,.T.);
#891=ORIENTED_EDGE('',*,*,#943,.F.);
#892=ORIENTED_EDGE('',*,*,#944,.T.);
#893=ORIENTED_EDGE('',*,*,#945,.F.);
#894=ORIENTED_EDGE('',*,*,#946,.T.);
#895=ORIENTED_EDGE('',*,*,#947,.T.);
#896=ORIENTED_EDGE('',*,*,#949,.F.);
#897=ORIENTED_EDGE('',*,*,#948,.F.);
#898=ORIENTED_EDGE('',*,*,#950,.T.);
#899=ORIENTED_EDGE('',*,*,#949,.T.);
#900=ORIENTED_EDGE('',*,*,#951,.F.);
#901=ORIENTED_EDGE('',*,*,#952,.T.);
#902=ORIENTED_EDGE('',*,*,#950,.F.);
#903=ORIENTED_EDGE('',*,*,#952,.F.);
#904=ORIENTED_EDGE('',*,*,#951,.T.);
#905=EDGE_CURVE('',#953,#953,#954,.T.);
#906=EDGE_CURVE('',#955,#955,#956,.T.);
#907=EDGE_CURVE('',#957,#957,#958,.T.);
#908=EDGE_CURVE('',#959,#959,#960,.T.);
#909=EDGE_CURVE('',#961,#961,#962,.T.);
#910=EDGE_CURVE('',#963,#963,#964,.T.);
#911=EDGE_CURVE('',#965,#965,#966,.T.);
#912=EDGE_CURVE('',#967,#967,#968,.T.);
#913=EDGE_CURVE('',#969,#969,#970,.T.);
#914=EDGE_CURVE('',#971,#971,#972,.T.);
#915=EDGE_CURVE('',#973,#974,#975,.T.);
#916=EDGE_CURVE('',#974,#976,#977,.T.);
#917=EDGE_CURVE('',#978,#976,#979,.T.);
#918=EDGE_CURVE('',#973,#978,#980,.T.);
#919=EDGE_CURVE('',#974,#981,#982,.T.);
#920=EDGE_CURVE('',#981,#983,#984,.T.);
#921=EDGE_CURVE('',#976,#983,#985,.T.);
#922=EDGE_CURVE('',#981,#986,#987,.T.);
#923=EDGE_CURVE('',#986,#988,#989,.T.);
#924=EDGE_CURVE('',#983,#988,#990,.T.);
#925=EDGE_CURVE('',#986,#973,#991,.T.);
#926=EDGE_CURVE('',#988,#978,#992,.T.);
#927=EDGE_CURVE('',#993,#993,#994,.T.);
#928=EDGE_CURVE('',#995,#995,#996,.T.);
#929=EDGE_CURVE('',#997,#997,#998,.T.);
#930=EDGE_CURVE('',#999,#999,#1000,.T.);
#931=EDGE_CURVE('',#1001,#1001,#1002,.T.);
#932=EDGE_CURVE('',#1003,#1004,#1005,.T.);
#933=EDGE_CURVE('',#1006,#1003,#1007,.T.);
#934=EDGE_CURVE('',#1004,#1006,#1008,.F.);
#935=EDGE_CURVE('',#1009,#1009,#1010,.T.);
#936=EDGE_CURVE('',#1011,#1011,#1012,.T.);
#937=EDGE_CURVE('',#1013,#1013,#1014,.T.);
#938=EDGE_CURVE('',#1015,#1015,#1016,.T.);
#939=EDGE_CURVE('',#1017,#1017,#1018,.T.);
#940=EDGE_CURVE('',#1019,#1019,#1020,.T.);
#941=EDGE_CURVE('',#1021,#1021,#1022,.T.);
#942=EDGE_CURVE('',#1023,#1023,#1024,.T.);
#943=EDGE_CURVE('',#1025,#1025,#1026,.T.);
#944=EDGE_CURVE('',#1027,#1027,#1028,.T.);
#945=EDGE_CURVE('',#1029,#1029,#1030,.T.);
#946=EDGE_CURVE('',#1031,#1031,#1032,.T.);
#947=EDGE_CURVE('',#1033,#1033,#1034,.T.);
#948=EDGE_CURVE('',#1035,#1035,#1036,.T.);
#949=EDGE_CURVE('',#1037,#1037,#1038,.T.);
#950=EDGE_CURVE('',#1039,#1039,#1040,.T.);
#951=EDGE_CURVE('',#1041,#1041,#1042,.T.);
#952=EDGE_CURVE('',#1043,#1043,#1044,.T.);
#953=VERTEX_POINT('',#1045);
#954=CIRCLE('',#1046,1.9);
#955=VERTEX_POINT('',#1050);
#956=CIRCLE('',#1051,2.19853675238339);
#957=VERTEX_POINT('',#1055);
#958=CIRCLE('',#1056,2.19853675238344);
#959=VERTEX_POINT('',#1060);
#960=CIRCLE('',#1061,2.69990231945732);
#961=VERTEX_POINT('',#1065);
#962=CIRCLE('',#1066,2.88);
#963=VERTEX_POINT('',#1070);
#964=CIRCLE('',#1071,2.88);
#965=VERTEX_POINT('',#1075);
#966=CIRCLE('',#1076,2.69989842315958);
#967=VERTEX_POINT('',#1080);
#968=CIRCLE('',#1081,2.50000000000035);
#969=VERTEX_POINT('',#1085);
#970=CIRCLE('',#1086,2.5);
#971=VERTEX_POINT('',#1090);
#972=CIRCLE('',#1091,1.9);
#973=VERTEX_POINT('',#1095);
#974=VERTEX_POINT('',#1096);
#975=CIRCLE('',#1097,3.9);
#976=VERTEX_POINT('',#1101);
#977=LINE('',#1102,#1103);
#978=VERTEX_POINT('',#1105);
#979=CIRCLE('',#1106,3.9);
#980=LINE('',#1110,#1111);
#981=VERTEX_POINT('',#1113);
#982=LINE('',#1114,#1115);
#983=VERTEX_POINT('',#1117);
#984=LINE('',#1118,#1119);
#985=LINE('',#1121,#1122);
#986=VERTEX_POINT('',#1124);
#987=CIRCLE('',#1125,2.89999999999999);
#988=VERTEX_POINT('',#1129);
#989=LINE('',#1130,#1131);
#990=CIRCLE('',#1133,2.89999999999999);
#991=LINE('',#1137,#1138);
#992=LINE('',#1140,#1141);
#993=VERTEX_POINT('',#1143);
#994=CIRCLE('',#1144,1.75);
#995=VERTEX_POINT('',#1148);
#996=CIRCLE('',#1149,0.25);
#997=VERTEX_POINT('',#1153);
#998=CIRCLE('',#1154,0.25);
#999=VERTEX_POINT('',#1158);
#1000=CIRCLE('',#1159,0.25);
#1001=VERTEX_POINT('',#1163);
#1002=CIRCLE('',#1164,0.25);
#1003=VERTEX_POINT('',#1168);
#1004=VERTEX_POINT('',#1169);
#1005=B_SPLINE_CURVE_WITH_KNOTS('',3,
(#1170,#1171,#1172,#1173,#1174,#1175,#1176,#1177,#1178,#1179,#1180,#1181,#1182),
.UNSPECIFIED.,.F.,.F.,
(4,1,1,1,1,1,1,1,1,1,4),
(0.,0.0796869097118498,0.159398252350458,0.239093056996102,0.345349270663356,0.478001242800607,
0.62823220595137,0.76060525029794,0.862676162517515,0.939513800306821,1.),
.UNSPECIFIED.);
#1006=VERTEX_POINT('',#1183);
#1007=B_SPLINE_CURVE_WITH_KNOTS('',3,
(#1184,#1185,#1186,#1187,#1188,#1189,#1190,#1191,#1192,#1193,#1194),
.UNSPECIFIED.,.F.,.F.,
(4,1,1,1,1,1,1,1,4),
(0.,0.101211087089702,0.222632456147502,0.36430069644225,0.522090374158001,0.679571391262577,
0.812303132738784,0.919022705723706,1.),
.UNSPECIFIED.);
#1008=B_SPLINE_CURVE_WITH_KNOTS('',3,
(#1195,#1196,#1197,#1198,#1199,#1200,#1201,#1202,#1203,#1204,#1205,#1206,#1207,#1208,
#1209,#1210,#1211,#1212,#1213,#1214,#1215,#1216,#1217,#1218),
.UNSPECIFIED.,.F.,.F.,
(4,1,1,1,1,1,1,1,1,1,1,1,1,1,1,1,1,1,1,1,1,4),
(0.,0.0394733969843045,0.0789676110273668,0.118452568991187,0.171102187851304,0.236903445067905,
0.315788105233269,0.394286055399818,0.467379309190351,0.499949002427278,0.524029070707415,
0.564651903339108,0.602804471833126,0.654527627388868,0.721201859417866,0.791563364567994,
0.856070327868412,0.909002082625954,0.944672685574551,0.967489348355363,0.983143144690077,
1.),
.UNSPECIFIED.);
#1009=VERTEX_POINT('',#1219);
#1010=CIRCLE('',#1220,1.98417730024484);
#1011=VERTEX_POINT('',#1224);
#1012=B_SPLINE_CURVE_WITH_KNOTS('',3,
(#1225,#1226,#1227,#1228,#1229,#1230,#1231,#1232,#1233,#1234,#1235,#1236,#1237,#1238,
#1239,#1240,#1241,#1242,#1243,#1244,#1245,#1246,#1247,#1248,#1249,#1250,#1251,#1252,
#1253,#1254,#1255,#1256,#1257,#1258,#1259,#1260,#1261,#1262,#1263,#1264,#1265),
.UNSPECIFIED.,.T.,.F.,
(4,1,1,1,1,1,1,1,1,1,1,1,1,1,1,1,1,1,1,1,1,1,1,1,1,1,1,1,1,1,1,1,1,1,1,1,1,1,4),
(0.,0.0170940797966749,0.0369532632739342,0.0603863207074676,0.0882188061459246,
0.121247626798531,0.156537142894334,0.186366234092183,0.208545952482476,0.225200079403912,
0.241877944291245,0.25001639247282,0.266297423269394,0.298397966428519,0.338147702299803,
0.377815798757167,0.417400463235454,0.456919053330223,0.496395615629527,0.499997919271609,
0.535852529882292,0.575299672216095,0.614723816444751,0.652042909156157,0.687293450861489,
0.719857799688408,0.746933511391102,0.749977636909788,0.768470031383774,0.785073767006268,
0.801714016321951,0.824565847318288,0.855142948688807,0.891212973317921,0.924325458639473,
0.950793862858244,0.971445565404397,0.98710919780987,1.),
.UNSPECIFIED.);
#1013=VERTEX_POINT('',#1266);
#1014=B_SPLINE_CURVE_WITH_KNOTS('',3,
(#1267,#1268,#1269,#1270,#1271,#1272,#1273,#1274,#1275,#1276,#1277,#1278,#1279,#1280,
#1281,#1282,#1283,#1284,#1285,#1286,#1287,#1288,#1289,#1290,#1291,#1292,#1293,#1294,
#1295,#1296,#1297,#1298,#1299,#1300,#1301,#1302,#1303,#1304,#1305,#1306),
.UNSPECIFIED.,.T.,.F.,
(4,1,1,1,1,1,1,1,1,1,1,1,1,1,1,1,1,1,1,1,1,1,1,1,1,1,1,1,1,1,1,1,1,1,1,1,1,4),
(0.,0.0300994722307846,0.0629929330857843,0.099470428000414,0.138105591105924,0.175441849883705,
0.210414346784517,0.240550220490421,0.249977712232365,0.264486194583779,0.282514249925897,
0.301465626618024,0.327264007218288,0.360601175319554,0.395781945396002,0.428035393083742,
0.45450141292946,0.476535459239269,0.496362757352742,0.499998014980136,0.516188080902028,
0.536012443936812,0.558033974296614,0.584459917600988,0.617467568827268,0.65274104076247,
0.688107540320677,0.71585874928142,0.738104680346869,0.750014568769648,0.762522963730283,
0.794581007898345,0.832106517014083,0.86740084328497,0.900508914344453,0.934344190093408,
0.967510093980969,1.),
.UNSPECIFIED.);
#1015=VERTEX_POINT('',#1307);
#1016=B_SPLINE_CURVE_WITH_KNOTS('',3,
(#1308,#1309,#1310,#1311,#1312,#1313,#1314,#1315,#1316,#1317,#1318,#1319,#1320,#1321,
#1322,#1323,#1324,#1325,#1326,#1327,#1328,#1329,#1330,#1331,#1332,#1333,#1334,#1335,
#1336,#1337,#1338,#1339,#1340,#1341,#1342,#1343,#1344,#1345,#1346,#1347,#1348,#1349,
#1350,#1351),
.UNSPECIFIED.,.T.,.F.,
(4,1,1,1,1,1,1,1,1,1,1,1,1,1,1,1,1,1,1,1,1,1,1,1,1,1,1,1,1,1,1,1,1,1,1,1,1,1,1,1,
1,4),
(0.,0.0127877425072118,0.024152946617576,0.0406668988136737,0.0657428429181964,0.100721748017915,
0.139023248116223,0.178585863677603,0.218089834794395,0.249979352741935,0.25755827486179,
0.29701121809669,0.336452831381397,0.375859162825354,0.413173475604657,0.448440604324183,
0.47954149076897,0.499957161557745,0.505121925854828,0.525113094176579,0.541695093385613,
0.558273989863261,0.582555028902859,0.612379088407714,0.645531782529195,0.672097649169698,
0.694207440124688,0.714080533221659,0.733910252879771,0.749977481723651,0.753736408126611,
0.773561046010201,0.793384285421266,0.815403098804913,0.841821104154751,0.87480976652557,
0.910064609296854,0.939082031619429,0.959688126804567,0.974558710530942,0.988005720247291,
1.),
.UNSPECIFIED.);
#1017=VERTEX_POINT('',#1352);
#1018=CIRCLE('',#1353,0.25);
#1019=VERTEX_POINT('',#1357);
#1020=CIRCLE('',#1358,0.25);
#1021=VERTEX_POINT('',#1362);
#1022=CIRCLE('',#1363,0.25);
#1023=VERTEX_POINT('',#1367);
#1024=CIRCLE('',#1368,0.25);
#1025=VERTEX_POINT('',#1372);
#1026=CIRCLE('',#1373,0.25);
#1027=VERTEX_POINT('',#1377);
#1028=CIRCLE('',#1378,0.25);
#1029=VERTEX_POINT('',#1382);
#1030=CIRCLE('',#1383,0.25);
#1031=VERTEX_POINT('',#1387);
#1032=CIRCLE('',#1388,0.25);
#1033=VERTEX_POINT('',#1392);
#1034=CIRCLE('',#1393,2.15);
#1035=VERTEX_POINT('',#1397);
#1036=CIRCLE('',#1398,2.5);
#1037=VERTEX_POINT('',#1402);
#1038=CIRCLE('',#1403,2.15);
#1039=VERTEX_POINT('',#1407);
#1040=CIRCLE('',#1408,2.9);
#1041=VERTEX_POINT('',#1412);
#1042=CIRCLE('',#1413,2.5);
#1043=VERTEX_POINT('',#1417);
#1044=CIRCLE('',#1418,2.9);
#1045=CARTESIAN_POINT('',(6.20000000000051,-1.16341445918999E-16,1.9));
#1046=AXIS2_PLACEMENT_3D('',#1047,#1048,#1049);
#1047=CARTESIAN_POINT('',(6.2,0.,0.));
#1048=DIRECTION('',(-1.,0.,0.));
#1049=DIRECTION('',(0.,-6.12323399573677E-17,1.));
#1050=CARTESIAN_POINT('',(5.9,-1.34621549830708E-16,2.19853675238342));
#1051=AXIS2_PLACEMENT_3D('',#1052,#1053,#1054);
#1052=CARTESIAN_POINT('',(5.9,0.,0.));
#1053=DIRECTION('',(-1.,0.,0.));
#1054=DIRECTION('',(0.,-6.12323399573677E-17,1.));
#1055=CARTESIAN_POINT('',(0.697631832510304,-1.3462154983071E-16,2.19853675238344));
#1056=AXIS2_PLACEMENT_3D('',#1057,#1058,#1059);
#1057=CARTESIAN_POINT('',(0.697631832510304,0.,0.));
#1058=DIRECTION('',(-1.,0.,0.));
#1059=DIRECTION('',(0.,-6.12323399573677E-17,1.));
#1060=CARTESIAN_POINT('',(0.202000000000421,-1.65321336676696E-16,2.69990231945732));
#1061=AXIS2_PLACEMENT_3D('',#1062,#1063,#1064);
#1062=CARTESIAN_POINT('',(0.201999999999999,0.,0.));
#1063=DIRECTION('',(-1.,0.,0.));
#1064=DIRECTION('',(0.,-6.12323399573677E-17,1.));
#1065=CARTESIAN_POINT('',(0.201999999999999,-1.76349139077219E-16,2.88));
#1066=AXIS2_PLACEMENT_3D('',#1067,#1068,#1069);
#1067=CARTESIAN_POINT('',(0.201999999999999,0.,0.));
#1068=DIRECTION('',(-1.,0.,0.));
#1069=DIRECTION('',(0.,-6.12323399573677E-17,1.));
#1070=CARTESIAN_POINT('',(0.399999999999999,-1.76349139077219E-16,2.88));
#1071=AXIS2_PLACEMENT_3D('',#1072,#1073,#1074);
#1072=CARTESIAN_POINT('',(0.399999999999999,0.,0.));
#1073=DIRECTION('',(-1.,0.,0.));
#1074=DIRECTION('',(0.,-6.12323399573677E-17,1.));
#1075=CARTESIAN_POINT('',(0.39999999999998,-1.65321098097268E-16,2.69989842315957));
#1076=AXIS2_PLACEMENT_3D('',#1077,#1078,#1079);
#1077=CARTESIAN_POINT('',(0.399999999999999,0.,0.));
#1078=DIRECTION('',(-1.,0.,0.));
#1079=DIRECTION('',(0.,-6.12323399573677E-17,1.));
#1080=CARTESIAN_POINT('',(0.697631832510297,-1.5308084989343E-16,2.50000000000017));
#1081=AXIS2_PLACEMENT_3D('',#1082,#1083,#1084);
#1082=CARTESIAN_POINT('',(0.69763183251029,0.,0.));
#1083=DIRECTION('',(-1.,0.,0.));
#1084=DIRECTION('',(0.,-6.12323399573677E-17,1.));
#1085=CARTESIAN_POINT('',(5.9,-1.53080849893419E-16,2.5));
#1086=AXIS2_PLACEMENT_3D('',#1087,#1088,#1089);
#1087=CARTESIAN_POINT('',(5.9,0.,0.));
#1088=DIRECTION('',(-1.,0.,0.));
#1089=DIRECTION('',(0.,-6.12323399573677E-17,1.));
#1090=CARTESIAN_POINT('',(6.5,-1.16341445918999E-16,1.9));
#1091=AXIS2_PLACEMENT_3D('',#1092,#1093,#1094);
#1092=CARTESIAN_POINT('',(6.5,0.,0.));
#1093=DIRECTION('',(-1.,0.,0.));
#1094=DIRECTION('',(0.,-6.12323399573676E-17,1.));
#1095=CARTESIAN_POINT('',(-5.67350497417901E-16,2.38140547564218,-3.08851225682873));
#1096=CARTESIAN_POINT('',(-4.37457088982577E-16,3.08851225682873,-2.38140547564219));
#1097=AXIS2_PLACEMENT_3D('',#1098,#1099,#1100);
#1098=CARTESIAN_POINT('',(2.32496913559418E-30,-1.28785870856518E-14,1.26565424807268E-14));
#1099=DIRECTION('',(1.,0.,-1.83697019872103E-16));
#1100=DIRECTION('',(-1.45474486517411E-16,0.610616788626203,-0.791926219699678));
#1101=CARTESIAN_POINT('',(0.2,3.08851225682873,-2.38140547564219));
#1102=CARTESIAN_POINT('',(-4.37457088982577E-16,3.08851225682873,-2.38140547564219));
#1103=VECTOR('',#1104,1.);
#1104=DIRECTION('',(1.,0.,0.));
#1105=CARTESIAN_POINT('',(0.199999999999999,2.38140547564218,-3.08851225682873));
#1106=AXIS2_PLACEMENT_3D('',#1107,#1108,#1109);
#1107=CARTESIAN_POINT('',(0.2,-1.28785870856518E-14,1.26198030767524E-14));
#1108=DIRECTION('',(1.,0.,-1.83697019872103E-16));
#1109=DIRECTION('',(-1.45474486517411E-16,0.610616788626203,-0.791926219699678));
#1110=CARTESIAN_POINT('',(-5.67350497417901E-16,2.38140547564218,-3.08851225682873));
#1111=VECTOR('',#1112,1.);
#1112=DIRECTION('',(1.,0.,0.));
#1113=CARTESIAN_POINT('',(-3.06103087654477E-16,2.37345437826568,-1.66634759707913));
#1114=CARTESIAN_POINT('',(-4.37457088982577E-16,3.08851225682873,-2.38140547564219));
#1115=VECTOR('',#1116,1.);
#1116=DIRECTION('',(1.29893408435324E-16,-0.707106781186548,0.707106781186547));
#1117=CARTESIAN_POINT('',(0.2,2.37345437826568,-1.66634759707913));
#1118=CARTESIAN_POINT('',(-3.06103087654477E-16,2.37345437826568,-1.66634759707913));
#1119=VECTOR('',#1120,1.);
#1120=DIRECTION('',(1.,0.,-1.11022302462516E-15));
#1121=CARTESIAN_POINT('',(0.2,3.08851225682873,-2.38140547564219));
#1122=VECTOR('',#1123,1.);
#1123=DIRECTION('',(1.64681682324684E-16,-0.707106781186548,0.707106781186547));
#1124=CARTESIAN_POINT('',(-4.359964960898E-16,1.66634759707913,-2.37345437826568));
#1125=AXIS2_PLACEMENT_3D('',#1126,#1127,#1128);
#1126=CARTESIAN_POINT('',(0.,0.,0.));
#1127=DIRECTION('',(-1.,0.,1.83697019872103E-16));
#1128=DIRECTION('',(-1.05552788846372E-16,0.818432544229547,-0.574602619682463));
#1129=CARTESIAN_POINT('',(0.2,1.66634759707913,-2.37345437826568));
#1130=CARTESIAN_POINT('',(-4.359964960898E-16,1.66634759707913,-2.37345437826568));
#1131=VECTOR('',#1132,1.);
#1132=DIRECTION('',(1.,0.,0.));
#1133=AXIS2_PLACEMENT_3D('',#1134,#1135,#1136);
#1134=CARTESIAN_POINT('',(0.2,0.,-3.67394039744206E-17));
#1135=DIRECTION('',(-1.,0.,1.83697019872103E-16));
#1136=DIRECTION('',(-1.05552788846372E-16,0.818432544229547,-0.574602619682463));
#1137=CARTESIAN_POINT('',(-4.359964960898E-16,1.66634759707913,-2.37345437826568));
#1138=VECTOR('',#1139,1.);
#1139=DIRECTION('',(-1.29893408435324E-16,0.707106781186547,-0.707106781186548));
#1140=CARTESIAN_POINT('',(0.2,1.66634759707913,-2.37345437826568));
#1141=VECTOR('',#1142,1.);
#1142=DIRECTION('',(-1.09787788216456E-16,0.707106781186547,-0.707106781186548));
#1143=CARTESIAN_POINT('',(2.9,-1.07156594925393E-16,1.75));
#1144=AXIS2_PLACEMENT_3D('',#1145,#1146,#1147);
#1145=CARTESIAN_POINT('',(2.9,0.,0.));
#1146=DIRECTION('',(-1.,0.,0.));
#1147=DIRECTION('',(0.,-6.12323399573677E-17,1.));
#1148=CARTESIAN_POINT('',(2.9,-1.,-6.2456986756515E-16));
#1149=AXIS2_PLACEMENT_3D('',#1150,#1151,#1152);
#1150=CARTESIAN_POINT('',(2.9,-1.25,-6.09261782575808E-16));
#1151=DIRECTION('',(1.,0.,0.));
#1152=DIRECTION('',(0.,1.,6.12323399573677E-17));
#1153=CARTESIAN_POINT('',(2.9,0.25,1.25));
#1154=AXIS2_PLACEMENT_3D('',#1155,#1156,#1157);
#1155=CARTESIAN_POINT('',(2.9,0.,1.25));
#1156=DIRECTION('',(1.,0.,0.));
#1157=DIRECTION('',(0.,1.,6.12323399573677E-17));
#1158=CARTESIAN_POINT('',(2.9,1.5,-4.71489017671731E-16));
#1159=AXIS2_PLACEMENT_3D('',#1160,#1161,#1162);
#1160=CARTESIAN_POINT('',(2.9,1.25,-4.56180932682389E-16));
#1161=DIRECTION('',(1.,0.,0.));
#1162=DIRECTION('',(0.,1.,6.12323399573677E-17));
#1163=CARTESIAN_POINT('',(2.9,0.25,-1.25));
#1164=AXIS2_PLACEMENT_3D('',#1165,#1166,#1167);
#1165=CARTESIAN_POINT('',(2.9,0.,-1.25));
#1166=DIRECTION('',(1.,0.,0.));
#1167=DIRECTION('',(0.,1.,6.12323399573677E-17));
#1168=CARTESIAN_POINT('',(0.50992723701833,0.25,1.25));
#1169=CARTESIAN_POINT('',(0.540910660189706,-1.83697019872101E-16,0.999999999999991));
#1170=CARTESIAN_POINT('',(0.509927237198205,0.249999999887596,1.24999999829563));
#1171=CARTESIAN_POINT('',(0.511196246258011,0.250003877225904,1.23960071182259));
#1172=CARTESIAN_POINT('',(0.513737392253488,0.248698924996145,1.21880982036845));
#1173=CARTESIAN_POINT('',(0.517501434613158,0.242889707492722,1.18811273818392));
#1174=CARTESIAN_POINT('',(0.521570130722988,0.232228485973206,1.15504593356787));
#1175=CARTESIAN_POINT('',(0.526198315267652,0.213789039495084,1.11759125592369));
#1176=CARTESIAN_POINT('',(0.531279801943841,0.183043354062611,1.07670026433834));
#1177=CARTESIAN_POINT('',(0.535713899089984,0.141295084702083,1.0412530245027));
#1178=CARTESIAN_POINT('',(0.538669836230322,0.0963262059597802,1.01775157577839));
#1179=CARTESIAN_POINT('',(0.54018376874956,0.0571139714299645,1.00575274474864));
#1180=CARTESIAN_POINT('',(0.540801714790074,0.0259812296457753,1.00086167005524));
#1181=CARTESIAN_POINT('',(0.540911064875378,0.00794310260233738,0.999997130280856));
#1182=CARTESIAN_POINT('',(0.540910660189705,2.5452821529158E-13,0.999999999999995));
#1183=CARTESIAN_POINT('',(0.479726759029788,-2.75545529679977E-16,1.49999999930223));
#1184=CARTESIAN_POINT('',(0.479726762965591,9.42718587315554E-10,1.49999999965112));
#1185=CARTESIAN_POINT('',(0.479724727618354,0.0132963313221441,1.50001764549339));
#1186=CARTESIAN_POINT('',(0.480007742486116,0.0425340595560139,1.4976535016023));
#1187=CARTESIAN_POINT('',(0.481460035626881,0.0890462870375016,1.48553223991182));
#1188=CARTESIAN_POINT('',(0.484433684438053,0.138771013776515,1.46073707724432));
#1189=CARTESIAN_POINT('',(0.489092271693027,0.184979103684267,1.42196847751904));
#1190=CARTESIAN_POINT('',(0.494861581533356,0.219517744933041,1.37410329417009));
#1191=CARTESIAN_POINT('',(0.500673807996914,0.239696666248385,1.32606351308739));
#1192=CARTESIAN_POINT('',(0.50565606018523,0.248442960955175,1.28503806154702));
#1193=CARTESIAN_POINT('',(0.508638327669357,0.250007221950107,1.26056145741223));
#1194=CARTESIAN_POINT('',(0.509927236989725,0.249999999887596,1.2500000000062));
#1195=CARTESIAN_POINT('',(0.479726759004247,-4.51665879658345E-16,1.49999999965112));
#1196=CARTESIAN_POINT('',(0.479726304215682,-0.0103815394270378,1.5000039965912));
#1197=CARTESIAN_POINT('',(0.479882075149864,-0.0311340876144373,1.49870310654257));
#1198=CARTESIAN_POINT('',(0.480575015613812,-0.061758896677248,1.49291885271933));
#1199=CARTESIAN_POINT('',(0.481846232463286,-0.0947334748441531,1.48231200310459));
#1200=CARTESIAN_POINT('',(0.484044094644969,-0.13206257173249,1.46398710612808));
#1201=CARTESIAN_POINT('',(0.487787986743629,-0.173688269819566,1.43281638417031));
#1202=CARTESIAN_POINT('',(0.493204574700953,-0.211626138806854,1.38783080787511));
#1203=CARTESIAN_POINT('',(0.499794827219194,-0.238215368833324,1.33330256179117));
#1204=CARTESIAN_POINT('',(0.505529490335025,-0.248594038389293,1.28607129832395));
#1205=CARTESIAN_POINT('',(0.509656039098164,-0.250320443124721,1.25221451884862));
#1206=CARTESIAN_POINT('',(0.5127559809932,-0.249363351806928,1.22683550553823));
#1207=CARTESIAN_POINT('',(0.516015595274308,-0.24564020114689,1.20021823875824));
#1208=CARTESIAN_POINT('',(0.520062441121476,-0.236801533323504,1.16728296805381));
#1209=CARTESIAN_POINT('',(0.524718333074774,-0.220716111029897,1.12954345283131));
#1210=CARTESIAN_POINT('',(0.529836106476693,-0.193187187412052,1.08829097554401));
#1211=CARTESIAN_POINT('',(0.534437706763486,-0.154973913457915,1.0514361537558));
#1212=CARTESIAN_POINT('',(0.537713576860488,-0.112911813300951,1.02534574293746));
#1213=CARTESIAN_POINT('',(0.539553105366915,-0.0753098523780969,1.01074936705834));
#1214=CARTESIAN_POINT('',(0.540399117331729,-0.0467758647975369,1.00404840120568));
#1215=CARTESIAN_POINT('',(0.540739134407179,-0.0274659128506791,1.00135719743817));
#1216=CARTESIAN_POINT('',(0.540881980008299,-0.0129659035838904,1.00022689257597));
#1217=CARTESIAN_POINT('',(0.540910696537911,-0.00442607723920691,0.999999737788491));
#1218=CARTESIAN_POINT('',(0.540910660332762,-2.79411237345275E-16,0.999999999999995));
#1219=CARTESIAN_POINT('',(0.400000000000001,-3.64487456952851E-16,1.98417730024484));
#1220=AXIS2_PLACEMENT_3D('',#1221,#1222,#1223);
#1221=CARTESIAN_POINT('',(0.400000000000001,0.,0.));
#1222=DIRECTION('',(-1.,0.,0.));
#1223=DIRECTION('',(0.,-6.12323399573676E-17,1.));
#1224=CARTESIAN_POINT('',(0.540910660201977,-1.,-1.91212186232206E-16));
#1225=CARTESIAN_POINT('',(0.540910660195913,-0.999999999999386,8.19585107246501E-10));
#1226=CARTESIAN_POINT('',(0.540910627836071,-1.00000024865207,-0.00898076482984096));
#1227=CARTESIAN_POINT('',(0.54077823576759,-1.00104757513085,-0.0284054668075458));
#1228=CARTESIAN_POINT('',(0.540096953847206,-1.00644016824431,-0.0597376748676806));
#1229=CARTESIAN_POINT('',(0.538669588760102,-1.01775541161669,-0.0954434643182888));
#1230=CARTESIAN_POINT('',(0.536148050480706,-1.03780106094712,-0.135063491488087));
#1231=CARTESIAN_POINT('',(0.532259215256909,-1.06885588599549,-0.175084797672426));
#1232=CARTESIAN_POINT('',(0.527324842601027,-1.10850051427587,-0.208218138727479));
#1233=CARTESIAN_POINT('',(0.522331965898743,-1.14886429496229,-0.22984987871098));
#1234=CARTESIAN_POINT('',(0.518145140001639,-1.18287447498505,-0.241464783069502));
#1235=CARTESIAN_POINT('',(0.514661780528244,-1.21126656194387,-0.247440852607402));
#1236=CARTESIAN_POINT('',(0.51202573344996,-1.23281200626098,-0.24967034421751));
#1237=CARTESIAN_POINT('',(0.509408342672018,-1.25424678778574,-0.250216272054382));
#1238=CARTESIAN_POINT('',(0.505815237226463,-1.28372685133303,-0.248714323110914));
#1239=CARTESIAN_POINT('',(0.50031497383033,-1.32901232539192,-0.239427004317143));
#1240=CARTESIAN_POINT('',(0.493855174593167,-1.38243684450527,-0.215097063553625));
#1241=CARTESIAN_POINT('',(0.487961299742394,-1.4313708366112,-0.175812876477717));
#1242=CARTESIAN_POINT('',(0.483429039091793,-1.46910816222428,-0.12568539486302));
#1243=CARTESIAN_POINT('',(0.480525928790806,-1.49332669178372,-0.0678047993725858));
#1244=CARTESIAN_POINT('',(0.479757540756188,-1.4997430106596,-0.0245329631033163));
#1245=CARTESIAN_POINT('',(0.479701121068862,-1.50021405007053,0.0169499787411306));
#1246=CARTESIAN_POINT('',(0.480264840172905,-1.49550681438157,0.0584185266889499));
#1247=CARTESIAN_POINT('',(0.482763356947671,-1.47465840945972,0.115442856049163));
#1248=CARTESIAN_POINT('',(0.486918604936059,-1.44004551892056,0.166154214019822));
#1249=CARTESIAN_POINT('',(0.492209781075571,-1.396085772815,0.205545554561898));
#1250=CARTESIAN_POINT('',(0.498059154494987,-1.34765002354502,0.232191084644305));
#1251=CARTESIAN_POINT('',(0.503842458200545,-1.29994708400428,0.246451067311292));
#1252=CARTESIAN_POINT('',(0.507817025702679,-1.26729564338087,0.249850482093903));
#1253=CARTESIAN_POINT('',(0.510910152194734,-1.2419433219516,0.250091825985711));
#1254=CARTESIAN_POINT('',(0.513340146870216,-1.22205896105945,0.248940011314064));
#1255=CARTESIAN_POINT('',(0.51660473340208,-1.19542147634703,0.244432537352027));
#1256=CARTESIAN_POINT('',(0.520077741653012,-1.16716382268737,0.236560432622076));
#1257=CARTESIAN_POINT('',(0.524255516384885,-1.13329212546845,0.22241904599661));
#1258=CARTESIAN_POINT('',(0.529180197641922,-1.09356425939489,0.197351051980321));
#1259=CARTESIAN_POINT('',(0.53387851910089,-1.05590113459347,0.160685614829871));
#1260=CARTESIAN_POINT('',(0.537352484522319,-1.02821604075087,0.118542259989336));
#1261=CARTESIAN_POINT('',(0.539394714118865,-1.01200438849291,0.079506260838299));
#1262=CARTESIAN_POINT('',(0.540407324982084,-1.00398311354079,0.0474473794526064));
#1263=CARTESIAN_POINT('',(0.540833632787788,-1.00060937505422,0.0217681082205428));
#1264=CARTESIAN_POINT('',(0.540910684598766,-0.999999812488117,0.00677247847732875));
#1265=CARTESIAN_POINT('',(0.540910660195913,-0.999999999999386,8.19585107246501E-10));
#1266=CARTESIAN_POINT('',(0.479726758956904,1.5,-2.68920360159181E-17));
#1267=CARTESIAN_POINT('',(0.47972675894182,1.49999999999807,2.27098236570134E-9));
#1268=CARTESIAN_POINT('',(0.479726752848313,1.50000006213513,-0.015817867264038));
#1269=CARTESIAN_POINT('',(0.480104261415208,1.49684784644729,-0.0489267053375386));
#1270=CARTESIAN_POINT('',(0.481925387709051,1.48164931973156,-0.0992083219180701));
#1271=CARTESIAN_POINT('',(0.485278678190352,1.45369819549679,-0.148934736606038));
#1272=CARTESIAN_POINT('',(0.490133354622445,1.41332011115417,-0.192414827863729));
#1273=CARTESIAN_POINT('',(0.496011132216964,1.36458593464032,-0.224611555494915));
#1274=CARTESIAN_POINT('',(0.502116228648948,1.31416241980306,-0.243426486946028));
#1275=CARTESIAN_POINT('',(0.506808701295787,1.27556948515852,-0.24939039680377));
#1276=CARTESIAN_POINT('',(0.510250186539562,1.24734816709744,-0.250223631890478));
#1277=CARTESIAN_POINT('',(0.512925999155324,1.22544561892732,-0.249227785600313));
#1278=CARTESIAN_POINT('',(0.516184922947407,1.19883992572916,-0.24527981265746));
#1279=CARTESIAN_POINT('',(0.520077380020579,1.16716182459782,-0.236751970066755));
#1280=CARTESIAN_POINT('',(0.524721810887983,1.12951541859208,-0.220697527823048));
#1281=CARTESIAN_POINT('',(0.52983608906977,1.08829111560112,-0.193187201866355));
#1282=CARTESIAN_POINT('',(0.534437704177084,1.0514361762634,-0.154974120841897));
#1283=CARTESIAN_POINT('',(0.537713586272104,1.02534566098922,-0.11291122662));
#1284=CARTESIAN_POINT('',(0.539653991560838,1.00994887075375,-0.0732488094940684));
#1285=CARTESIAN_POINT('',(0.540634356310514,1.00218587282541,-0.0381114072016683));
#1286=CARTESIAN_POINT('',(0.540892798855633,1.00014132018769,-0.0142415073809772));
#1287=CARTESIAN_POINT('',(0.540922988827518,0.999902458544387,0.00659829593903838));
#1288=CARTESIAN_POINT('',(0.540788416263874,1.00096706252167,0.0274366044638332));
#1289=CARTESIAN_POINT('',(0.540155786577004,1.00597430613106,0.0575788893636919));
#1290=CARTESIAN_POINT('',(0.538830745189024,1.01647722986196,0.0919542430035072));
#1291=CARTESIAN_POINT('',(0.536487035516945,1.03510245482167,0.130595242800343));
#1292=CARTESIAN_POINT('',(0.532771629517698,1.06475371320237,0.170736299564345));
#1293=CARTESIAN_POINT('',(0.527661379270961,1.10578225666114,0.206718244661962));
#1294=CARTESIAN_POINT('',(0.522041887915243,1.15120069547938,0.231436621996219));
#1295=CARTESIAN_POINT('',(0.516784378820979,1.19394239647309,0.244688152896598));
#1296=CARTESIAN_POINT('',(0.512860904662414,1.22597637610682,0.249336060855602));
#1297=CARTESIAN_POINT('',(0.509888460342739,1.2503118408787,0.250243062931256));
#1298=CARTESIAN_POINT('',(0.506297343243782,1.27976707152269,0.249090764699023));
#1299=CARTESIAN_POINT('',(0.501148004457059,1.32214152505222,0.241444137926971));
#1300=CARTESIAN_POINT('',(0.49499318025917,1.37301427622379,0.220144717622374));
#1301=CARTESIAN_POINT('',(0.489543267953017,1.41822694043313,0.187533978703394));
#1302=CARTESIAN_POINT('',(0.485220829058042,1.45418227993112,0.147445664531271));
#1303=CARTESIAN_POINT('',(0.482068961720609,1.48045180712694,0.101621849874732));
#1304=CARTESIAN_POINT('',(0.480151508274676,1.49645325831262,0.0515721191095318));
#1305=CARTESIAN_POINT('',(0.479726765519261,1.49999993292623,0.0170740921644418));
#1306=CARTESIAN_POINT('',(0.47972675894182,1.49999999999807,2.27098236570134E-9));
#1307=CARTESIAN_POINT('',(0.50992723709974,0.25,-1.25));
#1308=CARTESIAN_POINT('',(0.509927237004151,0.249999999887596,-1.25000000022058));
#1309=CARTESIAN_POINT('',(0.50911321781902,0.249999649324106,-1.25667044426231));
#1310=CARTESIAN_POINT('',(0.507575016734099,0.249494581619066,-1.26928744926279));
#1311=CARTESIAN_POINT('',(0.505009671730204,0.247044215310871,-1.29036644889542));
#1312=CARTESIAN_POINT('',(0.501720201507437,0.241474636522067,-1.31744753544849));
#1313=CARTESIAN_POINT('',(0.497126059980714,0.228356055184378,-1.35537093286495));
#1314=CARTESIAN_POINT('',(0.49171270311068,0.202605759556535,-1.4002094491663));
#1315=CARTESIAN_POINT('',(0.486479090023927,0.16198981607327,-1.4437027176825));
#1316=CARTESIAN_POINT('',(0.482431596691971,0.10992319153537,-1.47742516748797));
#1317=CARTESIAN_POINT('',(0.48017993250661,0.0542814872752872,-1.49621602123523));
#1318=CARTESIAN_POINT('',(0.4796787842211,0.0127763107669688,-1.50040054008864));
#1319=CARTESIAN_POINT('',(0.479797443195142,-0.0287005086963676,-1.49940988299172));
#1320=CARTESIAN_POINT('',(0.480737171536405,-0.0738176593194433,-1.49156329762329));
#1321=CARTESIAN_POINT('',(0.483803254778073,-0.13093927152354,-1.46598897975998));
#1322=CARTESIAN_POINT('',(0.488374955639042,-0.179060435638137,-1.42793220289077));
#1323=CARTESIAN_POINT('',(0.493986835384683,-0.215258485941739,-1.38135112905574));
#1324=CARTESIAN_POINT('',(0.499967706361654,-0.23812349999629,-1.33188525414032));
#1325=CARTESIAN_POINT('',(0.505352155741027,-0.248280589329559,-1.2875321689386));
#1326=CARTESIAN_POINT('',(0.508955794774527,-0.25017224138429,-1.25795623778848));
#1327=CARTESIAN_POINT('',(0.511858234283838,-0.249787836747463,-1.23418170814829));
#1328=CARTESIAN_POINT('',(0.51451435924436,-0.247720875111441,-1.21246743735291));
#1329=CARTESIAN_POINT('',(0.517846607769329,-0.241950303913047,-1.18530845865973));
#1330=CARTESIAN_POINT('',(0.521361730284407,-0.232699766359474,-1.15674144837363));
#1331=CARTESIAN_POINT('',(0.525497322285429,-0.21688822909112,-1.12325671272241));
#1332=CARTESIAN_POINT('',(0.53015689575638,-0.190611564606293,-1.08572104843796));
#1333=CARTESIAN_POINT('',(0.534222137403897,-0.156518171324952,-1.05316498680221));
#1334=CARTESIAN_POINT('',(0.537158079134721,-0.120373358101282,-1.02976692643181));
#1335=CARTESIAN_POINT('',(0.539014836518921,-0.0874600748259997,-1.01501787384415));
#1336=CARTESIAN_POINT('',(0.540184569347704,-0.0562794342404939,-1.00574646192047));
#1337=CARTESIAN_POINT('',(0.540789744442375,-0.0273103249026888,-1.00095655965971));
#1338=CARTESIAN_POINT('',(0.540923311217753,-0.00646874705961345,-0.999899907674676));
#1339=CARTESIAN_POINT('',(0.540892096476887,0.0143701124519527,-1.00014687778441));
#1340=CARTESIAN_POINT('',(0.54064329352993,0.0371420571514652,-1.00211516777237));
#1341=CARTESIAN_POINT('',(0.539783725728137,0.0688829243948614,-1.00892160288839));
#1342=CARTESIAN_POINT('',(0.538259900064242,0.1027185512014,-1.02100894920904));
#1343=CARTESIAN_POINT('',(0.535696942828943,0.140426659084161,-1.04139689460457));
#1344=CARTESIAN_POINT('',(0.531760626615296,0.179118128834703,-1.07285022646187));
#1345=CARTESIAN_POINT('',(0.526785006790218,0.21105779101013,-1.11285300119069));
#1346=CARTESIAN_POINT('',(0.521884179812922,0.231307079333638,-1.15249613887159));
#1347=CARTESIAN_POINT('',(0.517940082503062,0.241816979697052,-1.18454584097328));
#1348=CARTESIAN_POINT('',(0.514870503337982,0.247041518113042,-1.20956638208866));
#1349=CARTESIAN_POINT('',(0.51230953584311,0.249502682223117,-1.23049049517298));
#1350=CARTESIAN_POINT('',(0.51069074735987,0.250000328699078,-1.2437434485371));
#1351=CARTESIAN_POINT('',(0.509927237004151,0.249999999887596,-1.25000000022058));
#1352=CARTESIAN_POINT('',(-5.,0.25,-1.25));
#1353=AXIS2_PLACEMENT_3D('',#1354,#1355,#1356);
#1354=CARTESIAN_POINT('',(-5.,0.,-1.25));
#1355=DIRECTION('',(1.,0.,-1.83697019872103E-16));
#1356=DIRECTION('',(1.12481983699639E-32,1.,6.12323399573677E-17));
#1357=CARTESIAN_POINT('',(3.,0.25,-1.25));
#1358=AXIS2_PLACEMENT_3D('',#1359,#1360,#1361);
#1359=CARTESIAN_POINT('',(3.,0.,-1.25));
#1360=DIRECTION('',(1.,0.,-1.83697019872103E-16));
#1361=DIRECTION('',(1.12481983699639E-32,1.,6.12323399573677E-17));
#1362=CARTESIAN_POINT('',(-5.,1.5,9.79717439317883E-16));
#1363=AXIS2_PLACEMENT_3D('',#1364,#1365,#1366);
#1364=CARTESIAN_POINT('',(-5.,1.25,9.95025524307225E-16));
#1365=DIRECTION('',(1.,0.,-1.83697019872103E-16));
#1366=DIRECTION('',(1.12481983699639E-32,1.,6.12323399573677E-17));
#1367=CARTESIAN_POINT('',(3.,1.5,-4.89858719658941E-16));
#1368=AXIS2_PLACEMENT_3D('',#1369,#1370,#1371);
#1369=CARTESIAN_POINT('',(3.,1.25,-4.74550634669599E-16));
#1370=DIRECTION('',(1.,0.,-1.83697019872103E-16));
#1371=DIRECTION('',(1.12481983699639E-32,1.,6.12323399573677E-17));
#1372=CARTESIAN_POINT('',(-5.,0.25,1.25));
#1373=AXIS2_PLACEMENT_3D('',#1374,#1375,#1376);
#1374=CARTESIAN_POINT('',(-5.,0.,1.25));
#1375=DIRECTION('',(1.,0.,-1.83697019872103E-16));
#1376=DIRECTION('',(1.12481983699639E-32,1.,6.12323399573677E-17));
#1377=CARTESIAN_POINT('',(3.,0.25,1.25));
#1378=AXIS2_PLACEMENT_3D('',#1379,#1380,#1381);
#1379=CARTESIAN_POINT('',(3.,0.,1.25));
#1380=DIRECTION('',(1.,0.,-1.83697019872103E-16));
#1381=DIRECTION('',(1.12481983699639E-32,1.,6.12323399573677E-17));
#1382=CARTESIAN_POINT('',(-5.,-1.,8.26636589424463E-16));
#1383=AXIS2_PLACEMENT_3D('',#1384,#1385,#1386);
#1384=CARTESIAN_POINT('',(-5.,-1.25,8.41944674413805E-16));
#1385=DIRECTION('',(1.,0.,-1.83697019872103E-16));
#1386=DIRECTION('',(1.12481983699639E-32,1.,6.12323399573677E-17));
#1387=CARTESIAN_POINT('',(3.,-1.,-6.42939569552361E-16));
#1388=AXIS2_PLACEMENT_3D('',#1389,#1390,#1391);
#1389=CARTESIAN_POINT('',(3.,-1.25,-6.27631484563019E-16));
#1390=DIRECTION('',(1.,0.,-1.83697019872103E-16));
#1391=DIRECTION('',(1.12481983699639E-32,1.,6.12323399573677E-17));
#1392=CARTESIAN_POINT('',(2.5,-1.3164953090834E-16,2.15));
#1393=AXIS2_PLACEMENT_3D('',#1394,#1395,#1396);
#1394=CARTESIAN_POINT('',(2.5,0.,0.));
#1395=DIRECTION('',(-1.,0.,0.));
#1396=DIRECTION('',(0.,-6.12323399573677E-17,1.));
#1397=CARTESIAN_POINT('',(-8.4117094861807E-17,-1.53080849893419E-16,2.5));
#1398=AXIS2_PLACEMENT_3D('',#1399,#1400,#1401);
#1399=CARTESIAN_POINT('',(-4.44089209850063E-16,0.,0.));
#1400=DIRECTION('',(-1.,0.,0.));
#1401=DIRECTION('',(0.,-6.12323399573677E-17,1.));
#1402=CARTESIAN_POINT('',(0.6,-1.31649530908341E-16,2.15));
#1403=AXIS2_PLACEMENT_3D('',#1404,#1405,#1406);
#1404=CARTESIAN_POINT('',(0.599999999999999,0.,0.));
#1405=DIRECTION('',(-1.,0.,0.));
#1406=DIRECTION('',(0.,-6.12323399573677E-17,1.));
#1407=CARTESIAN_POINT('',(-0.000587301846857845,-1.77573785876366E-16,2.9));
#1408=AXIS2_PLACEMENT_3D('',#1409,#1410,#1411);
#1409=CARTESIAN_POINT('',(-0.000587301846858068,0.,0.));
#1410=DIRECTION('',(-1.,0.,0.));
#1411=DIRECTION('',(0.,-6.12323399573677E-17,1.));
#1412=CARTESIAN_POINT('',(0.199999963121508,-1.53080849893419E-16,2.5));
#1413=AXIS2_PLACEMENT_3D('',#1414,#1415,#1416);
#1414=CARTESIAN_POINT('',(0.199999963121508,0.,0.));
#1415=DIRECTION('',(-1.,0.,0.));
#1416=DIRECTION('',(0.,-6.12323399573677E-17,1.));
#1417=CARTESIAN_POINT('',(0.199999963121507,-1.77573785876366E-16,2.9));
#1418=AXIS2_PLACEMENT_3D('',#1419,#1420,#1421);
#1419=CARTESIAN_POINT('',(0.199999963121508,0.,0.));
#1420=DIRECTION('',(-1.,0.,0.));
#1421=DIRECTION('',(0.,-6.12323399573677E-17,1.));
ENDSEC;
END-ISO-10303-21;
