ISO-10303-21;
HEADER;
FILE_DESCRIPTION(('STEP AP214'),
    '1');
FILE_NAME('TO-18_6',
    '2024-02-22T08:57:30',
    (''),
    (''),
    'C3D Converter',
    'C3D Toolkit',
    '');
/**/
FILE_SCHEMA(('AUTOMOTIVE_DESIGN { 1 0 10303 214 3 1 1}'));
ENDSEC;

DATA;
#1=PRODUCT_DEFINITION('','UNSPECIFIED',#78,#81);
#2=SHAPE_DEFINITION_REPRESENTATION(#76,#3);
#3=SHAPE_REPRESENTATION('NONE',(#4),#8);
#4=AXIS2_PLACEMENT_3D('',#5,#6,#7);
#5=CARTESIAN_POINT('',(0.,0.,0.));
#6=DIRECTION('',(0.,0.,1.));
#7=DIRECTION('',(1.,0.,0.));
#8=(GEOMETRIC_REPRESENTATION_CONTEXT(3)GLOBAL_UNCERTAINTY_ASSIGNED_CONTEXT((#10))
GLOBAL_UNIT_ASSIGNED_CONTEXT((#9,#11,#12))REPRESENTATION_CONTEXT('NONE','NONE'));
#9=(LENGTH_UNIT()NAMED_UNIT(*)SI_UNIT(.MILLI.,.METRE.));
#10=UNCERTAINTY_MEASURE_WITH_UNIT(LENGTH_MEASURE(1.E-5),#9,'NONE','NONE');
#11=(NAMED_UNIT(*)PLANE_ANGLE_UNIT()SI_UNIT($,.RADIAN.));
#12=(NAMED_UNIT(*)SI_UNIT($,.STERADIAN.)SOLID_ANGLE_UNIT());
#13=MANIFOLD_SOLID_BREP('',#14);
#14=CLOSED_SHELL('',(#103,#112,#121,#130,#139,#148,#157,#166,#175,#184,#193));
#15=COLOUR_RGB('',0.564705882352941,0.564705882352941,0.564705882352941);
#16=FILL_AREA_STYLE_COLOUR('',#15);
#17=FILL_AREA_STYLE($,(#16));
#18=SURFACE_STYLE_FILL_AREA(#17);
#19=SURFACE_SIDE_STYLE('',(#18));
#20=SURFACE_STYLE_USAGE(.BOTH.,#19);
#21=PRESENTATION_STYLE_ASSIGNMENT((#20));
#22=MECHANICAL_DESIGN_GEOMETRIC_PRESENTATION_REPRESENTATION('NONE',(#23,#33,#43,
#53,#63,#73,#111,#120,#129,#138,#147,#156,#165,#174,#183,#192,#201,#210,#219,#228,
#237,#246,#255,#264,#273,#282,#291,#300,#309,#318,#327,#336,#345,#354,#363,#372,
#381,#390,#399,#408,#417,#426,#435,#444,#453,#462,#471,#480,#489,#498,#507,#516,
#525,#534,#543,#552,#561,#570,#579,#588,#597),#8);
#23=STYLED_ITEM('',(#21),#13);
#24=MANIFOLD_SOLID_BREP('',#25);
#25=CLOSED_SHELL('',(#202,#211,#220,#229,#238,#247));
#26=COLOUR_RGB('',0.564705882352941,0.564705882352941,0.564705882352941);
#27=FILL_AREA_STYLE_COLOUR('',#26);
#28=FILL_AREA_STYLE($,(#27));
#29=SURFACE_STYLE_FILL_AREA(#28);
#30=SURFACE_SIDE_STYLE('',(#29));
#31=SURFACE_STYLE_USAGE(.BOTH.,#30);
#32=PRESENTATION_STYLE_ASSIGNMENT((#31));
#33=STYLED_ITEM('',(#32),#24);
#34=MANIFOLD_SOLID_BREP('',#35);
#35=CLOSED_SHELL('',(#256,#265,#274,#283,#292,#301,#310));
#36=COLOUR_RGB('',0.564705882352941,0.564705882352941,0.564705882352941);
#37=FILL_AREA_STYLE_COLOUR('',#36);
#38=FILL_AREA_STYLE($,(#37));
#39=SURFACE_STYLE_FILL_AREA(#38);
#40=SURFACE_SIDE_STYLE('',(#39));
#41=SURFACE_STYLE_USAGE(.BOTH.,#40);
#42=PRESENTATION_STYLE_ASSIGNMENT((#41));
#43=STYLED_ITEM('',(#42),#34);
#44=MANIFOLD_SOLID_BREP('',#45);
#45=CLOSED_SHELL('',(#319,#328,#337,#346,#355,#364,#373));
#46=COLOUR_RGB('',0.564705882352941,0.564705882352941,0.564705882352941);
#47=FILL_AREA_STYLE_COLOUR('',#46);
#48=FILL_AREA_STYLE($,(#47));
#49=SURFACE_STYLE_FILL_AREA(#48);
#50=SURFACE_SIDE_STYLE('',(#49));
#51=SURFACE_STYLE_USAGE(.BOTH.,#50);
#52=PRESENTATION_STYLE_ASSIGNMENT((#51));
#53=STYLED_ITEM('',(#52),#44);
#54=MANIFOLD_SOLID_BREP('',#55);
#55=CLOSED_SHELL('',(#382,#391,#400,#409,#418,#427,#436));
#56=COLOUR_RGB('',0.564705882352941,0.564705882352941,0.564705882352941);
#57=FILL_AREA_STYLE_COLOUR('',#56);
#58=FILL_AREA_STYLE($,(#57));
#59=SURFACE_STYLE_FILL_AREA(#58);
#60=SURFACE_SIDE_STYLE('',(#59));
#61=SURFACE_STYLE_USAGE(.BOTH.,#60);
#62=PRESENTATION_STYLE_ASSIGNMENT((#61));
#63=STYLED_ITEM('',(#62),#54);
#64=MANIFOLD_SOLID_BREP('',#65);
#65=CLOSED_SHELL('',(#445,#454,#463,#472,#481,#490,#499,#508,#517,#526,#535,#544,
#553,#562,#571,#580,#589));
#66=COLOUR_RGB('',0.564705882352941,0.564705882352941,0.564705882352941);
#67=FILL_AREA_STYLE_COLOUR('',#66);
#68=FILL_AREA_STYLE($,(#67));
#69=SURFACE_STYLE_FILL_AREA(#68);
#70=SURFACE_SIDE_STYLE('',(#69));
#71=SURFACE_STYLE_USAGE(.BOTH.,#70);
#72=PRESENTATION_STYLE_ASSIGNMENT((#71));
#73=STYLED_ITEM('',(#72),#64);
#74=ADVANCED_BREP_SHAPE_REPRESENTATION('NONE',(#13,#24,#34,#44,#54,#64),#8);
#75=SHAPE_REPRESENTATION_RELATIONSHIP('','',#3,#74);
#76=PRODUCT_DEFINITION_SHAPE('NONE','NONE',#1);
#77=MECHANICAL_CONTEXT('NONE',#82,'mechanical');
#78=PRODUCT_DEFINITION_FORMATION_WITH_SPECIFIED_SOURCE('ANY','UNSPECIFIED',#79,.NOT_KNOWN.);
#79=PRODUCT('','TO-18_6','NONE',(#77));
#80=PRODUCT_RELATED_PRODUCT_CATEGORY('detail','',(#79));
#81=DESIGN_CONTEXT('detailed design',#82,'design');
#82=APPLICATION_CONTEXT('configuration controlled 3d designs of mechanical parts and assemblies');
#83=APPLICATION_PROTOCOL_DEFINITION('international standard','config_control_design',
1994,#82);
#84=CC_DESIGN_DATE_AND_TIME_ASSIGNMENT(#85,#89,(#1));
#85=DATE_AND_TIME(#86,#87);
#86=CALENDAR_DATE(0,1,1);
#87=LOCAL_TIME(0,0,0.,#88);
#88=COORDINATED_UNIVERSAL_TIME_OFFSET(0,0,.AHEAD.);
#89=DATE_TIME_ROLE('creation_date');
#90=CC_DESIGN_APPROVAL(#91,(#1));
#91=APPROVAL(#92,'UNSPECIFIED');
#92=APPROVAL_STATUS('not_yet_approved');
#93=APPROVAL_DATE_TIME(#94,#91);
#94=DATE_AND_TIME(#95,#96);
#95=CALENDAR_DATE(0,1,1);
#96=LOCAL_TIME(0,0,0.,#97);
#97=COORDINATED_UNIVERSAL_TIME_OFFSET(0,0,.AHEAD.);
#98=PERSON('UNSPECIFIED','UNSPECIFIED','UNSPECIFIED',('UNSPECIFIED'),('UNSPECIFIED'),
('UNSPECIFIED'));
#99=ORGANIZATION('UNSPECIFIED','UNSPECIFIED','UNSPECIFIED');
#100=PERSON_AND_ORGANIZATION(#98,#99);
#101=PERSON_AND_ORGANIZATION_ROLE('creator');
#102=CC_DESIGN_PERSON_AND_ORGANIZATION_ASSIGNMENT(#100,#101,(#78,#1));
#103=ADVANCED_FACE('',(#598),#600,.T.);
#104=COLOUR_RGB('',1.,1.,1.);
#105=FILL_AREA_STYLE_COLOUR('',#104);
#106=FILL_AREA_STYLE($,(#105));
#107=SURFACE_STYLE_FILL_AREA(#106);
#108=SURFACE_SIDE_STYLE('',(#107));
#109=SURFACE_STYLE_USAGE(.BOTH.,#108);
#110=PRESENTATION_STYLE_ASSIGNMENT((#109));
#111=STYLED_ITEM('',(#110),#103);
#112=ADVANCED_FACE('',(#605,#607),#609,.F.);
#113=COLOUR_RGB('',1.,1.,1.);
#114=FILL_AREA_STYLE_COLOUR('',#113);
#115=FILL_AREA_STYLE($,(#114));
#116=SURFACE_STYLE_FILL_AREA(#115);
#117=SURFACE_SIDE_STYLE('',(#116));
#118=SURFACE_STYLE_USAGE(.BOTH.,#117);
#119=PRESENTATION_STYLE_ASSIGNMENT((#118));
#120=STYLED_ITEM('',(#119),#112);
#121=ADVANCED_FACE('',(#614,#616),#618,.F.);
#122=COLOUR_RGB('',1.,1.,1.);
#123=FILL_AREA_STYLE_COLOUR('',#122);
#124=FILL_AREA_STYLE($,(#123));
#125=SURFACE_STYLE_FILL_AREA(#124);
#126=SURFACE_SIDE_STYLE('',(#125));
#127=SURFACE_STYLE_USAGE(.BOTH.,#126);
#128=PRESENTATION_STYLE_ASSIGNMENT((#127));
#129=STYLED_ITEM('',(#128),#121);
#130=ADVANCED_FACE('',(#623,#625),#627,.T.);
#131=COLOUR_RGB('',1.,1.,1.);
#132=FILL_AREA_STYLE_COLOUR('',#131);
#133=FILL_AREA_STYLE($,(#132));
#134=SURFACE_STYLE_FILL_AREA(#133);
#135=SURFACE_SIDE_STYLE('',(#134));
#136=SURFACE_STYLE_USAGE(.BOTH.,#135);
#137=PRESENTATION_STYLE_ASSIGNMENT((#136));
#138=STYLED_ITEM('',(#137),#130);
#139=ADVANCED_FACE('',(#632,#634),#636,.T.);
#140=COLOUR_RGB('',1.,1.,1.);
#141=FILL_AREA_STYLE_COLOUR('',#140);
#142=FILL_AREA_STYLE($,(#141));
#143=SURFACE_STYLE_FILL_AREA(#142);
#144=SURFACE_SIDE_STYLE('',(#143));
#145=SURFACE_STYLE_USAGE(.BOTH.,#144);
#146=PRESENTATION_STYLE_ASSIGNMENT((#145));
#147=STYLED_ITEM('',(#146),#139);
#148=ADVANCED_FACE('',(#641,#643),#645,.T.);
#149=COLOUR_RGB('',1.,1.,1.);
#150=FILL_AREA_STYLE_COLOUR('',#149);
#151=FILL_AREA_STYLE($,(#150));
#152=SURFACE_STYLE_FILL_AREA(#151);
#153=SURFACE_SIDE_STYLE('',(#152));
#154=SURFACE_STYLE_USAGE(.BOTH.,#153);
#155=PRESENTATION_STYLE_ASSIGNMENT((#154));
#156=STYLED_ITEM('',(#155),#148);
#157=ADVANCED_FACE('',(#650,#652),#654,.T.);
#158=COLOUR_RGB('',1.,1.,1.);
#159=FILL_AREA_STYLE_COLOUR('',#158);
#160=FILL_AREA_STYLE($,(#159));
#161=SURFACE_STYLE_FILL_AREA(#160);
#162=SURFACE_SIDE_STYLE('',(#161));
#163=SURFACE_STYLE_USAGE(.BOTH.,#162);
#164=PRESENTATION_STYLE_ASSIGNMENT((#163));
#165=STYLED_ITEM('',(#164),#157);
#166=ADVANCED_FACE('',(#659,#661),#663,.F.);
#167=COLOUR_RGB('',1.,1.,1.);
#168=FILL_AREA_STYLE_COLOUR('',#167);
#169=FILL_AREA_STYLE($,(#168));
#170=SURFACE_STYLE_FILL_AREA(#169);
#171=SURFACE_SIDE_STYLE('',(#170));
#172=SURFACE_STYLE_USAGE(.BOTH.,#171);
#173=PRESENTATION_STYLE_ASSIGNMENT((#172));
#174=STYLED_ITEM('',(#173),#166);
#175=ADVANCED_FACE('',(#668,#670),#672,.T.);
#176=COLOUR_RGB('',1.,1.,1.);
#177=FILL_AREA_STYLE_COLOUR('',#176);
#178=FILL_AREA_STYLE($,(#177));
#179=SURFACE_STYLE_FILL_AREA(#178);
#180=SURFACE_SIDE_STYLE('',(#179));
#181=SURFACE_STYLE_USAGE(.BOTH.,#180);
#182=PRESENTATION_STYLE_ASSIGNMENT((#181));
#183=STYLED_ITEM('',(#182),#175);
#184=ADVANCED_FACE('',(#677,#679),#681,.T.);
#185=COLOUR_RGB('',1.,1.,1.);
#186=FILL_AREA_STYLE_COLOUR('',#185);
#187=FILL_AREA_STYLE($,(#186));
#188=SURFACE_STYLE_FILL_AREA(#187);
#189=SURFACE_SIDE_STYLE('',(#188));
#190=SURFACE_STYLE_USAGE(.BOTH.,#189);
#191=PRESENTATION_STYLE_ASSIGNMENT((#190));
#192=STYLED_ITEM('',(#191),#184);
#193=ADVANCED_FACE('',(#686),#688,.T.);
#194=COLOUR_RGB('',1.,1.,1.);
#195=FILL_AREA_STYLE_COLOUR('',#194);
#196=FILL_AREA_STYLE($,(#195));
#197=SURFACE_STYLE_FILL_AREA(#196);
#198=SURFACE_SIDE_STYLE('',(#197));
#199=SURFACE_STYLE_USAGE(.BOTH.,#198);
#200=PRESENTATION_STYLE_ASSIGNMENT((#199));
#201=STYLED_ITEM('',(#200),#193);
#202=ADVANCED_FACE('',(#693),#695,.T.);
#203=COLOUR_RGB('',1.,0.854901960784314,0.258823529411765);
#204=FILL_AREA_STYLE_COLOUR('',#203);
#205=FILL_AREA_STYLE($,(#204));
#206=SURFACE_STYLE_FILL_AREA(#205);
#207=SURFACE_SIDE_STYLE('',(#206));
#208=SURFACE_STYLE_USAGE(.BOTH.,#207);
#209=PRESENTATION_STYLE_ASSIGNMENT((#208));
#210=STYLED_ITEM('',(#209),#202);
#211=ADVANCED_FACE('',(#700),#702,.T.);
#212=COLOUR_RGB('',1.,0.854901960784314,0.258823529411765);
#213=FILL_AREA_STYLE_COLOUR('',#212);
#214=FILL_AREA_STYLE($,(#213));
#215=SURFACE_STYLE_FILL_AREA(#214);
#216=SURFACE_SIDE_STYLE('',(#215));
#217=SURFACE_STYLE_USAGE(.BOTH.,#216);
#218=PRESENTATION_STYLE_ASSIGNMENT((#217));
#219=STYLED_ITEM('',(#218),#211);
#220=ADVANCED_FACE('',(#707),#709,.F.);
#221=COLOUR_RGB('',1.,0.854901960784314,0.258823529411765);
#222=FILL_AREA_STYLE_COLOUR('',#221);
#223=FILL_AREA_STYLE($,(#222));
#224=SURFACE_STYLE_FILL_AREA(#223);
#225=SURFACE_SIDE_STYLE('',(#224));
#226=SURFACE_STYLE_USAGE(.BOTH.,#225);
#227=PRESENTATION_STYLE_ASSIGNMENT((#226));
#228=STYLED_ITEM('',(#227),#220);
#229=ADVANCED_FACE('',(#714),#716,.T.);
#230=COLOUR_RGB('',1.,0.854901960784314,0.258823529411765);
#231=FILL_AREA_STYLE_COLOUR('',#230);
#232=FILL_AREA_STYLE($,(#231));
#233=SURFACE_STYLE_FILL_AREA(#232);
#234=SURFACE_SIDE_STYLE('',(#233));
#235=SURFACE_STYLE_USAGE(.BOTH.,#234);
#236=PRESENTATION_STYLE_ASSIGNMENT((#235));
#237=STYLED_ITEM('',(#236),#229);
#238=ADVANCED_FACE('',(#721),#723,.T.);
#239=COLOUR_RGB('',1.,0.854901960784314,0.258823529411765);
#240=FILL_AREA_STYLE_COLOUR('',#239);
#241=FILL_AREA_STYLE($,(#240));
#242=SURFACE_STYLE_FILL_AREA(#241);
#243=SURFACE_SIDE_STYLE('',(#242));
#244=SURFACE_STYLE_USAGE(.BOTH.,#243);
#245=PRESENTATION_STYLE_ASSIGNMENT((#244));
#246=STYLED_ITEM('',(#245),#238);
#247=ADVANCED_FACE('',(#728),#730,.F.);
#248=COLOUR_RGB('',1.,0.854901960784314,0.258823529411765);
#249=FILL_AREA_STYLE_COLOUR('',#248);
#250=FILL_AREA_STYLE($,(#249));
#251=SURFACE_STYLE_FILL_AREA(#250);
#252=SURFACE_SIDE_STYLE('',(#251));
#253=SURFACE_STYLE_USAGE(.BOTH.,#252);
#254=PRESENTATION_STYLE_ASSIGNMENT((#253));
#255=STYLED_ITEM('',(#254),#247);
#256=ADVANCED_FACE('',(#735,#737),#739,.T.);
#257=COLOUR_RGB('',1.,0.854901960784314,0.258823529411765);
#258=FILL_AREA_STYLE_COLOUR('',#257);
#259=FILL_AREA_STYLE($,(#258));
#260=SURFACE_STYLE_FILL_AREA(#259);
#261=SURFACE_SIDE_STYLE('',(#260));
#262=SURFACE_STYLE_USAGE(.BOTH.,#261);
#263=PRESENTATION_STYLE_ASSIGNMENT((#262));
#264=STYLED_ITEM('',(#263),#256);
#265=ADVANCED_FACE('',(#744,#746),#748,.T.);
#266=COLOUR_RGB('',1.,0.854901960784314,0.258823529411765);
#267=FILL_AREA_STYLE_COLOUR('',#266);
#268=FILL_AREA_STYLE($,(#267));
#269=SURFACE_STYLE_FILL_AREA(#268);
#270=SURFACE_SIDE_STYLE('',(#269));
#271=SURFACE_STYLE_USAGE(.BOTH.,#270);
#272=PRESENTATION_STYLE_ASSIGNMENT((#271));
#273=STYLED_ITEM('',(#272),#265);
#274=ADVANCED_FACE('',(#753,#755),#757,.T.);
#275=COLOUR_RGB('',1.,0.854901960784314,0.258823529411765);
#276=FILL_AREA_STYLE_COLOUR('',#275);
#277=FILL_AREA_STYLE($,(#276));
#278=SURFACE_STYLE_FILL_AREA(#277);
#279=SURFACE_SIDE_STYLE('',(#278));
#280=SURFACE_STYLE_USAGE(.BOTH.,#279);
#281=PRESENTATION_STYLE_ASSIGNMENT((#280));
#282=STYLED_ITEM('',(#281),#274);
#283=ADVANCED_FACE('',(#762,#764),#766,.T.);
#284=COLOUR_RGB('',1.,0.854901960784314,0.258823529411765);
#285=FILL_AREA_STYLE_COLOUR('',#284);
#286=FILL_AREA_STYLE($,(#285));
#287=SURFACE_STYLE_FILL_AREA(#286);
#288=SURFACE_SIDE_STYLE('',(#287));
#289=SURFACE_STYLE_USAGE(.BOTH.,#288);
#290=PRESENTATION_STYLE_ASSIGNMENT((#289));
#291=STYLED_ITEM('',(#290),#283);
#292=ADVANCED_FACE('',(#771,#773),#775,.T.);
#293=COLOUR_RGB('',1.,0.854901960784314,0.258823529411765);
#294=FILL_AREA_STYLE_COLOUR('',#293);
#295=FILL_AREA_STYLE($,(#294));
#296=SURFACE_STYLE_FILL_AREA(#295);
#297=SURFACE_SIDE_STYLE('',(#296));
#298=SURFACE_STYLE_USAGE(.BOTH.,#297);
#299=PRESENTATION_STYLE_ASSIGNMENT((#298));
#300=STYLED_ITEM('',(#299),#292);
#301=ADVANCED_FACE('',(#780),#782,.T.);
#302=COLOUR_RGB('',1.,0.854901960784314,0.258823529411765);
#303=FILL_AREA_STYLE_COLOUR('',#302);
#304=FILL_AREA_STYLE($,(#303));
#305=SURFACE_STYLE_FILL_AREA(#304);
#306=SURFACE_SIDE_STYLE('',(#305));
#307=SURFACE_STYLE_USAGE(.BOTH.,#306);
#308=PRESENTATION_STYLE_ASSIGNMENT((#307));
#309=STYLED_ITEM('',(#308),#301);
#310=ADVANCED_FACE('',(#787),#789,.F.);
#311=COLOUR_RGB('',1.,0.854901960784314,0.258823529411765);
#312=FILL_AREA_STYLE_COLOUR('',#311);
#313=FILL_AREA_STYLE($,(#312));
#314=SURFACE_STYLE_FILL_AREA(#313);
#315=SURFACE_SIDE_STYLE('',(#314));
#316=SURFACE_STYLE_USAGE(.BOTH.,#315);
#317=PRESENTATION_STYLE_ASSIGNMENT((#316));
#318=STYLED_ITEM('',(#317),#310);
#319=ADVANCED_FACE('',(#794,#796),#798,.T.);
#320=COLOUR_RGB('',1.,0.854901960784314,0.258823529411765);
#321=FILL_AREA_STYLE_COLOUR('',#320);
#322=FILL_AREA_STYLE($,(#321));
#323=SURFACE_STYLE_FILL_AREA(#322);
#324=SURFACE_SIDE_STYLE('',(#323));
#325=SURFACE_STYLE_USAGE(.BOTH.,#324);
#326=PRESENTATION_STYLE_ASSIGNMENT((#325));
#327=STYLED_ITEM('',(#326),#319);
#328=ADVANCED_FACE('',(#803,#805),#807,.T.);
#329=COLOUR_RGB('',1.,0.854901960784314,0.258823529411765);
#330=FILL_AREA_STYLE_COLOUR('',#329);
#331=FILL_AREA_STYLE($,(#330));
#332=SURFACE_STYLE_FILL_AREA(#331);
#333=SURFACE_SIDE_STYLE('',(#332));
#334=SURFACE_STYLE_USAGE(.BOTH.,#333);
#335=PRESENTATION_STYLE_ASSIGNMENT((#334));
#336=STYLED_ITEM('',(#335),#328);
#337=ADVANCED_FACE('',(#812,#814),#816,.T.);
#338=COLOUR_RGB('',1.,0.854901960784314,0.258823529411765);
#339=FILL_AREA_STYLE_COLOUR('',#338);
#340=FILL_AREA_STYLE($,(#339));
#341=SURFACE_STYLE_FILL_AREA(#340);
#342=SURFACE_SIDE_STYLE('',(#341));
#343=SURFACE_STYLE_USAGE(.BOTH.,#342);
#344=PRESENTATION_STYLE_ASSIGNMENT((#343));
#345=STYLED_ITEM('',(#344),#337);
#346=ADVANCED_FACE('',(#821,#823),#825,.T.);
#347=COLOUR_RGB('',1.,0.854901960784314,0.258823529411765);
#348=FILL_AREA_STYLE_COLOUR('',#347);
#349=FILL_AREA_STYLE($,(#348));
#350=SURFACE_STYLE_FILL_AREA(#349);
#351=SURFACE_SIDE_STYLE('',(#350));
#352=SURFACE_STYLE_USAGE(.BOTH.,#351);
#353=PRESENTATION_STYLE_ASSIGNMENT((#352));
#354=STYLED_ITEM('',(#353),#346);
#355=ADVANCED_FACE('',(#830,#832),#834,.T.);
#356=COLOUR_RGB('',1.,0.854901960784314,0.258823529411765);
#357=FILL_AREA_STYLE_COLOUR('',#356);
#358=FILL_AREA_STYLE($,(#357));
#359=SURFACE_STYLE_FILL_AREA(#358);
#360=SURFACE_SIDE_STYLE('',(#359));
#361=SURFACE_STYLE_USAGE(.BOTH.,#360);
#362=PRESENTATION_STYLE_ASSIGNMENT((#361));
#363=STYLED_ITEM('',(#362),#355);
#364=ADVANCED_FACE('',(#839),#841,.T.);
#365=COLOUR_RGB('',1.,0.854901960784314,0.258823529411765);
#366=FILL_AREA_STYLE_COLOUR('',#365);
#367=FILL_AREA_STYLE($,(#366));
#368=SURFACE_STYLE_FILL_AREA(#367);
#369=SURFACE_SIDE_STYLE('',(#368));
#370=SURFACE_STYLE_USAGE(.BOTH.,#369);
#371=PRESENTATION_STYLE_ASSIGNMENT((#370));
#372=STYLED_ITEM('',(#371),#364);
#373=ADVANCED_FACE('',(#846),#848,.F.);
#374=COLOUR_RGB('',1.,0.854901960784314,0.258823529411765);
#375=FILL_AREA_STYLE_COLOUR('',#374);
#376=FILL_AREA_STYLE($,(#375));
#377=SURFACE_STYLE_FILL_AREA(#376);
#378=SURFACE_SIDE_STYLE('',(#377));
#379=SURFACE_STYLE_USAGE(.BOTH.,#378);
#380=PRESENTATION_STYLE_ASSIGNMENT((#379));
#381=STYLED_ITEM('',(#380),#373);
#382=ADVANCED_FACE('',(#853,#855),#857,.T.);
#383=COLOUR_RGB('',1.,0.854901960784314,0.258823529411765);
#384=FILL_AREA_STYLE_COLOUR('',#383);
#385=FILL_AREA_STYLE($,(#384));
#386=SURFACE_STYLE_FILL_AREA(#385);
#387=SURFACE_SIDE_STYLE('',(#386));
#388=SURFACE_STYLE_USAGE(.BOTH.,#387);
#389=PRESENTATION_STYLE_ASSIGNMENT((#388));
#390=STYLED_ITEM('',(#389),#382);
#391=ADVANCED_FACE('',(#862,#864),#866,.T.);
#392=COLOUR_RGB('',1.,0.854901960784314,0.258823529411765);
#393=FILL_AREA_STYLE_COLOUR('',#392);
#394=FILL_AREA_STYLE($,(#393));
#395=SURFACE_STYLE_FILL_AREA(#394);
#396=SURFACE_SIDE_STYLE('',(#395));
#397=SURFACE_STYLE_USAGE(.BOTH.,#396);
#398=PRESENTATION_STYLE_ASSIGNMENT((#397));
#399=STYLED_ITEM('',(#398),#391);
#400=ADVANCED_FACE('',(#871,#873),#875,.T.);
#401=COLOUR_RGB('',1.,0.854901960784314,0.258823529411765);
#402=FILL_AREA_STYLE_COLOUR('',#401);
#403=FILL_AREA_STYLE($,(#402));
#404=SURFACE_STYLE_FILL_AREA(#403);
#405=SURFACE_SIDE_STYLE('',(#404));
#406=SURFACE_STYLE_USAGE(.BOTH.,#405);
#407=PRESENTATION_STYLE_ASSIGNMENT((#406));
#408=STYLED_ITEM('',(#407),#400);
#409=ADVANCED_FACE('',(#880,#882),#884,.T.);
#410=COLOUR_RGB('',1.,0.854901960784314,0.258823529411765);
#411=FILL_AREA_STYLE_COLOUR('',#410);
#412=FILL_AREA_STYLE($,(#411));
#413=SURFACE_STYLE_FILL_AREA(#412);
#414=SURFACE_SIDE_STYLE('',(#413));
#415=SURFACE_STYLE_USAGE(.BOTH.,#414);
#416=PRESENTATION_STYLE_ASSIGNMENT((#415));
#417=STYLED_ITEM('',(#416),#409);
#418=ADVANCED_FACE('',(#889,#891),#893,.T.);
#419=COLOUR_RGB('',1.,0.854901960784314,0.258823529411765);
#420=FILL_AREA_STYLE_COLOUR('',#419);
#421=FILL_AREA_STYLE($,(#420));
#422=SURFACE_STYLE_FILL_AREA(#421);
#423=SURFACE_SIDE_STYLE('',(#422));
#424=SURFACE_STYLE_USAGE(.BOTH.,#423);
#425=PRESENTATION_STYLE_ASSIGNMENT((#424));
#426=STYLED_ITEM('',(#425),#418);
#427=ADVANCED_FACE('',(#898),#900,.T.);
#428=COLOUR_RGB('',1.,0.854901960784314,0.258823529411765);
#429=FILL_AREA_STYLE_COLOUR('',#428);
#430=FILL_AREA_STYLE($,(#429));
#431=SURFACE_STYLE_FILL_AREA(#430);
#432=SURFACE_SIDE_STYLE('',(#431));
#433=SURFACE_STYLE_USAGE(.BOTH.,#432);
#434=PRESENTATION_STYLE_ASSIGNMENT((#433));
#435=STYLED_ITEM('',(#434),#427);
#436=ADVANCED_FACE('',(#905),#907,.F.);
#437=COLOUR_RGB('',1.,0.854901960784314,0.258823529411765);
#438=FILL_AREA_STYLE_COLOUR('',#437);
#439=FILL_AREA_STYLE($,(#438));
#440=SURFACE_STYLE_FILL_AREA(#439);
#441=SURFACE_SIDE_STYLE('',(#440));
#442=SURFACE_STYLE_USAGE(.BOTH.,#441);
#443=PRESENTATION_STYLE_ASSIGNMENT((#442));
#444=STYLED_ITEM('',(#443),#436);
#445=ADVANCED_FACE('',(#912,#914),#916,.T.);
#446=COLOUR_RGB('',1.,0.854901960784314,0.258823529411765);
#447=FILL_AREA_STYLE_COLOUR('',#446);
#448=FILL_AREA_STYLE($,(#447));
#449=SURFACE_STYLE_FILL_AREA(#448);
#450=SURFACE_SIDE_STYLE('',(#449));
#451=SURFACE_STYLE_USAGE(.BOTH.,#450);
#452=PRESENTATION_STYLE_ASSIGNMENT((#451));
#453=STYLED_ITEM('',(#452),#445);
#454=ADVANCED_FACE('',(#921,#923),#925,.T.);
#455=COLOUR_RGB('',0.4,0.2,0.);
#456=FILL_AREA_STYLE_COLOUR('',#455);
#457=FILL_AREA_STYLE($,(#456));
#458=SURFACE_STYLE_FILL_AREA(#457);
#459=SURFACE_SIDE_STYLE('',(#458));
#460=SURFACE_STYLE_USAGE(.BOTH.,#459);
#461=PRESENTATION_STYLE_ASSIGNMENT((#460));
#462=STYLED_ITEM('',(#461),#454);
#463=ADVANCED_FACE('',(#930,#932),#934,.T.);
#464=COLOUR_RGB('',1.,0.854901960784314,0.258823529411765);
#465=FILL_AREA_STYLE_COLOUR('',#464);
#466=FILL_AREA_STYLE($,(#465));
#467=SURFACE_STYLE_FILL_AREA(#466);
#468=SURFACE_SIDE_STYLE('',(#467));
#469=SURFACE_STYLE_USAGE(.BOTH.,#468);
#470=PRESENTATION_STYLE_ASSIGNMENT((#469));
#471=STYLED_ITEM('',(#470),#463);
#472=ADVANCED_FACE('',(#939,#941),#943,.T.);
#473=COLOUR_RGB('',1.,0.854901960784314,0.258823529411765);
#474=FILL_AREA_STYLE_COLOUR('',#473);
#475=FILL_AREA_STYLE($,(#474));
#476=SURFACE_STYLE_FILL_AREA(#475);
#477=SURFACE_SIDE_STYLE('',(#476));
#478=SURFACE_STYLE_USAGE(.BOTH.,#477);
#479=PRESENTATION_STYLE_ASSIGNMENT((#478));
#480=STYLED_ITEM('',(#479),#472);
#481=ADVANCED_FACE('',(#948,#950),#952,.T.);
#482=COLOUR_RGB('',1.,0.854901960784314,0.258823529411765);
#483=FILL_AREA_STYLE_COLOUR('',#482);
#484=FILL_AREA_STYLE($,(#483));
#485=SURFACE_STYLE_FILL_AREA(#484);
#486=SURFACE_SIDE_STYLE('',(#485));
#487=SURFACE_STYLE_USAGE(.BOTH.,#486);
#488=PRESENTATION_STYLE_ASSIGNMENT((#487));
#489=STYLED_ITEM('',(#488),#481);
#490=ADVANCED_FACE('',(#957,#959),#961,.T.);
#491=COLOUR_RGB('',1.,0.854901960784314,0.258823529411765);
#492=FILL_AREA_STYLE_COLOUR('',#491);
#493=FILL_AREA_STYLE($,(#492));
#494=SURFACE_STYLE_FILL_AREA(#493);
#495=SURFACE_SIDE_STYLE('',(#494));
#496=SURFACE_STYLE_USAGE(.BOTH.,#495);
#497=PRESENTATION_STYLE_ASSIGNMENT((#496));
#498=STYLED_ITEM('',(#497),#490);
#499=ADVANCED_FACE('',(#966,#968),#970,.T.);
#500=COLOUR_RGB('',1.,0.854901960784314,0.258823529411765);
#501=FILL_AREA_STYLE_COLOUR('',#500);
#502=FILL_AREA_STYLE($,(#501));
#503=SURFACE_STYLE_FILL_AREA(#502);
#504=SURFACE_SIDE_STYLE('',(#503));
#505=SURFACE_STYLE_USAGE(.BOTH.,#504);
#506=PRESENTATION_STYLE_ASSIGNMENT((#505));
#507=STYLED_ITEM('',(#506),#499);
#508=ADVANCED_FACE('',(#975),#977,.F.);
#509=COLOUR_RGB('',1.,0.854901960784314,0.258823529411765);
#510=FILL_AREA_STYLE_COLOUR('',#509);
#511=FILL_AREA_STYLE($,(#510));
#512=SURFACE_STYLE_FILL_AREA(#511);
#513=SURFACE_SIDE_STYLE('',(#512));
#514=SURFACE_STYLE_USAGE(.BOTH.,#513);
#515=PRESENTATION_STYLE_ASSIGNMENT((#514));
#516=STYLED_ITEM('',(#515),#508);
#517=ADVANCED_FACE('',(#982,#984),#986,.T.);
#518=COLOUR_RGB('',1.,0.854901960784314,0.258823529411765);
#519=FILL_AREA_STYLE_COLOUR('',#518);
#520=FILL_AREA_STYLE($,(#519));
#521=SURFACE_STYLE_FILL_AREA(#520);
#522=SURFACE_SIDE_STYLE('',(#521));
#523=SURFACE_STYLE_USAGE(.BOTH.,#522);
#524=PRESENTATION_STYLE_ASSIGNMENT((#523));
#525=STYLED_ITEM('',(#524),#517);
#526=ADVANCED_FACE('',(#991,#993),#995,.F.);
#527=COLOUR_RGB('',1.,0.854901960784314,0.258823529411765);
#528=FILL_AREA_STYLE_COLOUR('',#527);
#529=FILL_AREA_STYLE($,(#528));
#530=SURFACE_STYLE_FILL_AREA(#529);
#531=SURFACE_SIDE_STYLE('',(#530));
#532=SURFACE_STYLE_USAGE(.BOTH.,#531);
#533=PRESENTATION_STYLE_ASSIGNMENT((#532));
#534=STYLED_ITEM('',(#533),#526);
#535=ADVANCED_FACE('',(#1000,#1002),#1004,.T.);
#536=COLOUR_RGB('',1.,0.854901960784314,0.258823529411765);
#537=FILL_AREA_STYLE_COLOUR('',#536);
#538=FILL_AREA_STYLE($,(#537));
#539=SURFACE_STYLE_FILL_AREA(#538);
#540=SURFACE_SIDE_STYLE('',(#539));
#541=SURFACE_STYLE_USAGE(.BOTH.,#540);
#542=PRESENTATION_STYLE_ASSIGNMENT((#541));
#543=STYLED_ITEM('',(#542),#535);
#544=ADVANCED_FACE('',(#1009,#1011),#1013,.F.);
#545=COLOUR_RGB('',1.,0.854901960784314,0.258823529411765);
#546=FILL_AREA_STYLE_COLOUR('',#545);
#547=FILL_AREA_STYLE($,(#546));
#548=SURFACE_STYLE_FILL_AREA(#547);
#549=SURFACE_SIDE_STYLE('',(#548));
#550=SURFACE_STYLE_USAGE(.BOTH.,#549);
#551=PRESENTATION_STYLE_ASSIGNMENT((#550));
#552=STYLED_ITEM('',(#551),#544);
#553=ADVANCED_FACE('',(#1018,#1020),#1022,.T.);
#554=COLOUR_RGB('',1.,0.854901960784314,0.258823529411765);
#555=FILL_AREA_STYLE_COLOUR('',#554);
#556=FILL_AREA_STYLE($,(#555));
#557=SURFACE_STYLE_FILL_AREA(#556);
#558=SURFACE_SIDE_STYLE('',(#557));
#559=SURFACE_STYLE_USAGE(.BOTH.,#558);
#560=PRESENTATION_STYLE_ASSIGNMENT((#559));
#561=STYLED_ITEM('',(#560),#553);
#562=ADVANCED_FACE('',(#1027,#1029),#1031,.T.);
#563=COLOUR_RGB('',1.,0.854901960784314,0.258823529411765);
#564=FILL_AREA_STYLE_COLOUR('',#563);
#565=FILL_AREA_STYLE($,(#564));
#566=SURFACE_STYLE_FILL_AREA(#565);
#567=SURFACE_SIDE_STYLE('',(#566));
#568=SURFACE_STYLE_USAGE(.BOTH.,#567);
#569=PRESENTATION_STYLE_ASSIGNMENT((#568));
#570=STYLED_ITEM('',(#569),#562);
#571=ADVANCED_FACE('',(#1036,#1038),#1040,.T.);
#572=COLOUR_RGB('',1.,0.854901960784314,0.258823529411765);
#573=FILL_AREA_STYLE_COLOUR('',#572);
#574=FILL_AREA_STYLE($,(#573));
#575=SURFACE_STYLE_FILL_AREA(#574);
#576=SURFACE_SIDE_STYLE('',(#575));
#577=SURFACE_STYLE_USAGE(.BOTH.,#576);
#578=PRESENTATION_STYLE_ASSIGNMENT((#577));
#579=STYLED_ITEM('',(#578),#571);
#580=ADVANCED_FACE('',(#1045,#1047),#1049,.T.);
#581=COLOUR_RGB('',1.,0.854901960784314,0.258823529411765);
#582=FILL_AREA_STYLE_COLOUR('',#581);
#583=FILL_AREA_STYLE($,(#582));
#584=SURFACE_STYLE_FILL_AREA(#583);
#585=SURFACE_SIDE_STYLE('',(#584));
#586=SURFACE_STYLE_USAGE(.BOTH.,#585);
#587=PRESENTATION_STYLE_ASSIGNMENT((#586));
#588=STYLED_ITEM('',(#587),#580);
#589=ADVANCED_FACE('',(#1054),#1056,.T.);
#590=COLOUR_RGB('',1.,0.854901960784314,0.258823529411765);
#591=FILL_AREA_STYLE_COLOUR('',#590);
#592=FILL_AREA_STYLE($,(#591));
#593=SURFACE_STYLE_FILL_AREA(#592);
#594=SURFACE_SIDE_STYLE('',(#593));
#595=SURFACE_STYLE_USAGE(.BOTH.,#594);
#596=PRESENTATION_STYLE_ASSIGNMENT((#595));
#597=STYLED_ITEM('',(#596),#589);
#598=FACE_BOUND('',#599,.T.);
#599=EDGE_LOOP('',(#1061));
#600=PLANE('',#601);
#601=AXIS2_PLACEMENT_3D('',#602,#603,#604);
#602=CARTESIAN_POINT('',(6.2,0.,0.));
#603=DIRECTION('',(-1.,0.,0.));
#604=DIRECTION('',(0.,-6.12323399573677E-17,1.));
#605=FACE_OUTER_BOUND('',#606,.T.);
#606=EDGE_LOOP('',(#1062));
#607=FACE_OUTER_BOUND('',#608,.T.);
#608=EDGE_LOOP('',(#1063));
#609=TOROIDAL_SURFACE('',#610,1.89902423754531,0.299512913492573);
#610=AXIS2_PLACEMENT_3D('',#611,#612,#613);
#611=CARTESIAN_POINT('',(5.90048867594726,0.,0.));
#612=DIRECTION('',(-1.,0.,0.));
#613=DIRECTION('',(0.,-6.12323399573677E-17,1.));
#614=FACE_OUTER_BOUND('',#615,.T.);
#615=EDGE_LOOP('',(#1064));
#616=FACE_OUTER_BOUND('',#617,.T.);
#617=EDGE_LOOP('',(#1065));
#618=CYLINDRICAL_SURFACE('',#619,2.19853675238344);
#619=AXIS2_PLACEMENT_3D('',#620,#621,#622);
#620=CARTESIAN_POINT('',(0.697631832510304,0.,0.));
#621=DIRECTION('',(-1.,0.,0.));
#622=DIRECTION('',(0.,-6.12323399573677E-17,1.));
#623=FACE_OUTER_BOUND('',#624,.T.);
#624=EDGE_LOOP('',(#1066));
#625=FACE_OUTER_BOUND('',#626,.T.);
#626=EDGE_LOOP('',(#1067));
#627=TOROIDAL_SURFACE('',#628,2.69420137106153,0.495664618678092);
#628=AXIS2_PLACEMENT_3D('',#629,#630,#631);
#629=CARTESIAN_POINT('',(0.697631832510304,0.,0.));
#630=DIRECTION('',(-1.,0.,0.));
#631=DIRECTION('',(0.,-6.12323399573677E-17,1.));
#632=FACE_BOUND('',#633,.T.);
#633=EDGE_LOOP('',(#1068));
#634=FACE_BOUND('',#635,.T.);
#635=EDGE_LOOP('',(#1069));
#636=PLANE('',#637);
#637=AXIS2_PLACEMENT_3D('',#638,#639,#640);
#638=CARTESIAN_POINT('',(0.201999999999999,0.,0.));
#639=DIRECTION('',(-1.,0.,0.));
#640=DIRECTION('',(0.,-6.12323399573677E-17,1.));
#641=FACE_OUTER_BOUND('',#642,.T.);
#642=EDGE_LOOP('',(#1070));
#643=FACE_OUTER_BOUND('',#644,.T.);
#644=EDGE_LOOP('',(#1071));
#645=CYLINDRICAL_SURFACE('',#646,2.88);
#646=AXIS2_PLACEMENT_3D('',#647,#648,#649);
#647=CARTESIAN_POINT('',(0.399999999999999,0.,0.));
#648=DIRECTION('',(-1.,0.,0.));
#649=DIRECTION('',(0.,-6.12323399573677E-17,1.));
#650=FACE_BOUND('',#651,.T.);
#651=EDGE_LOOP('',(#1072));
#652=FACE_BOUND('',#653,.T.);
#653=EDGE_LOOP('',(#1073));
#654=PLANE('',#655);
#655=AXIS2_PLACEMENT_3D('',#656,#657,#658);
#656=CARTESIAN_POINT('',(0.399999999999999,0.,0.));
#657=DIRECTION('',(1.,0.,0.));
#658=DIRECTION('',(0.,-6.12323399573677E-17,1.));
#659=FACE_OUTER_BOUND('',#660,.T.);
#660=EDGE_LOOP('',(#1074));
#661=FACE_OUTER_BOUND('',#662,.T.);
#662=EDGE_LOOP('',(#1075));
#663=TOROIDAL_SURFACE('',#664,2.80403288966602,0.304259749751121);
#664=AXIS2_PLACEMENT_3D('',#665,#666,#667);
#665=CARTESIAN_POINT('',(0.685884606448139,0.,0.));
#666=DIRECTION('',(-1.,0.,0.));
#667=DIRECTION('',(0.,-6.12323399573677E-17,1.));
#668=FACE_OUTER_BOUND('',#669,.T.);
#669=EDGE_LOOP('',(#1076));
#670=FACE_OUTER_BOUND('',#671,.T.);
#671=EDGE_LOOP('',(#1077));
#672=CYLINDRICAL_SURFACE('',#673,2.5);
#673=AXIS2_PLACEMENT_3D('',#674,#675,#676);
#674=CARTESIAN_POINT('',(5.9,0.,0.));
#675=DIRECTION('',(-1.,0.,0.));
#676=DIRECTION('',(0.,-6.12323399573677E-17,1.));
#677=FACE_OUTER_BOUND('',#678,.T.);
#678=EDGE_LOOP('',(#1078));
#679=FACE_OUTER_BOUND('',#680,.T.);
#680=EDGE_LOOP('',(#1079));
#681=TOROIDAL_SURFACE('',#682,1.9,0.6);
#682=AXIS2_PLACEMENT_3D('',#683,#684,#685);
#683=CARTESIAN_POINT('',(5.9,0.,0.));
#684=DIRECTION('',(-1.,0.,0.));
#685=DIRECTION('',(0.,-6.12323399573677E-17,1.));
#686=FACE_BOUND('',#687,.T.);
#687=EDGE_LOOP('',(#1080));
#688=PLANE('',#689);
#689=AXIS2_PLACEMENT_3D('',#690,#691,#692);
#690=CARTESIAN_POINT('',(6.5,0.,0.));
#691=DIRECTION('',(1.,0.,0.));
#692=DIRECTION('',(0.,-6.12323399573676E-17,1.));
#693=FACE_BOUND('',#694,.T.);
#694=EDGE_LOOP('',(#1081,#1082,#1083,#1084));
#695=CYLINDRICAL_SURFACE('',#696,3.9);
#696=AXIS2_PLACEMENT_3D('',#697,#698,#699);
#697=CARTESIAN_POINT('',(2.32496913559418E-30,-1.28785870856518E-14,1.26565424807268E-14));
#698=DIRECTION('',(1.,0.,-1.83697019872103E-16));
#699=DIRECTION('',(-1.45474486517411E-16,0.610616788626203,-0.791926219699678));
#700=FACE_BOUND('',#701,.T.);
#701=EDGE_LOOP('',(#1085,#1086,#1087,#1088));
#702=PLANE('',#703);
#703=AXIS2_PLACEMENT_3D('',#704,#705,#706);
#704=CARTESIAN_POINT('',(-4.37457088982577E-16,3.08851225682873,-2.38140547564219));
#705=DIRECTION('',(1.23259516440783E-32,0.707106781186547,0.707106781186548));
#706=DIRECTION('',(1.29893408435324E-16,-0.707106781186548,0.707106781186547));
#707=FACE_BOUND('',#708,.T.);
#708=EDGE_LOOP('',(#1089,#1090,#1091,#1092));
#709=CYLINDRICAL_SURFACE('',#710,2.89999999999999);
#710=AXIS2_PLACEMENT_3D('',#711,#712,#713);
#711=CARTESIAN_POINT('',(0.,0.,0.));
#712=DIRECTION('',(-1.,0.,1.83697019872103E-16));
#713=DIRECTION('',(-1.05552788846372E-16,0.818432544229548,-0.574602619682463));
#714=FACE_BOUND('',#715,.T.);
#715=EDGE_LOOP('',(#1093,#1094,#1095,#1096));
#716=PLANE('',#717);
#717=AXIS2_PLACEMENT_3D('',#718,#719,#720);
#718=CARTESIAN_POINT('',(-4.359964960898E-16,1.66634759707913,-2.37345437826568));
#719=DIRECTION('',(-1.23259516440783E-32,-0.707106781186548,-0.707106781186547));
#720=DIRECTION('',(-1.29893408435324E-16,0.707106781186547,-0.707106781186548));
#721=FACE_BOUND('',#722,.T.);
#722=EDGE_LOOP('',(#1097,#1098,#1099,#1100));
#723=PLANE('',#724);
#724=AXIS2_PLACEMENT_3D('',#725,#726,#727);
#725=CARTESIAN_POINT('',(0.2,0.,-3.67394039744206E-17));
#726=DIRECTION('',(1.,0.,-1.83697019872103E-16));
#727=DIRECTION('',(1.12481983699639E-32,1.,6.12323399573677E-17));
#728=FACE_BOUND('',#729,.T.);
#729=EDGE_LOOP('',(#1101,#1102,#1103,#1104));
#730=PLANE('',#731);
#731=AXIS2_PLACEMENT_3D('',#732,#733,#734);
#732=CARTESIAN_POINT('',(0.,0.,0.));
#733=DIRECTION('',(1.,0.,-1.83697019872103E-16));
#734=DIRECTION('',(1.12481983699639E-32,1.,6.12323399573677E-17));
#735=FACE_OUTER_BOUND('',#736,.T.);
#736=EDGE_LOOP('',(#1105));
#737=FACE_OUTER_BOUND('',#738,.T.);
#738=EDGE_LOOP('',(#1106));
#739=CYLINDRICAL_SURFACE('',#740,0.25);
#740=AXIS2_PLACEMENT_3D('',#741,#742,#743);
#741=CARTESIAN_POINT('',(3.,1.59286390663839E-16,1.25));
#742=DIRECTION('',(-1.,7.47656106691163E-33,-1.34685750539824E-16));
#743=DIRECTION('',(1.57236847313793E-32,1.,-6.12323399573677E-17));
#744=FACE_OUTER_BOUND('',#745,.T.);
#745=EDGE_LOOP('',(#1107));
#746=FACE_OUTER_BOUND('',#747,.T.);
#747=EDGE_LOOP('',(#1108));
#748=TOROIDAL_SURFACE('',#749,1.,0.25);
#749=AXIS2_PLACEMENT_3D('',#750,#751,#752);
#750=CARTESIAN_POINT('',(-0.297224896250285,9.80540507064709E-17,2.25));
#751=DIRECTION('',(0.,1.,6.12323399573677E-17));
#752=DIRECTION('',(-5.55111512312578E-17,6.12323399573677E-17,-1.));
#753=FACE_OUTER_BOUND('',#754,.T.);
#754=EDGE_LOOP('',(#1109));
#755=FACE_OUTER_BOUND('',#756,.T.);
#756=EDGE_LOOP('',(#1110));
#757=CYLINDRICAL_SURFACE('',#758,0.25);
#758=AXIS2_PLACEMENT_3D('',#759,#760,#761);
#759=CARTESIAN_POINT('',(-0.990333612502073,1.42192345989053E-16,1.52916693509815));
#760=DIRECTION('',(-0.720833064901858,-4.24406685409439E-17,0.693108716251783));
#761=DIRECTION('',(-7.30333057217962E-17,1.,-1.47222979933008E-17));
#762=FACE_OUTER_BOUND('',#763,.T.);
#763=EDGE_LOOP('',(#1111));
#764=FACE_OUTER_BOUND('',#765,.T.);
#765=EDGE_LOOP('',(#1112));
#766=TOROIDAL_SURFACE('',#767,0.999999999999998,0.25);
#767=AXIS2_PLACEMENT_3D('',#768,#769,#770);
#768=CARTESIAN_POINT('',(-2.40277510374971,1.43978305674497E-16,1.5));
#769=DIRECTION('',(-6.16297582203915E-33,-1.,-6.12323399573677E-17));
#770=DIRECTION('',(0.693108716251783,-4.41382952825818E-17,0.720833064901858));
#771=FACE_OUTER_BOUND('',#772,.T.);
#772=EDGE_LOOP('',(#1113));
#773=FACE_OUTER_BOUND('',#774,.T.);
#774=EDGE_LOOP('',(#1114));
#775=CYLINDRICAL_SURFACE('',#776,0.25);
#776=AXIS2_PLACEMENT_3D('',#777,#778,#779);
#777=CARTESIAN_POINT('',(-2.40277510374971,8.27459657171292E-17,2.5));
#778=DIRECTION('',(-1.,-1.89832642708358E-32,5.1295813137847E-16));
#779=DIRECTION('',(-5.03928909552983E-32,1.,-6.12323399573677E-17));
#780=FACE_BOUND('',#781,.T.);
#781=EDGE_LOOP('',(#1115));
#782=PLANE('',#783);
#783=AXIS2_PLACEMENT_3D('',#784,#785,#786);
#784=CARTESIAN_POINT('',(-5.00000000000001,-7.65404249467094E-17,1.25));
#785=DIRECTION('',(-1.,0.,5.6621374255883E-15));
#786=DIRECTION('',(-3.45126646034193E-31,1.,-6.12323399573677E-17));
#787=FACE_BOUND('',#788,.T.);
#788=EDGE_LOOP('',(#1116));
#789=PLANE('',#790);
#790=AXIS2_PLACEMENT_3D('',#791,#792,#793);
#791=CARTESIAN_POINT('',(3.,0.,-1.83697019872103E-16));
#792=DIRECTION('',(-1.,0.,-6.12323399573677E-17));
#793=DIRECTION('',(3.74939945665464E-33,1.,-6.12323399573677E-17));
#794=FACE_OUTER_BOUND('',#795,.T.);
#795=EDGE_LOOP('',(#1117));
#796=FACE_OUTER_BOUND('',#797,.T.);
#797=EDGE_LOOP('',(#1118));
#798=CYLINDRICAL_SURFACE('',#799,0.25);
#799=AXIS2_PLACEMENT_3D('',#800,#801,#802);
#800=CARTESIAN_POINT('',(3.,-1.25,-1.07156594925393E-16));
#801=DIRECTION('',(-1.,1.34685750539824E-16,0.));
#802=DIRECTION('',(1.34685750539824E-16,1.,-6.12323399573677E-17));
#803=FACE_OUTER_BOUND('',#804,.T.);
#804=EDGE_LOOP('',(#1119));
#805=FACE_OUTER_BOUND('',#806,.T.);
#806=EDGE_LOOP('',(#1120));
#807=TOROIDAL_SURFACE('',#808,1.,0.25);
#808=AXIS2_PLACEMENT_3D('',#809,#810,#811);
#809=CARTESIAN_POINT('',(-0.297224896250285,-2.25,-1.07156594925393E-16));
#810=DIRECTION('',(0.,0.,1.));
#811=DIRECTION('',(0.,1.,0.));
#812=FACE_OUTER_BOUND('',#813,.T.);
#813=EDGE_LOOP('',(#1121));
#814=FACE_OUTER_BOUND('',#815,.T.);
#815=EDGE_LOOP('',(#1122));
#816=CYLINDRICAL_SURFACE('',#817,0.25);
#817=AXIS2_PLACEMENT_3D('',#818,#819,#820);
#818=CARTESIAN_POINT('',(-0.99033361250207,-1.52916693509814,-1.07156594925393E-16));
#819=DIRECTION('',(-0.720833064901856,-0.693108716251785,0.));
#820=DIRECTION('',(-0.693108716251785,0.720833064901856,-6.12323399573677E-17));
#821=FACE_OUTER_BOUND('',#822,.T.);
#822=EDGE_LOOP('',(#1123));
#823=FACE_OUTER_BOUND('',#824,.T.);
#824=EDGE_LOOP('',(#1124));
#825=TOROIDAL_SURFACE('',#826,1.,0.25);
#826=AXIS2_PLACEMENT_3D('',#827,#828,#829);
#827=CARTESIAN_POINT('',(-2.40277510374971,-1.5,-1.07156594925393E-16));
#828=DIRECTION('',(0.,0.,-1.));
#829=DIRECTION('',(0.693108716251785,-0.720833064901856,0.));
#830=FACE_OUTER_BOUND('',#831,.T.);
#831=EDGE_LOOP('',(#1125));
#832=FACE_OUTER_BOUND('',#833,.T.);
#833=EDGE_LOOP('',(#1126));
#834=CYLINDRICAL_SURFACE('',#835,0.25);
#835=AXIS2_PLACEMENT_3D('',#836,#837,#838);
#836=CARTESIAN_POINT('',(-2.40277510374971,-2.5,-1.07156594925393E-16));
#837=DIRECTION('',(-1.,1.70986043792823E-16,0.));
#838=DIRECTION('',(1.70986043792823E-16,1.,-6.12323399573677E-17));
#839=FACE_BOUND('',#840,.T.);
#840=EDGE_LOOP('',(#1127));
#841=PLANE('',#842);
#842=AXIS2_PLACEMENT_3D('',#843,#844,#845);
#843=CARTESIAN_POINT('',(-5.,-1.25,-1.83697019872103E-16));
#844=DIRECTION('',(-1.,5.55111512312578E-16,-6.12323399573677E-17));
#845=DIRECTION('',(5.55111512312578E-16,1.,-6.12323399573677E-17));
#846=FACE_BOUND('',#847,.T.);
#847=EDGE_LOOP('',(#1128));
#848=PLANE('',#849);
#849=AXIS2_PLACEMENT_3D('',#850,#851,#852);
#850=CARTESIAN_POINT('',(3.,0.,-1.83697019872103E-16));
#851=DIRECTION('',(-1.,0.,-6.12323399573677E-17));
#852=DIRECTION('',(3.74939945665464E-33,1.,-6.12323399573677E-17));
#853=FACE_OUTER_BOUND('',#854,.T.);
#854=EDGE_LOOP('',(#1129));
#855=FACE_OUTER_BOUND('',#856,.T.);
#856=EDGE_LOOP('',(#1130));
#857=CYLINDRICAL_SURFACE('',#858,0.25);
#858=AXIS2_PLACEMENT_3D('',#859,#860,#861);
#859=CARTESIAN_POINT('',(3.,1.25,-2.60237444818813E-16));
#860=DIRECTION('',(-1.,6.73428752699119E-17,0.));
#861=DIRECTION('',(6.73428752699119E-17,1.,-6.12323399573677E-17));
#862=FACE_OUTER_BOUND('',#863,.T.);
#863=EDGE_LOOP('',(#1131));
#864=FACE_OUTER_BOUND('',#865,.T.);
#865=EDGE_LOOP('',(#1132));
#866=TOROIDAL_SURFACE('',#867,1.,0.25);
#867=AXIS2_PLACEMENT_3D('',#868,#869,#870);
#868=CARTESIAN_POINT('',(-0.297224896250285,2.25,-2.60237444818813E-16));
#869=DIRECTION('',(0.,0.,-1.));
#870=DIRECTION('',(0.,-1.,0.));
#871=FACE_OUTER_BOUND('',#872,.T.);
#872=EDGE_LOOP('',(#1133));
#873=FACE_OUTER_BOUND('',#874,.T.);
#874=EDGE_LOOP('',(#1134));
#875=CYLINDRICAL_SURFACE('',#876,0.25);
#876=AXIS2_PLACEMENT_3D('',#877,#878,#879);
#877=CARTESIAN_POINT('',(-0.990333612502069,1.52916693509814,-2.60237444818813E-16));
#878=DIRECTION('',(-0.720833064901855,0.693108716251785,0.));
#879=DIRECTION('',(0.693108716251785,0.720833064901855,-6.12323399573677E-17));
#880=FACE_OUTER_BOUND('',#881,.T.);
#881=EDGE_LOOP('',(#1135));
#882=FACE_OUTER_BOUND('',#883,.T.);
#883=EDGE_LOOP('',(#1136));
#884=TOROIDAL_SURFACE('',#885,1.,0.25);
#885=AXIS2_PLACEMENT_3D('',#886,#887,#888);
#886=CARTESIAN_POINT('',(-2.40277510374971,1.5,-2.60237444818813E-16));
#887=DIRECTION('',(0.,0.,1.));
#888=DIRECTION('',(0.693108716251786,0.720833064901855,0.));
#889=FACE_OUTER_BOUND('',#890,.T.);
#890=EDGE_LOOP('',(#1137));
#891=FACE_OUTER_BOUND('',#892,.T.);
#892=EDGE_LOOP('',(#1138));
#893=CYLINDRICAL_SURFACE('',#894,0.25);
#894=AXIS2_PLACEMENT_3D('',#895,#896,#897);
#895=CARTESIAN_POINT('',(-2.40277510374971,2.5,-2.60237444818813E-16));
#896=DIRECTION('',(-1.,5.1295813137847E-16,0.));
#897=DIRECTION('',(5.1295813137847E-16,1.,-6.12323399573677E-17));
#898=FACE_BOUND('',#899,.T.);
#899=EDGE_LOOP('',(#1139));
#900=PLANE('',#901);
#901=AXIS2_PLACEMENT_3D('',#902,#903,#904);
#902=CARTESIAN_POINT('',(-5.,1.25,-1.83697019872103E-16));
#903=DIRECTION('',(-1.,-1.16573417585641E-15,-6.12323399573677E-17));
#904=DIRECTION('',(-1.16573417585641E-15,1.,-6.12323399573677E-17));
#905=FACE_BOUND('',#906,.T.);
#906=EDGE_LOOP('',(#1140));
#907=PLANE('',#908);
#908=AXIS2_PLACEMENT_3D('',#909,#910,#911);
#909=CARTESIAN_POINT('',(3.,0.,-1.83697019872103E-16));
#910=DIRECTION('',(-1.,0.,-6.12323399573677E-17));
#911=DIRECTION('',(3.74939945665464E-33,1.,-6.12323399573677E-17));
#912=FACE_BOUND('',#913,.T.);
#913=EDGE_LOOP('',(#1141));
#914=FACE_BOUND('',#915,.T.);
#915=EDGE_LOOP('',(#1142));
#916=PLANE('',#917);
#917=AXIS2_PLACEMENT_3D('',#918,#919,#920);
#918=CARTESIAN_POINT('',(2.9,0.,0.));
#919=DIRECTION('',(1.,0.,0.));
#920=DIRECTION('',(0.,-6.12323399573677E-17,1.));
#921=FACE_OUTER_BOUND('',#922,.T.);
#922=EDGE_LOOP('',(#1143));
#923=FACE_BOUND('',#924,.T.);
#924=EDGE_LOOP('',(#1144));
#925=DEGENERATE_TOROIDAL_SURFACE('',#926,0.207220573223106,11.9999999999996,.F.);
#926=AXIS2_PLACEMENT_3D('',#927,#928,#929);
#927=CARTESIAN_POINT('',(-11.3982106846823,0.,0.));
#928=DIRECTION('',(-1.,0.,0.));
#929=DIRECTION('',(0.,-6.12323399573677E-17,1.));
#930=FACE_OUTER_BOUND('',#931,.T.);
#931=EDGE_LOOP('',(#1145));
#932=FACE_OUTER_BOUND('',#933,.T.);
#933=EDGE_LOOP('',(#1146));
#934=CYLINDRICAL_SURFACE('',#935,0.25);
#935=AXIS2_PLACEMENT_3D('',#936,#937,#938);
#936=CARTESIAN_POINT('',(3.,-3.12367240557258E-16,-1.25));
#937=DIRECTION('',(-1.,7.47656106691163E-33,-1.34685750539824E-16));
#938=DIRECTION('',(1.57236847313793E-32,1.,-6.12323399573677E-17));
#939=FACE_OUTER_BOUND('',#940,.T.);
#940=EDGE_LOOP('',(#1147));
#941=FACE_OUTER_BOUND('',#942,.T.);
#942=EDGE_LOOP('',(#1148));
#943=CYLINDRICAL_SURFACE('',#944,0.25);
#944=AXIS2_PLACEMENT_3D('',#945,#946,#947);
#945=CARTESIAN_POINT('',(3.,-3.12367240557258E-16,-1.25));
#946=DIRECTION('',(-1.,7.47656106691163E-33,-1.34685750539824E-16));
#947=DIRECTION('',(1.57236847313793E-32,1.,-6.12323399573677E-17));
#948=FACE_OUTER_BOUND('',#949,.T.);
#949=EDGE_LOOP('',(#1149));
#950=FACE_OUTER_BOUND('',#951,.T.);
#951=EDGE_LOOP('',(#1150));
#952=TOROIDAL_SURFACE('',#953,1.75,0.399999999999998);
#953=AXIS2_PLACEMENT_3D('',#954,#955,#956);
#954=CARTESIAN_POINT('',(2.5,0.,0.));
#955=DIRECTION('',(-1.,0.,0.));
#956=DIRECTION('',(0.,-6.12323399573677E-17,1.));
#957=FACE_OUTER_BOUND('',#958,.T.);
#958=EDGE_LOOP('',(#1151));
#959=FACE_OUTER_BOUND('',#960,.T.);
#960=EDGE_LOOP('',(#1152));
#961=TOROIDAL_SURFACE('',#962,2.552272750349,0.602272729275573);
#962=AXIS2_PLACEMENT_3D('',#963,#964,#965);
#963=CARTESIAN_POINT('',(0.599999999999999,0.,0.));
#964=DIRECTION('',(-1.,0.,0.));
#965=DIRECTION('',(0.,-6.12323399573677E-17,1.));
#966=FACE_OUTER_BOUND('',#967,.T.);
#967=EDGE_LOOP('',(#1153));
#968=FACE_OUTER_BOUND('',#969,.T.);
#969=EDGE_LOOP('',(#1154));
#970=TOROIDAL_SURFACE('',#971,0.999999999999999,0.25);
#971=AXIS2_PLACEMENT_3D('',#972,#973,#974);
#972=CARTESIAN_POINT('',(-0.297224896250285,-2.5113490059989E-16,-2.25));
#973=DIRECTION('',(-6.16297582203915E-33,-1.,-6.12323399573677E-17));
#974=DIRECTION('',(5.55111512312579E-17,-6.12323399573677E-17,1.));
#975=FACE_BOUND('',#976,.T.);
#976=EDGE_LOOP('',(#1155));
#977=PLANE('',#978);
#978=AXIS2_PLACEMENT_3D('',#979,#980,#981);
#979=CARTESIAN_POINT('',(3.,0.,-1.83697019872103E-16));
#980=DIRECTION('',(-1.,0.,-6.12323399573677E-17));
#981=DIRECTION('',(3.74939945665464E-33,1.,-6.12323399573677E-17));
#982=FACE_OUTER_BOUND('',#983,.T.);
#983=EDGE_LOOP('',(#1156));
#984=FACE_OUTER_BOUND('',#985,.T.);
#985=EDGE_LOOP('',(#1157));
#986=CYLINDRICAL_SURFACE('',#987,2.15);
#987=AXIS2_PLACEMENT_3D('',#988,#989,#990);
#988=CARTESIAN_POINT('',(2.5,0.,0.));
#989=DIRECTION('',(-1.,0.,0.));
#990=DIRECTION('',(0.,-6.12323399573677E-17,1.));
#991=FACE_OUTER_BOUND('',#992,.T.);
#992=EDGE_LOOP('',(#1158));
#993=FACE_OUTER_BOUND('',#994,.T.);
#994=EDGE_LOOP('',(#1159));
#995=CONICAL_SURFACE('',#996,2.69999999999989,1.56932807323282);
#996=AXIS2_PLACEMENT_3D('',#997,#998,#999);
#997=CARTESIAN_POINT('',(-0.000293650923429034,0.,0.));
#998=DIRECTION('',(-1.,0.,0.));
#999=DIRECTION('',(0.,-6.12323399573677E-17,1.));
#1000=FACE_OUTER_BOUND('',#1001,.T.);
#1001=EDGE_LOOP('',(#1160));
#1002=FACE_OUTER_BOUND('',#1003,.T.);
#1003=EDGE_LOOP('',(#1161));
#1004=CYLINDRICAL_SURFACE('',#1005,0.25);
#1005=AXIS2_PLACEMENT_3D('',#1006,#1007,#1008);
#1006=CARTESIAN_POINT('',(-0.990333612502072,-2.95273195882472E-16,-1.52916693509815));
#1007=DIRECTION('',(-0.720833064901857,4.24406685409439E-17,-0.693108716251784));
#1008=DIRECTION('',(7.30333057217963E-17,1.,-1.47222979933007E-17));
#1009=FACE_OUTER_BOUND('',#1010,.T.);
#1010=EDGE_LOOP('',(#1162));
#1011=FACE_OUTER_BOUND('',#1012,.T.);
#1012=EDGE_LOOP('',(#1163));
#1013=TOROIDAL_SURFACE('',#1014,2.55357147071828,0.403571470718279);
#1014=AXIS2_PLACEMENT_3D('',#1015,#1016,#1017);
#1015=CARTESIAN_POINT('',(0.6,0.,0.));
#1016=DIRECTION('',(-1.,0.,0.));
#1017=DIRECTION('',(0.,-6.12323399573677E-17,1.));
#1018=FACE_OUTER_BOUND('',#1019,.T.);
#1019=EDGE_LOOP('',(#1164));
#1020=FACE_OUTER_BOUND('',#1021,.T.);
#1021=EDGE_LOOP('',(#1165));
#1022=CYLINDRICAL_SURFACE('',#1023,2.9);
#1023=AXIS2_PLACEMENT_3D('',#1024,#1025,#1026);
#1024=CARTESIAN_POINT('',(0.199999963121508,0.,0.));
#1025=DIRECTION('',(-1.,0.,0.));
#1026=DIRECTION('',(0.,-6.12323399573677E-17,1.));
#1027=FACE_OUTER_BOUND('',#1028,.T.);
#1028=EDGE_LOOP('',(#1166));
#1029=FACE_OUTER_BOUND('',#1030,.T.);
#1030=EDGE_LOOP('',(#1167));
#1031=TOROIDAL_SURFACE('',#1032,1.,0.25);
#1032=AXIS2_PLACEMENT_3D('',#1033,#1034,#1035);
#1033=CARTESIAN_POINT('',(-2.40277510374971,-2.97059155567916E-16,-1.5));
#1034=DIRECTION('',(0.,1.,6.12323399573677E-17));
#1035=DIRECTION('',(0.693108716251782,4.41382952825818E-17,-0.720833064901858));
#1036=FACE_BOUND('',#1037,.T.);
#1037=EDGE_LOOP('',(#1168));
#1038=FACE_BOUND('',#1039,.T.);
#1039=EDGE_LOOP('',(#1169));
#1040=PLANE('',#1041);
#1041=AXIS2_PLACEMENT_3D('',#1042,#1043,#1044);
#1042=CARTESIAN_POINT('',(0.199999963121508,0.,0.));
#1043=DIRECTION('',(1.,0.,0.));
#1044=DIRECTION('',(0.,-6.12323399573677E-17,1.));
#1045=FACE_OUTER_BOUND('',#1046,.T.);
#1046=EDGE_LOOP('',(#1170));
#1047=FACE_OUTER_BOUND('',#1048,.T.);
#1048=EDGE_LOOP('',(#1171));
#1049=CYLINDRICAL_SURFACE('',#1050,0.25);
#1050=AXIS2_PLACEMENT_3D('',#1051,#1052,#1053);
#1051=CARTESIAN_POINT('',(-2.40277510374972,-2.35826815610548E-16,-2.5));
#1052=DIRECTION('',(-1.,3.79665285416716E-32,-5.1295813137847E-16));
#1053=DIRECTION('',(6.93761552261342E-32,1.,-6.12323399573676E-17));
#1054=FACE_BOUND('',#1055,.T.);
#1055=EDGE_LOOP('',(#1172));
#1056=PLANE('',#1057);
#1057=AXIS2_PLACEMENT_3D('',#1058,#1059,#1060);
#1058=CARTESIAN_POINT('',(-5.00000000000001,7.65404249467096E-17,-1.25));
#1059=DIRECTION('',(-1.,0.,-6.77236045021345E-15));
#1060=DIRECTION('',(4.19082355898662E-31,1.,-6.12323399573676E-17));
#1061=ORIENTED_EDGE('',*,*,#1173,.T.);
#1062=ORIENTED_EDGE('',*,*,#1173,.F.);
#1063=ORIENTED_EDGE('',*,*,#1174,.T.);
#1064=ORIENTED_EDGE('',*,*,#1174,.F.);
#1065=ORIENTED_EDGE('',*,*,#1175,.T.);
#1066=ORIENTED_EDGE('',*,*,#1175,.F.);
#1067=ORIENTED_EDGE('',*,*,#1176,.T.);
#1068=ORIENTED_EDGE('',*,*,#1177,.T.);
#1069=ORIENTED_EDGE('',*,*,#1176,.F.);
#1070=ORIENTED_EDGE('',*,*,#1178,.T.);
#1071=ORIENTED_EDGE('',*,*,#1177,.F.);
#1072=ORIENTED_EDGE('',*,*,#1178,.F.);
#1073=ORIENTED_EDGE('',*,*,#1179,.T.);
#1074=ORIENTED_EDGE('',*,*,#1180,.T.);
#1075=ORIENTED_EDGE('',*,*,#1179,.F.);
#1076=ORIENTED_EDGE('',*,*,#1181,.T.);
#1077=ORIENTED_EDGE('',*,*,#1180,.F.);
#1078=ORIENTED_EDGE('',*,*,#1182,.T.);
#1079=ORIENTED_EDGE('',*,*,#1181,.F.);
#1080=ORIENTED_EDGE('',*,*,#1182,.F.);
#1081=ORIENTED_EDGE('',*,*,#1183,.T.);
#1082=ORIENTED_EDGE('',*,*,#1184,.T.);
#1083=ORIENTED_EDGE('',*,*,#1185,.F.);
#1084=ORIENTED_EDGE('',*,*,#1186,.F.);
#1085=ORIENTED_EDGE('',*,*,#1187,.T.);
#1086=ORIENTED_EDGE('',*,*,#1188,.T.);
#1087=ORIENTED_EDGE('',*,*,#1189,.F.);
#1088=ORIENTED_EDGE('',*,*,#1184,.F.);
#1089=ORIENTED_EDGE('',*,*,#1190,.T.);
#1090=ORIENTED_EDGE('',*,*,#1191,.T.);
#1091=ORIENTED_EDGE('',*,*,#1192,.F.);
#1092=ORIENTED_EDGE('',*,*,#1188,.F.);
#1093=ORIENTED_EDGE('',*,*,#1193,.T.);
#1094=ORIENTED_EDGE('',*,*,#1186,.T.);
#1095=ORIENTED_EDGE('',*,*,#1194,.F.);
#1096=ORIENTED_EDGE('',*,*,#1191,.F.);
#1097=ORIENTED_EDGE('',*,*,#1185,.T.);
#1098=ORIENTED_EDGE('',*,*,#1189,.T.);
#1099=ORIENTED_EDGE('',*,*,#1192,.T.);
#1100=ORIENTED_EDGE('',*,*,#1194,.T.);
#1101=ORIENTED_EDGE('',*,*,#1193,.F.);
#1102=ORIENTED_EDGE('',*,*,#1190,.F.);
#1103=ORIENTED_EDGE('',*,*,#1187,.F.);
#1104=ORIENTED_EDGE('',*,*,#1183,.F.);
#1105=ORIENTED_EDGE('',*,*,#1195,.T.);
#1106=ORIENTED_EDGE('',*,*,#1196,.F.);
#1107=ORIENTED_EDGE('',*,*,#1196,.T.);
#1108=ORIENTED_EDGE('',*,*,#1197,.F.);
#1109=ORIENTED_EDGE('',*,*,#1197,.T.);
#1110=ORIENTED_EDGE('',*,*,#1198,.F.);
#1111=ORIENTED_EDGE('',*,*,#1198,.T.);
#1112=ORIENTED_EDGE('',*,*,#1199,.F.);
#1113=ORIENTED_EDGE('',*,*,#1199,.T.);
#1114=ORIENTED_EDGE('',*,*,#1200,.F.);
#1115=ORIENTED_EDGE('',*,*,#1200,.T.);
#1116=ORIENTED_EDGE('',*,*,#1195,.F.);
#1117=ORIENTED_EDGE('',*,*,#1201,.T.);
#1118=ORIENTED_EDGE('',*,*,#1202,.F.);
#1119=ORIENTED_EDGE('',*,*,#1202,.T.);
#1120=ORIENTED_EDGE('',*,*,#1203,.F.);
#1121=ORIENTED_EDGE('',*,*,#1203,.T.);
#1122=ORIENTED_EDGE('',*,*,#1204,.F.);
#1123=ORIENTED_EDGE('',*,*,#1204,.T.);
#1124=ORIENTED_EDGE('',*,*,#1205,.F.);
#1125=ORIENTED_EDGE('',*,*,#1205,.T.);
#1126=ORIENTED_EDGE('',*,*,#1206,.F.);
#1127=ORIENTED_EDGE('',*,*,#1206,.T.);
#1128=ORIENTED_EDGE('',*,*,#1201,.F.);
#1129=ORIENTED_EDGE('',*,*,#1207,.T.);
#1130=ORIENTED_EDGE('',*,*,#1208,.F.);
#1131=ORIENTED_EDGE('',*,*,#1208,.T.);
#1132=ORIENTED_EDGE('',*,*,#1209,.F.);
#1133=ORIENTED_EDGE('',*,*,#1209,.T.);
#1134=ORIENTED_EDGE('',*,*,#1210,.F.);
#1135=ORIENTED_EDGE('',*,*,#1210,.T.);
#1136=ORIENTED_EDGE('',*,*,#1211,.F.);
#1137=ORIENTED_EDGE('',*,*,#1211,.T.);
#1138=ORIENTED_EDGE('',*,*,#1212,.F.);
#1139=ORIENTED_EDGE('',*,*,#1212,.T.);
#1140=ORIENTED_EDGE('',*,*,#1207,.F.);
#1141=ORIENTED_EDGE('',*,*,#1213,.F.);
#1142=ORIENTED_EDGE('',*,*,#1214,.F.);
#1143=ORIENTED_EDGE('',*,*,#1215,.T.);
#1144=ORIENTED_EDGE('',*,*,#1216,.F.);
#1145=ORIENTED_EDGE('',*,*,#1216,.T.);
#1146=ORIENTED_EDGE('',*,*,#1217,.F.);
#1147=ORIENTED_EDGE('',*,*,#1218,.T.);
#1148=ORIENTED_EDGE('',*,*,#1214,.T.);
#1149=ORIENTED_EDGE('',*,*,#1213,.T.);
#1150=ORIENTED_EDGE('',*,*,#1219,.F.);
#1151=ORIENTED_EDGE('',*,*,#1215,.F.);
#1152=ORIENTED_EDGE('',*,*,#1220,.T.);
#1153=ORIENTED_EDGE('',*,*,#1217,.T.);
#1154=ORIENTED_EDGE('',*,*,#1221,.F.);
#1155=ORIENTED_EDGE('',*,*,#1218,.F.);
#1156=ORIENTED_EDGE('',*,*,#1219,.T.);
#1157=ORIENTED_EDGE('',*,*,#1222,.F.);
#1158=ORIENTED_EDGE('',*,*,#1220,.F.);
#1159=ORIENTED_EDGE('',*,*,#1223,.T.);
#1160=ORIENTED_EDGE('',*,*,#1221,.T.);
#1161=ORIENTED_EDGE('',*,*,#1224,.F.);
#1162=ORIENTED_EDGE('',*,*,#1222,.T.);
#1163=ORIENTED_EDGE('',*,*,#1225,.F.);
#1164=ORIENTED_EDGE('',*,*,#1226,.T.);
#1165=ORIENTED_EDGE('',*,*,#1223,.F.);
#1166=ORIENTED_EDGE('',*,*,#1224,.T.);
#1167=ORIENTED_EDGE('',*,*,#1227,.F.);
#1168=ORIENTED_EDGE('',*,*,#1226,.F.);
#1169=ORIENTED_EDGE('',*,*,#1225,.T.);
#1170=ORIENTED_EDGE('',*,*,#1227,.T.);
#1171=ORIENTED_EDGE('',*,*,#1228,.F.);
#1172=ORIENTED_EDGE('',*,*,#1228,.T.);
#1173=EDGE_CURVE('',#1229,#1229,#1230,.T.);
#1174=EDGE_CURVE('',#1231,#1231,#1232,.T.);
#1175=EDGE_CURVE('',#1233,#1233,#1234,.T.);
#1176=EDGE_CURVE('',#1235,#1235,#1236,.T.);
#1177=EDGE_CURVE('',#1237,#1237,#1238,.T.);
#1178=EDGE_CURVE('',#1239,#1239,#1240,.T.);
#1179=EDGE_CURVE('',#1241,#1241,#1242,.T.);
#1180=EDGE_CURVE('',#1243,#1243,#1244,.T.);
#1181=EDGE_CURVE('',#1245,#1245,#1246,.T.);
#1182=EDGE_CURVE('',#1247,#1247,#1248,.T.);
#1183=EDGE_CURVE('',#1249,#1250,#1251,.T.);
#1184=EDGE_CURVE('',#1250,#1252,#1253,.T.);
#1185=EDGE_CURVE('',#1254,#1252,#1255,.T.);
#1186=EDGE_CURVE('',#1249,#1254,#1256,.T.);
#1187=EDGE_CURVE('',#1250,#1257,#1258,.T.);
#1188=EDGE_CURVE('',#1257,#1259,#1260,.T.);
#1189=EDGE_CURVE('',#1252,#1259,#1261,.T.);
#1190=EDGE_CURVE('',#1257,#1262,#1263,.T.);
#1191=EDGE_CURVE('',#1262,#1264,#1265,.T.);
#1192=EDGE_CURVE('',#1259,#1264,#1266,.T.);
#1193=EDGE_CURVE('',#1262,#1249,#1267,.T.);
#1194=EDGE_CURVE('',#1264,#1254,#1268,.T.);
#1195=EDGE_CURVE('',#1269,#1269,#1270,.T.);
#1196=EDGE_CURVE('',#1271,#1271,#1272,.T.);
#1197=EDGE_CURVE('',#1273,#1273,#1274,.T.);
#1198=EDGE_CURVE('',#1275,#1275,#1276,.T.);
#1199=EDGE_CURVE('',#1277,#1277,#1278,.T.);
#1200=EDGE_CURVE('',#1279,#1279,#1280,.T.);
#1201=EDGE_CURVE('',#1281,#1281,#1282,.T.);
#1202=EDGE_CURVE('',#1283,#1283,#1284,.T.);
#1203=EDGE_CURVE('',#1285,#1285,#1286,.T.);
#1204=EDGE_CURVE('',#1287,#1287,#1288,.T.);
#1205=EDGE_CURVE('',#1289,#1289,#1290,.T.);
#1206=EDGE_CURVE('',#1291,#1291,#1292,.T.);
#1207=EDGE_CURVE('',#1293,#1293,#1294,.T.);
#1208=EDGE_CURVE('',#1295,#1295,#1296,.T.);
#1209=EDGE_CURVE('',#1297,#1297,#1298,.T.);
#1210=EDGE_CURVE('',#1299,#1299,#1300,.T.);
#1211=EDGE_CURVE('',#1301,#1301,#1302,.T.);
#1212=EDGE_CURVE('',#1303,#1303,#1304,.T.);
#1213=EDGE_CURVE('',#1305,#1305,#1306,.T.);
#1214=EDGE_CURVE('',#1307,#1307,#1308,.F.);
#1215=EDGE_CURVE('',#1309,#1309,#1310,.T.);
#1216=EDGE_CURVE('',#1311,#1311,#1312,.T.);
#1217=EDGE_CURVE('',#1313,#1313,#1314,.T.);
#1218=EDGE_CURVE('',#1315,#1315,#1316,.T.);
#1219=EDGE_CURVE('',#1317,#1317,#1318,.T.);
#1220=EDGE_CURVE('',#1319,#1319,#1320,.T.);
#1221=EDGE_CURVE('',#1321,#1321,#1322,.T.);
#1222=EDGE_CURVE('',#1323,#1323,#1324,.T.);
#1223=EDGE_CURVE('',#1325,#1325,#1326,.T.);
#1224=EDGE_CURVE('',#1327,#1327,#1328,.T.);
#1225=EDGE_CURVE('',#1329,#1329,#1330,.T.);
#1226=EDGE_CURVE('',#1331,#1331,#1332,.T.);
#1227=EDGE_CURVE('',#1333,#1333,#1334,.T.);
#1228=EDGE_CURVE('',#1335,#1335,#1336,.T.);
#1229=VERTEX_POINT('',#1337);
#1230=CIRCLE('',#1338,1.9);
#1231=VERTEX_POINT('',#1342);
#1232=CIRCLE('',#1343,2.19853675238339);
#1233=VERTEX_POINT('',#1347);
#1234=CIRCLE('',#1348,2.19853675238344);
#1235=VERTEX_POINT('',#1352);
#1236=CIRCLE('',#1353,2.69990231945732);
#1237=VERTEX_POINT('',#1357);
#1238=CIRCLE('',#1358,2.88);
#1239=VERTEX_POINT('',#1362);
#1240=CIRCLE('',#1363,2.88);
#1241=VERTEX_POINT('',#1367);
#1242=CIRCLE('',#1368,2.69989842315958);
#1243=VERTEX_POINT('',#1372);
#1244=CIRCLE('',#1373,2.50000000000035);
#1245=VERTEX_POINT('',#1377);
#1246=CIRCLE('',#1378,2.5);
#1247=VERTEX_POINT('',#1382);
#1248=CIRCLE('',#1383,1.9);
#1249=VERTEX_POINT('',#1387);
#1250=VERTEX_POINT('',#1388);
#1251=CIRCLE('',#1389,3.9);
#1252=VERTEX_POINT('',#1393);
#1253=LINE('',#1394,#1395);
#1254=VERTEX_POINT('',#1397);
#1255=CIRCLE('',#1398,3.9);
#1256=LINE('',#1402,#1403);
#1257=VERTEX_POINT('',#1405);
#1258=LINE('',#1406,#1407);
#1259=VERTEX_POINT('',#1409);
#1260=LINE('',#1410,#1411);
#1261=LINE('',#1413,#1414);
#1262=VERTEX_POINT('',#1416);
#1263=CIRCLE('',#1417,2.89999999999999);
#1264=VERTEX_POINT('',#1421);
#1265=LINE('',#1422,#1423);
#1266=CIRCLE('',#1425,2.89999999999999);
#1267=LINE('',#1429,#1430);
#1268=LINE('',#1432,#1433);
#1269=VERTEX_POINT('',#1435);
#1270=CIRCLE('',#1436,0.25);
#1271=VERTEX_POINT('',#1440);
#1272=CIRCLE('',#1441,0.25);
#1273=VERTEX_POINT('',#1445);
#1274=CIRCLE('',#1446,0.25);
#1275=VERTEX_POINT('',#1450);
#1276=CIRCLE('',#1451,0.25);
#1277=VERTEX_POINT('',#1455);
#1278=CIRCLE('',#1456,0.25);
#1279=VERTEX_POINT('',#1460);
#1280=CIRCLE('',#1461,0.25);
#1281=VERTEX_POINT('',#1465);
#1282=CIRCLE('',#1466,0.25);
#1283=VERTEX_POINT('',#1470);
#1284=CIRCLE('',#1471,0.25);
#1285=VERTEX_POINT('',#1475);
#1286=CIRCLE('',#1476,0.25);
#1287=VERTEX_POINT('',#1480);
#1288=CIRCLE('',#1481,0.25);
#1289=VERTEX_POINT('',#1485);
#1290=CIRCLE('',#1486,0.25);
#1291=VERTEX_POINT('',#1490);
#1292=CIRCLE('',#1491,0.25);
#1293=VERTEX_POINT('',#1495);
#1294=CIRCLE('',#1496,0.25);
#1295=VERTEX_POINT('',#1500);
#1296=CIRCLE('',#1501,0.25);
#1297=VERTEX_POINT('',#1505);
#1298=CIRCLE('',#1506,0.25);
#1299=VERTEX_POINT('',#1510);
#1300=CIRCLE('',#1511,0.25);
#1301=VERTEX_POINT('',#1515);
#1302=CIRCLE('',#1516,0.25);
#1303=VERTEX_POINT('',#1520);
#1304=CIRCLE('',#1521,0.25);
#1305=VERTEX_POINT('',#1525);
#1306=CIRCLE('',#1526,1.75);
#1307=VERTEX_POINT('',#1530);
#1308=CIRCLE('',#1531,0.25);
#1309=VERTEX_POINT('',#1535);
#1310=CIRCLE('',#1536,1.98417730024484);
#1311=VERTEX_POINT('',#1540);
#1312=B_SPLINE_CURVE_WITH_KNOTS('',3,
(#1541,#1542,#1543,#1544,#1545,#1546,#1547,#1548,#1549,#1550,#1551,#1552,#1553,#1554,
#1555,#1556,#1557,#1558,#1559,#1560,#1561,#1562,#1563,#1564,#1565,#1566,#1567,#1568,
#1569,#1570,#1571,#1572,#1573,#1574,#1575,#1576,#1577,#1578,#1579,#1580,#1581,#1582,
#1583,#1584),
.UNSPECIFIED.,.T.,.F.,
(4,1,1,1,1,1,1,1,1,1,1,1,1,1,1,1,1,1,1,1,1,1,1,1,1,1,1,1,1,1,1,1,1,1,1,1,1,1,1,1,
1,4),
(0.,0.0127878435116242,0.0241531515267247,0.0406670001860078,0.065742956417113,0.100721809517282,
0.139023247011059,0.178585862956929,0.218089834276912,0.249979352014484,0.257558274387294,
0.297011217530561,0.336452829882797,0.375859157396974,0.413173442367468,0.448440581265465,
0.47954151671742,0.49995715052938,0.505121911909065,0.525113095380441,0.541695155315518,
0.558274051115206,0.582555049725135,0.612379063572454,0.645531777094878,0.67209763782202,
0.694207439355399,0.714080532761758,0.733910252423666,0.749977481267771,0.753736407671159,
0.773561045550681,0.793384284915039,0.815403106286962,0.841821106890448,0.874809781132243,
0.910064569998464,0.939082029311139,0.959688120910831,0.974558729304331,0.9880057198775,
1.),
.UNSPECIFIED.);
#1313=VERTEX_POINT('',#1585);
#1314=CIRCLE('',#1586,0.25);
#1315=VERTEX_POINT('',#1590);
#1316=CIRCLE('',#1591,0.25);
#1317=VERTEX_POINT('',#1595);
#1318=CIRCLE('',#1596,2.15);
#1319=VERTEX_POINT('',#1600);
#1320=CIRCLE('',#1601,2.5);
#1321=VERTEX_POINT('',#1605);
#1322=CIRCLE('',#1606,0.25);
#1323=VERTEX_POINT('',#1610);
#1324=CIRCLE('',#1611,2.15);
#1325=VERTEX_POINT('',#1615);
#1326=CIRCLE('',#1616,2.9);
#1327=VERTEX_POINT('',#1620);
#1328=CIRCLE('',#1621,0.25);
#1329=VERTEX_POINT('',#1625);
#1330=CIRCLE('',#1626,2.5);
#1331=VERTEX_POINT('',#1630);
#1332=CIRCLE('',#1631,2.9);
#1333=VERTEX_POINT('',#1635);
#1334=CIRCLE('',#1636,0.25);
#1335=VERTEX_POINT('',#1640);
#1336=CIRCLE('',#1641,0.25);
#1337=CARTESIAN_POINT('',(6.20000000000051,-1.16341445918999E-16,1.9));
#1338=AXIS2_PLACEMENT_3D('',#1339,#1340,#1341);
#1339=CARTESIAN_POINT('',(6.2,0.,0.));
#1340=DIRECTION('',(-1.,0.,0.));
#1341=DIRECTION('',(0.,-6.12323399573677E-17,1.));
#1342=CARTESIAN_POINT('',(5.9,-1.34621549830708E-16,2.19853675238342));
#1343=AXIS2_PLACEMENT_3D('',#1344,#1345,#1346);
#1344=CARTESIAN_POINT('',(5.9,0.,0.));
#1345=DIRECTION('',(-1.,0.,0.));
#1346=DIRECTION('',(0.,-6.12323399573677E-17,1.));
#1347=CARTESIAN_POINT('',(0.697631832510304,-1.3462154983071E-16,2.19853675238344));
#1348=AXIS2_PLACEMENT_3D('',#1349,#1350,#1351);
#1349=CARTESIAN_POINT('',(0.697631832510304,0.,0.));
#1350=DIRECTION('',(-1.,0.,0.));
#1351=DIRECTION('',(0.,-6.12323399573677E-17,1.));
#1352=CARTESIAN_POINT('',(0.202000000000421,-1.65321336676696E-16,2.69990231945732));
#1353=AXIS2_PLACEMENT_3D('',#1354,#1355,#1356);
#1354=CARTESIAN_POINT('',(0.201999999999999,0.,0.));
#1355=DIRECTION('',(-1.,0.,0.));
#1356=DIRECTION('',(0.,-6.12323399573677E-17,1.));
#1357=CARTESIAN_POINT('',(0.201999999999999,-1.76349139077219E-16,2.88));
#1358=AXIS2_PLACEMENT_3D('',#1359,#1360,#1361);
#1359=CARTESIAN_POINT('',(0.201999999999999,0.,0.));
#1360=DIRECTION('',(-1.,0.,0.));
#1361=DIRECTION('',(0.,-6.12323399573677E-17,1.));
#1362=CARTESIAN_POINT('',(0.399999999999999,-1.76349139077219E-16,2.88));
#1363=AXIS2_PLACEMENT_3D('',#1364,#1365,#1366);
#1364=CARTESIAN_POINT('',(0.399999999999999,0.,0.));
#1365=DIRECTION('',(-1.,0.,0.));
#1366=DIRECTION('',(0.,-6.12323399573677E-17,1.));
#1367=CARTESIAN_POINT('',(0.39999999999998,-1.65321098097268E-16,2.69989842315957));
#1368=AXIS2_PLACEMENT_3D('',#1369,#1370,#1371);
#1369=CARTESIAN_POINT('',(0.399999999999999,0.,0.));
#1370=DIRECTION('',(-1.,0.,0.));
#1371=DIRECTION('',(0.,-6.12323399573677E-17,1.));
#1372=CARTESIAN_POINT('',(0.697631832510297,-1.5308084989343E-16,2.50000000000017));
#1373=AXIS2_PLACEMENT_3D('',#1374,#1375,#1376);
#1374=CARTESIAN_POINT('',(0.69763183251029,0.,0.));
#1375=DIRECTION('',(-1.,0.,0.));
#1376=DIRECTION('',(0.,-6.12323399573677E-17,1.));
#1377=CARTESIAN_POINT('',(5.9,-1.53080849893419E-16,2.5));
#1378=AXIS2_PLACEMENT_3D('',#1379,#1380,#1381);
#1379=CARTESIAN_POINT('',(5.9,0.,0.));
#1380=DIRECTION('',(-1.,0.,0.));
#1381=DIRECTION('',(0.,-6.12323399573677E-17,1.));
#1382=CARTESIAN_POINT('',(6.5,-1.16341445918999E-16,1.9));
#1383=AXIS2_PLACEMENT_3D('',#1384,#1385,#1386);
#1384=CARTESIAN_POINT('',(6.5,0.,0.));
#1385=DIRECTION('',(-1.,0.,0.));
#1386=DIRECTION('',(0.,-6.12323399573676E-17,1.));
#1387=CARTESIAN_POINT('',(-5.67350497417901E-16,2.38140547564218,-3.08851225682873));
#1388=CARTESIAN_POINT('',(-4.37457088982577E-16,3.08851225682873,-2.38140547564219));
#1389=AXIS2_PLACEMENT_3D('',#1390,#1391,#1392);
#1390=CARTESIAN_POINT('',(2.32496913559418E-30,-1.28785870856518E-14,1.26565424807268E-14));
#1391=DIRECTION('',(1.,0.,-1.83697019872103E-16));
#1392=DIRECTION('',(-1.45474486517411E-16,0.610616788626203,-0.791926219699678));
#1393=CARTESIAN_POINT('',(0.2,3.08851225682873,-2.38140547564219));
#1394=CARTESIAN_POINT('',(-4.37457088982577E-16,3.08851225682873,-2.38140547564219));
#1395=VECTOR('',#1396,1.);
#1396=DIRECTION('',(1.,0.,0.));
#1397=CARTESIAN_POINT('',(0.199999999999999,2.38140547564218,-3.08851225682873));
#1398=AXIS2_PLACEMENT_3D('',#1399,#1400,#1401);
#1399=CARTESIAN_POINT('',(0.2,-1.28785870856518E-14,1.26198030767524E-14));
#1400=DIRECTION('',(1.,0.,-1.83697019872103E-16));
#1401=DIRECTION('',(-1.45474486517411E-16,0.610616788626203,-0.791926219699678));
#1402=CARTESIAN_POINT('',(-5.67350497417901E-16,2.38140547564218,-3.08851225682873));
#1403=VECTOR('',#1404,1.);
#1404=DIRECTION('',(1.,0.,0.));
#1405=CARTESIAN_POINT('',(-3.06103087654477E-16,2.37345437826568,-1.66634759707913));
#1406=CARTESIAN_POINT('',(-4.37457088982577E-16,3.08851225682873,-2.38140547564219));
#1407=VECTOR('',#1408,1.);
#1408=DIRECTION('',(1.29893408435324E-16,-0.707106781186548,0.707106781186547));
#1409=CARTESIAN_POINT('',(0.2,2.37345437826568,-1.66634759707913));
#1410=CARTESIAN_POINT('',(-3.06103087654477E-16,2.37345437826568,-1.66634759707913));
#1411=VECTOR('',#1412,1.);
#1412=DIRECTION('',(1.,0.,-1.11022302462516E-15));
#1413=CARTESIAN_POINT('',(0.2,3.08851225682873,-2.38140547564219));
#1414=VECTOR('',#1415,1.);
#1415=DIRECTION('',(1.64681682324684E-16,-0.707106781186548,0.707106781186547));
#1416=CARTESIAN_POINT('',(-4.359964960898E-16,1.66634759707913,-2.37345437826568));
#1417=AXIS2_PLACEMENT_3D('',#1418,#1419,#1420);
#1418=CARTESIAN_POINT('',(0.,0.,0.));
#1419=DIRECTION('',(-1.,0.,1.83697019872103E-16));
#1420=DIRECTION('',(-1.05552788846372E-16,0.818432544229547,-0.574602619682463));
#1421=CARTESIAN_POINT('',(0.2,1.66634759707913,-2.37345437826568));
#1422=CARTESIAN_POINT('',(-4.359964960898E-16,1.66634759707913,-2.37345437826568));
#1423=VECTOR('',#1424,1.);
#1424=DIRECTION('',(1.,0.,0.));
#1425=AXIS2_PLACEMENT_3D('',#1426,#1427,#1428);
#1426=CARTESIAN_POINT('',(0.2,0.,-3.67394039744206E-17));
#1427=DIRECTION('',(-1.,0.,1.83697019872103E-16));
#1428=DIRECTION('',(-1.05552788846372E-16,0.818432544229547,-0.574602619682463));
#1429=CARTESIAN_POINT('',(-4.359964960898E-16,1.66634759707913,-2.37345437826568));
#1430=VECTOR('',#1431,1.);
#1431=DIRECTION('',(-1.29893408435324E-16,0.707106781186547,-0.707106781186548));
#1432=CARTESIAN_POINT('',(0.2,1.66634759707913,-2.37345437826568));
#1433=VECTOR('',#1434,1.);
#1434=DIRECTION('',(-1.09787788216456E-16,0.707106781186547,-0.707106781186548));
#1435=CARTESIAN_POINT('',(3.,0.25,1.25));
#1436=AXIS2_PLACEMENT_3D('',#1437,#1438,#1439);
#1437=CARTESIAN_POINT('',(3.,1.59286390663839E-16,1.25));
#1438=DIRECTION('',(-1.,0.,-6.12323399573677E-17));
#1439=DIRECTION('',(3.74939945665464E-33,1.,-6.12323399573677E-17));
#1440=CARTESIAN_POINT('',(-0.297224896250286,0.25,1.25));
#1441=AXIS2_PLACEMENT_3D('',#1442,#1443,#1444);
#1442=CARTESIAN_POINT('',(-0.297224896250285,1.59286390663839E-16,1.25));
#1443=DIRECTION('',(-1.,7.47656106691163E-33,-1.34685750539824E-16));
#1444=DIRECTION('',(7.47656106691163E-33,1.,1.00698623875382E-48));
#1445=CARTESIAN_POINT('',(-0.990333612502073,0.25,1.52916693509815));
#1446=AXIS2_PLACEMENT_3D('',#1447,#1448,#1449);
#1447=CARTESIAN_POINT('',(-0.990333612502073,1.42192345989053E-16,1.52916693509815));
#1448=DIRECTION('',(-0.720833064901854,-4.24406685409441E-17,0.693108716251787));
#1449=DIRECTION('',(-2.00355311344629E-16,1.,-1.47137183841045E-16));
#1450=CARTESIAN_POINT('',(-1.70966638749793,0.25,2.22083306490185));
#1451=AXIS2_PLACEMENT_3D('',#1452,#1453,#1454);
#1452=CARTESIAN_POINT('',(-1.70966638749793,9.9840010391915E-17,2.22083306490185));
#1453=DIRECTION('',(-0.720833064901858,-4.24406685409439E-17,0.693108716251783));
#1454=DIRECTION('',(-3.05926371808524E-17,1.,2.9415997289281E-17));
#1455=CARTESIAN_POINT('',(-2.40277510374971,0.25,2.5));
#1456=AXIS2_PLACEMENT_3D('',#1457,#1458,#1459);
#1457=CARTESIAN_POINT('',(-2.40277510374971,8.27459657171292E-17,2.5));
#1458=DIRECTION('',(-1.,-2.10296456468987E-32,4.44089209850063E-16));
#1459=DIRECTION('',(-1.2980013152265E-31,1.,-2.44929359829471E-16));
#1460=CARTESIAN_POINT('',(-5.,0.25,2.5));
#1461=AXIS2_PLACEMENT_3D('',#1462,#1463,#1464);
#1462=CARTESIAN_POINT('',(-5.,8.27459657171291E-17,2.5));
#1463=DIRECTION('',(-1.,0.,5.6621374255883E-15));
#1464=DIRECTION('',(-3.45126646034193E-31,1.,-6.12323399573677E-17));
#1465=CARTESIAN_POINT('',(3.,-1.,-1.22464679914735E-16));
#1466=AXIS2_PLACEMENT_3D('',#1467,#1468,#1469);
#1467=CARTESIAN_POINT('',(3.,-1.25,-1.07156594925393E-16));
#1468=DIRECTION('',(-1.,0.,-6.12323399573677E-17));
#1469=DIRECTION('',(3.74939945665464E-33,1.,-6.12323399573677E-17));
#1470=CARTESIAN_POINT('',(-0.297224896250285,-0.999999999999999,-1.07156594925393E-16));
#1471=AXIS2_PLACEMENT_3D('',#1472,#1473,#1474);
#1472=CARTESIAN_POINT('',(-0.297224896250285,-1.25,-1.07156594925393E-16));
#1473=DIRECTION('',(-1.,1.34685750539824E-16,0.));
#1474=DIRECTION('',(1.34685750539824E-16,1.,-6.12323399573677E-17));
#1475=CARTESIAN_POINT('',(-1.16361079156502,-1.34895866887268,-1.22464679914735E-16));
#1476=AXIS2_PLACEMENT_3D('',#1477,#1478,#1479);
#1477=CARTESIAN_POINT('',(-0.99033361250207,-1.52916693509814,-1.07156594925393E-16));
#1478=DIRECTION('',(-0.720833064901856,-0.693108716251784,0.));
#1479=DIRECTION('',(-0.693108716251784,0.720833064901856,4.93038065763132E-32));
#1480=CARTESIAN_POINT('',(-1.88294356656088,-2.04062479867639,-1.37772764904077E-16));
#1481=AXIS2_PLACEMENT_3D('',#1482,#1483,#1484);
#1482=CARTESIAN_POINT('',(-1.70966638749793,-2.22083306490186,-1.07156594925393E-16));
#1483=DIRECTION('',(-0.720833064901856,-0.693108716251785,0.));
#1484=DIRECTION('',(-0.693108716251785,0.720833064901856,-6.12323399573677E-17));
#1485=CARTESIAN_POINT('',(-2.40277510374971,-2.25,-1.22464679914735E-16));
#1486=AXIS2_PLACEMENT_3D('',#1487,#1488,#1489);
#1487=CARTESIAN_POINT('',(-2.40277510374971,-2.5,-1.07156594925393E-16));
#1488=DIRECTION('',(-1.,-1.66533453693773E-16,0.));
#1489=DIRECTION('',(-1.66533453693773E-16,1.,-1.22464679914735E-16));
#1490=CARTESIAN_POINT('',(-5.,-2.25,-1.22464679914735E-16));
#1491=AXIS2_PLACEMENT_3D('',#1492,#1493,#1494);
#1492=CARTESIAN_POINT('',(-5.,-2.5,-1.07156594925393E-16));
#1493=DIRECTION('',(-1.,5.55111512312578E-16,-6.12323399573677E-17));
#1494=DIRECTION('',(5.55111512312578E-16,1.,-6.12323399573677E-17));
#1495=CARTESIAN_POINT('',(3.,1.5,-2.75545529808154E-16));
#1496=AXIS2_PLACEMENT_3D('',#1497,#1498,#1499);
#1497=CARTESIAN_POINT('',(3.,1.25,-2.60237444818813E-16));
#1498=DIRECTION('',(-1.,0.,-6.12323399573677E-17));
#1499=DIRECTION('',(3.74939945665464E-33,1.,-6.12323399573677E-17));
#1500=CARTESIAN_POINT('',(-0.297224896250285,1.5,-2.90853614797496E-16));
#1501=AXIS2_PLACEMENT_3D('',#1502,#1503,#1504);
#1502=CARTESIAN_POINT('',(-0.297224896250285,1.25,-2.60237444818813E-16));
#1503=DIRECTION('',(-1.,6.73428752699119E-17,2.05268329735081E-48));
#1504=DIRECTION('',(6.73428752699119E-17,1.,-6.12323399573676E-17));
#1505=CARTESIAN_POINT('',(-0.817056433439122,1.70937520132361,-2.75545529808154E-16));
#1506=AXIS2_PLACEMENT_3D('',#1507,#1508,#1509);
#1507=CARTESIAN_POINT('',(-0.990333612502069,1.52916693509814,-2.60237444818813E-16));
#1508=DIRECTION('',(-0.720833064901856,0.693108716251784,0.));
#1509=DIRECTION('',(0.693108716251784,0.720833064901856,-1.22464679914735E-16));
#1510=CARTESIAN_POINT('',(-1.53638920843498,2.40104133112732,-2.60237444818813E-16));
#1511=AXIS2_PLACEMENT_3D('',#1512,#1513,#1514);
#1512=CARTESIAN_POINT('',(-1.70966638749793,2.22083306490186,-2.60237444818813E-16));
#1513=DIRECTION('',(-0.720833064901855,0.693108716251785,0.));
#1514=DIRECTION('',(0.693108716251785,0.720833064901855,-6.12323399573676E-17));
#1515=CARTESIAN_POINT('',(-2.40277510374971,2.75,-2.75545529808154E-16));
#1516=AXIS2_PLACEMENT_3D('',#1517,#1518,#1519);
#1517=CARTESIAN_POINT('',(-2.40277510374971,2.5,-2.60237444818813E-16));
#1518=DIRECTION('',(-1.,1.49880108324396E-15,0.));
#1519=DIRECTION('',(1.49880108324396E-15,1.,4.93038065763132E-32));
#1520=CARTESIAN_POINT('',(-5.,2.75,-2.75545529808154E-16));
#1521=AXIS2_PLACEMENT_3D('',#1522,#1523,#1524);
#1522=CARTESIAN_POINT('',(-5.,2.5,-2.60237444818813E-16));
#1523=DIRECTION('',(-1.,-1.16573417585641E-15,-6.12323399573677E-17));
#1524=DIRECTION('',(-1.16573417585641E-15,1.,-6.12323399573677E-17));
#1525=CARTESIAN_POINT('',(2.9,-1.07156594925393E-16,1.75));
#1526=AXIS2_PLACEMENT_3D('',#1527,#1528,#1529);
#1527=CARTESIAN_POINT('',(2.9,0.,0.));
#1528=DIRECTION('',(-1.,0.,0.));
#1529=DIRECTION('',(0.,-6.12323399573677E-17,1.));
#1530=CARTESIAN_POINT('',(2.9,0.25,-1.25));
#1531=AXIS2_PLACEMENT_3D('',#1532,#1533,#1534);
#1532=CARTESIAN_POINT('',(2.9,-3.12367240557258E-16,-1.25));
#1533=DIRECTION('',(-1.,0.,0.));
#1534=DIRECTION('',(0.,1.,-6.12323399573677E-17));
#1535=CARTESIAN_POINT('',(0.400000000000001,-3.64487456952851E-16,1.98417730024484));
#1536=AXIS2_PLACEMENT_3D('',#1537,#1538,#1539);
#1537=CARTESIAN_POINT('',(0.400000000000001,0.,0.));
#1538=DIRECTION('',(-1.,0.,0.));
#1539=DIRECTION('',(0.,-6.12323399573676E-17,1.));
#1540=CARTESIAN_POINT('',(0.509927236969149,0.25,-1.25));
#1541=CARTESIAN_POINT('',(0.509927236984628,0.249999999268174,-1.24999999996963));
#1542=CARTESIAN_POINT('',(0.509113213427258,0.249999650256439,-1.2566704797932));
#1543=CARTESIAN_POINT('',(0.507575013474551,0.249494581630509,-1.26928747614962));
#1544=CARTESIAN_POINT('',(0.505009651281631,0.247044193359278,-1.29036661691075));
#1545=CARTESIAN_POINT('',(0.501720159886572,0.241474539344036,-1.31744787865478));
#1546=CARTESIAN_POINT('',(0.49712605154885,0.228356009030248,-1.35537100282873));
#1547=CARTESIAN_POINT('',(0.491712691989414,0.202605692223871,-1.40020954140386));
#1548=CARTESIAN_POINT('',(0.486479088692457,0.161989790797021,-1.44370272884012));
#1549=CARTESIAN_POINT('',(0.482431596502924,0.109923191485279,-1.47742516904528));
#1550=CARTESIAN_POINT('',(0.480179932560317,0.0542814876522917,-1.4962160207915));
#1551=CARTESIAN_POINT('',(0.47967878422029,0.0127763109556657,-1.50040054009522));
#1552=CARTESIAN_POINT('',(0.479797443193586,-0.0287005085326608,-1.49940988300483));
#1553=CARTESIAN_POINT('',(0.480737171526719,-0.0738176586975803,-1.4915632977048));
#1554=CARTESIAN_POINT('',(0.483803254593497,-0.130939268606388,-1.46598898129717));
#1555=CARTESIAN_POINT('',(0.488374954136362,-0.179060419892747,-1.42793221540482));
#1556=CARTESIAN_POINT('',(0.493986831934573,-0.21525846814819,-1.38135115765105));
#1557=CARTESIAN_POINT('',(0.499967705161104,-0.238123498431806,-1.33188526402852));
#1558=CARTESIAN_POINT('',(0.505352153245011,-0.248280588054315,-1.28753218941932));
#1559=CARTESIAN_POINT('',(0.50895579671399,-0.250172241259627,-1.25795622189884));
#1560=CARTESIAN_POINT('',(0.511858235488245,-0.249787836472623,-1.23418169828545));
#1561=CARTESIAN_POINT('',(0.514514362786219,-0.247720871452491,-1.21246740842089));
#1562=CARTESIAN_POINT('',(0.517846612143227,-0.241950295688935,-1.18530842302802));
#1563=CARTESIAN_POINT('',(0.521361737243964,-0.232699743550002,-1.15674139193077));
#1564=CARTESIAN_POINT('',(0.525497326685756,-0.216888204489304,-1.12325667727617));
#1565=CARTESIAN_POINT('',(0.53015689485201,-0.190611567967496,-1.08572105574558));
#1566=CARTESIAN_POINT('',(0.534222135865203,-0.15651818845425,-1.05316499907652));
#1567=CARTESIAN_POINT('',(0.537158078629515,-0.12037336565398,-1.0297669304491));
#1568=CARTESIAN_POINT('',(0.539014836307446,-0.0874600804795245,-1.01501787552106));
#1569=CARTESIAN_POINT('',(0.540184569342897,-0.0562794344163925,-1.00574646195467));
#1570=CARTESIAN_POINT('',(0.540789744444263,-0.0273103249039965,-1.00095655965845));
#1571=CARTESIAN_POINT('',(0.540923311214243,-0.00646874705941756,-0.999899907674787));
#1572=CARTESIAN_POINT('',(0.540892096483773,0.0143701124484354,-1.00014687778423));
#1573=CARTESIAN_POINT('',(0.540643293527283,0.0371420571192554,-1.0021151677713));
#1574=CARTESIAN_POINT('',(0.539783725620353,0.0688829284518082,-1.00892160374832));
#1575=CARTESIAN_POINT('',(0.538259899771114,0.102718556590169,-1.02100895153356));
#1576=CARTESIAN_POINT('',(0.535696941927074,0.140426670660452,-1.04139690178849));
#1577=CARTESIAN_POINT('',(0.531760627225676,0.179118120076511,-1.07285022161763));
#1578=CARTESIAN_POINT('',(0.526785008702993,0.211057780315008,-1.11285298579596));
#1579=CARTESIAN_POINT('',(0.521884181359784,0.231307076524986,-1.1524961262561));
#1580=CARTESIAN_POINT('',(0.517940078849875,0.241816988899042,-1.18454587070018));
#1581=CARTESIAN_POINT('',(0.514870500667179,0.247041519828823,-1.2095664038639));
#1582=CARTESIAN_POINT('',(0.512309538807853,0.249502681763688,-1.23049047110822));
#1583=CARTESIAN_POINT('',(0.510690745434237,0.25000032662161,-1.24374346394909));
#1584=CARTESIAN_POINT('',(0.509927236984628,0.249999999268174,-1.24999999996963));
#1585=CARTESIAN_POINT('',(-0.297224896250285,0.25,-1.25));
#1586=AXIS2_PLACEMENT_3D('',#1587,#1588,#1589);
#1587=CARTESIAN_POINT('',(-0.297224896250285,-3.12367240557258E-16,-1.25));
#1588=DIRECTION('',(-1.,7.47656106691163E-33,-1.34685750539824E-16));
#1589=DIRECTION('',(7.47656106691163E-33,1.,1.00698623875382E-48));
#1590=CARTESIAN_POINT('',(3.,0.25,-1.25));
#1591=AXIS2_PLACEMENT_3D('',#1592,#1593,#1594);
#1592=CARTESIAN_POINT('',(3.,-3.12367240557258E-16,-1.25));
#1593=DIRECTION('',(-1.,0.,-6.12323399573677E-17));
#1594=DIRECTION('',(3.74939945665464E-33,1.,-6.12323399573677E-17));
#1595=CARTESIAN_POINT('',(2.5,-1.3164953090834E-16,2.15));
#1596=AXIS2_PLACEMENT_3D('',#1597,#1598,#1599);
#1597=CARTESIAN_POINT('',(2.5,0.,0.));
#1598=DIRECTION('',(-1.,0.,0.));
#1599=DIRECTION('',(0.,-6.12323399573677E-17,1.));
#1600=CARTESIAN_POINT('',(-8.4117094861807E-17,-1.53080849893419E-16,2.5));
#1601=AXIS2_PLACEMENT_3D('',#1602,#1603,#1604);
#1602=CARTESIAN_POINT('',(-4.44089209850063E-16,0.,0.));
#1603=DIRECTION('',(-1.,0.,0.));
#1604=DIRECTION('',(0.,-6.12323399573677E-17,1.));
#1605=CARTESIAN_POINT('',(-0.990333612502072,0.25,-1.52916693509815));
#1606=AXIS2_PLACEMENT_3D('',#1607,#1608,#1609);
#1607=CARTESIAN_POINT('',(-0.990333612502072,-2.95273195882472E-16,-1.52916693509815));
#1608=DIRECTION('',(-0.720833064901853,4.24406685409441E-17,-0.693108716251787));
#1609=DIRECTION('',(2.00355311344629E-16,1.,-1.47137183841045E-16));
#1610=CARTESIAN_POINT('',(0.6,-1.31649530908341E-16,2.15));
#1611=AXIS2_PLACEMENT_3D('',#1612,#1613,#1614);
#1612=CARTESIAN_POINT('',(0.599999999999999,0.,0.));
#1613=DIRECTION('',(-1.,0.,0.));
#1614=DIRECTION('',(0.,-6.12323399573677E-17,1.));
#1615=CARTESIAN_POINT('',(-0.000587301846857845,-1.77573785876366E-16,2.9));
#1616=AXIS2_PLACEMENT_3D('',#1617,#1618,#1619);
#1617=CARTESIAN_POINT('',(-0.000587301846858068,0.,0.));
#1618=DIRECTION('',(-1.,0.,0.));
#1619=DIRECTION('',(0.,-6.12323399573677E-17,1.));
#1620=CARTESIAN_POINT('',(-1.70966638749793,0.25,-2.22083306490186));
#1621=AXIS2_PLACEMENT_3D('',#1622,#1623,#1624);
#1622=CARTESIAN_POINT('',(-1.70966638749793,-2.52920860285334E-16,-2.22083306490186));
#1623=DIRECTION('',(-0.720833064901857,4.24406685409439E-17,-0.693108716251784));
#1624=DIRECTION('',(3.05926371808524E-17,1.,2.94159972892811E-17));
#1625=CARTESIAN_POINT('',(0.199999963121508,-1.53080849893419E-16,2.5));
#1626=AXIS2_PLACEMENT_3D('',#1627,#1628,#1629);
#1627=CARTESIAN_POINT('',(0.199999963121508,0.,0.));
#1628=DIRECTION('',(-1.,0.,0.));
#1629=DIRECTION('',(0.,-6.12323399573677E-17,1.));
#1630=CARTESIAN_POINT('',(0.199999963121507,-1.77573785876366E-16,2.9));
#1631=AXIS2_PLACEMENT_3D('',#1632,#1633,#1634);
#1632=CARTESIAN_POINT('',(0.199999963121508,0.,0.));
#1633=DIRECTION('',(-1.,0.,0.));
#1634=DIRECTION('',(0.,-6.12323399573677E-17,1.));
#1635=CARTESIAN_POINT('',(-2.40277510374972,0.25,-2.5));
#1636=AXIS2_PLACEMENT_3D('',#1637,#1638,#1639);
#1637=CARTESIAN_POINT('',(-2.40277510374972,-2.35826815610548E-16,-2.5));
#1638=DIRECTION('',(-1.,-2.71926214689378E-32,4.44089209850063E-16));
#1639=DIRECTION('',(-1.35963107344689E-31,1.,-2.44929359829471E-16));
#1640=CARTESIAN_POINT('',(-5.,0.25,-2.5));
#1641=AXIS2_PLACEMENT_3D('',#1642,#1643,#1644);
#1642=CARTESIAN_POINT('',(-5.,-2.35826815610548E-16,-2.5));
#1643=DIRECTION('',(-1.,0.,-6.77236045021345E-15));
#1644=DIRECTION('',(4.19082355898662E-31,1.,-6.12323399573676E-17));
ENDSEC;
END-ISO-10303-21;
