ISO-10303-21;
HEADER;
FILE_DESCRIPTION(('STEP AP214'),
    '1');
FILE_NAME('TO-18_1',
    '2024-02-22T08:21:54',
    (''),
    (''),
    'C3D Converter',
    'C3D Toolkit',
    '');
/**/
FILE_SCHEMA(('AUTOMOTIVE_DESIGN { 1 0 10303 214 3 1 1}'));
ENDSEC;

DATA;
#1=PRODUCT_DEFINITION('','UNSPECIFIED',#48,#51);
#2=SHAPE_DEFINITION_REPRESENTATION(#46,#3);
#3=SHAPE_REPRESENTATION('NONE',(#4),#8);
#4=AXIS2_PLACEMENT_3D('',#5,#6,#7);
#5=CARTESIAN_POINT('',(0.,0.,0.));
#6=DIRECTION('',(0.,0.,1.));
#7=DIRECTION('',(1.,0.,0.));
#8=(GEOMETRIC_REPRESENTATION_CONTEXT(3)GLOBAL_UNCERTAINTY_ASSIGNED_CONTEXT((#10))
GLOBAL_UNIT_ASSIGNED_CONTEXT((#9,#11,#12))REPRESENTATION_CONTEXT('NONE','NONE'));
#9=(LENGTH_UNIT()NAMED_UNIT(*)SI_UNIT(.MILLI.,.METRE.));
#10=UNCERTAINTY_MEASURE_WITH_UNIT(LENGTH_MEASURE(1.E-5),#9,'NONE','NONE');
#11=(NAMED_UNIT(*)PLANE_ANGLE_UNIT()SI_UNIT($,.RADIAN.));
#12=(NAMED_UNIT(*)SI_UNIT($,.STERADIAN.)SOLID_ANGLE_UNIT());
#13=MANIFOLD_SOLID_BREP('',#14);
#14=CLOSED_SHELL('',(#73,#82,#91,#100,#109,#118,#127,#136,#145,#154,#163));
#15=COLOUR_RGB('',0.564705882352941,0.564705882352941,0.564705882352941);
#16=FILL_AREA_STYLE_COLOUR('',#15);
#17=FILL_AREA_STYLE($,(#16));
#18=SURFACE_STYLE_FILL_AREA(#17);
#19=SURFACE_SIDE_STYLE('',(#18));
#20=SURFACE_STYLE_USAGE(.BOTH.,#19);
#21=PRESENTATION_STYLE_ASSIGNMENT((#20));
#22=MECHANICAL_DESIGN_GEOMETRIC_PRESENTATION_REPRESENTATION('NONE',(#23,#33,#43,
#81,#90,#99,#108,#117,#126,#135,#144,#153,#162,#171,#180,#189,#198,#207,#216,#225,
#234,#243,#252,#261,#270,#279,#288,#297,#306,#315,#324,#333,#342,#351,#360,#369,
#378,#387,#396,#405,#414),#8);
#23=STYLED_ITEM('',(#21),#13);
#24=MANIFOLD_SOLID_BREP('',#25);
#25=CLOSED_SHELL('',(#172,#181,#190,#199,#208,#217));
#26=COLOUR_RGB('',0.564705882352941,0.564705882352941,0.564705882352941);
#27=FILL_AREA_STYLE_COLOUR('',#26);
#28=FILL_AREA_STYLE($,(#27));
#29=SURFACE_STYLE_FILL_AREA(#28);
#30=SURFACE_SIDE_STYLE('',(#29));
#31=SURFACE_STYLE_USAGE(.BOTH.,#30);
#32=PRESENTATION_STYLE_ASSIGNMENT((#31));
#33=STYLED_ITEM('',(#32),#24);
#34=MANIFOLD_SOLID_BREP('',#35);
#35=CLOSED_SHELL('',(#226,#235,#244,#253,#262,#271,#280,#289,#298,#307,#316,#325,
#334,#343,#352,#361,#370,#379,#388,#397,#406));
#36=COLOUR_RGB('',0.564705882352941,0.564705882352941,0.564705882352941);
#37=FILL_AREA_STYLE_COLOUR('',#36);
#38=FILL_AREA_STYLE($,(#37));
#39=SURFACE_STYLE_FILL_AREA(#38);
#40=SURFACE_SIDE_STYLE('',(#39));
#41=SURFACE_STYLE_USAGE(.BOTH.,#40);
#42=PRESENTATION_STYLE_ASSIGNMENT((#41));
#43=STYLED_ITEM('',(#42),#34);
#44=ADVANCED_BREP_SHAPE_REPRESENTATION('NONE',(#13,#24,#34),#8);
#45=SHAPE_REPRESENTATION_RELATIONSHIP('','',#3,#44);
#46=PRODUCT_DEFINITION_SHAPE('NONE','NONE',#1);
#47=MECHANICAL_CONTEXT('NONE',#52,'mechanical');
#48=PRODUCT_DEFINITION_FORMATION_WITH_SPECIFIED_SOURCE('ANY','UNSPECIFIED',#49,.NOT_KNOWN.);
#49=PRODUCT('','TO-18_1','NONE',(#47));
#50=PRODUCT_RELATED_PRODUCT_CATEGORY('detail','',(#49));
#51=DESIGN_CONTEXT('detailed design',#52,'design');
#52=APPLICATION_CONTEXT('configuration controlled 3d designs of mechanical parts and assemblies');
#53=APPLICATION_PROTOCOL_DEFINITION('international standard','config_control_design',
1994,#52);
#54=CC_DESIGN_DATE_AND_TIME_ASSIGNMENT(#55,#59,(#1));
#55=DATE_AND_TIME(#56,#57);
#56=CALENDAR_DATE(0,1,1);
#57=LOCAL_TIME(0,0,0.,#58);
#58=COORDINATED_UNIVERSAL_TIME_OFFSET(0,0,.AHEAD.);
#59=DATE_TIME_ROLE('creation_date');
#60=CC_DESIGN_APPROVAL(#61,(#1));
#61=APPROVAL(#62,'UNSPECIFIED');
#62=APPROVAL_STATUS('not_yet_approved');
#63=APPROVAL_DATE_TIME(#64,#61);
#64=DATE_AND_TIME(#65,#66);
#65=CALENDAR_DATE(0,1,1);
#66=LOCAL_TIME(0,0,0.,#67);
#67=COORDINATED_UNIVERSAL_TIME_OFFSET(0,0,.AHEAD.);
#68=PERSON('UNSPECIFIED','UNSPECIFIED','UNSPECIFIED',('UNSPECIFIED'),('UNSPECIFIED'),
('UNSPECIFIED'));
#69=ORGANIZATION('UNSPECIFIED','UNSPECIFIED','UNSPECIFIED');
#70=PERSON_AND_ORGANIZATION(#68,#69);
#71=PERSON_AND_ORGANIZATION_ROLE('creator');
#72=CC_DESIGN_PERSON_AND_ORGANIZATION_ASSIGNMENT(#70,#71,(#48,#1));
#73=ADVANCED_FACE('',(#415),#417,.T.);
#74=COLOUR_RGB('',1.,1.,1.);
#75=FILL_AREA_STYLE_COLOUR('',#74);
#76=FILL_AREA_STYLE($,(#75));
#77=SURFACE_STYLE_FILL_AREA(#76);
#78=SURFACE_SIDE_STYLE('',(#77));
#79=SURFACE_STYLE_USAGE(.BOTH.,#78);
#80=PRESENTATION_STYLE_ASSIGNMENT((#79));
#81=STYLED_ITEM('',(#80),#73);
#82=ADVANCED_FACE('',(#422,#424),#426,.F.);
#83=COLOUR_RGB('',1.,1.,1.);
#84=FILL_AREA_STYLE_COLOUR('',#83);
#85=FILL_AREA_STYLE($,(#84));
#86=SURFACE_STYLE_FILL_AREA(#85);
#87=SURFACE_SIDE_STYLE('',(#86));
#88=SURFACE_STYLE_USAGE(.BOTH.,#87);
#89=PRESENTATION_STYLE_ASSIGNMENT((#88));
#90=STYLED_ITEM('',(#89),#82);
#91=ADVANCED_FACE('',(#431,#433),#435,.F.);
#92=COLOUR_RGB('',1.,1.,1.);
#93=FILL_AREA_STYLE_COLOUR('',#92);
#94=FILL_AREA_STYLE($,(#93));
#95=SURFACE_STYLE_FILL_AREA(#94);
#96=SURFACE_SIDE_STYLE('',(#95));
#97=SURFACE_STYLE_USAGE(.BOTH.,#96);
#98=PRESENTATION_STYLE_ASSIGNMENT((#97));
#99=STYLED_ITEM('',(#98),#91);
#100=ADVANCED_FACE('',(#440,#442),#444,.T.);
#101=COLOUR_RGB('',1.,1.,1.);
#102=FILL_AREA_STYLE_COLOUR('',#101);
#103=FILL_AREA_STYLE($,(#102));
#104=SURFACE_STYLE_FILL_AREA(#103);
#105=SURFACE_SIDE_STYLE('',(#104));
#106=SURFACE_STYLE_USAGE(.BOTH.,#105);
#107=PRESENTATION_STYLE_ASSIGNMENT((#106));
#108=STYLED_ITEM('',(#107),#100);
#109=ADVANCED_FACE('',(#449,#451),#453,.T.);
#110=COLOUR_RGB('',1.,1.,1.);
#111=FILL_AREA_STYLE_COLOUR('',#110);
#112=FILL_AREA_STYLE($,(#111));
#113=SURFACE_STYLE_FILL_AREA(#112);
#114=SURFACE_SIDE_STYLE('',(#113));
#115=SURFACE_STYLE_USAGE(.BOTH.,#114);
#116=PRESENTATION_STYLE_ASSIGNMENT((#115));
#117=STYLED_ITEM('',(#116),#109);
#118=ADVANCED_FACE('',(#458,#460),#462,.T.);
#119=COLOUR_RGB('',1.,1.,1.);
#120=FILL_AREA_STYLE_COLOUR('',#119);
#121=FILL_AREA_STYLE($,(#120));
#122=SURFACE_STYLE_FILL_AREA(#121);
#123=SURFACE_SIDE_STYLE('',(#122));
#124=SURFACE_STYLE_USAGE(.BOTH.,#123);
#125=PRESENTATION_STYLE_ASSIGNMENT((#124));
#126=STYLED_ITEM('',(#125),#118);
#127=ADVANCED_FACE('',(#467,#469),#471,.T.);
#128=COLOUR_RGB('',1.,1.,1.);
#129=FILL_AREA_STYLE_COLOUR('',#128);
#130=FILL_AREA_STYLE($,(#129));
#131=SURFACE_STYLE_FILL_AREA(#130);
#132=SURFACE_SIDE_STYLE('',(#131));
#133=SURFACE_STYLE_USAGE(.BOTH.,#132);
#134=PRESENTATION_STYLE_ASSIGNMENT((#133));
#135=STYLED_ITEM('',(#134),#127);
#136=ADVANCED_FACE('',(#476,#478),#480,.F.);
#137=COLOUR_RGB('',1.,1.,1.);
#138=FILL_AREA_STYLE_COLOUR('',#137);
#139=FILL_AREA_STYLE($,(#138));
#140=SURFACE_STYLE_FILL_AREA(#139);
#141=SURFACE_SIDE_STYLE('',(#140));
#142=SURFACE_STYLE_USAGE(.BOTH.,#141);
#143=PRESENTATION_STYLE_ASSIGNMENT((#142));
#144=STYLED_ITEM('',(#143),#136);
#145=ADVANCED_FACE('',(#485,#487),#489,.T.);
#146=COLOUR_RGB('',1.,1.,1.);
#147=FILL_AREA_STYLE_COLOUR('',#146);
#148=FILL_AREA_STYLE($,(#147));
#149=SURFACE_STYLE_FILL_AREA(#148);
#150=SURFACE_SIDE_STYLE('',(#149));
#151=SURFACE_STYLE_USAGE(.BOTH.,#150);
#152=PRESENTATION_STYLE_ASSIGNMENT((#151));
#153=STYLED_ITEM('',(#152),#145);
#154=ADVANCED_FACE('',(#494,#496),#498,.T.);
#155=COLOUR_RGB('',1.,1.,1.);
#156=FILL_AREA_STYLE_COLOUR('',#155);
#157=FILL_AREA_STYLE($,(#156));
#158=SURFACE_STYLE_FILL_AREA(#157);
#159=SURFACE_SIDE_STYLE('',(#158));
#160=SURFACE_STYLE_USAGE(.BOTH.,#159);
#161=PRESENTATION_STYLE_ASSIGNMENT((#160));
#162=STYLED_ITEM('',(#161),#154);
#163=ADVANCED_FACE('',(#503),#505,.T.);
#164=COLOUR_RGB('',1.,1.,1.);
#165=FILL_AREA_STYLE_COLOUR('',#164);
#166=FILL_AREA_STYLE($,(#165));
#167=SURFACE_STYLE_FILL_AREA(#166);
#168=SURFACE_SIDE_STYLE('',(#167));
#169=SURFACE_STYLE_USAGE(.BOTH.,#168);
#170=PRESENTATION_STYLE_ASSIGNMENT((#169));
#171=STYLED_ITEM('',(#170),#163);
#172=ADVANCED_FACE('',(#510),#512,.T.);
#173=COLOUR_RGB('',1.,1.,1.);
#174=FILL_AREA_STYLE_COLOUR('',#173);
#175=FILL_AREA_STYLE($,(#174));
#176=SURFACE_STYLE_FILL_AREA(#175);
#177=SURFACE_SIDE_STYLE('',(#176));
#178=SURFACE_STYLE_USAGE(.BOTH.,#177);
#179=PRESENTATION_STYLE_ASSIGNMENT((#178));
#180=STYLED_ITEM('',(#179),#172);
#181=ADVANCED_FACE('',(#517),#519,.T.);
#182=COLOUR_RGB('',1.,1.,1.);
#183=FILL_AREA_STYLE_COLOUR('',#182);
#184=FILL_AREA_STYLE($,(#183));
#185=SURFACE_STYLE_FILL_AREA(#184);
#186=SURFACE_SIDE_STYLE('',(#185));
#187=SURFACE_STYLE_USAGE(.BOTH.,#186);
#188=PRESENTATION_STYLE_ASSIGNMENT((#187));
#189=STYLED_ITEM('',(#188),#181);
#190=ADVANCED_FACE('',(#524),#526,.F.);
#191=COLOUR_RGB('',1.,1.,1.);
#192=FILL_AREA_STYLE_COLOUR('',#191);
#193=FILL_AREA_STYLE($,(#192));
#194=SURFACE_STYLE_FILL_AREA(#193);
#195=SURFACE_SIDE_STYLE('',(#194));
#196=SURFACE_STYLE_USAGE(.BOTH.,#195);
#197=PRESENTATION_STYLE_ASSIGNMENT((#196));
#198=STYLED_ITEM('',(#197),#190);
#199=ADVANCED_FACE('',(#531),#533,.T.);
#200=COLOUR_RGB('',1.,1.,1.);
#201=FILL_AREA_STYLE_COLOUR('',#200);
#202=FILL_AREA_STYLE($,(#201));
#203=SURFACE_STYLE_FILL_AREA(#202);
#204=SURFACE_SIDE_STYLE('',(#203));
#205=SURFACE_STYLE_USAGE(.BOTH.,#204);
#206=PRESENTATION_STYLE_ASSIGNMENT((#205));
#207=STYLED_ITEM('',(#206),#199);
#208=ADVANCED_FACE('',(#538),#540,.T.);
#209=COLOUR_RGB('',1.,1.,1.);
#210=FILL_AREA_STYLE_COLOUR('',#209);
#211=FILL_AREA_STYLE($,(#210));
#212=SURFACE_STYLE_FILL_AREA(#211);
#213=SURFACE_SIDE_STYLE('',(#212));
#214=SURFACE_STYLE_USAGE(.BOTH.,#213);
#215=PRESENTATION_STYLE_ASSIGNMENT((#214));
#216=STYLED_ITEM('',(#215),#208);
#217=ADVANCED_FACE('',(#545),#547,.F.);
#218=COLOUR_RGB('',1.,1.,1.);
#219=FILL_AREA_STYLE_COLOUR('',#218);
#220=FILL_AREA_STYLE($,(#219));
#221=SURFACE_STYLE_FILL_AREA(#220);
#222=SURFACE_SIDE_STYLE('',(#221));
#223=SURFACE_STYLE_USAGE(.BOTH.,#222);
#224=PRESENTATION_STYLE_ASSIGNMENT((#223));
#225=STYLED_ITEM('',(#224),#217);
#226=ADVANCED_FACE('',(#552,#554,#556,#558),#560,.T.);
#227=COLOUR_RGB('',1.,1.,1.);
#228=FILL_AREA_STYLE_COLOUR('',#227);
#229=FILL_AREA_STYLE($,(#228));
#230=SURFACE_STYLE_FILL_AREA(#229);
#231=SURFACE_SIDE_STYLE('',(#230));
#232=SURFACE_STYLE_USAGE(.BOTH.,#231);
#233=PRESENTATION_STYLE_ASSIGNMENT((#232));
#234=STYLED_ITEM('',(#233),#226);
#235=ADVANCED_FACE('',(#565,#567,#569,#571),#573,.T.);
#236=COLOUR_RGB('',0.4,0.2,0.);
#237=FILL_AREA_STYLE_COLOUR('',#236);
#238=FILL_AREA_STYLE($,(#237));
#239=SURFACE_STYLE_FILL_AREA(#238);
#240=SURFACE_SIDE_STYLE('',(#239));
#241=SURFACE_STYLE_USAGE(.BOTH.,#240);
#242=PRESENTATION_STYLE_ASSIGNMENT((#241));
#243=STYLED_ITEM('',(#242),#235);
#244=ADVANCED_FACE('',(#578,#580),#582,.T.);
#245=COLOUR_RGB('',1.,1.,1.);
#246=FILL_AREA_STYLE_COLOUR('',#245);
#247=FILL_AREA_STYLE($,(#246));
#248=SURFACE_STYLE_FILL_AREA(#247);
#249=SURFACE_SIDE_STYLE('',(#248));
#250=SURFACE_STYLE_USAGE(.BOTH.,#249);
#251=PRESENTATION_STYLE_ASSIGNMENT((#250));
#252=STYLED_ITEM('',(#251),#244);
#253=ADVANCED_FACE('',(#587,#589),#591,.T.);
#254=COLOUR_RGB('',1.,1.,1.);
#255=FILL_AREA_STYLE_COLOUR('',#254);
#256=FILL_AREA_STYLE($,(#255));
#257=SURFACE_STYLE_FILL_AREA(#256);
#258=SURFACE_SIDE_STYLE('',(#257));
#259=SURFACE_STYLE_USAGE(.BOTH.,#258);
#260=PRESENTATION_STYLE_ASSIGNMENT((#259));
#261=STYLED_ITEM('',(#260),#253);
#262=ADVANCED_FACE('',(#596,#598),#600,.T.);
#263=COLOUR_RGB('',1.,1.,1.);
#264=FILL_AREA_STYLE_COLOUR('',#263);
#265=FILL_AREA_STYLE($,(#264));
#266=SURFACE_STYLE_FILL_AREA(#265);
#267=SURFACE_SIDE_STYLE('',(#266));
#268=SURFACE_STYLE_USAGE(.BOTH.,#267);
#269=PRESENTATION_STYLE_ASSIGNMENT((#268));
#270=STYLED_ITEM('',(#269),#262);
#271=ADVANCED_FACE('',(#605,#607),#609,.T.);
#272=COLOUR_RGB('',1.,1.,1.);
#273=FILL_AREA_STYLE_COLOUR('',#272);
#274=FILL_AREA_STYLE($,(#273));
#275=SURFACE_STYLE_FILL_AREA(#274);
#276=SURFACE_SIDE_STYLE('',(#275));
#277=SURFACE_STYLE_USAGE(.BOTH.,#276);
#278=PRESENTATION_STYLE_ASSIGNMENT((#277));
#279=STYLED_ITEM('',(#278),#271);
#280=ADVANCED_FACE('',(#614,#616),#618,.T.);
#281=COLOUR_RGB('',1.,1.,1.);
#282=FILL_AREA_STYLE_COLOUR('',#281);
#283=FILL_AREA_STYLE($,(#282));
#284=SURFACE_STYLE_FILL_AREA(#283);
#285=SURFACE_SIDE_STYLE('',(#284));
#286=SURFACE_STYLE_USAGE(.BOTH.,#285);
#287=PRESENTATION_STYLE_ASSIGNMENT((#286));
#288=STYLED_ITEM('',(#287),#280);
#289=ADVANCED_FACE('',(#623,#625),#627,.T.);
#290=COLOUR_RGB('',1.,1.,1.);
#291=FILL_AREA_STYLE_COLOUR('',#290);
#292=FILL_AREA_STYLE($,(#291));
#293=SURFACE_STYLE_FILL_AREA(#292);
#294=SURFACE_SIDE_STYLE('',(#293));
#295=SURFACE_STYLE_USAGE(.BOTH.,#294);
#296=PRESENTATION_STYLE_ASSIGNMENT((#295));
#297=STYLED_ITEM('',(#296),#289);
#298=ADVANCED_FACE('',(#632,#634),#636,.T.);
#299=COLOUR_RGB('',1.,1.,1.);
#300=FILL_AREA_STYLE_COLOUR('',#299);
#301=FILL_AREA_STYLE($,(#300));
#302=SURFACE_STYLE_FILL_AREA(#301);
#303=SURFACE_SIDE_STYLE('',(#302));
#304=SURFACE_STYLE_USAGE(.BOTH.,#303);
#305=PRESENTATION_STYLE_ASSIGNMENT((#304));
#306=STYLED_ITEM('',(#305),#298);
#307=ADVANCED_FACE('',(#641,#643),#645,.T.);
#308=COLOUR_RGB('',1.,1.,1.);
#309=FILL_AREA_STYLE_COLOUR('',#308);
#310=FILL_AREA_STYLE($,(#309));
#311=SURFACE_STYLE_FILL_AREA(#310);
#312=SURFACE_SIDE_STYLE('',(#311));
#313=SURFACE_STYLE_USAGE(.BOTH.,#312);
#314=PRESENTATION_STYLE_ASSIGNMENT((#313));
#315=STYLED_ITEM('',(#314),#307);
#316=ADVANCED_FACE('',(#650),#652,.F.);
#317=COLOUR_RGB('',1.,1.,1.);
#318=FILL_AREA_STYLE_COLOUR('',#317);
#319=FILL_AREA_STYLE($,(#318));
#320=SURFACE_STYLE_FILL_AREA(#319);
#321=SURFACE_SIDE_STYLE('',(#320));
#322=SURFACE_STYLE_USAGE(.BOTH.,#321);
#323=PRESENTATION_STYLE_ASSIGNMENT((#322));
#324=STYLED_ITEM('',(#323),#316);
#325=ADVANCED_FACE('',(#657),#659,.T.);
#326=COLOUR_RGB('',1.,1.,1.);
#327=FILL_AREA_STYLE_COLOUR('',#326);
#328=FILL_AREA_STYLE($,(#327));
#329=SURFACE_STYLE_FILL_AREA(#328);
#330=SURFACE_SIDE_STYLE('',(#329));
#331=SURFACE_STYLE_USAGE(.BOTH.,#330);
#332=PRESENTATION_STYLE_ASSIGNMENT((#331));
#333=STYLED_ITEM('',(#332),#325);
#334=ADVANCED_FACE('',(#664),#666,.F.);
#335=COLOUR_RGB('',1.,1.,1.);
#336=FILL_AREA_STYLE_COLOUR('',#335);
#337=FILL_AREA_STYLE($,(#336));
#338=SURFACE_STYLE_FILL_AREA(#337);
#339=SURFACE_SIDE_STYLE('',(#338));
#340=SURFACE_STYLE_USAGE(.BOTH.,#339);
#341=PRESENTATION_STYLE_ASSIGNMENT((#340));
#342=STYLED_ITEM('',(#341),#334);
#343=ADVANCED_FACE('',(#671),#673,.T.);
#344=COLOUR_RGB('',1.,1.,1.);
#345=FILL_AREA_STYLE_COLOUR('',#344);
#346=FILL_AREA_STYLE($,(#345));
#347=SURFACE_STYLE_FILL_AREA(#346);
#348=SURFACE_SIDE_STYLE('',(#347));
#349=SURFACE_STYLE_USAGE(.BOTH.,#348);
#350=PRESENTATION_STYLE_ASSIGNMENT((#349));
#351=STYLED_ITEM('',(#350),#343);
#352=ADVANCED_FACE('',(#678),#680,.F.);
#353=COLOUR_RGB('',1.,1.,1.);
#354=FILL_AREA_STYLE_COLOUR('',#353);
#355=FILL_AREA_STYLE($,(#354));
#356=SURFACE_STYLE_FILL_AREA(#355);
#357=SURFACE_SIDE_STYLE('',(#356));
#358=SURFACE_STYLE_USAGE(.BOTH.,#357);
#359=PRESENTATION_STYLE_ASSIGNMENT((#358));
#360=STYLED_ITEM('',(#359),#352);
#361=ADVANCED_FACE('',(#685),#687,.T.);
#362=COLOUR_RGB('',1.,1.,1.);
#363=FILL_AREA_STYLE_COLOUR('',#362);
#364=FILL_AREA_STYLE($,(#363));
#365=SURFACE_STYLE_FILL_AREA(#364);
#366=SURFACE_SIDE_STYLE('',(#365));
#367=SURFACE_STYLE_USAGE(.BOTH.,#366);
#368=PRESENTATION_STYLE_ASSIGNMENT((#367));
#369=STYLED_ITEM('',(#368),#361);
#370=ADVANCED_FACE('',(#692,#694),#696,.T.);
#371=COLOUR_RGB('',1.,1.,1.);
#372=FILL_AREA_STYLE_COLOUR('',#371);
#373=FILL_AREA_STYLE($,(#372));
#374=SURFACE_STYLE_FILL_AREA(#373);
#375=SURFACE_SIDE_STYLE('',(#374));
#376=SURFACE_STYLE_USAGE(.BOTH.,#375);
#377=PRESENTATION_STYLE_ASSIGNMENT((#376));
#378=STYLED_ITEM('',(#377),#370);
#379=ADVANCED_FACE('',(#701,#703),#705,.F.);
#380=COLOUR_RGB('',1.,1.,1.);
#381=FILL_AREA_STYLE_COLOUR('',#380);
#382=FILL_AREA_STYLE($,(#381));
#383=SURFACE_STYLE_FILL_AREA(#382);
#384=SURFACE_SIDE_STYLE('',(#383));
#385=SURFACE_STYLE_USAGE(.BOTH.,#384);
#386=PRESENTATION_STYLE_ASSIGNMENT((#385));
#387=STYLED_ITEM('',(#386),#379);
#388=ADVANCED_FACE('',(#710,#712),#714,.F.);
#389=COLOUR_RGB('',1.,1.,1.);
#390=FILL_AREA_STYLE_COLOUR('',#389);
#391=FILL_AREA_STYLE($,(#390));
#392=SURFACE_STYLE_FILL_AREA(#391);
#393=SURFACE_SIDE_STYLE('',(#392));
#394=SURFACE_STYLE_USAGE(.BOTH.,#393);
#395=PRESENTATION_STYLE_ASSIGNMENT((#394));
#396=STYLED_ITEM('',(#395),#388);
#397=ADVANCED_FACE('',(#719,#721),#723,.T.);
#398=COLOUR_RGB('',1.,1.,1.);
#399=FILL_AREA_STYLE_COLOUR('',#398);
#400=FILL_AREA_STYLE($,(#399));
#401=SURFACE_STYLE_FILL_AREA(#400);
#402=SURFACE_SIDE_STYLE('',(#401));
#403=SURFACE_STYLE_USAGE(.BOTH.,#402);
#404=PRESENTATION_STYLE_ASSIGNMENT((#403));
#405=STYLED_ITEM('',(#404),#397);
#406=ADVANCED_FACE('',(#728,#730),#732,.T.);
#407=COLOUR_RGB('',1.,1.,1.);
#408=FILL_AREA_STYLE_COLOUR('',#407);
#409=FILL_AREA_STYLE($,(#408));
#410=SURFACE_STYLE_FILL_AREA(#409);
#411=SURFACE_SIDE_STYLE('',(#410));
#412=SURFACE_STYLE_USAGE(.BOTH.,#411);
#413=PRESENTATION_STYLE_ASSIGNMENT((#412));
#414=STYLED_ITEM('',(#413),#406);
#415=FACE_BOUND('',#416,.T.);
#416=EDGE_LOOP('',(#737));
#417=PLANE('',#418);
#418=AXIS2_PLACEMENT_3D('',#419,#420,#421);
#419=CARTESIAN_POINT('',(6.2,0.,0.));
#420=DIRECTION('',(-1.,0.,0.));
#421=DIRECTION('',(0.,-6.12323399573677E-17,1.));
#422=FACE_OUTER_BOUND('',#423,.T.);
#423=EDGE_LOOP('',(#738));
#424=FACE_OUTER_BOUND('',#425,.T.);
#425=EDGE_LOOP('',(#739));
#426=TOROIDAL_SURFACE('',#427,1.89902423754531,0.299512913492573);
#427=AXIS2_PLACEMENT_3D('',#428,#429,#430);
#428=CARTESIAN_POINT('',(5.90048867594726,0.,0.));
#429=DIRECTION('',(-1.,0.,0.));
#430=DIRECTION('',(0.,-6.12323399573677E-17,1.));
#431=FACE_OUTER_BOUND('',#432,.T.);
#432=EDGE_LOOP('',(#740));
#433=FACE_OUTER_BOUND('',#434,.T.);
#434=EDGE_LOOP('',(#741));
#435=CYLINDRICAL_SURFACE('',#436,2.19853675238344);
#436=AXIS2_PLACEMENT_3D('',#437,#438,#439);
#437=CARTESIAN_POINT('',(0.697631832510304,0.,0.));
#438=DIRECTION('',(-1.,0.,0.));
#439=DIRECTION('',(0.,-6.12323399573677E-17,1.));
#440=FACE_OUTER_BOUND('',#441,.T.);
#441=EDGE_LOOP('',(#742));
#442=FACE_OUTER_BOUND('',#443,.T.);
#443=EDGE_LOOP('',(#743));
#444=TOROIDAL_SURFACE('',#445,2.69420137106153,0.495664618678092);
#445=AXIS2_PLACEMENT_3D('',#446,#447,#448);
#446=CARTESIAN_POINT('',(0.697631832510304,0.,0.));
#447=DIRECTION('',(-1.,0.,0.));
#448=DIRECTION('',(0.,-6.12323399573677E-17,1.));
#449=FACE_BOUND('',#450,.T.);
#450=EDGE_LOOP('',(#744));
#451=FACE_BOUND('',#452,.T.);
#452=EDGE_LOOP('',(#745));
#453=PLANE('',#454);
#454=AXIS2_PLACEMENT_3D('',#455,#456,#457);
#455=CARTESIAN_POINT('',(0.201999999999999,0.,0.));
#456=DIRECTION('',(-1.,0.,0.));
#457=DIRECTION('',(0.,-6.12323399573677E-17,1.));
#458=FACE_OUTER_BOUND('',#459,.T.);
#459=EDGE_LOOP('',(#746));
#460=FACE_OUTER_BOUND('',#461,.T.);
#461=EDGE_LOOP('',(#747));
#462=CYLINDRICAL_SURFACE('',#463,2.88);
#463=AXIS2_PLACEMENT_3D('',#464,#465,#466);
#464=CARTESIAN_POINT('',(0.399999999999999,0.,0.));
#465=DIRECTION('',(-1.,0.,0.));
#466=DIRECTION('',(0.,-6.12323399573677E-17,1.));
#467=FACE_BOUND('',#468,.T.);
#468=EDGE_LOOP('',(#748));
#469=FACE_BOUND('',#470,.T.);
#470=EDGE_LOOP('',(#749));
#471=PLANE('',#472);
#472=AXIS2_PLACEMENT_3D('',#473,#474,#475);
#473=CARTESIAN_POINT('',(0.399999999999999,0.,0.));
#474=DIRECTION('',(1.,0.,0.));
#475=DIRECTION('',(0.,-6.12323399573677E-17,1.));
#476=FACE_OUTER_BOUND('',#477,.T.);
#477=EDGE_LOOP('',(#750));
#478=FACE_OUTER_BOUND('',#479,.T.);
#479=EDGE_LOOP('',(#751));
#480=TOROIDAL_SURFACE('',#481,2.80403288966602,0.304259749751121);
#481=AXIS2_PLACEMENT_3D('',#482,#483,#484);
#482=CARTESIAN_POINT('',(0.685884606448139,0.,0.));
#483=DIRECTION('',(-1.,0.,0.));
#484=DIRECTION('',(0.,-6.12323399573677E-17,1.));
#485=FACE_OUTER_BOUND('',#486,.T.);
#486=EDGE_LOOP('',(#752));
#487=FACE_OUTER_BOUND('',#488,.T.);
#488=EDGE_LOOP('',(#753));
#489=CYLINDRICAL_SURFACE('',#490,2.5);
#490=AXIS2_PLACEMENT_3D('',#491,#492,#493);
#491=CARTESIAN_POINT('',(5.9,0.,0.));
#492=DIRECTION('',(-1.,0.,0.));
#493=DIRECTION('',(0.,-6.12323399573677E-17,1.));
#494=FACE_OUTER_BOUND('',#495,.T.);
#495=EDGE_LOOP('',(#754));
#496=FACE_OUTER_BOUND('',#497,.T.);
#497=EDGE_LOOP('',(#755));
#498=TOROIDAL_SURFACE('',#499,1.9,0.6);
#499=AXIS2_PLACEMENT_3D('',#500,#501,#502);
#500=CARTESIAN_POINT('',(5.9,0.,0.));
#501=DIRECTION('',(-1.,0.,0.));
#502=DIRECTION('',(0.,-6.12323399573677E-17,1.));
#503=FACE_BOUND('',#504,.T.);
#504=EDGE_LOOP('',(#756));
#505=PLANE('',#506);
#506=AXIS2_PLACEMENT_3D('',#507,#508,#509);
#507=CARTESIAN_POINT('',(6.5,0.,0.));
#508=DIRECTION('',(1.,0.,0.));
#509=DIRECTION('',(0.,-6.12323399573676E-17,1.));
#510=FACE_BOUND('',#511,.T.);
#511=EDGE_LOOP('',(#757,#758,#759,#760));
#512=CYLINDRICAL_SURFACE('',#513,3.9);
#513=AXIS2_PLACEMENT_3D('',#514,#515,#516);
#514=CARTESIAN_POINT('',(2.32496913559418E-30,-1.28785870856518E-14,1.26565424807268E-14));
#515=DIRECTION('',(1.,0.,-1.83697019872103E-16));
#516=DIRECTION('',(-1.45474486517411E-16,0.610616788626203,-0.791926219699678));
#517=FACE_BOUND('',#518,.T.);
#518=EDGE_LOOP('',(#761,#762,#763,#764));
#519=PLANE('',#520);
#520=AXIS2_PLACEMENT_3D('',#521,#522,#523);
#521=CARTESIAN_POINT('',(-4.37457088982577E-16,3.08851225682873,-2.38140547564219));
#522=DIRECTION('',(1.23259516440783E-32,0.707106781186547,0.707106781186548));
#523=DIRECTION('',(1.29893408435324E-16,-0.707106781186548,0.707106781186547));
#524=FACE_BOUND('',#525,.T.);
#525=EDGE_LOOP('',(#765,#766,#767,#768));
#526=CYLINDRICAL_SURFACE('',#527,2.89999999999999);
#527=AXIS2_PLACEMENT_3D('',#528,#529,#530);
#528=CARTESIAN_POINT('',(0.,0.,0.));
#529=DIRECTION('',(-1.,0.,1.83697019872103E-16));
#530=DIRECTION('',(-1.05552788846372E-16,0.818432544229548,-0.574602619682463));
#531=FACE_BOUND('',#532,.T.);
#532=EDGE_LOOP('',(#769,#770,#771,#772));
#533=PLANE('',#534);
#534=AXIS2_PLACEMENT_3D('',#535,#536,#537);
#535=CARTESIAN_POINT('',(-4.359964960898E-16,1.66634759707913,-2.37345437826568));
#536=DIRECTION('',(-1.23259516440783E-32,-0.707106781186548,-0.707106781186547));
#537=DIRECTION('',(-1.29893408435324E-16,0.707106781186547,-0.707106781186548));
#538=FACE_BOUND('',#539,.T.);
#539=EDGE_LOOP('',(#773,#774,#775,#776));
#540=PLANE('',#541);
#541=AXIS2_PLACEMENT_3D('',#542,#543,#544);
#542=CARTESIAN_POINT('',(0.2,0.,-3.67394039744206E-17));
#543=DIRECTION('',(1.,0.,-1.83697019872103E-16));
#544=DIRECTION('',(1.12481983699639E-32,1.,6.12323399573677E-17));
#545=FACE_BOUND('',#546,.T.);
#546=EDGE_LOOP('',(#777,#778,#779,#780));
#547=PLANE('',#548);
#548=AXIS2_PLACEMENT_3D('',#549,#550,#551);
#549=CARTESIAN_POINT('',(0.,0.,0.));
#550=DIRECTION('',(1.,0.,-1.83697019872103E-16));
#551=DIRECTION('',(1.12481983699639E-32,1.,6.12323399573677E-17));
#552=FACE_BOUND('',#553,.T.);
#553=EDGE_LOOP('',(#781));
#554=FACE_BOUND('',#555,.T.);
#555=EDGE_LOOP('',(#782));
#556=FACE_BOUND('',#557,.T.);
#557=EDGE_LOOP('',(#783));
#558=FACE_BOUND('',#559,.T.);
#559=EDGE_LOOP('',(#784));
#560=PLANE('',#561);
#561=AXIS2_PLACEMENT_3D('',#562,#563,#564);
#562=CARTESIAN_POINT('',(2.9,0.,0.));
#563=DIRECTION('',(1.,0.,0.));
#564=DIRECTION('',(0.,-6.12323399573677E-17,1.));
#565=FACE_BOUND('',#566,.T.);
#566=EDGE_LOOP('',(#785,#786,#787));
#567=FACE_OUTER_BOUND('',#568,.T.);
#568=EDGE_LOOP('',(#788));
#569=FACE_BOUND('',#570,.T.);
#570=EDGE_LOOP('',(#789));
#571=FACE_BOUND('',#572,.T.);
#572=EDGE_LOOP('',(#790));
#573=DEGENERATE_TOROIDAL_SURFACE('',#574,0.207220573223106,11.9999999999996,.F.);
#574=AXIS2_PLACEMENT_3D('',#575,#576,#577);
#575=CARTESIAN_POINT('',(-11.3982106846823,0.,0.));
#576=DIRECTION('',(-1.,0.,0.));
#577=DIRECTION('',(0.,-6.12323399573677E-17,1.));
#578=FACE_OUTER_BOUND('',#579,.T.);
#579=EDGE_LOOP('',(#791));
#580=FACE_OUTER_BOUND('',#581,.T.);
#581=EDGE_LOOP('',(#792));
#582=CYLINDRICAL_SURFACE('',#583,0.25);
#583=AXIS2_PLACEMENT_3D('',#584,#585,#586);
#584=CARTESIAN_POINT('',(-5.,1.25,9.95025524307225E-16));
#585=DIRECTION('',(1.,0.,-1.83697019872103E-16));
#586=DIRECTION('',(1.12481983699639E-32,1.,6.12323399573677E-17));
#587=FACE_OUTER_BOUND('',#588,.T.);
#588=EDGE_LOOP('',(#793));
#589=FACE_OUTER_BOUND('',#590,.T.);
#590=EDGE_LOOP('',(#794));
#591=CYLINDRICAL_SURFACE('',#592,0.25);
#592=AXIS2_PLACEMENT_3D('',#593,#594,#595);
#593=CARTESIAN_POINT('',(-5.,1.25,9.95025524307225E-16));
#594=DIRECTION('',(1.,0.,-1.83697019872103E-16));
#595=DIRECTION('',(1.12481983699639E-32,1.,6.12323399573677E-17));
#596=FACE_BOUND('',#597,.T.);
#597=EDGE_LOOP('',(#795,#796,#797));
#598=FACE_OUTER_BOUND('',#599,.T.);
#599=EDGE_LOOP('',(#798));
#600=CYLINDRICAL_SURFACE('',#601,0.25);
#601=AXIS2_PLACEMENT_3D('',#602,#603,#604);
#602=CARTESIAN_POINT('',(-5.,0.,1.25));
#603=DIRECTION('',(1.,0.,-1.83697019872103E-16));
#604=DIRECTION('',(1.12481983699639E-32,1.,6.12323399573677E-17));
#605=FACE_OUTER_BOUND('',#606,.T.);
#606=EDGE_LOOP('',(#799));
#607=FACE_OUTER_BOUND('',#608,.T.);
#608=EDGE_LOOP('',(#800));
#609=CYLINDRICAL_SURFACE('',#610,0.25);
#610=AXIS2_PLACEMENT_3D('',#611,#612,#613);
#611=CARTESIAN_POINT('',(-5.,0.,1.25));
#612=DIRECTION('',(1.,0.,-1.83697019872103E-16));
#613=DIRECTION('',(1.12481983699639E-32,1.,6.12323399573677E-17));
#614=FACE_OUTER_BOUND('',#615,.T.);
#615=EDGE_LOOP('',(#801));
#616=FACE_OUTER_BOUND('',#617,.T.);
#617=EDGE_LOOP('',(#802));
#618=CYLINDRICAL_SURFACE('',#619,0.25);
#619=AXIS2_PLACEMENT_3D('',#620,#621,#622);
#620=CARTESIAN_POINT('',(-5.,-1.25,8.41944674413805E-16));
#621=DIRECTION('',(1.,0.,-1.83697019872103E-16));
#622=DIRECTION('',(1.12481983699639E-32,1.,6.12323399573677E-17));
#623=FACE_OUTER_BOUND('',#624,.T.);
#624=EDGE_LOOP('',(#803));
#625=FACE_OUTER_BOUND('',#626,.T.);
#626=EDGE_LOOP('',(#804));
#627=CYLINDRICAL_SURFACE('',#628,0.25);
#628=AXIS2_PLACEMENT_3D('',#629,#630,#631);
#629=CARTESIAN_POINT('',(-5.,-1.25,8.41944674413805E-16));
#630=DIRECTION('',(1.,0.,-1.83697019872103E-16));
#631=DIRECTION('',(1.12481983699639E-32,1.,6.12323399573677E-17));
#632=FACE_OUTER_BOUND('',#633,.T.);
#633=EDGE_LOOP('',(#805));
#634=FACE_OUTER_BOUND('',#635,.T.);
#635=EDGE_LOOP('',(#806));
#636=TOROIDAL_SURFACE('',#637,1.75,0.399999999999998);
#637=AXIS2_PLACEMENT_3D('',#638,#639,#640);
#638=CARTESIAN_POINT('',(2.5,0.,0.));
#639=DIRECTION('',(-1.,0.,0.));
#640=DIRECTION('',(0.,-6.12323399573677E-17,1.));
#641=FACE_OUTER_BOUND('',#642,.T.);
#642=EDGE_LOOP('',(#807));
#643=FACE_OUTER_BOUND('',#644,.T.);
#644=EDGE_LOOP('',(#808));
#645=TOROIDAL_SURFACE('',#646,2.552272750349,0.602272729275573);
#646=AXIS2_PLACEMENT_3D('',#647,#648,#649);
#647=CARTESIAN_POINT('',(0.599999999999999,0.,0.));
#648=DIRECTION('',(-1.,0.,0.));
#649=DIRECTION('',(0.,-6.12323399573677E-17,1.));
#650=FACE_BOUND('',#651,.T.);
#651=EDGE_LOOP('',(#809));
#652=PLANE('',#653);
#653=AXIS2_PLACEMENT_3D('',#654,#655,#656);
#654=CARTESIAN_POINT('',(-5.,0.,9.18485099360515E-16));
#655=DIRECTION('',(1.,0.,-1.83697019872103E-16));
#656=DIRECTION('',(1.12481983699639E-32,1.,6.12323399573677E-17));
#657=FACE_BOUND('',#658,.T.);
#658=EDGE_LOOP('',(#810));
#659=PLANE('',#660);
#660=AXIS2_PLACEMENT_3D('',#661,#662,#663);
#661=CARTESIAN_POINT('',(3.,0.,-5.51091059616309E-16));
#662=DIRECTION('',(1.,0.,-1.83697019872103E-16));
#663=DIRECTION('',(1.12481983699639E-32,1.,6.12323399573677E-17));
#664=FACE_BOUND('',#665,.T.);
#665=EDGE_LOOP('',(#811));
#666=PLANE('',#667);
#667=AXIS2_PLACEMENT_3D('',#668,#669,#670);
#668=CARTESIAN_POINT('',(-5.,0.,9.18485099360515E-16));
#669=DIRECTION('',(1.,0.,-1.83697019872103E-16));
#670=DIRECTION('',(1.12481983699639E-32,1.,6.12323399573677E-17));
#671=FACE_BOUND('',#672,.T.);
#672=EDGE_LOOP('',(#812));
#673=PLANE('',#674);
#674=AXIS2_PLACEMENT_3D('',#675,#676,#677);
#675=CARTESIAN_POINT('',(3.,0.,-5.51091059616309E-16));
#676=DIRECTION('',(1.,0.,-1.83697019872103E-16));
#677=DIRECTION('',(1.12481983699639E-32,1.,6.12323399573677E-17));
#678=FACE_BOUND('',#679,.T.);
#679=EDGE_LOOP('',(#813));
#680=PLANE('',#681);
#681=AXIS2_PLACEMENT_3D('',#682,#683,#684);
#682=CARTESIAN_POINT('',(-5.,0.,9.18485099360515E-16));
#683=DIRECTION('',(1.,0.,-1.83697019872103E-16));
#684=DIRECTION('',(1.12481983699639E-32,1.,6.12323399573677E-17));
#685=FACE_BOUND('',#686,.T.);
#686=EDGE_LOOP('',(#814));
#687=PLANE('',#688);
#688=AXIS2_PLACEMENT_3D('',#689,#690,#691);
#689=CARTESIAN_POINT('',(3.,0.,-5.51091059616309E-16));
#690=DIRECTION('',(1.,0.,-1.83697019872103E-16));
#691=DIRECTION('',(1.12481983699639E-32,1.,6.12323399573677E-17));
#692=FACE_OUTER_BOUND('',#693,.T.);
#693=EDGE_LOOP('',(#815));
#694=FACE_OUTER_BOUND('',#695,.T.);
#695=EDGE_LOOP('',(#816));
#696=CYLINDRICAL_SURFACE('',#697,2.15);
#697=AXIS2_PLACEMENT_3D('',#698,#699,#700);
#698=CARTESIAN_POINT('',(2.5,0.,0.));
#699=DIRECTION('',(-1.,0.,0.));
#700=DIRECTION('',(0.,-6.12323399573677E-17,1.));
#701=FACE_OUTER_BOUND('',#702,.T.);
#702=EDGE_LOOP('',(#817));
#703=FACE_OUTER_BOUND('',#704,.T.);
#704=EDGE_LOOP('',(#818));
#705=CONICAL_SURFACE('',#706,2.69999999999989,1.56932807323282);
#706=AXIS2_PLACEMENT_3D('',#707,#708,#709);
#707=CARTESIAN_POINT('',(-0.000293650923429034,0.,0.));
#708=DIRECTION('',(-1.,0.,0.));
#709=DIRECTION('',(0.,-6.12323399573677E-17,1.));
#710=FACE_OUTER_BOUND('',#711,.T.);
#711=EDGE_LOOP('',(#819));
#712=FACE_OUTER_BOUND('',#713,.T.);
#713=EDGE_LOOP('',(#820));
#714=TOROIDAL_SURFACE('',#715,2.55357147071828,0.403571470718279);
#715=AXIS2_PLACEMENT_3D('',#716,#717,#718);
#716=CARTESIAN_POINT('',(0.6,0.,0.));
#717=DIRECTION('',(-1.,0.,0.));
#718=DIRECTION('',(0.,-6.12323399573677E-17,1.));
#719=FACE_OUTER_BOUND('',#720,.T.);
#720=EDGE_LOOP('',(#821));
#721=FACE_OUTER_BOUND('',#722,.T.);
#722=EDGE_LOOP('',(#822));
#723=CYLINDRICAL_SURFACE('',#724,2.9);
#724=AXIS2_PLACEMENT_3D('',#725,#726,#727);
#725=CARTESIAN_POINT('',(0.199999963121508,0.,0.));
#726=DIRECTION('',(-1.,0.,0.));
#727=DIRECTION('',(0.,-6.12323399573677E-17,1.));
#728=FACE_BOUND('',#729,.T.);
#729=EDGE_LOOP('',(#823));
#730=FACE_BOUND('',#731,.T.);
#731=EDGE_LOOP('',(#824));
#732=PLANE('',#733);
#733=AXIS2_PLACEMENT_3D('',#734,#735,#736);
#734=CARTESIAN_POINT('',(0.199999963121508,0.,0.));
#735=DIRECTION('',(1.,0.,0.));
#736=DIRECTION('',(0.,-6.12323399573677E-17,1.));
#737=ORIENTED_EDGE('',*,*,#825,.T.);
#738=ORIENTED_EDGE('',*,*,#825,.F.);
#739=ORIENTED_EDGE('',*,*,#826,.T.);
#740=ORIENTED_EDGE('',*,*,#826,.F.);
#741=ORIENTED_EDGE('',*,*,#827,.T.);
#742=ORIENTED_EDGE('',*,*,#827,.F.);
#743=ORIENTED_EDGE('',*,*,#828,.T.);
#744=ORIENTED_EDGE('',*,*,#829,.T.);
#745=ORIENTED_EDGE('',*,*,#828,.F.);
#746=ORIENTED_EDGE('',*,*,#830,.T.);
#747=ORIENTED_EDGE('',*,*,#829,.F.);
#748=ORIENTED_EDGE('',*,*,#830,.F.);
#749=ORIENTED_EDGE('',*,*,#831,.T.);
#750=ORIENTED_EDGE('',*,*,#832,.T.);
#751=ORIENTED_EDGE('',*,*,#831,.F.);
#752=ORIENTED_EDGE('',*,*,#833,.T.);
#753=ORIENTED_EDGE('',*,*,#832,.F.);
#754=ORIENTED_EDGE('',*,*,#834,.T.);
#755=ORIENTED_EDGE('',*,*,#833,.F.);
#756=ORIENTED_EDGE('',*,*,#834,.F.);
#757=ORIENTED_EDGE('',*,*,#835,.T.);
#758=ORIENTED_EDGE('',*,*,#836,.T.);
#759=ORIENTED_EDGE('',*,*,#837,.F.);
#760=ORIENTED_EDGE('',*,*,#838,.F.);
#761=ORIENTED_EDGE('',*,*,#839,.T.);
#762=ORIENTED_EDGE('',*,*,#840,.T.);
#763=ORIENTED_EDGE('',*,*,#841,.F.);
#764=ORIENTED_EDGE('',*,*,#836,.F.);
#765=ORIENTED_EDGE('',*,*,#842,.T.);
#766=ORIENTED_EDGE('',*,*,#843,.T.);
#767=ORIENTED_EDGE('',*,*,#844,.F.);
#768=ORIENTED_EDGE('',*,*,#840,.F.);
#769=ORIENTED_EDGE('',*,*,#845,.T.);
#770=ORIENTED_EDGE('',*,*,#838,.T.);
#771=ORIENTED_EDGE('',*,*,#846,.F.);
#772=ORIENTED_EDGE('',*,*,#843,.F.);
#773=ORIENTED_EDGE('',*,*,#837,.T.);
#774=ORIENTED_EDGE('',*,*,#841,.T.);
#775=ORIENTED_EDGE('',*,*,#844,.T.);
#776=ORIENTED_EDGE('',*,*,#846,.T.);
#777=ORIENTED_EDGE('',*,*,#845,.F.);
#778=ORIENTED_EDGE('',*,*,#842,.F.);
#779=ORIENTED_EDGE('',*,*,#839,.F.);
#780=ORIENTED_EDGE('',*,*,#835,.F.);
#781=ORIENTED_EDGE('',*,*,#847,.F.);
#782=ORIENTED_EDGE('',*,*,#848,.F.);
#783=ORIENTED_EDGE('',*,*,#849,.F.);
#784=ORIENTED_EDGE('',*,*,#850,.F.);
#785=ORIENTED_EDGE('',*,*,#851,.F.);
#786=ORIENTED_EDGE('',*,*,#852,.F.);
#787=ORIENTED_EDGE('',*,*,#853,.F.);
#788=ORIENTED_EDGE('',*,*,#854,.T.);
#789=ORIENTED_EDGE('',*,*,#855,.F.);
#790=ORIENTED_EDGE('',*,*,#856,.F.);
#791=ORIENTED_EDGE('',*,*,#856,.T.);
#792=ORIENTED_EDGE('',*,*,#857,.T.);
#793=ORIENTED_EDGE('',*,*,#858,.F.);
#794=ORIENTED_EDGE('',*,*,#850,.T.);
#795=ORIENTED_EDGE('',*,*,#853,.T.);
#796=ORIENTED_EDGE('',*,*,#852,.T.);
#797=ORIENTED_EDGE('',*,*,#851,.T.);
#798=ORIENTED_EDGE('',*,*,#859,.T.);
#799=ORIENTED_EDGE('',*,*,#860,.F.);
#800=ORIENTED_EDGE('',*,*,#849,.T.);
#801=ORIENTED_EDGE('',*,*,#855,.T.);
#802=ORIENTED_EDGE('',*,*,#861,.T.);
#803=ORIENTED_EDGE('',*,*,#862,.F.);
#804=ORIENTED_EDGE('',*,*,#848,.T.);
#805=ORIENTED_EDGE('',*,*,#847,.T.);
#806=ORIENTED_EDGE('',*,*,#863,.F.);
#807=ORIENTED_EDGE('',*,*,#854,.F.);
#808=ORIENTED_EDGE('',*,*,#864,.T.);
#809=ORIENTED_EDGE('',*,*,#857,.F.);
#810=ORIENTED_EDGE('',*,*,#858,.T.);
#811=ORIENTED_EDGE('',*,*,#859,.F.);
#812=ORIENTED_EDGE('',*,*,#860,.T.);
#813=ORIENTED_EDGE('',*,*,#861,.F.);
#814=ORIENTED_EDGE('',*,*,#862,.T.);
#815=ORIENTED_EDGE('',*,*,#863,.T.);
#816=ORIENTED_EDGE('',*,*,#865,.F.);
#817=ORIENTED_EDGE('',*,*,#864,.F.);
#818=ORIENTED_EDGE('',*,*,#866,.T.);
#819=ORIENTED_EDGE('',*,*,#865,.T.);
#820=ORIENTED_EDGE('',*,*,#867,.F.);
#821=ORIENTED_EDGE('',*,*,#868,.T.);
#822=ORIENTED_EDGE('',*,*,#866,.F.);
#823=ORIENTED_EDGE('',*,*,#868,.F.);
#824=ORIENTED_EDGE('',*,*,#867,.T.);
#825=EDGE_CURVE('',#869,#869,#870,.T.);
#826=EDGE_CURVE('',#871,#871,#872,.T.);
#827=EDGE_CURVE('',#873,#873,#874,.T.);
#828=EDGE_CURVE('',#875,#875,#876,.T.);
#829=EDGE_CURVE('',#877,#877,#878,.T.);
#830=EDGE_CURVE('',#879,#879,#880,.T.);
#831=EDGE_CURVE('',#881,#881,#882,.T.);
#832=EDGE_CURVE('',#883,#883,#884,.T.);
#833=EDGE_CURVE('',#885,#885,#886,.T.);
#834=EDGE_CURVE('',#887,#887,#888,.T.);
#835=EDGE_CURVE('',#889,#890,#891,.T.);
#836=EDGE_CURVE('',#890,#892,#893,.T.);
#837=EDGE_CURVE('',#894,#892,#895,.T.);
#838=EDGE_CURVE('',#889,#894,#896,.T.);
#839=EDGE_CURVE('',#890,#897,#898,.T.);
#840=EDGE_CURVE('',#897,#899,#900,.T.);
#841=EDGE_CURVE('',#892,#899,#901,.T.);
#842=EDGE_CURVE('',#897,#902,#903,.T.);
#843=EDGE_CURVE('',#902,#904,#905,.T.);
#844=EDGE_CURVE('',#899,#904,#906,.T.);
#845=EDGE_CURVE('',#902,#889,#907,.T.);
#846=EDGE_CURVE('',#904,#894,#908,.T.);
#847=EDGE_CURVE('',#909,#909,#910,.T.);
#848=EDGE_CURVE('',#911,#911,#912,.T.);
#849=EDGE_CURVE('',#913,#913,#914,.T.);
#850=EDGE_CURVE('',#915,#915,#916,.T.);
#851=EDGE_CURVE('',#917,#918,#919,.T.);
#852=EDGE_CURVE('',#920,#917,#921,.T.);
#853=EDGE_CURVE('',#918,#920,#922,.F.);
#854=EDGE_CURVE('',#923,#923,#924,.T.);
#855=EDGE_CURVE('',#925,#925,#926,.T.);
#856=EDGE_CURVE('',#927,#927,#928,.T.);
#857=EDGE_CURVE('',#929,#929,#930,.T.);
#858=EDGE_CURVE('',#931,#931,#932,.T.);
#859=EDGE_CURVE('',#933,#933,#934,.T.);
#860=EDGE_CURVE('',#935,#935,#936,.T.);
#861=EDGE_CURVE('',#937,#937,#938,.T.);
#862=EDGE_CURVE('',#939,#939,#940,.T.);
#863=EDGE_CURVE('',#941,#941,#942,.T.);
#864=EDGE_CURVE('',#943,#943,#944,.T.);
#865=EDGE_CURVE('',#945,#945,#946,.T.);
#866=EDGE_CURVE('',#947,#947,#948,.T.);
#867=EDGE_CURVE('',#949,#949,#950,.T.);
#868=EDGE_CURVE('',#951,#951,#952,.T.);
#869=VERTEX_POINT('',#953);
#870=CIRCLE('',#954,1.9);
#871=VERTEX_POINT('',#958);
#872=CIRCLE('',#959,2.19853675238339);
#873=VERTEX_POINT('',#963);
#874=CIRCLE('',#964,2.19853675238344);
#875=VERTEX_POINT('',#968);
#876=CIRCLE('',#969,2.69990231945732);
#877=VERTEX_POINT('',#973);
#878=CIRCLE('',#974,2.88);
#879=VERTEX_POINT('',#978);
#880=CIRCLE('',#979,2.88);
#881=VERTEX_POINT('',#983);
#882=CIRCLE('',#984,2.69989842315958);
#883=VERTEX_POINT('',#988);
#884=CIRCLE('',#989,2.50000000000035);
#885=VERTEX_POINT('',#993);
#886=CIRCLE('',#994,2.5);
#887=VERTEX_POINT('',#998);
#888=CIRCLE('',#999,1.9);
#889=VERTEX_POINT('',#1003);
#890=VERTEX_POINT('',#1004);
#891=CIRCLE('',#1005,3.9);
#892=VERTEX_POINT('',#1009);
#893=LINE('',#1010,#1011);
#894=VERTEX_POINT('',#1013);
#895=CIRCLE('',#1014,3.9);
#896=LINE('',#1018,#1019);
#897=VERTEX_POINT('',#1021);
#898=LINE('',#1022,#1023);
#899=VERTEX_POINT('',#1025);
#900=LINE('',#1026,#1027);
#901=LINE('',#1029,#1030);
#902=VERTEX_POINT('',#1032);
#903=CIRCLE('',#1033,2.89999999999999);
#904=VERTEX_POINT('',#1037);
#905=LINE('',#1038,#1039);
#906=CIRCLE('',#1041,2.89999999999999);
#907=LINE('',#1045,#1046);
#908=LINE('',#1048,#1049);
#909=VERTEX_POINT('',#1051);
#910=CIRCLE('',#1052,1.75);
#911=VERTEX_POINT('',#1056);
#912=CIRCLE('',#1057,0.25);
#913=VERTEX_POINT('',#1061);
#914=CIRCLE('',#1062,0.25);
#915=VERTEX_POINT('',#1066);
#916=CIRCLE('',#1067,0.25);
#917=VERTEX_POINT('',#1071);
#918=VERTEX_POINT('',#1072);
#919=B_SPLINE_CURVE_WITH_KNOTS('',3,
(#1073,#1074,#1075,#1076,#1077,#1078,#1079,#1080,#1081,#1082,#1083,#1084,#1085),
.UNSPECIFIED.,.F.,.F.,
(4,1,1,1,1,1,1,1,1,1,4),
(0.,0.0796869097118498,0.159398252350458,0.239093056996102,0.345349270663356,0.478001242800607,
0.62823220595137,0.76060525029794,0.862676162517515,0.939513800306821,1.),
.UNSPECIFIED.);
#920=VERTEX_POINT('',#1086);
#921=B_SPLINE_CURVE_WITH_KNOTS('',3,
(#1087,#1088,#1089,#1090,#1091,#1092,#1093,#1094,#1095,#1096,#1097),
.UNSPECIFIED.,.F.,.F.,
(4,1,1,1,1,1,1,1,4),
(0.,0.101211087089702,0.222632456147502,0.36430069644225,0.522090374158001,0.679571391262577,
0.812303132738784,0.919022705723706,1.),
.UNSPECIFIED.);
#922=B_SPLINE_CURVE_WITH_KNOTS('',3,
(#1098,#1099,#1100,#1101,#1102,#1103,#1104,#1105,#1106,#1107,#1108,#1109,#1110,#1111,
#1112,#1113,#1114,#1115,#1116,#1117,#1118,#1119,#1120,#1121),
.UNSPECIFIED.,.F.,.F.,
(4,1,1,1,1,1,1,1,1,1,1,1,1,1,1,1,1,1,1,1,1,4),
(0.,0.0394733969843045,0.0789676110273668,0.118452568991187,0.171102187851304,0.236903445067905,
0.315788105233269,0.394286055399818,0.467379309190351,0.499949002427278,0.524029070707415,
0.564651903339108,0.602804471833126,0.654527627388868,0.721201859417866,0.791563364567994,
0.856070327868412,0.909002082625954,0.944672685574551,0.967489348355363,0.983143144690077,
1.),
.UNSPECIFIED.);
#923=VERTEX_POINT('',#1122);
#924=CIRCLE('',#1123,1.98417730024484);
#925=VERTEX_POINT('',#1127);
#926=B_SPLINE_CURVE_WITH_KNOTS('',3,
(#1128,#1129,#1130,#1131,#1132,#1133,#1134,#1135,#1136,#1137,#1138,#1139,#1140,#1141,
#1142,#1143,#1144,#1145,#1146,#1147,#1148,#1149,#1150,#1151,#1152,#1153,#1154,#1155,
#1156,#1157,#1158,#1159,#1160,#1161,#1162,#1163,#1164,#1165,#1166,#1167,#1168),
.UNSPECIFIED.,.T.,.F.,
(4,1,1,1,1,1,1,1,1,1,1,1,1,1,1,1,1,1,1,1,1,1,1,1,1,1,1,1,1,1,1,1,1,1,1,1,1,1,4),
(0.,0.0170940797966749,0.0369532632739342,0.0603863207074676,0.0882188061459246,
0.121247626798531,0.156537142894334,0.186366234092183,0.208545952482476,0.225200079403912,
0.241877944291245,0.25001639247282,0.266297423269394,0.298397966428519,0.338147702299803,
0.377815798757167,0.417400463235454,0.456919053330223,0.496395615629527,0.499997919271609,
0.535852529882292,0.575299672216095,0.614723816444751,0.652042909156157,0.687293450861489,
0.719857799688408,0.746933511391102,0.749977636909788,0.768470031383774,0.785073767006268,
0.801714016321951,0.824565847318288,0.855142948688807,0.891212973317921,0.924325458639473,
0.950793862858244,0.971445565404397,0.98710919780987,1.),
.UNSPECIFIED.);
#927=VERTEX_POINT('',#1169);
#928=B_SPLINE_CURVE_WITH_KNOTS('',3,
(#1170,#1171,#1172,#1173,#1174,#1175,#1176,#1177,#1178,#1179,#1180,#1181,#1182,#1183,
#1184,#1185,#1186,#1187,#1188,#1189,#1190,#1191,#1192,#1193,#1194,#1195,#1196,#1197,
#1198,#1199,#1200,#1201,#1202,#1203,#1204,#1205,#1206,#1207,#1208,#1209),
.UNSPECIFIED.,.T.,.F.,
(4,1,1,1,1,1,1,1,1,1,1,1,1,1,1,1,1,1,1,1,1,1,1,1,1,1,1,1,1,1,1,1,1,1,1,1,1,4),
(0.,0.0300994722307846,0.0629929330857843,0.099470428000414,0.138105591105924,0.175441849883705,
0.210414346784517,0.240550220490421,0.249977712232365,0.264486194583779,0.282514249925897,
0.301465626618024,0.327264007218288,0.360601175319554,0.395781945396002,0.428035393083742,
0.45450141292946,0.476535459239269,0.496362757352742,0.499998014980136,0.516188080902028,
0.536012443936812,0.558033974296614,0.584459917600988,0.617467568827268,0.65274104076247,
0.688107540320677,0.71585874928142,0.738104680346869,0.750014568769648,0.762522963730283,
0.794581007898345,0.832106517014083,0.86740084328497,0.900508914344453,0.934344190093408,
0.967510093980969,1.),
.UNSPECIFIED.);
#929=VERTEX_POINT('',#1210);
#930=CIRCLE('',#1211,0.25);
#931=VERTEX_POINT('',#1215);
#932=CIRCLE('',#1216,0.25);
#933=VERTEX_POINT('',#1220);
#934=CIRCLE('',#1221,0.25);
#935=VERTEX_POINT('',#1225);
#936=CIRCLE('',#1226,0.25);
#937=VERTEX_POINT('',#1230);
#938=CIRCLE('',#1231,0.25);
#939=VERTEX_POINT('',#1235);
#940=CIRCLE('',#1236,0.25);
#941=VERTEX_POINT('',#1240);
#942=CIRCLE('',#1241,2.15);
#943=VERTEX_POINT('',#1245);
#944=CIRCLE('',#1246,2.5);
#945=VERTEX_POINT('',#1250);
#946=CIRCLE('',#1251,2.15);
#947=VERTEX_POINT('',#1255);
#948=CIRCLE('',#1256,2.9);
#949=VERTEX_POINT('',#1260);
#950=CIRCLE('',#1261,2.5);
#951=VERTEX_POINT('',#1265);
#952=CIRCLE('',#1266,2.9);
#953=CARTESIAN_POINT('',(6.20000000000051,-1.16341445918999E-16,1.9));
#954=AXIS2_PLACEMENT_3D('',#955,#956,#957);
#955=CARTESIAN_POINT('',(6.2,0.,0.));
#956=DIRECTION('',(-1.,0.,0.));
#957=DIRECTION('',(0.,-6.12323399573677E-17,1.));
#958=CARTESIAN_POINT('',(5.9,-1.34621549830708E-16,2.19853675238342));
#959=AXIS2_PLACEMENT_3D('',#960,#961,#962);
#960=CARTESIAN_POINT('',(5.9,0.,0.));
#961=DIRECTION('',(-1.,0.,0.));
#962=DIRECTION('',(0.,-6.12323399573677E-17,1.));
#963=CARTESIAN_POINT('',(0.697631832510304,-1.3462154983071E-16,2.19853675238344));
#964=AXIS2_PLACEMENT_3D('',#965,#966,#967);
#965=CARTESIAN_POINT('',(0.697631832510304,0.,0.));
#966=DIRECTION('',(-1.,0.,0.));
#967=DIRECTION('',(0.,-6.12323399573677E-17,1.));
#968=CARTESIAN_POINT('',(0.202000000000421,-1.65321336676696E-16,2.69990231945732));
#969=AXIS2_PLACEMENT_3D('',#970,#971,#972);
#970=CARTESIAN_POINT('',(0.201999999999999,0.,0.));
#971=DIRECTION('',(-1.,0.,0.));
#972=DIRECTION('',(0.,-6.12323399573677E-17,1.));
#973=CARTESIAN_POINT('',(0.201999999999999,-1.76349139077219E-16,2.88));
#974=AXIS2_PLACEMENT_3D('',#975,#976,#977);
#975=CARTESIAN_POINT('',(0.201999999999999,0.,0.));
#976=DIRECTION('',(-1.,0.,0.));
#977=DIRECTION('',(0.,-6.12323399573677E-17,1.));
#978=CARTESIAN_POINT('',(0.399999999999999,-1.76349139077219E-16,2.88));
#979=AXIS2_PLACEMENT_3D('',#980,#981,#982);
#980=CARTESIAN_POINT('',(0.399999999999999,0.,0.));
#981=DIRECTION('',(-1.,0.,0.));
#982=DIRECTION('',(0.,-6.12323399573677E-17,1.));
#983=CARTESIAN_POINT('',(0.39999999999998,-1.65321098097268E-16,2.69989842315957));
#984=AXIS2_PLACEMENT_3D('',#985,#986,#987);
#985=CARTESIAN_POINT('',(0.399999999999999,0.,0.));
#986=DIRECTION('',(-1.,0.,0.));
#987=DIRECTION('',(0.,-6.12323399573677E-17,1.));
#988=CARTESIAN_POINT('',(0.697631832510297,-1.5308084989343E-16,2.50000000000017));
#989=AXIS2_PLACEMENT_3D('',#990,#991,#992);
#990=CARTESIAN_POINT('',(0.69763183251029,0.,0.));
#991=DIRECTION('',(-1.,0.,0.));
#992=DIRECTION('',(0.,-6.12323399573677E-17,1.));
#993=CARTESIAN_POINT('',(5.9,-1.53080849893419E-16,2.5));
#994=AXIS2_PLACEMENT_3D('',#995,#996,#997);
#995=CARTESIAN_POINT('',(5.9,0.,0.));
#996=DIRECTION('',(-1.,0.,0.));
#997=DIRECTION('',(0.,-6.12323399573677E-17,1.));
#998=CARTESIAN_POINT('',(6.5,-1.16341445918999E-16,1.9));
#999=AXIS2_PLACEMENT_3D('',#1000,#1001,#1002);
#1000=CARTESIAN_POINT('',(6.5,0.,0.));
#1001=DIRECTION('',(-1.,0.,0.));
#1002=DIRECTION('',(0.,-6.12323399573676E-17,1.));
#1003=CARTESIAN_POINT('',(-5.67350497417901E-16,2.38140547564218,-3.08851225682873));
#1004=CARTESIAN_POINT('',(-4.37457088982577E-16,3.08851225682873,-2.38140547564219));
#1005=AXIS2_PLACEMENT_3D('',#1006,#1007,#1008);
#1006=CARTESIAN_POINT('',(2.32496913559418E-30,-1.28785870856518E-14,1.26565424807268E-14));
#1007=DIRECTION('',(1.,0.,-1.83697019872103E-16));
#1008=DIRECTION('',(-1.45474486517411E-16,0.610616788626203,-0.791926219699678));
#1009=CARTESIAN_POINT('',(0.2,3.08851225682873,-2.38140547564219));
#1010=CARTESIAN_POINT('',(-4.37457088982577E-16,3.08851225682873,-2.38140547564219));
#1011=VECTOR('',#1012,1.);
#1012=DIRECTION('',(1.,0.,0.));
#1013=CARTESIAN_POINT('',(0.199999999999999,2.38140547564218,-3.08851225682873));
#1014=AXIS2_PLACEMENT_3D('',#1015,#1016,#1017);
#1015=CARTESIAN_POINT('',(0.2,-1.28785870856518E-14,1.26198030767524E-14));
#1016=DIRECTION('',(1.,0.,-1.83697019872103E-16));
#1017=DIRECTION('',(-1.45474486517411E-16,0.610616788626203,-0.791926219699678));
#1018=CARTESIAN_POINT('',(-5.67350497417901E-16,2.38140547564218,-3.08851225682873));
#1019=VECTOR('',#1020,1.);
#1020=DIRECTION('',(1.,0.,0.));
#1021=CARTESIAN_POINT('',(-3.06103087654477E-16,2.37345437826568,-1.66634759707913));
#1022=CARTESIAN_POINT('',(-4.37457088982577E-16,3.08851225682873,-2.38140547564219));
#1023=VECTOR('',#1024,1.);
#1024=DIRECTION('',(1.29893408435324E-16,-0.707106781186548,0.707106781186547));
#1025=CARTESIAN_POINT('',(0.2,2.37345437826568,-1.66634759707913));
#1026=CARTESIAN_POINT('',(-3.06103087654477E-16,2.37345437826568,-1.66634759707913));
#1027=VECTOR('',#1028,1.);
#1028=DIRECTION('',(1.,0.,-1.11022302462516E-15));
#1029=CARTESIAN_POINT('',(0.2,3.08851225682873,-2.38140547564219));
#1030=VECTOR('',#1031,1.);
#1031=DIRECTION('',(1.64681682324684E-16,-0.707106781186548,0.707106781186547));
#1032=CARTESIAN_POINT('',(-4.359964960898E-16,1.66634759707913,-2.37345437826568));
#1033=AXIS2_PLACEMENT_3D('',#1034,#1035,#1036);
#1034=CARTESIAN_POINT('',(0.,0.,0.));
#1035=DIRECTION('',(-1.,0.,1.83697019872103E-16));
#1036=DIRECTION('',(-1.05552788846372E-16,0.818432544229547,-0.574602619682463));
#1037=CARTESIAN_POINT('',(0.2,1.66634759707913,-2.37345437826568));
#1038=CARTESIAN_POINT('',(-4.359964960898E-16,1.66634759707913,-2.37345437826568));
#1039=VECTOR('',#1040,1.);
#1040=DIRECTION('',(1.,0.,0.));
#1041=AXIS2_PLACEMENT_3D('',#1042,#1043,#1044);
#1042=CARTESIAN_POINT('',(0.2,0.,-3.67394039744206E-17));
#1043=DIRECTION('',(-1.,0.,1.83697019872103E-16));
#1044=DIRECTION('',(-1.05552788846372E-16,0.818432544229547,-0.574602619682463));
#1045=CARTESIAN_POINT('',(-4.359964960898E-16,1.66634759707913,-2.37345437826568));
#1046=VECTOR('',#1047,1.);
#1047=DIRECTION('',(-1.29893408435324E-16,0.707106781186547,-0.707106781186548));
#1048=CARTESIAN_POINT('',(0.2,1.66634759707913,-2.37345437826568));
#1049=VECTOR('',#1050,1.);
#1050=DIRECTION('',(-1.09787788216456E-16,0.707106781186547,-0.707106781186548));
#1051=CARTESIAN_POINT('',(2.9,-1.07156594925393E-16,1.75));
#1052=AXIS2_PLACEMENT_3D('',#1053,#1054,#1055);
#1053=CARTESIAN_POINT('',(2.9,0.,0.));
#1054=DIRECTION('',(-1.,0.,0.));
#1055=DIRECTION('',(0.,-6.12323399573677E-17,1.));
#1056=CARTESIAN_POINT('',(2.9,-1.,-6.2456986756515E-16));
#1057=AXIS2_PLACEMENT_3D('',#1058,#1059,#1060);
#1058=CARTESIAN_POINT('',(2.9,-1.25,-6.09261782575808E-16));
#1059=DIRECTION('',(1.,0.,0.));
#1060=DIRECTION('',(0.,1.,6.12323399573677E-17));
#1061=CARTESIAN_POINT('',(2.9,0.25,1.25));
#1062=AXIS2_PLACEMENT_3D('',#1063,#1064,#1065);
#1063=CARTESIAN_POINT('',(2.9,0.,1.25));
#1064=DIRECTION('',(1.,0.,0.));
#1065=DIRECTION('',(0.,1.,6.12323399573677E-17));
#1066=CARTESIAN_POINT('',(2.9,1.5,-4.71489017671731E-16));
#1067=AXIS2_PLACEMENT_3D('',#1068,#1069,#1070);
#1068=CARTESIAN_POINT('',(2.9,1.25,-4.56180932682389E-16));
#1069=DIRECTION('',(1.,0.,0.));
#1070=DIRECTION('',(0.,1.,6.12323399573677E-17));
#1071=CARTESIAN_POINT('',(0.50992723701833,0.25,1.25));
#1072=CARTESIAN_POINT('',(0.540910660189706,-1.83697019872101E-16,0.999999999999991));
#1073=CARTESIAN_POINT('',(0.509927237198205,0.249999999887596,1.24999999829563));
#1074=CARTESIAN_POINT('',(0.511196246258011,0.250003877225904,1.23960071182259));
#1075=CARTESIAN_POINT('',(0.513737392253488,0.248698924996145,1.21880982036845));
#1076=CARTESIAN_POINT('',(0.517501434613158,0.242889707492722,1.18811273818392));
#1077=CARTESIAN_POINT('',(0.521570130722988,0.232228485973206,1.15504593356787));
#1078=CARTESIAN_POINT('',(0.526198315267652,0.213789039495084,1.11759125592369));
#1079=CARTESIAN_POINT('',(0.531279801943841,0.183043354062611,1.07670026433834));
#1080=CARTESIAN_POINT('',(0.535713899089984,0.141295084702083,1.0412530245027));
#1081=CARTESIAN_POINT('',(0.538669836230322,0.0963262059597802,1.01775157577839));
#1082=CARTESIAN_POINT('',(0.54018376874956,0.0571139714299645,1.00575274474864));
#1083=CARTESIAN_POINT('',(0.540801714790074,0.0259812296457753,1.00086167005524));
#1084=CARTESIAN_POINT('',(0.540911064875378,0.00794310260233738,0.999997130280856));
#1085=CARTESIAN_POINT('',(0.540910660189705,2.5452821529158E-13,0.999999999999995));
#1086=CARTESIAN_POINT('',(0.479726759029788,-2.75545529679977E-16,1.49999999930223));
#1087=CARTESIAN_POINT('',(0.479726762965591,9.42718587315554E-10,1.49999999965112));
#1088=CARTESIAN_POINT('',(0.479724727618354,0.0132963313221441,1.50001764549339));
#1089=CARTESIAN_POINT('',(0.480007742486116,0.0425340595560139,1.4976535016023));
#1090=CARTESIAN_POINT('',(0.481460035626881,0.0890462870375016,1.48553223991182));
#1091=CARTESIAN_POINT('',(0.484433684438053,0.138771013776515,1.46073707724432));
#1092=CARTESIAN_POINT('',(0.489092271693027,0.184979103684267,1.42196847751904));
#1093=CARTESIAN_POINT('',(0.494861581533356,0.219517744933041,1.37410329417009));
#1094=CARTESIAN_POINT('',(0.500673807996914,0.239696666248385,1.32606351308739));
#1095=CARTESIAN_POINT('',(0.50565606018523,0.248442960955175,1.28503806154702));
#1096=CARTESIAN_POINT('',(0.508638327669357,0.250007221950107,1.26056145741223));
#1097=CARTESIAN_POINT('',(0.509927236989725,0.249999999887596,1.2500000000062));
#1098=CARTESIAN_POINT('',(0.479726759004247,-4.51665879658345E-16,1.49999999965112));
#1099=CARTESIAN_POINT('',(0.479726304215682,-0.0103815394270378,1.5000039965912));
#1100=CARTESIAN_POINT('',(0.479882075149864,-0.0311340876144373,1.49870310654257));
#1101=CARTESIAN_POINT('',(0.480575015613812,-0.061758896677248,1.49291885271933));
#1102=CARTESIAN_POINT('',(0.481846232463286,-0.0947334748441531,1.48231200310459));
#1103=CARTESIAN_POINT('',(0.484044094644969,-0.13206257173249,1.46398710612808));
#1104=CARTESIAN_POINT('',(0.487787986743629,-0.173688269819566,1.43281638417031));
#1105=CARTESIAN_POINT('',(0.493204574700953,-0.211626138806854,1.38783080787511));
#1106=CARTESIAN_POINT('',(0.499794827219194,-0.238215368833324,1.33330256179117));
#1107=CARTESIAN_POINT('',(0.505529490335025,-0.248594038389293,1.28607129832395));
#1108=CARTESIAN_POINT('',(0.509656039098164,-0.250320443124721,1.25221451884862));
#1109=CARTESIAN_POINT('',(0.5127559809932,-0.249363351806928,1.22683550553823));
#1110=CARTESIAN_POINT('',(0.516015595274308,-0.24564020114689,1.20021823875824));
#1111=CARTESIAN_POINT('',(0.520062441121476,-0.236801533323504,1.16728296805381));
#1112=CARTESIAN_POINT('',(0.524718333074774,-0.220716111029897,1.12954345283131));
#1113=CARTESIAN_POINT('',(0.529836106476693,-0.193187187412052,1.08829097554401));
#1114=CARTESIAN_POINT('',(0.534437706763486,-0.154973913457915,1.0514361537558));
#1115=CARTESIAN_POINT('',(0.537713576860488,-0.112911813300951,1.02534574293746));
#1116=CARTESIAN_POINT('',(0.539553105366915,-0.0753098523780969,1.01074936705834));
#1117=CARTESIAN_POINT('',(0.540399117331729,-0.0467758647975369,1.00404840120568));
#1118=CARTESIAN_POINT('',(0.540739134407179,-0.0274659128506791,1.00135719743817));
#1119=CARTESIAN_POINT('',(0.540881980008299,-0.0129659035838904,1.00022689257597));
#1120=CARTESIAN_POINT('',(0.540910696537911,-0.00442607723920691,0.999999737788491));
#1121=CARTESIAN_POINT('',(0.540910660332762,-2.79411237345275E-16,0.999999999999995));
#1122=CARTESIAN_POINT('',(0.400000000000001,-3.64487456952851E-16,1.98417730024484));
#1123=AXIS2_PLACEMENT_3D('',#1124,#1125,#1126);
#1124=CARTESIAN_POINT('',(0.400000000000001,0.,0.));
#1125=DIRECTION('',(-1.,0.,0.));
#1126=DIRECTION('',(0.,-6.12323399573676E-17,1.));
#1127=CARTESIAN_POINT('',(0.540910660201977,-1.,-1.91212186232206E-16));
#1128=CARTESIAN_POINT('',(0.540910660195913,-0.999999999999386,8.19585107246501E-10));
#1129=CARTESIAN_POINT('',(0.540910627836071,-1.00000024865207,-0.00898076482984096));
#1130=CARTESIAN_POINT('',(0.54077823576759,-1.00104757513085,-0.0284054668075458));
#1131=CARTESIAN_POINT('',(0.540096953847206,-1.00644016824431,-0.0597376748676806));
#1132=CARTESIAN_POINT('',(0.538669588760102,-1.01775541161669,-0.0954434643182888));
#1133=CARTESIAN_POINT('',(0.536148050480706,-1.03780106094712,-0.135063491488087));
#1134=CARTESIAN_POINT('',(0.532259215256909,-1.06885588599549,-0.175084797672426));
#1135=CARTESIAN_POINT('',(0.527324842601027,-1.10850051427587,-0.208218138727479));
#1136=CARTESIAN_POINT('',(0.522331965898743,-1.14886429496229,-0.22984987871098));
#1137=CARTESIAN_POINT('',(0.518145140001639,-1.18287447498505,-0.241464783069502));
#1138=CARTESIAN_POINT('',(0.514661780528244,-1.21126656194387,-0.247440852607402));
#1139=CARTESIAN_POINT('',(0.51202573344996,-1.23281200626098,-0.24967034421751));
#1140=CARTESIAN_POINT('',(0.509408342672018,-1.25424678778574,-0.250216272054382));
#1141=CARTESIAN_POINT('',(0.505815237226463,-1.28372685133303,-0.248714323110914));
#1142=CARTESIAN_POINT('',(0.50031497383033,-1.32901232539192,-0.239427004317143));
#1143=CARTESIAN_POINT('',(0.493855174593167,-1.38243684450527,-0.215097063553625));
#1144=CARTESIAN_POINT('',(0.487961299742394,-1.4313708366112,-0.175812876477717));
#1145=CARTESIAN_POINT('',(0.483429039091793,-1.46910816222428,-0.12568539486302));
#1146=CARTESIAN_POINT('',(0.480525928790806,-1.49332669178372,-0.0678047993725858));
#1147=CARTESIAN_POINT('',(0.479757540756188,-1.4997430106596,-0.0245329631033163));
#1148=CARTESIAN_POINT('',(0.479701121068862,-1.50021405007053,0.0169499787411306));
#1149=CARTESIAN_POINT('',(0.480264840172905,-1.49550681438157,0.0584185266889499));
#1150=CARTESIAN_POINT('',(0.482763356947671,-1.47465840945972,0.115442856049163));
#1151=CARTESIAN_POINT('',(0.486918604936059,-1.44004551892056,0.166154214019822));
#1152=CARTESIAN_POINT('',(0.492209781075571,-1.396085772815,0.205545554561898));
#1153=CARTESIAN_POINT('',(0.498059154494987,-1.34765002354502,0.232191084644305));
#1154=CARTESIAN_POINT('',(0.503842458200545,-1.29994708400428,0.246451067311292));
#1155=CARTESIAN_POINT('',(0.507817025702679,-1.26729564338087,0.249850482093903));
#1156=CARTESIAN_POINT('',(0.510910152194734,-1.2419433219516,0.250091825985711));
#1157=CARTESIAN_POINT('',(0.513340146870216,-1.22205896105945,0.248940011314064));
#1158=CARTESIAN_POINT('',(0.51660473340208,-1.19542147634703,0.244432537352027));
#1159=CARTESIAN_POINT('',(0.520077741653012,-1.16716382268737,0.236560432622076));
#1160=CARTESIAN_POINT('',(0.524255516384885,-1.13329212546845,0.22241904599661));
#1161=CARTESIAN_POINT('',(0.529180197641922,-1.09356425939489,0.197351051980321));
#1162=CARTESIAN_POINT('',(0.53387851910089,-1.05590113459347,0.160685614829871));
#1163=CARTESIAN_POINT('',(0.537352484522319,-1.02821604075087,0.118542259989336));
#1164=CARTESIAN_POINT('',(0.539394714118865,-1.01200438849291,0.079506260838299));
#1165=CARTESIAN_POINT('',(0.540407324982084,-1.00398311354079,0.0474473794526064));
#1166=CARTESIAN_POINT('',(0.540833632787788,-1.00060937505422,0.0217681082205428));
#1167=CARTESIAN_POINT('',(0.540910684598766,-0.999999812488117,0.00677247847732875));
#1168=CARTESIAN_POINT('',(0.540910660195913,-0.999999999999386,8.19585107246501E-10));
#1169=CARTESIAN_POINT('',(0.479726758956904,1.5,-2.68920360159181E-17));
#1170=CARTESIAN_POINT('',(0.47972675894182,1.49999999999807,2.27098236570134E-9));
#1171=CARTESIAN_POINT('',(0.479726752848313,1.50000006213513,-0.015817867264038));
#1172=CARTESIAN_POINT('',(0.480104261415208,1.49684784644729,-0.0489267053375386));
#1173=CARTESIAN_POINT('',(0.481925387709051,1.48164931973156,-0.0992083219180701));
#1174=CARTESIAN_POINT('',(0.485278678190352,1.45369819549679,-0.148934736606038));
#1175=CARTESIAN_POINT('',(0.490133354622445,1.41332011115417,-0.192414827863729));
#1176=CARTESIAN_POINT('',(0.496011132216964,1.36458593464032,-0.224611555494915));
#1177=CARTESIAN_POINT('',(0.502116228648948,1.31416241980306,-0.243426486946028));
#1178=CARTESIAN_POINT('',(0.506808701295787,1.27556948515852,-0.24939039680377));
#1179=CARTESIAN_POINT('',(0.510250186539562,1.24734816709744,-0.250223631890478));
#1180=CARTESIAN_POINT('',(0.512925999155324,1.22544561892732,-0.249227785600313));
#1181=CARTESIAN_POINT('',(0.516184922947407,1.19883992572916,-0.24527981265746));
#1182=CARTESIAN_POINT('',(0.520077380020579,1.16716182459782,-0.236751970066755));
#1183=CARTESIAN_POINT('',(0.524721810887983,1.12951541859208,-0.220697527823048));
#1184=CARTESIAN_POINT('',(0.52983608906977,1.08829111560112,-0.193187201866355));
#1185=CARTESIAN_POINT('',(0.534437704177084,1.0514361762634,-0.154974120841897));
#1186=CARTESIAN_POINT('',(0.537713586272104,1.02534566098922,-0.11291122662));
#1187=CARTESIAN_POINT('',(0.539653991560838,1.00994887075375,-0.0732488094940684));
#1188=CARTESIAN_POINT('',(0.540634356310514,1.00218587282541,-0.0381114072016683));
#1189=CARTESIAN_POINT('',(0.540892798855633,1.00014132018769,-0.0142415073809772));
#1190=CARTESIAN_POINT('',(0.540922988827518,0.999902458544387,0.00659829593903838));
#1191=CARTESIAN_POINT('',(0.540788416263874,1.00096706252167,0.0274366044638332));
#1192=CARTESIAN_POINT('',(0.540155786577004,1.00597430613106,0.0575788893636919));
#1193=CARTESIAN_POINT('',(0.538830745189024,1.01647722986196,0.0919542430035072));
#1194=CARTESIAN_POINT('',(0.536487035516945,1.03510245482167,0.130595242800343));
#1195=CARTESIAN_POINT('',(0.532771629517698,1.06475371320237,0.170736299564345));
#1196=CARTESIAN_POINT('',(0.527661379270961,1.10578225666114,0.206718244661962));
#1197=CARTESIAN_POINT('',(0.522041887915243,1.15120069547938,0.231436621996219));
#1198=CARTESIAN_POINT('',(0.516784378820979,1.19394239647309,0.244688152896598));
#1199=CARTESIAN_POINT('',(0.512860904662414,1.22597637610682,0.249336060855602));
#1200=CARTESIAN_POINT('',(0.509888460342739,1.2503118408787,0.250243062931256));
#1201=CARTESIAN_POINT('',(0.506297343243782,1.27976707152269,0.249090764699023));
#1202=CARTESIAN_POINT('',(0.501148004457059,1.32214152505222,0.241444137926971));
#1203=CARTESIAN_POINT('',(0.49499318025917,1.37301427622379,0.220144717622374));
#1204=CARTESIAN_POINT('',(0.489543267953017,1.41822694043313,0.187533978703394));
#1205=CARTESIAN_POINT('',(0.485220829058042,1.45418227993112,0.147445664531271));
#1206=CARTESIAN_POINT('',(0.482068961720609,1.48045180712694,0.101621849874732));
#1207=CARTESIAN_POINT('',(0.480151508274676,1.49645325831262,0.0515721191095318));
#1208=CARTESIAN_POINT('',(0.479726765519261,1.49999993292623,0.0170740921644418));
#1209=CARTESIAN_POINT('',(0.47972675894182,1.49999999999807,2.27098236570134E-9));
#1210=CARTESIAN_POINT('',(-5.,1.5,9.79717439317883E-16));
#1211=AXIS2_PLACEMENT_3D('',#1212,#1213,#1214);
#1212=CARTESIAN_POINT('',(-5.,1.25,9.95025524307225E-16));
#1213=DIRECTION('',(1.,0.,-1.83697019872103E-16));
#1214=DIRECTION('',(1.12481983699639E-32,1.,6.12323399573677E-17));
#1215=CARTESIAN_POINT('',(3.,1.5,-4.89858719658941E-16));
#1216=AXIS2_PLACEMENT_3D('',#1217,#1218,#1219);
#1217=CARTESIAN_POINT('',(3.,1.25,-4.74550634669599E-16));
#1218=DIRECTION('',(1.,0.,-1.83697019872103E-16));
#1219=DIRECTION('',(1.12481983699639E-32,1.,6.12323399573677E-17));
#1220=CARTESIAN_POINT('',(-5.,0.25,1.25));
#1221=AXIS2_PLACEMENT_3D('',#1222,#1223,#1224);
#1222=CARTESIAN_POINT('',(-5.,0.,1.25));
#1223=DIRECTION('',(1.,0.,-1.83697019872103E-16));
#1224=DIRECTION('',(1.12481983699639E-32,1.,6.12323399573677E-17));
#1225=CARTESIAN_POINT('',(3.,0.25,1.25));
#1226=AXIS2_PLACEMENT_3D('',#1227,#1228,#1229);
#1227=CARTESIAN_POINT('',(3.,0.,1.25));
#1228=DIRECTION('',(1.,0.,-1.83697019872103E-16));
#1229=DIRECTION('',(1.12481983699639E-32,1.,6.12323399573677E-17));
#1230=CARTESIAN_POINT('',(-5.,-1.,8.26636589424463E-16));
#1231=AXIS2_PLACEMENT_3D('',#1232,#1233,#1234);
#1232=CARTESIAN_POINT('',(-5.,-1.25,8.41944674413805E-16));
#1233=DIRECTION('',(1.,0.,-1.83697019872103E-16));
#1234=DIRECTION('',(1.12481983699639E-32,1.,6.12323399573677E-17));
#1235=CARTESIAN_POINT('',(3.,-1.,-6.42939569552361E-16));
#1236=AXIS2_PLACEMENT_3D('',#1237,#1238,#1239);
#1237=CARTESIAN_POINT('',(3.,-1.25,-6.27631484563019E-16));
#1238=DIRECTION('',(1.,0.,-1.83697019872103E-16));
#1239=DIRECTION('',(1.12481983699639E-32,1.,6.12323399573677E-17));
#1240=CARTESIAN_POINT('',(2.5,-1.3164953090834E-16,2.15));
#1241=AXIS2_PLACEMENT_3D('',#1242,#1243,#1244);
#1242=CARTESIAN_POINT('',(2.5,0.,0.));
#1243=DIRECTION('',(-1.,0.,0.));
#1244=DIRECTION('',(0.,-6.12323399573677E-17,1.));
#1245=CARTESIAN_POINT('',(-8.4117094861807E-17,-1.53080849893419E-16,2.5));
#1246=AXIS2_PLACEMENT_3D('',#1247,#1248,#1249);
#1247=CARTESIAN_POINT('',(-4.44089209850063E-16,0.,0.));
#1248=DIRECTION('',(-1.,0.,0.));
#1249=DIRECTION('',(0.,-6.12323399573677E-17,1.));
#1250=CARTESIAN_POINT('',(0.6,-1.31649530908341E-16,2.15));
#1251=AXIS2_PLACEMENT_3D('',#1252,#1253,#1254);
#1252=CARTESIAN_POINT('',(0.599999999999999,0.,0.));
#1253=DIRECTION('',(-1.,0.,0.));
#1254=DIRECTION('',(0.,-6.12323399573677E-17,1.));
#1255=CARTESIAN_POINT('',(-0.000587301846857845,-1.77573785876366E-16,2.9));
#1256=AXIS2_PLACEMENT_3D('',#1257,#1258,#1259);
#1257=CARTESIAN_POINT('',(-0.000587301846858068,0.,0.));
#1258=DIRECTION('',(-1.,0.,0.));
#1259=DIRECTION('',(0.,-6.12323399573677E-17,1.));
#1260=CARTESIAN_POINT('',(0.199999963121508,-1.53080849893419E-16,2.5));
#1261=AXIS2_PLACEMENT_3D('',#1262,#1263,#1264);
#1262=CARTESIAN_POINT('',(0.199999963121508,0.,0.));
#1263=DIRECTION('',(-1.,0.,0.));
#1264=DIRECTION('',(0.,-6.12323399573677E-17,1.));
#1265=CARTESIAN_POINT('',(0.199999963121507,-1.77573785876366E-16,2.9));
#1266=AXIS2_PLACEMENT_3D('',#1267,#1268,#1269);
#1267=CARTESIAN_POINT('',(0.199999963121508,0.,0.));
#1268=DIRECTION('',(-1.,0.,0.));
#1269=DIRECTION('',(0.,-6.12323399573677E-17,1.));
ENDSEC;
END-ISO-10303-21;
